G04 #@! TF.GenerationSoftware,KiCad,Pcbnew,5.0.2-bee76a0~70~ubuntu18.04.1*
G04 #@! TF.CreationDate,2019-03-13T17:32:59-07:00*
G04 #@! TF.ProjectId,shellbell,7368656c-6c62-4656-9c6c-2e6b69636164,rev?*
G04 #@! TF.SameCoordinates,Original*
G04 #@! TF.FileFunction,Legend,Top*
G04 #@! TF.FilePolarity,Positive*
%FSLAX46Y46*%
G04 Gerber Fmt 4.6, Leading zero omitted, Abs format (unit mm)*
G04 Created by KiCad (PCBNEW 5.0.2-bee76a0~70~ubuntu18.04.1) date Wed 13 Mar 2019 05:32:59 PM PDT*
%MOMM*%
%LPD*%
G01*
G04 APERTURE LIST*
%ADD10C,0.300000*%
%ADD11C,0.120000*%
%ADD12C,0.150000*%
G04 APERTURE END LIST*
D10*
X162928571Y-83178571D02*
X164000000Y-83178571D01*
X163357142Y-82535714D02*
X162928571Y-84464285D01*
X163857142Y-83821428D02*
X162785714Y-83821428D01*
X163428571Y-84464285D02*
X163857142Y-82535714D01*
X164500000Y-84178571D02*
X164500000Y-82678571D01*
X164500000Y-83250000D02*
X164642857Y-83178571D01*
X164928571Y-83178571D01*
X165071428Y-83250000D01*
X165142857Y-83321428D01*
X165214285Y-83464285D01*
X165214285Y-83892857D01*
X165142857Y-84035714D01*
X165071428Y-84107142D01*
X164928571Y-84178571D01*
X164642857Y-84178571D01*
X164500000Y-84107142D01*
X166428571Y-84107142D02*
X166285714Y-84178571D01*
X166000000Y-84178571D01*
X165857142Y-84107142D01*
X165785714Y-83964285D01*
X165785714Y-83392857D01*
X165857142Y-83250000D01*
X166000000Y-83178571D01*
X166285714Y-83178571D01*
X166428571Y-83250000D01*
X166500000Y-83392857D01*
X166500000Y-83535714D01*
X165785714Y-83678571D01*
X167357142Y-84178571D02*
X167214285Y-84107142D01*
X167142857Y-83964285D01*
X167142857Y-82678571D01*
X168142857Y-84178571D02*
X168000000Y-84107142D01*
X167928571Y-83964285D01*
X167928571Y-82678571D01*
D11*
G04 #@! TO.C,D1*
X145450000Y-76400000D02*
X145450000Y-73460000D01*
X145210000Y-76400000D02*
X145210000Y-73460000D01*
X145330000Y-76400000D02*
X145330000Y-73460000D01*
X140790000Y-73460000D02*
X140790000Y-73590000D01*
X146230000Y-73460000D02*
X140790000Y-73460000D01*
X146230000Y-73590000D02*
X146230000Y-73460000D01*
X140790000Y-76400000D02*
X140790000Y-76270000D01*
X146230000Y-76400000D02*
X140790000Y-76400000D01*
X146230000Y-76270000D02*
X146230000Y-76400000D01*
G04 #@! TO.C,U1*
X158460000Y-70250000D02*
X164470000Y-70250000D01*
X160710000Y-77070000D02*
X164470000Y-77070000D01*
X164470000Y-70250000D02*
X164470000Y-71510000D01*
X164470000Y-77070000D02*
X164470000Y-75810000D01*
G04 #@! TO.C,J1*
X152430000Y-84090000D02*
X152430000Y-86090000D01*
X139020000Y-79980000D02*
X142080000Y-79980000D01*
X139020000Y-90200000D02*
X139020000Y-79980000D01*
X142080000Y-90200000D02*
X139020000Y-90200000D01*
X152240000Y-90200000D02*
X146180000Y-90200000D01*
X152240000Y-87390000D02*
X152240000Y-90200000D01*
X152240000Y-79980000D02*
X152240000Y-82790000D01*
X146180000Y-79980000D02*
X152240000Y-79980000D01*
G04 #@! TO.C,C2*
X151945000Y-75214775D02*
X152445000Y-75214775D01*
X152195000Y-75464775D02*
X152195000Y-74964775D01*
X153386000Y-70059000D02*
X153954000Y-70059000D01*
X153152000Y-70099000D02*
X154188000Y-70099000D01*
X152993000Y-70139000D02*
X154347000Y-70139000D01*
X152865000Y-70179000D02*
X154475000Y-70179000D01*
X152755000Y-70219000D02*
X154585000Y-70219000D01*
X152659000Y-70259000D02*
X154681000Y-70259000D01*
X152572000Y-70299000D02*
X154768000Y-70299000D01*
X152492000Y-70339000D02*
X154848000Y-70339000D01*
X152419000Y-70379000D02*
X154921000Y-70379000D01*
X152351000Y-70419000D02*
X154989000Y-70419000D01*
X152287000Y-70459000D02*
X155053000Y-70459000D01*
X152227000Y-70499000D02*
X155113000Y-70499000D01*
X152170000Y-70539000D02*
X155170000Y-70539000D01*
X152116000Y-70579000D02*
X155224000Y-70579000D01*
X152065000Y-70619000D02*
X155275000Y-70619000D01*
X154710000Y-70659000D02*
X155323000Y-70659000D01*
X152017000Y-70659000D02*
X152630000Y-70659000D01*
X154710000Y-70699000D02*
X155369000Y-70699000D01*
X151971000Y-70699000D02*
X152630000Y-70699000D01*
X154710000Y-70739000D02*
X155413000Y-70739000D01*
X151927000Y-70739000D02*
X152630000Y-70739000D01*
X154710000Y-70779000D02*
X155455000Y-70779000D01*
X151885000Y-70779000D02*
X152630000Y-70779000D01*
X154710000Y-70819000D02*
X155496000Y-70819000D01*
X151844000Y-70819000D02*
X152630000Y-70819000D01*
X154710000Y-70859000D02*
X155534000Y-70859000D01*
X151806000Y-70859000D02*
X152630000Y-70859000D01*
X154710000Y-70899000D02*
X155571000Y-70899000D01*
X151769000Y-70899000D02*
X152630000Y-70899000D01*
X154710000Y-70939000D02*
X155607000Y-70939000D01*
X151733000Y-70939000D02*
X152630000Y-70939000D01*
X154710000Y-70979000D02*
X155641000Y-70979000D01*
X151699000Y-70979000D02*
X152630000Y-70979000D01*
X154710000Y-71019000D02*
X155674000Y-71019000D01*
X151666000Y-71019000D02*
X152630000Y-71019000D01*
X154710000Y-71059000D02*
X155705000Y-71059000D01*
X151635000Y-71059000D02*
X152630000Y-71059000D01*
X154710000Y-71099000D02*
X155735000Y-71099000D01*
X151605000Y-71099000D02*
X152630000Y-71099000D01*
X154710000Y-71139000D02*
X155765000Y-71139000D01*
X151575000Y-71139000D02*
X152630000Y-71139000D01*
X154710000Y-71179000D02*
X155792000Y-71179000D01*
X151548000Y-71179000D02*
X152630000Y-71179000D01*
X154710000Y-71219000D02*
X155819000Y-71219000D01*
X151521000Y-71219000D02*
X152630000Y-71219000D01*
X154710000Y-71259000D02*
X155845000Y-71259000D01*
X151495000Y-71259000D02*
X152630000Y-71259000D01*
X154710000Y-71299000D02*
X155870000Y-71299000D01*
X151470000Y-71299000D02*
X152630000Y-71299000D01*
X154710000Y-71339000D02*
X155894000Y-71339000D01*
X151446000Y-71339000D02*
X152630000Y-71339000D01*
X154710000Y-71379000D02*
X155917000Y-71379000D01*
X151423000Y-71379000D02*
X152630000Y-71379000D01*
X154710000Y-71419000D02*
X155938000Y-71419000D01*
X151402000Y-71419000D02*
X152630000Y-71419000D01*
X154710000Y-71459000D02*
X155960000Y-71459000D01*
X151380000Y-71459000D02*
X152630000Y-71459000D01*
X154710000Y-71499000D02*
X155980000Y-71499000D01*
X151360000Y-71499000D02*
X152630000Y-71499000D01*
X154710000Y-71539000D02*
X155999000Y-71539000D01*
X151341000Y-71539000D02*
X152630000Y-71539000D01*
X154710000Y-71579000D02*
X156018000Y-71579000D01*
X151322000Y-71579000D02*
X152630000Y-71579000D01*
X154710000Y-71619000D02*
X156035000Y-71619000D01*
X151305000Y-71619000D02*
X152630000Y-71619000D01*
X154710000Y-71659000D02*
X156052000Y-71659000D01*
X151288000Y-71659000D02*
X152630000Y-71659000D01*
X154710000Y-71699000D02*
X156068000Y-71699000D01*
X151272000Y-71699000D02*
X152630000Y-71699000D01*
X154710000Y-71739000D02*
X156084000Y-71739000D01*
X151256000Y-71739000D02*
X152630000Y-71739000D01*
X154710000Y-71779000D02*
X156098000Y-71779000D01*
X151242000Y-71779000D02*
X152630000Y-71779000D01*
X154710000Y-71819000D02*
X156112000Y-71819000D01*
X151228000Y-71819000D02*
X152630000Y-71819000D01*
X154710000Y-71859000D02*
X156125000Y-71859000D01*
X151215000Y-71859000D02*
X152630000Y-71859000D01*
X154710000Y-71899000D02*
X156138000Y-71899000D01*
X151202000Y-71899000D02*
X152630000Y-71899000D01*
X154710000Y-71939000D02*
X156150000Y-71939000D01*
X151190000Y-71939000D02*
X152630000Y-71939000D01*
X154710000Y-71980000D02*
X156161000Y-71980000D01*
X151179000Y-71980000D02*
X152630000Y-71980000D01*
X154710000Y-72020000D02*
X156171000Y-72020000D01*
X151169000Y-72020000D02*
X152630000Y-72020000D01*
X154710000Y-72060000D02*
X156181000Y-72060000D01*
X151159000Y-72060000D02*
X152630000Y-72060000D01*
X154710000Y-72100000D02*
X156190000Y-72100000D01*
X151150000Y-72100000D02*
X152630000Y-72100000D01*
X154710000Y-72140000D02*
X156198000Y-72140000D01*
X151142000Y-72140000D02*
X152630000Y-72140000D01*
X154710000Y-72180000D02*
X156206000Y-72180000D01*
X151134000Y-72180000D02*
X152630000Y-72180000D01*
X154710000Y-72220000D02*
X156213000Y-72220000D01*
X151127000Y-72220000D02*
X152630000Y-72220000D01*
X154710000Y-72260000D02*
X156220000Y-72260000D01*
X151120000Y-72260000D02*
X152630000Y-72260000D01*
X154710000Y-72300000D02*
X156226000Y-72300000D01*
X151114000Y-72300000D02*
X152630000Y-72300000D01*
X154710000Y-72340000D02*
X156231000Y-72340000D01*
X151109000Y-72340000D02*
X152630000Y-72340000D01*
X154710000Y-72380000D02*
X156235000Y-72380000D01*
X151105000Y-72380000D02*
X152630000Y-72380000D01*
X154710000Y-72420000D02*
X156239000Y-72420000D01*
X151101000Y-72420000D02*
X152630000Y-72420000D01*
X154710000Y-72460000D02*
X156243000Y-72460000D01*
X151097000Y-72460000D02*
X152630000Y-72460000D01*
X154710000Y-72500000D02*
X156246000Y-72500000D01*
X151094000Y-72500000D02*
X152630000Y-72500000D01*
X154710000Y-72540000D02*
X156248000Y-72540000D01*
X151092000Y-72540000D02*
X152630000Y-72540000D01*
X154710000Y-72580000D02*
X156249000Y-72580000D01*
X151091000Y-72580000D02*
X152630000Y-72580000D01*
X151090000Y-72620000D02*
X152630000Y-72620000D01*
X154710000Y-72620000D02*
X156250000Y-72620000D01*
X151090000Y-72660000D02*
X152630000Y-72660000D01*
X154710000Y-72660000D02*
X156250000Y-72660000D01*
X156290000Y-72660000D02*
G75*
G03X156290000Y-72660000I-2620000J0D01*
G01*
G04 #@! TO.C,C1*
X155544759Y-82936000D02*
X155544759Y-83566000D01*
X155229759Y-83251000D02*
X155859759Y-83251000D01*
X161971000Y-84688000D02*
X161971000Y-85492000D01*
X161931000Y-84457000D02*
X161931000Y-85723000D01*
X161891000Y-84288000D02*
X161891000Y-85892000D01*
X161851000Y-84150000D02*
X161851000Y-86030000D01*
X161811000Y-84031000D02*
X161811000Y-86149000D01*
X161771000Y-83925000D02*
X161771000Y-86255000D01*
X161731000Y-83828000D02*
X161731000Y-86352000D01*
X161691000Y-83740000D02*
X161691000Y-86440000D01*
X161651000Y-83658000D02*
X161651000Y-86522000D01*
X161611000Y-83581000D02*
X161611000Y-86599000D01*
X161571000Y-83509000D02*
X161571000Y-86671000D01*
X161531000Y-83440000D02*
X161531000Y-86740000D01*
X161491000Y-83376000D02*
X161491000Y-86804000D01*
X161451000Y-83314000D02*
X161451000Y-86866000D01*
X161411000Y-83256000D02*
X161411000Y-86924000D01*
X161371000Y-83200000D02*
X161371000Y-86980000D01*
X161331000Y-83146000D02*
X161331000Y-87034000D01*
X161291000Y-83095000D02*
X161291000Y-87085000D01*
X161251000Y-83046000D02*
X161251000Y-87134000D01*
X161211000Y-82998000D02*
X161211000Y-87182000D01*
X161171000Y-82953000D02*
X161171000Y-87227000D01*
X161131000Y-82908000D02*
X161131000Y-87272000D01*
X161091000Y-82866000D02*
X161091000Y-87314000D01*
X161051000Y-82825000D02*
X161051000Y-87355000D01*
X161011000Y-86130000D02*
X161011000Y-87395000D01*
X161011000Y-82785000D02*
X161011000Y-84050000D01*
X160971000Y-86130000D02*
X160971000Y-87433000D01*
X160971000Y-82747000D02*
X160971000Y-84050000D01*
X160931000Y-86130000D02*
X160931000Y-87470000D01*
X160931000Y-82710000D02*
X160931000Y-84050000D01*
X160891000Y-86130000D02*
X160891000Y-87506000D01*
X160891000Y-82674000D02*
X160891000Y-84050000D01*
X160851000Y-86130000D02*
X160851000Y-87540000D01*
X160851000Y-82640000D02*
X160851000Y-84050000D01*
X160811000Y-86130000D02*
X160811000Y-87574000D01*
X160811000Y-82606000D02*
X160811000Y-84050000D01*
X160771000Y-86130000D02*
X160771000Y-87606000D01*
X160771000Y-82574000D02*
X160771000Y-84050000D01*
X160731000Y-86130000D02*
X160731000Y-87638000D01*
X160731000Y-82542000D02*
X160731000Y-84050000D01*
X160691000Y-86130000D02*
X160691000Y-87668000D01*
X160691000Y-82512000D02*
X160691000Y-84050000D01*
X160651000Y-86130000D02*
X160651000Y-87697000D01*
X160651000Y-82483000D02*
X160651000Y-84050000D01*
X160611000Y-86130000D02*
X160611000Y-87726000D01*
X160611000Y-82454000D02*
X160611000Y-84050000D01*
X160571000Y-86130000D02*
X160571000Y-87754000D01*
X160571000Y-82426000D02*
X160571000Y-84050000D01*
X160531000Y-86130000D02*
X160531000Y-87780000D01*
X160531000Y-82400000D02*
X160531000Y-84050000D01*
X160491000Y-86130000D02*
X160491000Y-87806000D01*
X160491000Y-82374000D02*
X160491000Y-84050000D01*
X160451000Y-86130000D02*
X160451000Y-87832000D01*
X160451000Y-82348000D02*
X160451000Y-84050000D01*
X160411000Y-86130000D02*
X160411000Y-87856000D01*
X160411000Y-82324000D02*
X160411000Y-84050000D01*
X160371000Y-86130000D02*
X160371000Y-87880000D01*
X160371000Y-82300000D02*
X160371000Y-84050000D01*
X160331000Y-86130000D02*
X160331000Y-87902000D01*
X160331000Y-82278000D02*
X160331000Y-84050000D01*
X160291000Y-86130000D02*
X160291000Y-87924000D01*
X160291000Y-82256000D02*
X160291000Y-84050000D01*
X160251000Y-86130000D02*
X160251000Y-87946000D01*
X160251000Y-82234000D02*
X160251000Y-84050000D01*
X160211000Y-86130000D02*
X160211000Y-87966000D01*
X160211000Y-82214000D02*
X160211000Y-84050000D01*
X160171000Y-86130000D02*
X160171000Y-87986000D01*
X160171000Y-82194000D02*
X160171000Y-84050000D01*
X160131000Y-86130000D02*
X160131000Y-88006000D01*
X160131000Y-82174000D02*
X160131000Y-84050000D01*
X160091000Y-86130000D02*
X160091000Y-88024000D01*
X160091000Y-82156000D02*
X160091000Y-84050000D01*
X160051000Y-86130000D02*
X160051000Y-88042000D01*
X160051000Y-82138000D02*
X160051000Y-84050000D01*
X160011000Y-86130000D02*
X160011000Y-88060000D01*
X160011000Y-82120000D02*
X160011000Y-84050000D01*
X159971000Y-86130000D02*
X159971000Y-88076000D01*
X159971000Y-82104000D02*
X159971000Y-84050000D01*
X159931000Y-86130000D02*
X159931000Y-88092000D01*
X159931000Y-82088000D02*
X159931000Y-84050000D01*
X159891000Y-86130000D02*
X159891000Y-88108000D01*
X159891000Y-82072000D02*
X159891000Y-84050000D01*
X159851000Y-86130000D02*
X159851000Y-88123000D01*
X159851000Y-82057000D02*
X159851000Y-84050000D01*
X159811000Y-86130000D02*
X159811000Y-88137000D01*
X159811000Y-82043000D02*
X159811000Y-84050000D01*
X159771000Y-86130000D02*
X159771000Y-88151000D01*
X159771000Y-82029000D02*
X159771000Y-84050000D01*
X159731000Y-86130000D02*
X159731000Y-88164000D01*
X159731000Y-82016000D02*
X159731000Y-84050000D01*
X159691000Y-86130000D02*
X159691000Y-88176000D01*
X159691000Y-82004000D02*
X159691000Y-84050000D01*
X159651000Y-86130000D02*
X159651000Y-88188000D01*
X159651000Y-81992000D02*
X159651000Y-84050000D01*
X159611000Y-86130000D02*
X159611000Y-88200000D01*
X159611000Y-81980000D02*
X159611000Y-84050000D01*
X159571000Y-86130000D02*
X159571000Y-88211000D01*
X159571000Y-81969000D02*
X159571000Y-84050000D01*
X159531000Y-86130000D02*
X159531000Y-88221000D01*
X159531000Y-81959000D02*
X159531000Y-84050000D01*
X159491000Y-86130000D02*
X159491000Y-88231000D01*
X159491000Y-81949000D02*
X159491000Y-84050000D01*
X159451000Y-86130000D02*
X159451000Y-88240000D01*
X159451000Y-81940000D02*
X159451000Y-84050000D01*
X159410000Y-86130000D02*
X159410000Y-88249000D01*
X159410000Y-81931000D02*
X159410000Y-84050000D01*
X159370000Y-86130000D02*
X159370000Y-88257000D01*
X159370000Y-81923000D02*
X159370000Y-84050000D01*
X159330000Y-86130000D02*
X159330000Y-88265000D01*
X159330000Y-81915000D02*
X159330000Y-84050000D01*
X159290000Y-86130000D02*
X159290000Y-88272000D01*
X159290000Y-81908000D02*
X159290000Y-84050000D01*
X159250000Y-86130000D02*
X159250000Y-88279000D01*
X159250000Y-81901000D02*
X159250000Y-84050000D01*
X159210000Y-86130000D02*
X159210000Y-88285000D01*
X159210000Y-81895000D02*
X159210000Y-84050000D01*
X159170000Y-86130000D02*
X159170000Y-88291000D01*
X159170000Y-81889000D02*
X159170000Y-84050000D01*
X159130000Y-86130000D02*
X159130000Y-88296000D01*
X159130000Y-81884000D02*
X159130000Y-84050000D01*
X159090000Y-86130000D02*
X159090000Y-88301000D01*
X159090000Y-81879000D02*
X159090000Y-84050000D01*
X159050000Y-86130000D02*
X159050000Y-88305000D01*
X159050000Y-81875000D02*
X159050000Y-84050000D01*
X159010000Y-86130000D02*
X159010000Y-88308000D01*
X159010000Y-81872000D02*
X159010000Y-84050000D01*
X158970000Y-86130000D02*
X158970000Y-88312000D01*
X158970000Y-81868000D02*
X158970000Y-84050000D01*
X158930000Y-81866000D02*
X158930000Y-88314000D01*
X158890000Y-81863000D02*
X158890000Y-88317000D01*
X158850000Y-81862000D02*
X158850000Y-88318000D01*
X158810000Y-81860000D02*
X158810000Y-88320000D01*
X158770000Y-81860000D02*
X158770000Y-88320000D01*
X158730000Y-81860000D02*
X158730000Y-88320000D01*
X162000000Y-85090000D02*
G75*
G03X162000000Y-85090000I-3270000J0D01*
G01*
G04 #@! TO.C,L1*
X146110000Y-68520000D02*
X146110000Y-69850000D01*
X144780000Y-68520000D02*
X146110000Y-68520000D01*
X143510000Y-68520000D02*
X143510000Y-71180000D01*
X143510000Y-71180000D02*
X140910000Y-71180000D01*
X143510000Y-68520000D02*
X140910000Y-68520000D01*
X140910000Y-68520000D02*
X140910000Y-71180000D01*
G04 #@! TO.C,J2*
X171450000Y-80070000D02*
X170120000Y-80070000D01*
X170120000Y-80070000D02*
X170120000Y-78740000D01*
X172720000Y-80070000D02*
X172720000Y-77470000D01*
X172720000Y-77470000D02*
X170120000Y-77470000D01*
X170120000Y-77470000D02*
X170120000Y-69790000D01*
X175320000Y-69790000D02*
X170120000Y-69790000D01*
X175320000Y-80070000D02*
X175320000Y-69790000D01*
X175320000Y-80070000D02*
X172720000Y-80070000D01*
G04 #@! TO.C,Q1*
X168329000Y-90900000D02*
X168329000Y-89390000D01*
X172030000Y-90900000D02*
X172030000Y-89390000D01*
X175300000Y-89390000D02*
X165060000Y-89390000D01*
X165060000Y-90900000D02*
X165060000Y-86259000D01*
X175300000Y-90900000D02*
X175300000Y-86259000D01*
X175300000Y-86259000D02*
X165060000Y-86259000D01*
X175300000Y-90900000D02*
X165060000Y-90900000D01*
G04 #@! TO.C,D1*
D12*
X142771904Y-77852380D02*
X142771904Y-76852380D01*
X143010000Y-76852380D01*
X143152857Y-76900000D01*
X143248095Y-76995238D01*
X143295714Y-77090476D01*
X143343333Y-77280952D01*
X143343333Y-77423809D01*
X143295714Y-77614285D01*
X143248095Y-77709523D01*
X143152857Y-77804761D01*
X143010000Y-77852380D01*
X142771904Y-77852380D01*
X144295714Y-77852380D02*
X143724285Y-77852380D01*
X144010000Y-77852380D02*
X144010000Y-76852380D01*
X143914761Y-76995238D01*
X143819523Y-77090476D01*
X143724285Y-77138095D01*
X147058095Y-77482380D02*
X147058095Y-76482380D01*
X147629523Y-77482380D02*
X147200952Y-76910952D01*
X147629523Y-76482380D02*
X147058095Y-77053809D01*
G04 #@! TO.C,U1*
X161798095Y-68612380D02*
X161798095Y-69421904D01*
X161845714Y-69517142D01*
X161893333Y-69564761D01*
X161988571Y-69612380D01*
X162179047Y-69612380D01*
X162274285Y-69564761D01*
X162321904Y-69517142D01*
X162369523Y-69421904D01*
X162369523Y-68612380D01*
X163369523Y-69612380D02*
X162798095Y-69612380D01*
X163083809Y-69612380D02*
X163083809Y-68612380D01*
X162988571Y-68755238D01*
X162893333Y-68850476D01*
X162798095Y-68898095D01*
G04 #@! TO.C,J1*
X152882380Y-85423333D02*
X153596666Y-85423333D01*
X153739523Y-85470952D01*
X153834761Y-85566190D01*
X153882380Y-85709047D01*
X153882380Y-85804285D01*
X153882380Y-84423333D02*
X153882380Y-84994761D01*
X153882380Y-84709047D02*
X152882380Y-84709047D01*
X153025238Y-84804285D01*
X153120476Y-84899523D01*
X153168095Y-84994761D01*
G04 #@! TO.C,C2*
X153503333Y-76557142D02*
X153455714Y-76604761D01*
X153312857Y-76652380D01*
X153217619Y-76652380D01*
X153074761Y-76604761D01*
X152979523Y-76509523D01*
X152931904Y-76414285D01*
X152884285Y-76223809D01*
X152884285Y-76080952D01*
X152931904Y-75890476D01*
X152979523Y-75795238D01*
X153074761Y-75700000D01*
X153217619Y-75652380D01*
X153312857Y-75652380D01*
X153455714Y-75700000D01*
X153503333Y-75747619D01*
X153884285Y-75747619D02*
X153931904Y-75700000D01*
X154027142Y-75652380D01*
X154265238Y-75652380D01*
X154360476Y-75700000D01*
X154408095Y-75747619D01*
X154455714Y-75842857D01*
X154455714Y-75938095D01*
X154408095Y-76080952D01*
X153836666Y-76652380D01*
X154455714Y-76652380D01*
G04 #@! TO.C,C1*
X158583333Y-90527142D02*
X158535714Y-90574761D01*
X158392857Y-90622380D01*
X158297619Y-90622380D01*
X158154761Y-90574761D01*
X158059523Y-90479523D01*
X158011904Y-90384285D01*
X157964285Y-90193809D01*
X157964285Y-90050952D01*
X158011904Y-89860476D01*
X158059523Y-89765238D01*
X158154761Y-89670000D01*
X158297619Y-89622380D01*
X158392857Y-89622380D01*
X158535714Y-89670000D01*
X158583333Y-89717619D01*
X159535714Y-90622380D02*
X158964285Y-90622380D01*
X159250000Y-90622380D02*
X159250000Y-89622380D01*
X159154761Y-89765238D01*
X159059523Y-89860476D01*
X158964285Y-89908095D01*
G04 #@! TO.C,L1*
X147562380Y-70016666D02*
X147562380Y-70492857D01*
X146562380Y-70492857D01*
X147562380Y-69159523D02*
X147562380Y-69730952D01*
X147562380Y-69445238D02*
X146562380Y-69445238D01*
X146705238Y-69540476D01*
X146800476Y-69635714D01*
X146848095Y-69730952D01*
G04 #@! TO.C,J2*
X172386666Y-80962380D02*
X172386666Y-81676666D01*
X172339047Y-81819523D01*
X172243809Y-81914761D01*
X172100952Y-81962380D01*
X172005714Y-81962380D01*
X172815238Y-81057619D02*
X172862857Y-81010000D01*
X172958095Y-80962380D01*
X173196190Y-80962380D01*
X173291428Y-81010000D01*
X173339047Y-81057619D01*
X173386666Y-81152857D01*
X173386666Y-81248095D01*
X173339047Y-81390952D01*
X172767619Y-81962380D01*
X173386666Y-81962380D01*
G04 #@! TO.C,Q1*
X170084761Y-85637619D02*
X169989523Y-85590000D01*
X169894285Y-85494761D01*
X169751428Y-85351904D01*
X169656190Y-85304285D01*
X169560952Y-85304285D01*
X169608571Y-85542380D02*
X169513333Y-85494761D01*
X169418095Y-85399523D01*
X169370476Y-85209047D01*
X169370476Y-84875714D01*
X169418095Y-84685238D01*
X169513333Y-84590000D01*
X169608571Y-84542380D01*
X169799047Y-84542380D01*
X169894285Y-84590000D01*
X169989523Y-84685238D01*
X170037142Y-84875714D01*
X170037142Y-85209047D01*
X169989523Y-85399523D01*
X169894285Y-85494761D01*
X169799047Y-85542380D01*
X169608571Y-85542380D01*
X170989523Y-85542380D02*
X170418095Y-85542380D01*
X170703809Y-85542380D02*
X170703809Y-84542380D01*
X170608571Y-84685238D01*
X170513333Y-84780476D01*
X170418095Y-84828095D01*
G04 #@! TD*
M02*
