M48
;DRILL file {KiCad 5.0.2-bee76a0~70~ubuntu18.04.1} date Fri 31 May 2019 04:07:56 PM PDT
;FORMAT={-:-/ absolute / inch / decimal}
FMAT,2
INCH,TZ
T1C0.0157
T2C0.0315
T3C0.0394
T4C0.0433
T5C0.0866
T6C0.0394
T7C0.0630
%
G90
G05
T1
X5.489Y-3.9945
X5.5433Y-4.0591
X5.735Y-4.048
X6.086Y-4.084
X6.156Y-3.969
X6.199Y-3.925
X6.3858Y-4.0157
X6.6535Y-3.8976
X6.6535Y-3.937
X6.6535Y-3.9764
X6.6535Y-4.0157
X6.6929Y-3.8976
X6.6929Y-3.937
X6.6929Y-3.9764
X6.6929Y-4.0157
X5.33Y-4.247
X5.3491Y-4.2011
X5.3491Y-4.2929
X5.395Y-4.182
X5.395Y-4.312
X5.4409Y-4.2011
X5.4409Y-4.2929
X5.46Y-4.247
T2
X5.4331Y-4.5079
X5.4331Y-4.5866
X6.1024Y-4.4882
X6.1024Y-4.5866
X6.063Y-4.2913
X6.1417Y-4.2913
T3
X5.7268Y-3.7992
X5.8268Y-3.7992
X5.2165Y-3.7945
X5.2165Y-3.8945
X5.2165Y-3.9945
X5.2165Y-4.0945
X5.3165Y-3.7945
X5.3165Y-3.8945
X5.3165Y-3.9945
X5.3165Y-4.0945
T4
X5.6102Y-4.4094
X5.9102Y-4.4094
X5.6102Y-4.5866
X5.9102Y-4.5866
X5.6449Y-3.9567
X5.9449Y-3.9567
X5.2559Y-4.3669
X5.2559Y-4.4669
X5.2559Y-4.5669
T5
X5.395Y-4.247
T6
X6.5551Y-3.8701
X6.5551Y-4.0433
T7
X6.6535Y-4.4291
T3
X6.2992Y-4.4685G85X6.2992Y-4.3898
G05
X6.5354Y-4.4547G85X6.5354Y-4.4035
G05
X6.5453Y-4.252G85X6.6043Y-4.252
G05
X6.5453Y-4.6063G85X6.6043Y-4.6063
G05
T0
M30
