G04 #@! TF.GenerationSoftware,KiCad,Pcbnew,5.0.2-bee76a0~70~ubuntu18.04.1*
G04 #@! TF.CreationDate,2019-04-03T17:02:00-07:00*
G04 #@! TF.ProjectId,shellbell,7368656c-6c62-4656-9c6c-2e6b69636164,rev?*
G04 #@! TF.SameCoordinates,Original*
G04 #@! TF.FileFunction,Legend,Bot*
G04 #@! TF.FilePolarity,Positive*
%FSLAX46Y46*%
G04 Gerber Fmt 4.6, Leading zero omitted, Abs format (unit mm)*
G04 Created by KiCad (PCBNEW 5.0.2-bee76a0~70~ubuntu18.04.1) date Wed 03 Apr 2019 05:02:00 PM PDT*
%MOMM*%
%LPD*%
G01*
G04 APERTURE LIST*
%ADD10C,0.120000*%
%ADD11C,0.150000*%
G04 APERTURE END LIST*
D10*
G04 #@! TO.C,C4*
X164610000Y-102797936D02*
X164610000Y-104002064D01*
X162790000Y-102797936D02*
X162790000Y-104002064D01*
G04 #@! TO.C,D7*
X159350000Y-117000000D02*
X163250000Y-117000000D01*
X159350000Y-115000000D02*
X163250000Y-115000000D01*
X159350000Y-117000000D02*
X159350000Y-115000000D01*
G04 #@! TO.C,D6*
X164700000Y-100850000D02*
X164700000Y-96950000D01*
X162700000Y-100850000D02*
X162700000Y-96950000D01*
X164700000Y-100850000D02*
X162700000Y-100850000D01*
G04 #@! TO.C,C4*
D11*
X163833333Y-106785714D02*
X163871428Y-106823809D01*
X163985714Y-106861904D01*
X164061904Y-106861904D01*
X164176190Y-106823809D01*
X164252380Y-106747619D01*
X164290476Y-106671428D01*
X164328571Y-106519047D01*
X164328571Y-106404761D01*
X164290476Y-106252380D01*
X164252380Y-106176190D01*
X164176190Y-106100000D01*
X164061904Y-106061904D01*
X163985714Y-106061904D01*
X163871428Y-106100000D01*
X163833333Y-106138095D01*
X163147619Y-106328571D02*
X163147619Y-106861904D01*
X163338095Y-106023809D02*
X163528571Y-106595238D01*
X163033333Y-106595238D01*
G04 #@! TO.C,D7*
X162090476Y-118161904D02*
X162090476Y-117361904D01*
X161900000Y-117361904D01*
X161785714Y-117400000D01*
X161709523Y-117476190D01*
X161671428Y-117552380D01*
X161633333Y-117704761D01*
X161633333Y-117819047D01*
X161671428Y-117971428D01*
X161709523Y-118047619D01*
X161785714Y-118123809D01*
X161900000Y-118161904D01*
X162090476Y-118161904D01*
X161366666Y-117361904D02*
X160833333Y-117361904D01*
X161176190Y-118161904D01*
G04 #@! TO.C,D6*
X164290476Y-96061904D02*
X164290476Y-95261904D01*
X164100000Y-95261904D01*
X163985714Y-95300000D01*
X163909523Y-95376190D01*
X163871428Y-95452380D01*
X163833333Y-95604761D01*
X163833333Y-95719047D01*
X163871428Y-95871428D01*
X163909523Y-95947619D01*
X163985714Y-96023809D01*
X164100000Y-96061904D01*
X164290476Y-96061904D01*
X163147619Y-95261904D02*
X163300000Y-95261904D01*
X163376190Y-95300000D01*
X163414285Y-95338095D01*
X163490476Y-95452380D01*
X163528571Y-95604761D01*
X163528571Y-95909523D01*
X163490476Y-95985714D01*
X163452380Y-96023809D01*
X163376190Y-96061904D01*
X163223809Y-96061904D01*
X163147619Y-96023809D01*
X163109523Y-95985714D01*
X163071428Y-95909523D01*
X163071428Y-95719047D01*
X163109523Y-95642857D01*
X163147619Y-95604761D01*
X163223809Y-95566666D01*
X163376190Y-95566666D01*
X163452380Y-95604761D01*
X163490476Y-95642857D01*
X163528571Y-95719047D01*
G04 #@! TD*
M02*
