G04 #@! TF.GenerationSoftware,KiCad,Pcbnew,5.0.2-bee76a0~70~ubuntu18.04.1*
G04 #@! TF.CreationDate,2019-05-31T16:07:53-07:00*
G04 #@! TF.ProjectId,shellbell,7368656c-6c62-4656-9c6c-2e6b69636164,rev?*
G04 #@! TF.SameCoordinates,Original*
G04 #@! TF.FileFunction,Legend,Top*
G04 #@! TF.FilePolarity,Positive*
%FSLAX46Y46*%
G04 Gerber Fmt 4.6, Leading zero omitted, Abs format (unit mm)*
G04 Created by KiCad (PCBNEW 5.0.2-bee76a0~70~ubuntu18.04.1) date Fri 31 May 2019 04:07:53 PM PDT*
%MOMM*%
%LPD*%
G01*
G04 APERTURE LIST*
%ADD10C,0.200000*%
%ADD11C,0.300000*%
%ADD12C,0.120000*%
%ADD13C,0.100000*%
%ADD14C,0.160000*%
%ADD15C,0.150000*%
G04 APERTURE END LIST*
D10*
X151064980Y-105765504D02*
X151064980Y-105194076D01*
X152064980Y-105479790D02*
X151064980Y-105479790D01*
X151064980Y-104955980D02*
X152064980Y-104289314D01*
X151064980Y-104289314D02*
X152064980Y-104955980D01*
X152191980Y-96178666D02*
X151715790Y-96512000D01*
X152191980Y-96750095D02*
X151191980Y-96750095D01*
X151191980Y-96369142D01*
X151239600Y-96273904D01*
X151287219Y-96226285D01*
X151382457Y-96178666D01*
X151525314Y-96178666D01*
X151620552Y-96226285D01*
X151668171Y-96273904D01*
X151715790Y-96369142D01*
X151715790Y-96750095D01*
X151191980Y-95845333D02*
X152191980Y-95178666D01*
X151191980Y-95178666D02*
X152191980Y-95845333D01*
D11*
X135502971Y-111387771D02*
X136574400Y-111387771D01*
X135931542Y-110744914D02*
X135502971Y-112673485D01*
X136431542Y-112030628D02*
X135360114Y-112030628D01*
X136002971Y-112673485D02*
X136431542Y-110744914D01*
X137074400Y-112387771D02*
X137074400Y-110887771D01*
X137074400Y-111459200D02*
X137217257Y-111387771D01*
X137502971Y-111387771D01*
X137645828Y-111459200D01*
X137717257Y-111530628D01*
X137788685Y-111673485D01*
X137788685Y-112102057D01*
X137717257Y-112244914D01*
X137645828Y-112316342D01*
X137502971Y-112387771D01*
X137217257Y-112387771D01*
X137074400Y-112316342D01*
X139002971Y-112316342D02*
X138860114Y-112387771D01*
X138574400Y-112387771D01*
X138431542Y-112316342D01*
X138360114Y-112173485D01*
X138360114Y-111602057D01*
X138431542Y-111459200D01*
X138574400Y-111387771D01*
X138860114Y-111387771D01*
X139002971Y-111459200D01*
X139074400Y-111602057D01*
X139074400Y-111744914D01*
X138360114Y-111887771D01*
X139931542Y-112387771D02*
X139788685Y-112316342D01*
X139717257Y-112173485D01*
X139717257Y-110887771D01*
X140717257Y-112387771D02*
X140574400Y-112316342D01*
X140502971Y-112173485D01*
X140502971Y-110887771D01*
D12*
G04 #@! TO.C,L1*
X149330000Y-95170000D02*
X149330000Y-96500000D01*
X148000000Y-95170000D02*
X149330000Y-95170000D01*
X146730000Y-95170000D02*
X146730000Y-97830000D01*
X146730000Y-97830000D02*
X144130000Y-97830000D01*
X146730000Y-95170000D02*
X144130000Y-95170000D01*
X144130000Y-95170000D02*
X144130000Y-97830000D01*
G04 #@! TO.C,J2*
X132500000Y-105330000D02*
X131170000Y-105330000D01*
X131170000Y-105330000D02*
X131170000Y-104000000D01*
X133770000Y-105330000D02*
X133770000Y-102730000D01*
X133770000Y-102730000D02*
X131170000Y-102730000D01*
X131170000Y-102730000D02*
X131170000Y-95050000D01*
X136370000Y-95050000D02*
X131170000Y-95050000D01*
X136370000Y-105330000D02*
X136370000Y-95050000D01*
X136370000Y-105330000D02*
X133770000Y-105330000D01*
G04 #@! TO.C,U1*
X130230000Y-118580000D02*
X130230000Y-108340000D01*
X134871000Y-118580000D02*
X134871000Y-108340000D01*
X130230000Y-118580000D02*
X134871000Y-118580000D01*
X130230000Y-108340000D02*
X134871000Y-108340000D01*
X131740000Y-118580000D02*
X131740000Y-108340000D01*
X130230000Y-115310000D02*
X131740000Y-115310000D01*
X130230000Y-111609000D02*
X131740000Y-111609000D01*
G04 #@! TO.C,R4*
X160102064Y-95590000D02*
X158897936Y-95590000D01*
X160102064Y-97410000D02*
X158897936Y-97410000D01*
G04 #@! TO.C,C1*
X158270000Y-115250000D02*
G75*
G03X158270000Y-115250000I-3270000J0D01*
G01*
X158230000Y-115250000D02*
X151770000Y-115250000D01*
X158230000Y-115290000D02*
X151770000Y-115290000D01*
X158230000Y-115330000D02*
X151770000Y-115330000D01*
X158228000Y-115370000D02*
X151772000Y-115370000D01*
X158227000Y-115410000D02*
X151773000Y-115410000D01*
X158224000Y-115450000D02*
X151776000Y-115450000D01*
X158222000Y-115490000D02*
X156040000Y-115490000D01*
X153960000Y-115490000D02*
X151778000Y-115490000D01*
X158218000Y-115530000D02*
X156040000Y-115530000D01*
X153960000Y-115530000D02*
X151782000Y-115530000D01*
X158215000Y-115570000D02*
X156040000Y-115570000D01*
X153960000Y-115570000D02*
X151785000Y-115570000D01*
X158211000Y-115610000D02*
X156040000Y-115610000D01*
X153960000Y-115610000D02*
X151789000Y-115610000D01*
X158206000Y-115650000D02*
X156040000Y-115650000D01*
X153960000Y-115650000D02*
X151794000Y-115650000D01*
X158201000Y-115690000D02*
X156040000Y-115690000D01*
X153960000Y-115690000D02*
X151799000Y-115690000D01*
X158195000Y-115730000D02*
X156040000Y-115730000D01*
X153960000Y-115730000D02*
X151805000Y-115730000D01*
X158189000Y-115770000D02*
X156040000Y-115770000D01*
X153960000Y-115770000D02*
X151811000Y-115770000D01*
X158182000Y-115810000D02*
X156040000Y-115810000D01*
X153960000Y-115810000D02*
X151818000Y-115810000D01*
X158175000Y-115850000D02*
X156040000Y-115850000D01*
X153960000Y-115850000D02*
X151825000Y-115850000D01*
X158167000Y-115890000D02*
X156040000Y-115890000D01*
X153960000Y-115890000D02*
X151833000Y-115890000D01*
X158159000Y-115930000D02*
X156040000Y-115930000D01*
X153960000Y-115930000D02*
X151841000Y-115930000D01*
X158150000Y-115971000D02*
X156040000Y-115971000D01*
X153960000Y-115971000D02*
X151850000Y-115971000D01*
X158141000Y-116011000D02*
X156040000Y-116011000D01*
X153960000Y-116011000D02*
X151859000Y-116011000D01*
X158131000Y-116051000D02*
X156040000Y-116051000D01*
X153960000Y-116051000D02*
X151869000Y-116051000D01*
X158121000Y-116091000D02*
X156040000Y-116091000D01*
X153960000Y-116091000D02*
X151879000Y-116091000D01*
X158110000Y-116131000D02*
X156040000Y-116131000D01*
X153960000Y-116131000D02*
X151890000Y-116131000D01*
X158098000Y-116171000D02*
X156040000Y-116171000D01*
X153960000Y-116171000D02*
X151902000Y-116171000D01*
X158086000Y-116211000D02*
X156040000Y-116211000D01*
X153960000Y-116211000D02*
X151914000Y-116211000D01*
X158074000Y-116251000D02*
X156040000Y-116251000D01*
X153960000Y-116251000D02*
X151926000Y-116251000D01*
X158061000Y-116291000D02*
X156040000Y-116291000D01*
X153960000Y-116291000D02*
X151939000Y-116291000D01*
X158047000Y-116331000D02*
X156040000Y-116331000D01*
X153960000Y-116331000D02*
X151953000Y-116331000D01*
X158033000Y-116371000D02*
X156040000Y-116371000D01*
X153960000Y-116371000D02*
X151967000Y-116371000D01*
X158018000Y-116411000D02*
X156040000Y-116411000D01*
X153960000Y-116411000D02*
X151982000Y-116411000D01*
X158002000Y-116451000D02*
X156040000Y-116451000D01*
X153960000Y-116451000D02*
X151998000Y-116451000D01*
X157986000Y-116491000D02*
X156040000Y-116491000D01*
X153960000Y-116491000D02*
X152014000Y-116491000D01*
X157970000Y-116531000D02*
X156040000Y-116531000D01*
X153960000Y-116531000D02*
X152030000Y-116531000D01*
X157952000Y-116571000D02*
X156040000Y-116571000D01*
X153960000Y-116571000D02*
X152048000Y-116571000D01*
X157934000Y-116611000D02*
X156040000Y-116611000D01*
X153960000Y-116611000D02*
X152066000Y-116611000D01*
X157916000Y-116651000D02*
X156040000Y-116651000D01*
X153960000Y-116651000D02*
X152084000Y-116651000D01*
X157896000Y-116691000D02*
X156040000Y-116691000D01*
X153960000Y-116691000D02*
X152104000Y-116691000D01*
X157876000Y-116731000D02*
X156040000Y-116731000D01*
X153960000Y-116731000D02*
X152124000Y-116731000D01*
X157856000Y-116771000D02*
X156040000Y-116771000D01*
X153960000Y-116771000D02*
X152144000Y-116771000D01*
X157834000Y-116811000D02*
X156040000Y-116811000D01*
X153960000Y-116811000D02*
X152166000Y-116811000D01*
X157812000Y-116851000D02*
X156040000Y-116851000D01*
X153960000Y-116851000D02*
X152188000Y-116851000D01*
X157790000Y-116891000D02*
X156040000Y-116891000D01*
X153960000Y-116891000D02*
X152210000Y-116891000D01*
X157766000Y-116931000D02*
X156040000Y-116931000D01*
X153960000Y-116931000D02*
X152234000Y-116931000D01*
X157742000Y-116971000D02*
X156040000Y-116971000D01*
X153960000Y-116971000D02*
X152258000Y-116971000D01*
X157716000Y-117011000D02*
X156040000Y-117011000D01*
X153960000Y-117011000D02*
X152284000Y-117011000D01*
X157690000Y-117051000D02*
X156040000Y-117051000D01*
X153960000Y-117051000D02*
X152310000Y-117051000D01*
X157664000Y-117091000D02*
X156040000Y-117091000D01*
X153960000Y-117091000D02*
X152336000Y-117091000D01*
X157636000Y-117131000D02*
X156040000Y-117131000D01*
X153960000Y-117131000D02*
X152364000Y-117131000D01*
X157607000Y-117171000D02*
X156040000Y-117171000D01*
X153960000Y-117171000D02*
X152393000Y-117171000D01*
X157578000Y-117211000D02*
X156040000Y-117211000D01*
X153960000Y-117211000D02*
X152422000Y-117211000D01*
X157548000Y-117251000D02*
X156040000Y-117251000D01*
X153960000Y-117251000D02*
X152452000Y-117251000D01*
X157516000Y-117291000D02*
X156040000Y-117291000D01*
X153960000Y-117291000D02*
X152484000Y-117291000D01*
X157484000Y-117331000D02*
X156040000Y-117331000D01*
X153960000Y-117331000D02*
X152516000Y-117331000D01*
X157450000Y-117371000D02*
X156040000Y-117371000D01*
X153960000Y-117371000D02*
X152550000Y-117371000D01*
X157416000Y-117411000D02*
X156040000Y-117411000D01*
X153960000Y-117411000D02*
X152584000Y-117411000D01*
X157380000Y-117451000D02*
X156040000Y-117451000D01*
X153960000Y-117451000D02*
X152620000Y-117451000D01*
X157343000Y-117491000D02*
X156040000Y-117491000D01*
X153960000Y-117491000D02*
X152657000Y-117491000D01*
X157305000Y-117531000D02*
X156040000Y-117531000D01*
X153960000Y-117531000D02*
X152695000Y-117531000D01*
X157265000Y-117571000D02*
X152735000Y-117571000D01*
X157224000Y-117611000D02*
X152776000Y-117611000D01*
X157182000Y-117651000D02*
X152818000Y-117651000D01*
X157137000Y-117691000D02*
X152863000Y-117691000D01*
X157092000Y-117731000D02*
X152908000Y-117731000D01*
X157044000Y-117771000D02*
X152956000Y-117771000D01*
X156995000Y-117811000D02*
X153005000Y-117811000D01*
X156944000Y-117851000D02*
X153056000Y-117851000D01*
X156890000Y-117891000D02*
X153110000Y-117891000D01*
X156834000Y-117931000D02*
X153166000Y-117931000D01*
X156776000Y-117971000D02*
X153224000Y-117971000D01*
X156714000Y-118011000D02*
X153286000Y-118011000D01*
X156650000Y-118051000D02*
X153350000Y-118051000D01*
X156581000Y-118091000D02*
X153419000Y-118091000D01*
X156509000Y-118131000D02*
X153491000Y-118131000D01*
X156432000Y-118171000D02*
X153568000Y-118171000D01*
X156350000Y-118211000D02*
X153650000Y-118211000D01*
X156262000Y-118251000D02*
X153738000Y-118251000D01*
X156165000Y-118291000D02*
X153835000Y-118291000D01*
X156059000Y-118331000D02*
X153941000Y-118331000D01*
X155940000Y-118371000D02*
X154060000Y-118371000D01*
X155802000Y-118411000D02*
X154198000Y-118411000D01*
X155633000Y-118451000D02*
X154367000Y-118451000D01*
X155402000Y-118491000D02*
X154598000Y-118491000D01*
X156839000Y-111749759D02*
X156839000Y-112379759D01*
X157154000Y-112064759D02*
X156524000Y-112064759D01*
G04 #@! TO.C,Q1*
X142530000Y-109680000D02*
X141430000Y-109680000D01*
X142530000Y-109950000D02*
X142530000Y-109680000D01*
X144030000Y-109950000D02*
X142530000Y-109950000D01*
X142530000Y-103320000D02*
X139700000Y-103320000D01*
X142530000Y-103050000D02*
X142530000Y-103320000D01*
X144030000Y-103050000D02*
X142530000Y-103050000D01*
G04 #@! TO.C,C3*
X157554775Y-110725000D02*
X157554775Y-110225000D01*
X157804775Y-110475000D02*
X157304775Y-110475000D01*
X152399000Y-109284000D02*
X152399000Y-108716000D01*
X152439000Y-109518000D02*
X152439000Y-108482000D01*
X152479000Y-109677000D02*
X152479000Y-108323000D01*
X152519000Y-109805000D02*
X152519000Y-108195000D01*
X152559000Y-109915000D02*
X152559000Y-108085000D01*
X152599000Y-110011000D02*
X152599000Y-107989000D01*
X152639000Y-110098000D02*
X152639000Y-107902000D01*
X152679000Y-110178000D02*
X152679000Y-107822000D01*
X152719000Y-110251000D02*
X152719000Y-107749000D01*
X152759000Y-110319000D02*
X152759000Y-107681000D01*
X152799000Y-110383000D02*
X152799000Y-107617000D01*
X152839000Y-110443000D02*
X152839000Y-107557000D01*
X152879000Y-110500000D02*
X152879000Y-107500000D01*
X152919000Y-110554000D02*
X152919000Y-107446000D01*
X152959000Y-110605000D02*
X152959000Y-107395000D01*
X152999000Y-107960000D02*
X152999000Y-107347000D01*
X152999000Y-110653000D02*
X152999000Y-110040000D01*
X153039000Y-107960000D02*
X153039000Y-107301000D01*
X153039000Y-110699000D02*
X153039000Y-110040000D01*
X153079000Y-107960000D02*
X153079000Y-107257000D01*
X153079000Y-110743000D02*
X153079000Y-110040000D01*
X153119000Y-107960000D02*
X153119000Y-107215000D01*
X153119000Y-110785000D02*
X153119000Y-110040000D01*
X153159000Y-107960000D02*
X153159000Y-107174000D01*
X153159000Y-110826000D02*
X153159000Y-110040000D01*
X153199000Y-107960000D02*
X153199000Y-107136000D01*
X153199000Y-110864000D02*
X153199000Y-110040000D01*
X153239000Y-107960000D02*
X153239000Y-107099000D01*
X153239000Y-110901000D02*
X153239000Y-110040000D01*
X153279000Y-107960000D02*
X153279000Y-107063000D01*
X153279000Y-110937000D02*
X153279000Y-110040000D01*
X153319000Y-107960000D02*
X153319000Y-107029000D01*
X153319000Y-110971000D02*
X153319000Y-110040000D01*
X153359000Y-107960000D02*
X153359000Y-106996000D01*
X153359000Y-111004000D02*
X153359000Y-110040000D01*
X153399000Y-107960000D02*
X153399000Y-106965000D01*
X153399000Y-111035000D02*
X153399000Y-110040000D01*
X153439000Y-107960000D02*
X153439000Y-106935000D01*
X153439000Y-111065000D02*
X153439000Y-110040000D01*
X153479000Y-107960000D02*
X153479000Y-106905000D01*
X153479000Y-111095000D02*
X153479000Y-110040000D01*
X153519000Y-107960000D02*
X153519000Y-106878000D01*
X153519000Y-111122000D02*
X153519000Y-110040000D01*
X153559000Y-107960000D02*
X153559000Y-106851000D01*
X153559000Y-111149000D02*
X153559000Y-110040000D01*
X153599000Y-107960000D02*
X153599000Y-106825000D01*
X153599000Y-111175000D02*
X153599000Y-110040000D01*
X153639000Y-107960000D02*
X153639000Y-106800000D01*
X153639000Y-111200000D02*
X153639000Y-110040000D01*
X153679000Y-107960000D02*
X153679000Y-106776000D01*
X153679000Y-111224000D02*
X153679000Y-110040000D01*
X153719000Y-107960000D02*
X153719000Y-106753000D01*
X153719000Y-111247000D02*
X153719000Y-110040000D01*
X153759000Y-107960000D02*
X153759000Y-106732000D01*
X153759000Y-111268000D02*
X153759000Y-110040000D01*
X153799000Y-107960000D02*
X153799000Y-106710000D01*
X153799000Y-111290000D02*
X153799000Y-110040000D01*
X153839000Y-107960000D02*
X153839000Y-106690000D01*
X153839000Y-111310000D02*
X153839000Y-110040000D01*
X153879000Y-107960000D02*
X153879000Y-106671000D01*
X153879000Y-111329000D02*
X153879000Y-110040000D01*
X153919000Y-107960000D02*
X153919000Y-106652000D01*
X153919000Y-111348000D02*
X153919000Y-110040000D01*
X153959000Y-107960000D02*
X153959000Y-106635000D01*
X153959000Y-111365000D02*
X153959000Y-110040000D01*
X153999000Y-107960000D02*
X153999000Y-106618000D01*
X153999000Y-111382000D02*
X153999000Y-110040000D01*
X154039000Y-107960000D02*
X154039000Y-106602000D01*
X154039000Y-111398000D02*
X154039000Y-110040000D01*
X154079000Y-107960000D02*
X154079000Y-106586000D01*
X154079000Y-111414000D02*
X154079000Y-110040000D01*
X154119000Y-107960000D02*
X154119000Y-106572000D01*
X154119000Y-111428000D02*
X154119000Y-110040000D01*
X154159000Y-107960000D02*
X154159000Y-106558000D01*
X154159000Y-111442000D02*
X154159000Y-110040000D01*
X154199000Y-107960000D02*
X154199000Y-106545000D01*
X154199000Y-111455000D02*
X154199000Y-110040000D01*
X154239000Y-107960000D02*
X154239000Y-106532000D01*
X154239000Y-111468000D02*
X154239000Y-110040000D01*
X154279000Y-107960000D02*
X154279000Y-106520000D01*
X154279000Y-111480000D02*
X154279000Y-110040000D01*
X154320000Y-107960000D02*
X154320000Y-106509000D01*
X154320000Y-111491000D02*
X154320000Y-110040000D01*
X154360000Y-107960000D02*
X154360000Y-106499000D01*
X154360000Y-111501000D02*
X154360000Y-110040000D01*
X154400000Y-107960000D02*
X154400000Y-106489000D01*
X154400000Y-111511000D02*
X154400000Y-110040000D01*
X154440000Y-107960000D02*
X154440000Y-106480000D01*
X154440000Y-111520000D02*
X154440000Y-110040000D01*
X154480000Y-107960000D02*
X154480000Y-106472000D01*
X154480000Y-111528000D02*
X154480000Y-110040000D01*
X154520000Y-107960000D02*
X154520000Y-106464000D01*
X154520000Y-111536000D02*
X154520000Y-110040000D01*
X154560000Y-107960000D02*
X154560000Y-106457000D01*
X154560000Y-111543000D02*
X154560000Y-110040000D01*
X154600000Y-107960000D02*
X154600000Y-106450000D01*
X154600000Y-111550000D02*
X154600000Y-110040000D01*
X154640000Y-107960000D02*
X154640000Y-106444000D01*
X154640000Y-111556000D02*
X154640000Y-110040000D01*
X154680000Y-107960000D02*
X154680000Y-106439000D01*
X154680000Y-111561000D02*
X154680000Y-110040000D01*
X154720000Y-107960000D02*
X154720000Y-106435000D01*
X154720000Y-111565000D02*
X154720000Y-110040000D01*
X154760000Y-107960000D02*
X154760000Y-106431000D01*
X154760000Y-111569000D02*
X154760000Y-110040000D01*
X154800000Y-107960000D02*
X154800000Y-106427000D01*
X154800000Y-111573000D02*
X154800000Y-110040000D01*
X154840000Y-107960000D02*
X154840000Y-106424000D01*
X154840000Y-111576000D02*
X154840000Y-110040000D01*
X154880000Y-107960000D02*
X154880000Y-106422000D01*
X154880000Y-111578000D02*
X154880000Y-110040000D01*
X154920000Y-107960000D02*
X154920000Y-106421000D01*
X154920000Y-111579000D02*
X154920000Y-110040000D01*
X154960000Y-111580000D02*
X154960000Y-110040000D01*
X154960000Y-107960000D02*
X154960000Y-106420000D01*
X155000000Y-111580000D02*
X155000000Y-110040000D01*
X155000000Y-107960000D02*
X155000000Y-106420000D01*
X157620000Y-109000000D02*
G75*
G03X157620000Y-109000000I-2620000J0D01*
G01*
G04 #@! TO.C,J3*
X172410000Y-104410000D02*
X170460000Y-104410000D01*
X168240000Y-104410000D02*
X165010000Y-104410000D01*
X163090000Y-103690000D02*
X163090000Y-102610000D01*
X163090000Y-98390000D02*
X163090000Y-97310000D01*
X168240000Y-96590000D02*
X165010000Y-96590000D01*
X172410000Y-96590000D02*
X170460000Y-96590000D01*
X163090000Y-102610000D02*
X162660000Y-102610000D01*
X172410000Y-96590000D02*
X172410000Y-104410000D01*
G04 #@! TO.C,C2*
X139725000Y-112945225D02*
X139225000Y-112945225D01*
X139475000Y-112695225D02*
X139475000Y-113195225D01*
X138284000Y-118101000D02*
X137716000Y-118101000D01*
X138518000Y-118061000D02*
X137482000Y-118061000D01*
X138677000Y-118021000D02*
X137323000Y-118021000D01*
X138805000Y-117981000D02*
X137195000Y-117981000D01*
X138915000Y-117941000D02*
X137085000Y-117941000D01*
X139011000Y-117901000D02*
X136989000Y-117901000D01*
X139098000Y-117861000D02*
X136902000Y-117861000D01*
X139178000Y-117821000D02*
X136822000Y-117821000D01*
X139251000Y-117781000D02*
X136749000Y-117781000D01*
X139319000Y-117741000D02*
X136681000Y-117741000D01*
X139383000Y-117701000D02*
X136617000Y-117701000D01*
X139443000Y-117661000D02*
X136557000Y-117661000D01*
X139500000Y-117621000D02*
X136500000Y-117621000D01*
X139554000Y-117581000D02*
X136446000Y-117581000D01*
X139605000Y-117541000D02*
X136395000Y-117541000D01*
X136960000Y-117501000D02*
X136347000Y-117501000D01*
X139653000Y-117501000D02*
X139040000Y-117501000D01*
X136960000Y-117461000D02*
X136301000Y-117461000D01*
X139699000Y-117461000D02*
X139040000Y-117461000D01*
X136960000Y-117421000D02*
X136257000Y-117421000D01*
X139743000Y-117421000D02*
X139040000Y-117421000D01*
X136960000Y-117381000D02*
X136215000Y-117381000D01*
X139785000Y-117381000D02*
X139040000Y-117381000D01*
X136960000Y-117341000D02*
X136174000Y-117341000D01*
X139826000Y-117341000D02*
X139040000Y-117341000D01*
X136960000Y-117301000D02*
X136136000Y-117301000D01*
X139864000Y-117301000D02*
X139040000Y-117301000D01*
X136960000Y-117261000D02*
X136099000Y-117261000D01*
X139901000Y-117261000D02*
X139040000Y-117261000D01*
X136960000Y-117221000D02*
X136063000Y-117221000D01*
X139937000Y-117221000D02*
X139040000Y-117221000D01*
X136960000Y-117181000D02*
X136029000Y-117181000D01*
X139971000Y-117181000D02*
X139040000Y-117181000D01*
X136960000Y-117141000D02*
X135996000Y-117141000D01*
X140004000Y-117141000D02*
X139040000Y-117141000D01*
X136960000Y-117101000D02*
X135965000Y-117101000D01*
X140035000Y-117101000D02*
X139040000Y-117101000D01*
X136960000Y-117061000D02*
X135935000Y-117061000D01*
X140065000Y-117061000D02*
X139040000Y-117061000D01*
X136960000Y-117021000D02*
X135905000Y-117021000D01*
X140095000Y-117021000D02*
X139040000Y-117021000D01*
X136960000Y-116981000D02*
X135878000Y-116981000D01*
X140122000Y-116981000D02*
X139040000Y-116981000D01*
X136960000Y-116941000D02*
X135851000Y-116941000D01*
X140149000Y-116941000D02*
X139040000Y-116941000D01*
X136960000Y-116901000D02*
X135825000Y-116901000D01*
X140175000Y-116901000D02*
X139040000Y-116901000D01*
X136960000Y-116861000D02*
X135800000Y-116861000D01*
X140200000Y-116861000D02*
X139040000Y-116861000D01*
X136960000Y-116821000D02*
X135776000Y-116821000D01*
X140224000Y-116821000D02*
X139040000Y-116821000D01*
X136960000Y-116781000D02*
X135753000Y-116781000D01*
X140247000Y-116781000D02*
X139040000Y-116781000D01*
X136960000Y-116741000D02*
X135732000Y-116741000D01*
X140268000Y-116741000D02*
X139040000Y-116741000D01*
X136960000Y-116701000D02*
X135710000Y-116701000D01*
X140290000Y-116701000D02*
X139040000Y-116701000D01*
X136960000Y-116661000D02*
X135690000Y-116661000D01*
X140310000Y-116661000D02*
X139040000Y-116661000D01*
X136960000Y-116621000D02*
X135671000Y-116621000D01*
X140329000Y-116621000D02*
X139040000Y-116621000D01*
X136960000Y-116581000D02*
X135652000Y-116581000D01*
X140348000Y-116581000D02*
X139040000Y-116581000D01*
X136960000Y-116541000D02*
X135635000Y-116541000D01*
X140365000Y-116541000D02*
X139040000Y-116541000D01*
X136960000Y-116501000D02*
X135618000Y-116501000D01*
X140382000Y-116501000D02*
X139040000Y-116501000D01*
X136960000Y-116461000D02*
X135602000Y-116461000D01*
X140398000Y-116461000D02*
X139040000Y-116461000D01*
X136960000Y-116421000D02*
X135586000Y-116421000D01*
X140414000Y-116421000D02*
X139040000Y-116421000D01*
X136960000Y-116381000D02*
X135572000Y-116381000D01*
X140428000Y-116381000D02*
X139040000Y-116381000D01*
X136960000Y-116341000D02*
X135558000Y-116341000D01*
X140442000Y-116341000D02*
X139040000Y-116341000D01*
X136960000Y-116301000D02*
X135545000Y-116301000D01*
X140455000Y-116301000D02*
X139040000Y-116301000D01*
X136960000Y-116261000D02*
X135532000Y-116261000D01*
X140468000Y-116261000D02*
X139040000Y-116261000D01*
X136960000Y-116221000D02*
X135520000Y-116221000D01*
X140480000Y-116221000D02*
X139040000Y-116221000D01*
X136960000Y-116180000D02*
X135509000Y-116180000D01*
X140491000Y-116180000D02*
X139040000Y-116180000D01*
X136960000Y-116140000D02*
X135499000Y-116140000D01*
X140501000Y-116140000D02*
X139040000Y-116140000D01*
X136960000Y-116100000D02*
X135489000Y-116100000D01*
X140511000Y-116100000D02*
X139040000Y-116100000D01*
X136960000Y-116060000D02*
X135480000Y-116060000D01*
X140520000Y-116060000D02*
X139040000Y-116060000D01*
X136960000Y-116020000D02*
X135472000Y-116020000D01*
X140528000Y-116020000D02*
X139040000Y-116020000D01*
X136960000Y-115980000D02*
X135464000Y-115980000D01*
X140536000Y-115980000D02*
X139040000Y-115980000D01*
X136960000Y-115940000D02*
X135457000Y-115940000D01*
X140543000Y-115940000D02*
X139040000Y-115940000D01*
X136960000Y-115900000D02*
X135450000Y-115900000D01*
X140550000Y-115900000D02*
X139040000Y-115900000D01*
X136960000Y-115860000D02*
X135444000Y-115860000D01*
X140556000Y-115860000D02*
X139040000Y-115860000D01*
X136960000Y-115820000D02*
X135439000Y-115820000D01*
X140561000Y-115820000D02*
X139040000Y-115820000D01*
X136960000Y-115780000D02*
X135435000Y-115780000D01*
X140565000Y-115780000D02*
X139040000Y-115780000D01*
X136960000Y-115740000D02*
X135431000Y-115740000D01*
X140569000Y-115740000D02*
X139040000Y-115740000D01*
X136960000Y-115700000D02*
X135427000Y-115700000D01*
X140573000Y-115700000D02*
X139040000Y-115700000D01*
X136960000Y-115660000D02*
X135424000Y-115660000D01*
X140576000Y-115660000D02*
X139040000Y-115660000D01*
X136960000Y-115620000D02*
X135422000Y-115620000D01*
X140578000Y-115620000D02*
X139040000Y-115620000D01*
X136960000Y-115580000D02*
X135421000Y-115580000D01*
X140579000Y-115580000D02*
X139040000Y-115580000D01*
X140580000Y-115540000D02*
X139040000Y-115540000D01*
X136960000Y-115540000D02*
X135420000Y-115540000D01*
X140580000Y-115500000D02*
X139040000Y-115500000D01*
X136960000Y-115500000D02*
X135420000Y-115500000D01*
X140620000Y-115500000D02*
G75*
G03X140620000Y-115500000I-2620000J0D01*
G01*
G04 #@! TO.C,D1*
X149130000Y-101970000D02*
X149130000Y-99030000D01*
X148890000Y-101970000D02*
X148890000Y-99030000D01*
X149010000Y-101970000D02*
X149010000Y-99030000D01*
X144470000Y-99030000D02*
X144470000Y-99160000D01*
X149910000Y-99030000D02*
X144470000Y-99030000D01*
X149910000Y-99160000D02*
X149910000Y-99030000D01*
X144470000Y-101970000D02*
X144470000Y-101840000D01*
X149910000Y-101970000D02*
X144470000Y-101970000D01*
X149910000Y-101840000D02*
X149910000Y-101970000D01*
G04 #@! TO.C,D2*
X156885000Y-94865000D02*
X153000000Y-94865000D01*
X156885000Y-97135000D02*
X156885000Y-94865000D01*
X153000000Y-97135000D02*
X156885000Y-97135000D01*
G04 #@! TO.C,D3*
X152315000Y-106135000D02*
X156200000Y-106135000D01*
X152315000Y-103865000D02*
X152315000Y-106135000D01*
X156200000Y-103865000D02*
X152315000Y-103865000D01*
G04 #@! TO.C,D4*
X144370000Y-110530000D02*
X144370000Y-113470000D01*
X144610000Y-110530000D02*
X144610000Y-113470000D01*
X144490000Y-110530000D02*
X144490000Y-113470000D01*
X149030000Y-113470000D02*
X149030000Y-113340000D01*
X143590000Y-113470000D02*
X149030000Y-113470000D01*
X143590000Y-113340000D02*
X143590000Y-113470000D01*
X149030000Y-110530000D02*
X149030000Y-110660000D01*
X143590000Y-110530000D02*
X149030000Y-110530000D01*
X143590000Y-110660000D02*
X143590000Y-110530000D01*
G04 #@! TO.C,D5*
X144370000Y-115030000D02*
X144370000Y-117970000D01*
X144610000Y-115030000D02*
X144610000Y-117970000D01*
X144490000Y-115030000D02*
X144490000Y-117970000D01*
X149030000Y-117970000D02*
X149030000Y-117840000D01*
X143590000Y-117970000D02*
X149030000Y-117970000D01*
X143590000Y-117840000D02*
X143590000Y-117970000D01*
X149030000Y-115030000D02*
X149030000Y-115160000D01*
X143590000Y-115030000D02*
X149030000Y-115030000D01*
X143590000Y-115160000D02*
X143590000Y-115030000D01*
G04 #@! TO.C,J1*
X158700000Y-113500000D02*
X158700000Y-111500000D01*
X172110000Y-117610000D02*
X169050000Y-117610000D01*
X172110000Y-107390000D02*
X172110000Y-117610000D01*
X169050000Y-107390000D02*
X172110000Y-107390000D01*
X158890000Y-107390000D02*
X164950000Y-107390000D01*
X158890000Y-110200000D02*
X158890000Y-107390000D01*
X158890000Y-117610000D02*
X158890000Y-114800000D01*
X164950000Y-117610000D02*
X158890000Y-117610000D01*
G04 #@! TO.C,R1*
X138800429Y-102034603D02*
X140004557Y-102034603D01*
X138800429Y-100214603D02*
X140004557Y-100214603D01*
G04 #@! TO.C,R2*
X140004557Y-95214603D02*
X138800429Y-95214603D01*
X140004557Y-97034603D02*
X138800429Y-97034603D01*
G04 #@! TO.C,R3*
X140004557Y-97714603D02*
X138800429Y-97714603D01*
X140004557Y-99534603D02*
X138800429Y-99534603D01*
G04 #@! TO.C,R5*
X158897936Y-105410000D02*
X160102064Y-105410000D01*
X158897936Y-103590000D02*
X160102064Y-103590000D01*
D13*
G04 #@! TO.C,U2*
X159100000Y-97900000D02*
X158750000Y-97900000D01*
X159100000Y-98000000D02*
X159100000Y-97900000D01*
X155450000Y-98000000D02*
X155050000Y-98000000D01*
X155550000Y-97900000D02*
X155450000Y-98000000D01*
X155950000Y-97900000D02*
X155550000Y-97900000D01*
X154900000Y-103100000D02*
X155350000Y-103100000D01*
X154900000Y-103000000D02*
X154900000Y-103100000D01*
X159100000Y-103100000D02*
X158700000Y-103100000D01*
X159100000Y-103000000D02*
X159100000Y-103100000D01*
G04 #@! TO.C,H1*
D14*
X138151342Y-105206714D02*
X137251342Y-105206714D01*
X137679914Y-105206714D02*
X137679914Y-104692428D01*
X138151342Y-104692428D02*
X137251342Y-104692428D01*
X138151342Y-103792428D02*
X138151342Y-104306714D01*
X138151342Y-104049571D02*
X137251342Y-104049571D01*
X137379914Y-104135285D01*
X137465628Y-104221000D01*
X137508485Y-104306714D01*
G04 #@! TO.C,L1*
X143282142Y-96670000D02*
X143282142Y-97098571D01*
X142382142Y-97098571D01*
X143282142Y-95898571D02*
X143282142Y-96412857D01*
X143282142Y-96155714D02*
X142382142Y-96155714D01*
X142510714Y-96241428D01*
X142596428Y-96327142D01*
X142639285Y-96412857D01*
G04 #@! TO.C,J2*
X131282342Y-106497400D02*
X131925200Y-106497400D01*
X132053771Y-106540257D01*
X132139485Y-106625971D01*
X132182342Y-106754542D01*
X132182342Y-106840257D01*
X131368057Y-106111685D02*
X131325200Y-106068828D01*
X131282342Y-105983114D01*
X131282342Y-105768828D01*
X131325200Y-105683114D01*
X131368057Y-105640257D01*
X131453771Y-105597400D01*
X131539485Y-105597400D01*
X131668057Y-105640257D01*
X132182342Y-106154542D01*
X132182342Y-105597400D01*
G04 #@! TO.C,U1*
X130520342Y-113995114D02*
X131248914Y-113995114D01*
X131334628Y-113952257D01*
X131377485Y-113909400D01*
X131420342Y-113823685D01*
X131420342Y-113652257D01*
X131377485Y-113566542D01*
X131334628Y-113523685D01*
X131248914Y-113480828D01*
X130520342Y-113480828D01*
X131420342Y-112580828D02*
X131420342Y-113095114D01*
X131420342Y-112837971D02*
X130520342Y-112837971D01*
X130648914Y-112923685D01*
X130734628Y-113009400D01*
X130777485Y-113095114D01*
G04 #@! TO.C,R4*
X159919142Y-96644600D02*
X159490571Y-96944600D01*
X159919142Y-97158885D02*
X159019142Y-97158885D01*
X159019142Y-96816028D01*
X159062000Y-96730314D01*
X159104857Y-96687457D01*
X159190571Y-96644600D01*
X159319142Y-96644600D01*
X159404857Y-96687457D01*
X159447714Y-96730314D01*
X159490571Y-96816028D01*
X159490571Y-97158885D01*
X159319142Y-95873171D02*
X159919142Y-95873171D01*
X158976285Y-96087457D02*
X159619142Y-96301742D01*
X159619142Y-95744600D01*
G04 #@! TO.C,C1*
X157166428Y-114323000D02*
X157209285Y-114365857D01*
X157252142Y-114494428D01*
X157252142Y-114580142D01*
X157209285Y-114708714D01*
X157123571Y-114794428D01*
X157037857Y-114837285D01*
X156866428Y-114880142D01*
X156737857Y-114880142D01*
X156566428Y-114837285D01*
X156480714Y-114794428D01*
X156395000Y-114708714D01*
X156352142Y-114580142D01*
X156352142Y-114494428D01*
X156395000Y-114365857D01*
X156437857Y-114323000D01*
X157252142Y-113465857D02*
X157252142Y-113980142D01*
X157252142Y-113723000D02*
X156352142Y-113723000D01*
X156480714Y-113808714D01*
X156566428Y-113894428D01*
X156609285Y-113980142D01*
G04 #@! TO.C,Q1*
X143392857Y-106585714D02*
X143350000Y-106671428D01*
X143264285Y-106757142D01*
X143135714Y-106885714D01*
X143092857Y-106971428D01*
X143092857Y-107057142D01*
X143307142Y-107014285D02*
X143264285Y-107100000D01*
X143178571Y-107185714D01*
X143007142Y-107228571D01*
X142707142Y-107228571D01*
X142535714Y-107185714D01*
X142450000Y-107100000D01*
X142407142Y-107014285D01*
X142407142Y-106842857D01*
X142450000Y-106757142D01*
X142535714Y-106671428D01*
X142707142Y-106628571D01*
X143007142Y-106628571D01*
X143178571Y-106671428D01*
X143264285Y-106757142D01*
X143307142Y-106842857D01*
X143307142Y-107014285D01*
X143307142Y-105771428D02*
X143307142Y-106285714D01*
X143307142Y-106028571D02*
X142407142Y-106028571D01*
X142535714Y-106114285D01*
X142621428Y-106200000D01*
X142664285Y-106285714D01*
G04 #@! TO.C,C3*
X152010228Y-108963600D02*
X152053085Y-109006457D01*
X152095942Y-109135028D01*
X152095942Y-109220742D01*
X152053085Y-109349314D01*
X151967371Y-109435028D01*
X151881657Y-109477885D01*
X151710228Y-109520742D01*
X151581657Y-109520742D01*
X151410228Y-109477885D01*
X151324514Y-109435028D01*
X151238800Y-109349314D01*
X151195942Y-109220742D01*
X151195942Y-109135028D01*
X151238800Y-109006457D01*
X151281657Y-108963600D01*
X151195942Y-108663600D02*
X151195942Y-108106457D01*
X151538800Y-108406457D01*
X151538800Y-108277885D01*
X151581657Y-108192171D01*
X151624514Y-108149314D01*
X151710228Y-108106457D01*
X151924514Y-108106457D01*
X152010228Y-108149314D01*
X152053085Y-108192171D01*
X152095942Y-108277885D01*
X152095942Y-108535028D01*
X152053085Y-108620742D01*
X152010228Y-108663600D01*
G04 #@! TO.C,J3*
X166807142Y-100800000D02*
X167450000Y-100800000D01*
X167578571Y-100842857D01*
X167664285Y-100928571D01*
X167707142Y-101057142D01*
X167707142Y-101142857D01*
X166807142Y-100457142D02*
X166807142Y-99900000D01*
X167150000Y-100200000D01*
X167150000Y-100071428D01*
X167192857Y-99985714D01*
X167235714Y-99942857D01*
X167321428Y-99900000D01*
X167535714Y-99900000D01*
X167621428Y-99942857D01*
X167664285Y-99985714D01*
X167707142Y-100071428D01*
X167707142Y-100328571D01*
X167664285Y-100414285D01*
X167621428Y-100457142D01*
G04 #@! TO.C,C2*
X140859628Y-118082200D02*
X140902485Y-118125057D01*
X140945342Y-118253628D01*
X140945342Y-118339342D01*
X140902485Y-118467914D01*
X140816771Y-118553628D01*
X140731057Y-118596485D01*
X140559628Y-118639342D01*
X140431057Y-118639342D01*
X140259628Y-118596485D01*
X140173914Y-118553628D01*
X140088200Y-118467914D01*
X140045342Y-118339342D01*
X140045342Y-118253628D01*
X140088200Y-118125057D01*
X140131057Y-118082200D01*
X140131057Y-117739342D02*
X140088200Y-117696485D01*
X140045342Y-117610771D01*
X140045342Y-117396485D01*
X140088200Y-117310771D01*
X140131057Y-117267914D01*
X140216771Y-117225057D01*
X140302485Y-117225057D01*
X140431057Y-117267914D01*
X140945342Y-117782200D01*
X140945342Y-117225057D01*
G04 #@! TO.C,D1*
X148539942Y-101146685D02*
X147639942Y-101146685D01*
X147639942Y-100932400D01*
X147682800Y-100803828D01*
X147768514Y-100718114D01*
X147854228Y-100675257D01*
X148025657Y-100632400D01*
X148154228Y-100632400D01*
X148325657Y-100675257D01*
X148411371Y-100718114D01*
X148497085Y-100803828D01*
X148539942Y-100932400D01*
X148539942Y-101146685D01*
X148539942Y-99775257D02*
X148539942Y-100289542D01*
X148539942Y-100032400D02*
X147639942Y-100032400D01*
X147768514Y-100118114D01*
X147854228Y-100203828D01*
X147897085Y-100289542D01*
D15*
X151887180Y-98890104D02*
X150887180Y-98890104D01*
X151887180Y-98318676D02*
X151315752Y-98747247D01*
X150887180Y-98318676D02*
X151458609Y-98890104D01*
G04 #@! TO.C,D2*
D14*
X155042342Y-96650885D02*
X154142342Y-96650885D01*
X154142342Y-96436600D01*
X154185200Y-96308028D01*
X154270914Y-96222314D01*
X154356628Y-96179457D01*
X154528057Y-96136600D01*
X154656628Y-96136600D01*
X154828057Y-96179457D01*
X154913771Y-96222314D01*
X154999485Y-96308028D01*
X155042342Y-96436600D01*
X155042342Y-96650885D01*
X154228057Y-95793742D02*
X154185200Y-95750885D01*
X154142342Y-95665171D01*
X154142342Y-95450885D01*
X154185200Y-95365171D01*
X154228057Y-95322314D01*
X154313771Y-95279457D01*
X154399485Y-95279457D01*
X154528057Y-95322314D01*
X155042342Y-95836600D01*
X155042342Y-95279457D01*
G04 #@! TO.C,D3*
X155067742Y-105667885D02*
X154167742Y-105667885D01*
X154167742Y-105453600D01*
X154210600Y-105325028D01*
X154296314Y-105239314D01*
X154382028Y-105196457D01*
X154553457Y-105153600D01*
X154682028Y-105153600D01*
X154853457Y-105196457D01*
X154939171Y-105239314D01*
X155024885Y-105325028D01*
X155067742Y-105453600D01*
X155067742Y-105667885D01*
X154167742Y-104853600D02*
X154167742Y-104296457D01*
X154510600Y-104596457D01*
X154510600Y-104467885D01*
X154553457Y-104382171D01*
X154596314Y-104339314D01*
X154682028Y-104296457D01*
X154896314Y-104296457D01*
X154982028Y-104339314D01*
X155024885Y-104382171D01*
X155067742Y-104467885D01*
X155067742Y-104725028D01*
X155024885Y-104810742D01*
X154982028Y-104853600D01*
G04 #@! TO.C,D4*
X148438342Y-112652885D02*
X147538342Y-112652885D01*
X147538342Y-112438600D01*
X147581200Y-112310028D01*
X147666914Y-112224314D01*
X147752628Y-112181457D01*
X147924057Y-112138600D01*
X148052628Y-112138600D01*
X148224057Y-112181457D01*
X148309771Y-112224314D01*
X148395485Y-112310028D01*
X148438342Y-112438600D01*
X148438342Y-112652885D01*
X147838342Y-111367171D02*
X148438342Y-111367171D01*
X147495485Y-111581457D02*
X148138342Y-111795742D01*
X148138342Y-111238600D01*
D15*
X142971780Y-114003104D02*
X141971780Y-114003104D01*
X142971780Y-113431676D02*
X142400352Y-113860247D01*
X141971780Y-113431676D02*
X142543209Y-114003104D01*
G04 #@! TO.C,D5*
D14*
X148438342Y-117123285D02*
X147538342Y-117123285D01*
X147538342Y-116909000D01*
X147581200Y-116780428D01*
X147666914Y-116694714D01*
X147752628Y-116651857D01*
X147924057Y-116609000D01*
X148052628Y-116609000D01*
X148224057Y-116651857D01*
X148309771Y-116694714D01*
X148395485Y-116780428D01*
X148438342Y-116909000D01*
X148438342Y-117123285D01*
X147538342Y-115794714D02*
X147538342Y-116223285D01*
X147966914Y-116266142D01*
X147924057Y-116223285D01*
X147881200Y-116137571D01*
X147881200Y-115923285D01*
X147924057Y-115837571D01*
X147966914Y-115794714D01*
X148052628Y-115751857D01*
X148266914Y-115751857D01*
X148352628Y-115794714D01*
X148395485Y-115837571D01*
X148438342Y-115923285D01*
X148438342Y-116137571D01*
X148395485Y-116223285D01*
X148352628Y-116266142D01*
D15*
X142946380Y-118498904D02*
X141946380Y-118498904D01*
X142946380Y-117927476D02*
X142374952Y-118356047D01*
X141946380Y-117927476D02*
X142517809Y-118498904D01*
G04 #@! TO.C,J1*
D14*
X162507142Y-112800000D02*
X163150000Y-112800000D01*
X163278571Y-112842857D01*
X163364285Y-112928571D01*
X163407142Y-113057142D01*
X163407142Y-113142857D01*
X163407142Y-111900000D02*
X163407142Y-112414285D01*
X163407142Y-112157142D02*
X162507142Y-112157142D01*
X162635714Y-112242857D01*
X162721428Y-112328571D01*
X162764285Y-112414285D01*
G04 #@! TO.C,R1*
X139809635Y-101250000D02*
X139381064Y-101550000D01*
X139809635Y-101764285D02*
X138909635Y-101764285D01*
X138909635Y-101421428D01*
X138952493Y-101335714D01*
X138995350Y-101292857D01*
X139081064Y-101250000D01*
X139209635Y-101250000D01*
X139295350Y-101292857D01*
X139338207Y-101335714D01*
X139381064Y-101421428D01*
X139381064Y-101764285D01*
X139809635Y-100392857D02*
X139809635Y-100907142D01*
X139809635Y-100650000D02*
X138909635Y-100650000D01*
X139038207Y-100735714D01*
X139123921Y-100821428D01*
X139166778Y-100907142D01*
G04 #@! TO.C,R2*
X139809635Y-96250000D02*
X139381064Y-96550000D01*
X139809635Y-96764285D02*
X138909635Y-96764285D01*
X138909635Y-96421428D01*
X138952493Y-96335714D01*
X138995350Y-96292857D01*
X139081064Y-96250000D01*
X139209635Y-96250000D01*
X139295350Y-96292857D01*
X139338207Y-96335714D01*
X139381064Y-96421428D01*
X139381064Y-96764285D01*
X138995350Y-95907142D02*
X138952493Y-95864285D01*
X138909635Y-95778571D01*
X138909635Y-95564285D01*
X138952493Y-95478571D01*
X138995350Y-95435714D01*
X139081064Y-95392857D01*
X139166778Y-95392857D01*
X139295350Y-95435714D01*
X139809635Y-95950000D01*
X139809635Y-95392857D01*
G04 #@! TO.C,R3*
X139809635Y-98750000D02*
X139381064Y-99050000D01*
X139809635Y-99264285D02*
X138909635Y-99264285D01*
X138909635Y-98921428D01*
X138952493Y-98835714D01*
X138995350Y-98792857D01*
X139081064Y-98750000D01*
X139209635Y-98750000D01*
X139295350Y-98792857D01*
X139338207Y-98835714D01*
X139381064Y-98921428D01*
X139381064Y-99264285D01*
X138909635Y-98450000D02*
X138909635Y-97892857D01*
X139252493Y-98192857D01*
X139252493Y-98064285D01*
X139295350Y-97978571D01*
X139338207Y-97935714D01*
X139423921Y-97892857D01*
X139638207Y-97892857D01*
X139723921Y-97935714D01*
X139766778Y-97978571D01*
X139809635Y-98064285D01*
X139809635Y-98321428D01*
X139766778Y-98407142D01*
X139723921Y-98450000D01*
G04 #@! TO.C,R5*
X159944542Y-104620200D02*
X159515971Y-104920200D01*
X159944542Y-105134485D02*
X159044542Y-105134485D01*
X159044542Y-104791628D01*
X159087400Y-104705914D01*
X159130257Y-104663057D01*
X159215971Y-104620200D01*
X159344542Y-104620200D01*
X159430257Y-104663057D01*
X159473114Y-104705914D01*
X159515971Y-104791628D01*
X159515971Y-105134485D01*
X159044542Y-103805914D02*
X159044542Y-104234485D01*
X159473114Y-104277342D01*
X159430257Y-104234485D01*
X159387400Y-104148771D01*
X159387400Y-103934485D01*
X159430257Y-103848771D01*
X159473114Y-103805914D01*
X159558828Y-103763057D01*
X159773114Y-103763057D01*
X159858828Y-103805914D01*
X159901685Y-103848771D01*
X159944542Y-103934485D01*
X159944542Y-104148771D01*
X159901685Y-104234485D01*
X159858828Y-104277342D01*
G04 #@! TO.C,U2*
X156580742Y-101218914D02*
X157309314Y-101218914D01*
X157395028Y-101176057D01*
X157437885Y-101133200D01*
X157480742Y-101047485D01*
X157480742Y-100876057D01*
X157437885Y-100790342D01*
X157395028Y-100747485D01*
X157309314Y-100704628D01*
X156580742Y-100704628D01*
X156666457Y-100318914D02*
X156623600Y-100276057D01*
X156580742Y-100190342D01*
X156580742Y-99976057D01*
X156623600Y-99890342D01*
X156666457Y-99847485D01*
X156752171Y-99804628D01*
X156837885Y-99804628D01*
X156966457Y-99847485D01*
X157480742Y-100361771D01*
X157480742Y-99804628D01*
G04 #@! TD*
M02*
