G04 #@! TF.GenerationSoftware,KiCad,Pcbnew,5.0.2-bee76a0~70~ubuntu18.04.1*
G04 #@! TF.CreationDate,2019-03-13T17:32:59-07:00*
G04 #@! TF.ProjectId,shellbell,7368656c-6c62-4656-9c6c-2e6b69636164,rev?*
G04 #@! TF.SameCoordinates,Original*
G04 #@! TF.FileFunction,Copper,L2,Bot*
G04 #@! TF.FilePolarity,Positive*
%FSLAX46Y46*%
G04 Gerber Fmt 4.6, Leading zero omitted, Abs format (unit mm)*
G04 Created by KiCad (PCBNEW 5.0.2-bee76a0~70~ubuntu18.04.1) date Wed 13 Mar 2019 05:32:59 PM PDT*
%MOMM*%
%LPD*%
G01*
G04 APERTURE LIST*
G04 #@! TA.AperFunction,ComponentPad*
%ADD10O,2.200000X2.200000*%
G04 #@! TD*
G04 #@! TA.AperFunction,ComponentPad*
%ADD11R,2.200000X2.200000*%
G04 #@! TD*
G04 #@! TA.AperFunction,ComponentPad*
%ADD12O,3.500000X2.000000*%
G04 #@! TD*
G04 #@! TA.AperFunction,ComponentPad*
%ADD13O,2.000000X3.300000*%
G04 #@! TD*
G04 #@! TA.AperFunction,ComponentPad*
%ADD14R,2.000000X4.000000*%
G04 #@! TD*
G04 #@! TA.AperFunction,ComponentPad*
%ADD15C,1.600000*%
G04 #@! TD*
G04 #@! TA.AperFunction,ComponentPad*
%ADD16R,1.600000X1.600000*%
G04 #@! TD*
G04 #@! TA.AperFunction,ComponentPad*
%ADD17O,1.700000X1.700000*%
G04 #@! TD*
G04 #@! TA.AperFunction,ComponentPad*
%ADD18R,1.700000X1.700000*%
G04 #@! TD*
G04 #@! TA.AperFunction,ComponentPad*
%ADD19O,1.905000X2.000000*%
G04 #@! TD*
G04 #@! TA.AperFunction,ComponentPad*
%ADD20R,1.905000X2.000000*%
G04 #@! TD*
G04 #@! TA.AperFunction,ViaPad*
%ADD21C,0.800000*%
G04 #@! TD*
G04 #@! TA.AperFunction,Conductor*
%ADD22C,0.254000*%
G04 #@! TD*
G04 APERTURE END LIST*
D10*
G04 #@! TO.P,D1,2*
G04 #@! TO.N,Net-(D1-Pad2)*
X139700000Y-74930000D03*
D11*
G04 #@! TO.P,D1,1*
G04 #@! TO.N,+12V*
X147320000Y-74930000D03*
G04 #@! TD*
D12*
G04 #@! TO.P,J1,MP*
G04 #@! TO.N,N/C*
X144130000Y-89590000D03*
X144130000Y-80590000D03*
D13*
G04 #@! TO.P,J1,2*
G04 #@! TO.N,GND*
X145130000Y-85090000D03*
D14*
G04 #@! TO.P,J1,1*
G04 #@! TO.N,+12V*
X151130000Y-85090000D03*
G04 #@! TD*
D15*
G04 #@! TO.P,C2,2*
G04 #@! TO.N,GND*
X153670000Y-71660000D03*
D16*
G04 #@! TO.P,C2,1*
G04 #@! TO.N,+3V3*
X153670000Y-73660000D03*
G04 #@! TD*
D15*
G04 #@! TO.P,C1,2*
G04 #@! TO.N,GND*
X159980000Y-85090000D03*
D16*
G04 #@! TO.P,C1,1*
G04 #@! TO.N,+12V*
X157480000Y-85090000D03*
G04 #@! TD*
D17*
G04 #@! TO.P,L1,2*
G04 #@! TO.N,Net-(D1-Pad2)*
X142240000Y-69850000D03*
D18*
G04 #@! TO.P,L1,1*
G04 #@! TO.N,+12V*
X144780000Y-69850000D03*
G04 #@! TD*
D17*
G04 #@! TO.P,J2,8*
G04 #@! TO.N,+3V3*
X173990000Y-71120000D03*
G04 #@! TO.P,J2,7*
G04 #@! TO.N,Net-(J2-Pad7)*
X171450000Y-71120000D03*
G04 #@! TO.P,J2,6*
G04 #@! TO.N,Net-(J2-Pad6)*
X173990000Y-73660000D03*
G04 #@! TO.P,J2,5*
G04 #@! TO.N,Net-(J2-Pad5)*
X171450000Y-73660000D03*
G04 #@! TO.P,J2,4*
G04 #@! TO.N,+3V3*
X173990000Y-76200000D03*
G04 #@! TO.P,J2,3*
G04 #@! TO.N,Net-(J2-Pad3)*
X171450000Y-76200000D03*
G04 #@! TO.P,J2,2*
G04 #@! TO.N,Net-(J2-Pad2)*
X173990000Y-78740000D03*
D18*
G04 #@! TO.P,J2,1*
G04 #@! TO.N,GND*
X171450000Y-78740000D03*
G04 #@! TD*
D19*
G04 #@! TO.P,Q1,3*
G04 #@! TO.N,GND*
X167640000Y-87630000D03*
G04 #@! TO.P,Q1,2*
G04 #@! TO.N,Net-(D1-Pad2)*
X170180000Y-87630000D03*
D20*
G04 #@! TO.P,Q1,1*
G04 #@! TO.N,Net-(J2-Pad3)*
X172720000Y-87630000D03*
G04 #@! TD*
D21*
G04 #@! TO.N,GND*
X167640000Y-87630000D03*
X160020000Y-85090000D03*
X160020000Y-85090000D03*
X160020000Y-85090000D03*
X160020000Y-85090000D03*
X160020000Y-85090000D03*
X160020000Y-85090000D03*
X160020000Y-85090000D03*
X167640000Y-87630000D03*
X167640000Y-87630000D03*
X167640000Y-87630000D03*
X167640000Y-87630000D03*
X167640000Y-87630000D03*
X167640000Y-87630000D03*
G04 #@! TD*
D22*
G04 #@! TO.N,GND*
G36*
X175819111Y-90730000D02*
X146084674Y-90730000D01*
X146420136Y-90227945D01*
X146547031Y-89590000D01*
X146420136Y-88952055D01*
X146058769Y-88411231D01*
X145517945Y-88049864D01*
X145286688Y-88003864D01*
X166087620Y-88003864D01*
X166330682Y-88573091D01*
X166773076Y-89005973D01*
X167267020Y-89220563D01*
X167513000Y-89100594D01*
X167513000Y-87757000D01*
X166214428Y-87757000D01*
X166087620Y-88003864D01*
X145286688Y-88003864D01*
X145041031Y-87955000D01*
X143218969Y-87955000D01*
X142742055Y-88049864D01*
X142201231Y-88411231D01*
X141839864Y-88952055D01*
X141712969Y-89590000D01*
X141839864Y-90227945D01*
X142175326Y-90730000D01*
X139142079Y-90730000D01*
X139159404Y-84804561D01*
X140695000Y-84804561D01*
X140695000Y-85375439D01*
X140913466Y-85902862D01*
X141317138Y-86306534D01*
X141844561Y-86525000D01*
X142415439Y-86525000D01*
X142942862Y-86306534D01*
X143346534Y-85902862D01*
X143495000Y-85544434D01*
X143495000Y-85867000D01*
X143668058Y-86483020D01*
X144063683Y-86985922D01*
X144621645Y-87299144D01*
X144749566Y-87330124D01*
X145003000Y-87210777D01*
X145003000Y-85217000D01*
X145257000Y-85217000D01*
X145257000Y-87210777D01*
X145510434Y-87330124D01*
X145638355Y-87299144D01*
X146196317Y-86985922D01*
X146591942Y-86483020D01*
X146765000Y-85867000D01*
X146765000Y-85217000D01*
X145257000Y-85217000D01*
X145003000Y-85217000D01*
X144983000Y-85217000D01*
X144983000Y-84963000D01*
X145003000Y-84963000D01*
X145003000Y-82969223D01*
X145257000Y-82969223D01*
X145257000Y-84963000D01*
X146765000Y-84963000D01*
X146765000Y-84313000D01*
X146591942Y-83696980D01*
X146196317Y-83194078D01*
X146010917Y-83090000D01*
X149482560Y-83090000D01*
X149482560Y-87090000D01*
X149531843Y-87337765D01*
X149672191Y-87547809D01*
X149882235Y-87688157D01*
X150130000Y-87737440D01*
X152130000Y-87737440D01*
X152377765Y-87688157D01*
X152587809Y-87547809D01*
X152728157Y-87337765D01*
X152744393Y-87256136D01*
X166087620Y-87256136D01*
X166214428Y-87503000D01*
X167513000Y-87503000D01*
X167513000Y-86159406D01*
X167767000Y-86159406D01*
X167767000Y-87503000D01*
X167787000Y-87503000D01*
X167787000Y-87757000D01*
X167767000Y-87757000D01*
X167767000Y-89100594D01*
X168012980Y-89220563D01*
X168506924Y-89005973D01*
X168900841Y-88620526D01*
X169035477Y-88822023D01*
X169560589Y-89172891D01*
X170180000Y-89296100D01*
X170799410Y-89172891D01*
X171191491Y-88910912D01*
X171309691Y-89087809D01*
X171519735Y-89228157D01*
X171767500Y-89277440D01*
X173672500Y-89277440D01*
X173920265Y-89228157D01*
X174130309Y-89087809D01*
X174270657Y-88877765D01*
X174319940Y-88630000D01*
X174319940Y-86630000D01*
X174270657Y-86382235D01*
X174130309Y-86172191D01*
X173920265Y-86031843D01*
X173672500Y-85982560D01*
X171767500Y-85982560D01*
X171519735Y-86031843D01*
X171309691Y-86172191D01*
X171191491Y-86349088D01*
X170799411Y-86087109D01*
X170180000Y-85963900D01*
X169560590Y-86087109D01*
X169035477Y-86437977D01*
X168900841Y-86639474D01*
X168506924Y-86254027D01*
X168012980Y-86039437D01*
X167767000Y-86159406D01*
X167513000Y-86159406D01*
X167267020Y-86039437D01*
X166773076Y-86254027D01*
X166330682Y-86686909D01*
X166087620Y-87256136D01*
X152744393Y-87256136D01*
X152777440Y-87090000D01*
X152777440Y-84290000D01*
X156032560Y-84290000D01*
X156032560Y-85890000D01*
X156081843Y-86137765D01*
X156222191Y-86347809D01*
X156432235Y-86488157D01*
X156680000Y-86537440D01*
X158280000Y-86537440D01*
X158527765Y-86488157D01*
X158737809Y-86347809D01*
X158878157Y-86137765D01*
X158886117Y-86097745D01*
X159151861Y-86097745D01*
X159225995Y-86343864D01*
X159763223Y-86536965D01*
X160333454Y-86509778D01*
X160734005Y-86343864D01*
X160808139Y-86097745D01*
X159980000Y-85269605D01*
X159151861Y-86097745D01*
X158886117Y-86097745D01*
X158924693Y-85903813D01*
X158972255Y-85918139D01*
X159800395Y-85090000D01*
X160159605Y-85090000D01*
X160987745Y-85918139D01*
X161233864Y-85844005D01*
X161426965Y-85306777D01*
X161399778Y-84736546D01*
X161233864Y-84335995D01*
X160987745Y-84261861D01*
X160159605Y-85090000D01*
X159800395Y-85090000D01*
X158972255Y-84261861D01*
X158924693Y-84276187D01*
X158886118Y-84082255D01*
X159151861Y-84082255D01*
X159980000Y-84910395D01*
X160808139Y-84082255D01*
X160734005Y-83836136D01*
X160196777Y-83643035D01*
X159626546Y-83670222D01*
X159225995Y-83836136D01*
X159151861Y-84082255D01*
X158886118Y-84082255D01*
X158878157Y-84042235D01*
X158737809Y-83832191D01*
X158527765Y-83691843D01*
X158280000Y-83642560D01*
X156680000Y-83642560D01*
X156432235Y-83691843D01*
X156222191Y-83832191D01*
X156081843Y-84042235D01*
X156032560Y-84290000D01*
X152777440Y-84290000D01*
X152777440Y-83090000D01*
X152728157Y-82842235D01*
X152587809Y-82632191D01*
X152377765Y-82491843D01*
X152130000Y-82442560D01*
X150130000Y-82442560D01*
X149882235Y-82491843D01*
X149672191Y-82632191D01*
X149531843Y-82842235D01*
X149482560Y-83090000D01*
X146010917Y-83090000D01*
X145638355Y-82880856D01*
X145510434Y-82849876D01*
X145257000Y-82969223D01*
X145003000Y-82969223D01*
X144749566Y-82849876D01*
X144621645Y-82880856D01*
X144063683Y-83194078D01*
X143668058Y-83696980D01*
X143495000Y-84313000D01*
X143495000Y-84635566D01*
X143346534Y-84277138D01*
X142942862Y-83873466D01*
X142415439Y-83655000D01*
X141844561Y-83655000D01*
X141317138Y-83873466D01*
X140913466Y-84277138D01*
X140695000Y-84804561D01*
X139159404Y-84804561D01*
X139171727Y-80590000D01*
X141712969Y-80590000D01*
X141839864Y-81227945D01*
X142201231Y-81768769D01*
X142742055Y-82130136D01*
X143218969Y-82225000D01*
X145041031Y-82225000D01*
X145517945Y-82130136D01*
X146058769Y-81768769D01*
X146420136Y-81227945D01*
X146547031Y-80590000D01*
X146420136Y-79952055D01*
X146058769Y-79411231D01*
X145517945Y-79049864D01*
X145396716Y-79025750D01*
X169965000Y-79025750D01*
X169965000Y-79716310D01*
X170061673Y-79949699D01*
X170240302Y-80128327D01*
X170473691Y-80225000D01*
X171164250Y-80225000D01*
X171323000Y-80066250D01*
X171323000Y-78867000D01*
X170123750Y-78867000D01*
X169965000Y-79025750D01*
X145396716Y-79025750D01*
X145041031Y-78955000D01*
X143218969Y-78955000D01*
X142742055Y-79049864D01*
X142201231Y-79411231D01*
X141839864Y-79952055D01*
X141712969Y-80590000D01*
X139171727Y-80590000D01*
X139183405Y-76596233D01*
X139529120Y-76665000D01*
X139870880Y-76665000D01*
X140376963Y-76564334D01*
X140950865Y-76180865D01*
X141334334Y-75606963D01*
X141468990Y-74930000D01*
X141334334Y-74253037D01*
X141051670Y-73830000D01*
X145572560Y-73830000D01*
X145572560Y-76030000D01*
X145621843Y-76277765D01*
X145762191Y-76487809D01*
X145972235Y-76628157D01*
X146220000Y-76677440D01*
X148420000Y-76677440D01*
X148667765Y-76628157D01*
X148877809Y-76487809D01*
X149018157Y-76277765D01*
X149067440Y-76030000D01*
X149067440Y-73830000D01*
X149018157Y-73582235D01*
X148877809Y-73372191D01*
X148667765Y-73231843D01*
X148420000Y-73182560D01*
X146220000Y-73182560D01*
X145972235Y-73231843D01*
X145762191Y-73372191D01*
X145621843Y-73582235D01*
X145572560Y-73830000D01*
X141051670Y-73830000D01*
X140950865Y-73679135D01*
X140376963Y-73295666D01*
X139870880Y-73195000D01*
X139529120Y-73195000D01*
X139193155Y-73261827D01*
X139194329Y-72860000D01*
X152222560Y-72860000D01*
X152222560Y-74460000D01*
X152271843Y-74707765D01*
X152412191Y-74917809D01*
X152622235Y-75058157D01*
X152870000Y-75107440D01*
X154470000Y-75107440D01*
X154717765Y-75058157D01*
X154927809Y-74917809D01*
X155068157Y-74707765D01*
X155117440Y-74460000D01*
X155117440Y-72860000D01*
X155068157Y-72612235D01*
X154928005Y-72402484D01*
X155116965Y-71876777D01*
X155089778Y-71306546D01*
X155012508Y-71120000D01*
X169935908Y-71120000D01*
X170051161Y-71699418D01*
X170379375Y-72190625D01*
X170677761Y-72390000D01*
X170379375Y-72589375D01*
X170051161Y-73080582D01*
X169935908Y-73660000D01*
X170051161Y-74239418D01*
X170379375Y-74730625D01*
X170677761Y-74930000D01*
X170379375Y-75129375D01*
X170051161Y-75620582D01*
X169935908Y-76200000D01*
X170051161Y-76779418D01*
X170379375Y-77270625D01*
X170401033Y-77285096D01*
X170240302Y-77351673D01*
X170061673Y-77530301D01*
X169965000Y-77763690D01*
X169965000Y-78454250D01*
X170123750Y-78613000D01*
X171323000Y-78613000D01*
X171323000Y-78593000D01*
X171577000Y-78593000D01*
X171577000Y-78613000D01*
X171597000Y-78613000D01*
X171597000Y-78867000D01*
X171577000Y-78867000D01*
X171577000Y-80066250D01*
X171735750Y-80225000D01*
X172426309Y-80225000D01*
X172659698Y-80128327D01*
X172838327Y-79949699D01*
X172904904Y-79788968D01*
X172919375Y-79810625D01*
X173410582Y-80138839D01*
X173843744Y-80225000D01*
X174136256Y-80225000D01*
X174569418Y-80138839D01*
X175060625Y-79810625D01*
X175388839Y-79319418D01*
X175504092Y-78740000D01*
X175388839Y-78160582D01*
X175060625Y-77669375D01*
X174762239Y-77470000D01*
X175060625Y-77270625D01*
X175388839Y-76779418D01*
X175504092Y-76200000D01*
X175388839Y-75620582D01*
X175060625Y-75129375D01*
X174762239Y-74930000D01*
X175060625Y-74730625D01*
X175388839Y-74239418D01*
X175504092Y-73660000D01*
X175388839Y-73080582D01*
X175060625Y-72589375D01*
X174762239Y-72390000D01*
X175060625Y-72190625D01*
X175388839Y-71699418D01*
X175504092Y-71120000D01*
X175388839Y-70540582D01*
X175060625Y-70049375D01*
X174569418Y-69721161D01*
X174136256Y-69635000D01*
X173843744Y-69635000D01*
X173410582Y-69721161D01*
X172919375Y-70049375D01*
X172720000Y-70347761D01*
X172520625Y-70049375D01*
X172029418Y-69721161D01*
X171596256Y-69635000D01*
X171303744Y-69635000D01*
X170870582Y-69721161D01*
X170379375Y-70049375D01*
X170051161Y-70540582D01*
X169935908Y-71120000D01*
X155012508Y-71120000D01*
X154923864Y-70905995D01*
X154677745Y-70831861D01*
X153849605Y-71660000D01*
X153863748Y-71674142D01*
X153684143Y-71853748D01*
X153670000Y-71839605D01*
X153655858Y-71853748D01*
X153476252Y-71674142D01*
X153490395Y-71660000D01*
X152662255Y-70831861D01*
X152416136Y-70905995D01*
X152223035Y-71443223D01*
X152250222Y-72013454D01*
X152411605Y-72403067D01*
X152271843Y-72612235D01*
X152222560Y-72860000D01*
X139194329Y-72860000D01*
X139203131Y-69850000D01*
X140725908Y-69850000D01*
X140841161Y-70429418D01*
X141169375Y-70920625D01*
X141660582Y-71248839D01*
X142093744Y-71335000D01*
X142386256Y-71335000D01*
X142819418Y-71248839D01*
X143310625Y-70920625D01*
X143322816Y-70902381D01*
X143331843Y-70947765D01*
X143472191Y-71157809D01*
X143682235Y-71298157D01*
X143930000Y-71347440D01*
X145630000Y-71347440D01*
X145877765Y-71298157D01*
X146087809Y-71157809D01*
X146228157Y-70947765D01*
X146277440Y-70700000D01*
X146277440Y-70652255D01*
X152841861Y-70652255D01*
X153670000Y-71480395D01*
X154498139Y-70652255D01*
X154424005Y-70406136D01*
X153886777Y-70213035D01*
X153316546Y-70240222D01*
X152915995Y-70406136D01*
X152841861Y-70652255D01*
X146277440Y-70652255D01*
X146277440Y-69000000D01*
X146228157Y-68752235D01*
X146087809Y-68542191D01*
X145877765Y-68401843D01*
X145630000Y-68352560D01*
X143930000Y-68352560D01*
X143682235Y-68401843D01*
X143472191Y-68542191D01*
X143331843Y-68752235D01*
X143322816Y-68797619D01*
X143310625Y-68779375D01*
X142819418Y-68451161D01*
X142386256Y-68365000D01*
X142093744Y-68365000D01*
X141660582Y-68451161D01*
X141169375Y-68779375D01*
X140841161Y-69270582D01*
X140725908Y-69850000D01*
X139203131Y-69850000D01*
X139207927Y-68210000D01*
X175790889Y-68210000D01*
X175819111Y-90730000D01*
X175819111Y-90730000D01*
G37*
X175819111Y-90730000D02*
X146084674Y-90730000D01*
X146420136Y-90227945D01*
X146547031Y-89590000D01*
X146420136Y-88952055D01*
X146058769Y-88411231D01*
X145517945Y-88049864D01*
X145286688Y-88003864D01*
X166087620Y-88003864D01*
X166330682Y-88573091D01*
X166773076Y-89005973D01*
X167267020Y-89220563D01*
X167513000Y-89100594D01*
X167513000Y-87757000D01*
X166214428Y-87757000D01*
X166087620Y-88003864D01*
X145286688Y-88003864D01*
X145041031Y-87955000D01*
X143218969Y-87955000D01*
X142742055Y-88049864D01*
X142201231Y-88411231D01*
X141839864Y-88952055D01*
X141712969Y-89590000D01*
X141839864Y-90227945D01*
X142175326Y-90730000D01*
X139142079Y-90730000D01*
X139159404Y-84804561D01*
X140695000Y-84804561D01*
X140695000Y-85375439D01*
X140913466Y-85902862D01*
X141317138Y-86306534D01*
X141844561Y-86525000D01*
X142415439Y-86525000D01*
X142942862Y-86306534D01*
X143346534Y-85902862D01*
X143495000Y-85544434D01*
X143495000Y-85867000D01*
X143668058Y-86483020D01*
X144063683Y-86985922D01*
X144621645Y-87299144D01*
X144749566Y-87330124D01*
X145003000Y-87210777D01*
X145003000Y-85217000D01*
X145257000Y-85217000D01*
X145257000Y-87210777D01*
X145510434Y-87330124D01*
X145638355Y-87299144D01*
X146196317Y-86985922D01*
X146591942Y-86483020D01*
X146765000Y-85867000D01*
X146765000Y-85217000D01*
X145257000Y-85217000D01*
X145003000Y-85217000D01*
X144983000Y-85217000D01*
X144983000Y-84963000D01*
X145003000Y-84963000D01*
X145003000Y-82969223D01*
X145257000Y-82969223D01*
X145257000Y-84963000D01*
X146765000Y-84963000D01*
X146765000Y-84313000D01*
X146591942Y-83696980D01*
X146196317Y-83194078D01*
X146010917Y-83090000D01*
X149482560Y-83090000D01*
X149482560Y-87090000D01*
X149531843Y-87337765D01*
X149672191Y-87547809D01*
X149882235Y-87688157D01*
X150130000Y-87737440D01*
X152130000Y-87737440D01*
X152377765Y-87688157D01*
X152587809Y-87547809D01*
X152728157Y-87337765D01*
X152744393Y-87256136D01*
X166087620Y-87256136D01*
X166214428Y-87503000D01*
X167513000Y-87503000D01*
X167513000Y-86159406D01*
X167767000Y-86159406D01*
X167767000Y-87503000D01*
X167787000Y-87503000D01*
X167787000Y-87757000D01*
X167767000Y-87757000D01*
X167767000Y-89100594D01*
X168012980Y-89220563D01*
X168506924Y-89005973D01*
X168900841Y-88620526D01*
X169035477Y-88822023D01*
X169560589Y-89172891D01*
X170180000Y-89296100D01*
X170799410Y-89172891D01*
X171191491Y-88910912D01*
X171309691Y-89087809D01*
X171519735Y-89228157D01*
X171767500Y-89277440D01*
X173672500Y-89277440D01*
X173920265Y-89228157D01*
X174130309Y-89087809D01*
X174270657Y-88877765D01*
X174319940Y-88630000D01*
X174319940Y-86630000D01*
X174270657Y-86382235D01*
X174130309Y-86172191D01*
X173920265Y-86031843D01*
X173672500Y-85982560D01*
X171767500Y-85982560D01*
X171519735Y-86031843D01*
X171309691Y-86172191D01*
X171191491Y-86349088D01*
X170799411Y-86087109D01*
X170180000Y-85963900D01*
X169560590Y-86087109D01*
X169035477Y-86437977D01*
X168900841Y-86639474D01*
X168506924Y-86254027D01*
X168012980Y-86039437D01*
X167767000Y-86159406D01*
X167513000Y-86159406D01*
X167267020Y-86039437D01*
X166773076Y-86254027D01*
X166330682Y-86686909D01*
X166087620Y-87256136D01*
X152744393Y-87256136D01*
X152777440Y-87090000D01*
X152777440Y-84290000D01*
X156032560Y-84290000D01*
X156032560Y-85890000D01*
X156081843Y-86137765D01*
X156222191Y-86347809D01*
X156432235Y-86488157D01*
X156680000Y-86537440D01*
X158280000Y-86537440D01*
X158527765Y-86488157D01*
X158737809Y-86347809D01*
X158878157Y-86137765D01*
X158886117Y-86097745D01*
X159151861Y-86097745D01*
X159225995Y-86343864D01*
X159763223Y-86536965D01*
X160333454Y-86509778D01*
X160734005Y-86343864D01*
X160808139Y-86097745D01*
X159980000Y-85269605D01*
X159151861Y-86097745D01*
X158886117Y-86097745D01*
X158924693Y-85903813D01*
X158972255Y-85918139D01*
X159800395Y-85090000D01*
X160159605Y-85090000D01*
X160987745Y-85918139D01*
X161233864Y-85844005D01*
X161426965Y-85306777D01*
X161399778Y-84736546D01*
X161233864Y-84335995D01*
X160987745Y-84261861D01*
X160159605Y-85090000D01*
X159800395Y-85090000D01*
X158972255Y-84261861D01*
X158924693Y-84276187D01*
X158886118Y-84082255D01*
X159151861Y-84082255D01*
X159980000Y-84910395D01*
X160808139Y-84082255D01*
X160734005Y-83836136D01*
X160196777Y-83643035D01*
X159626546Y-83670222D01*
X159225995Y-83836136D01*
X159151861Y-84082255D01*
X158886118Y-84082255D01*
X158878157Y-84042235D01*
X158737809Y-83832191D01*
X158527765Y-83691843D01*
X158280000Y-83642560D01*
X156680000Y-83642560D01*
X156432235Y-83691843D01*
X156222191Y-83832191D01*
X156081843Y-84042235D01*
X156032560Y-84290000D01*
X152777440Y-84290000D01*
X152777440Y-83090000D01*
X152728157Y-82842235D01*
X152587809Y-82632191D01*
X152377765Y-82491843D01*
X152130000Y-82442560D01*
X150130000Y-82442560D01*
X149882235Y-82491843D01*
X149672191Y-82632191D01*
X149531843Y-82842235D01*
X149482560Y-83090000D01*
X146010917Y-83090000D01*
X145638355Y-82880856D01*
X145510434Y-82849876D01*
X145257000Y-82969223D01*
X145003000Y-82969223D01*
X144749566Y-82849876D01*
X144621645Y-82880856D01*
X144063683Y-83194078D01*
X143668058Y-83696980D01*
X143495000Y-84313000D01*
X143495000Y-84635566D01*
X143346534Y-84277138D01*
X142942862Y-83873466D01*
X142415439Y-83655000D01*
X141844561Y-83655000D01*
X141317138Y-83873466D01*
X140913466Y-84277138D01*
X140695000Y-84804561D01*
X139159404Y-84804561D01*
X139171727Y-80590000D01*
X141712969Y-80590000D01*
X141839864Y-81227945D01*
X142201231Y-81768769D01*
X142742055Y-82130136D01*
X143218969Y-82225000D01*
X145041031Y-82225000D01*
X145517945Y-82130136D01*
X146058769Y-81768769D01*
X146420136Y-81227945D01*
X146547031Y-80590000D01*
X146420136Y-79952055D01*
X146058769Y-79411231D01*
X145517945Y-79049864D01*
X145396716Y-79025750D01*
X169965000Y-79025750D01*
X169965000Y-79716310D01*
X170061673Y-79949699D01*
X170240302Y-80128327D01*
X170473691Y-80225000D01*
X171164250Y-80225000D01*
X171323000Y-80066250D01*
X171323000Y-78867000D01*
X170123750Y-78867000D01*
X169965000Y-79025750D01*
X145396716Y-79025750D01*
X145041031Y-78955000D01*
X143218969Y-78955000D01*
X142742055Y-79049864D01*
X142201231Y-79411231D01*
X141839864Y-79952055D01*
X141712969Y-80590000D01*
X139171727Y-80590000D01*
X139183405Y-76596233D01*
X139529120Y-76665000D01*
X139870880Y-76665000D01*
X140376963Y-76564334D01*
X140950865Y-76180865D01*
X141334334Y-75606963D01*
X141468990Y-74930000D01*
X141334334Y-74253037D01*
X141051670Y-73830000D01*
X145572560Y-73830000D01*
X145572560Y-76030000D01*
X145621843Y-76277765D01*
X145762191Y-76487809D01*
X145972235Y-76628157D01*
X146220000Y-76677440D01*
X148420000Y-76677440D01*
X148667765Y-76628157D01*
X148877809Y-76487809D01*
X149018157Y-76277765D01*
X149067440Y-76030000D01*
X149067440Y-73830000D01*
X149018157Y-73582235D01*
X148877809Y-73372191D01*
X148667765Y-73231843D01*
X148420000Y-73182560D01*
X146220000Y-73182560D01*
X145972235Y-73231843D01*
X145762191Y-73372191D01*
X145621843Y-73582235D01*
X145572560Y-73830000D01*
X141051670Y-73830000D01*
X140950865Y-73679135D01*
X140376963Y-73295666D01*
X139870880Y-73195000D01*
X139529120Y-73195000D01*
X139193155Y-73261827D01*
X139194329Y-72860000D01*
X152222560Y-72860000D01*
X152222560Y-74460000D01*
X152271843Y-74707765D01*
X152412191Y-74917809D01*
X152622235Y-75058157D01*
X152870000Y-75107440D01*
X154470000Y-75107440D01*
X154717765Y-75058157D01*
X154927809Y-74917809D01*
X155068157Y-74707765D01*
X155117440Y-74460000D01*
X155117440Y-72860000D01*
X155068157Y-72612235D01*
X154928005Y-72402484D01*
X155116965Y-71876777D01*
X155089778Y-71306546D01*
X155012508Y-71120000D01*
X169935908Y-71120000D01*
X170051161Y-71699418D01*
X170379375Y-72190625D01*
X170677761Y-72390000D01*
X170379375Y-72589375D01*
X170051161Y-73080582D01*
X169935908Y-73660000D01*
X170051161Y-74239418D01*
X170379375Y-74730625D01*
X170677761Y-74930000D01*
X170379375Y-75129375D01*
X170051161Y-75620582D01*
X169935908Y-76200000D01*
X170051161Y-76779418D01*
X170379375Y-77270625D01*
X170401033Y-77285096D01*
X170240302Y-77351673D01*
X170061673Y-77530301D01*
X169965000Y-77763690D01*
X169965000Y-78454250D01*
X170123750Y-78613000D01*
X171323000Y-78613000D01*
X171323000Y-78593000D01*
X171577000Y-78593000D01*
X171577000Y-78613000D01*
X171597000Y-78613000D01*
X171597000Y-78867000D01*
X171577000Y-78867000D01*
X171577000Y-80066250D01*
X171735750Y-80225000D01*
X172426309Y-80225000D01*
X172659698Y-80128327D01*
X172838327Y-79949699D01*
X172904904Y-79788968D01*
X172919375Y-79810625D01*
X173410582Y-80138839D01*
X173843744Y-80225000D01*
X174136256Y-80225000D01*
X174569418Y-80138839D01*
X175060625Y-79810625D01*
X175388839Y-79319418D01*
X175504092Y-78740000D01*
X175388839Y-78160582D01*
X175060625Y-77669375D01*
X174762239Y-77470000D01*
X175060625Y-77270625D01*
X175388839Y-76779418D01*
X175504092Y-76200000D01*
X175388839Y-75620582D01*
X175060625Y-75129375D01*
X174762239Y-74930000D01*
X175060625Y-74730625D01*
X175388839Y-74239418D01*
X175504092Y-73660000D01*
X175388839Y-73080582D01*
X175060625Y-72589375D01*
X174762239Y-72390000D01*
X175060625Y-72190625D01*
X175388839Y-71699418D01*
X175504092Y-71120000D01*
X175388839Y-70540582D01*
X175060625Y-70049375D01*
X174569418Y-69721161D01*
X174136256Y-69635000D01*
X173843744Y-69635000D01*
X173410582Y-69721161D01*
X172919375Y-70049375D01*
X172720000Y-70347761D01*
X172520625Y-70049375D01*
X172029418Y-69721161D01*
X171596256Y-69635000D01*
X171303744Y-69635000D01*
X170870582Y-69721161D01*
X170379375Y-70049375D01*
X170051161Y-70540582D01*
X169935908Y-71120000D01*
X155012508Y-71120000D01*
X154923864Y-70905995D01*
X154677745Y-70831861D01*
X153849605Y-71660000D01*
X153863748Y-71674142D01*
X153684143Y-71853748D01*
X153670000Y-71839605D01*
X153655858Y-71853748D01*
X153476252Y-71674142D01*
X153490395Y-71660000D01*
X152662255Y-70831861D01*
X152416136Y-70905995D01*
X152223035Y-71443223D01*
X152250222Y-72013454D01*
X152411605Y-72403067D01*
X152271843Y-72612235D01*
X152222560Y-72860000D01*
X139194329Y-72860000D01*
X139203131Y-69850000D01*
X140725908Y-69850000D01*
X140841161Y-70429418D01*
X141169375Y-70920625D01*
X141660582Y-71248839D01*
X142093744Y-71335000D01*
X142386256Y-71335000D01*
X142819418Y-71248839D01*
X143310625Y-70920625D01*
X143322816Y-70902381D01*
X143331843Y-70947765D01*
X143472191Y-71157809D01*
X143682235Y-71298157D01*
X143930000Y-71347440D01*
X145630000Y-71347440D01*
X145877765Y-71298157D01*
X146087809Y-71157809D01*
X146228157Y-70947765D01*
X146277440Y-70700000D01*
X146277440Y-70652255D01*
X152841861Y-70652255D01*
X153670000Y-71480395D01*
X154498139Y-70652255D01*
X154424005Y-70406136D01*
X153886777Y-70213035D01*
X153316546Y-70240222D01*
X152915995Y-70406136D01*
X152841861Y-70652255D01*
X146277440Y-70652255D01*
X146277440Y-69000000D01*
X146228157Y-68752235D01*
X146087809Y-68542191D01*
X145877765Y-68401843D01*
X145630000Y-68352560D01*
X143930000Y-68352560D01*
X143682235Y-68401843D01*
X143472191Y-68542191D01*
X143331843Y-68752235D01*
X143322816Y-68797619D01*
X143310625Y-68779375D01*
X142819418Y-68451161D01*
X142386256Y-68365000D01*
X142093744Y-68365000D01*
X141660582Y-68451161D01*
X141169375Y-68779375D01*
X140841161Y-69270582D01*
X140725908Y-69850000D01*
X139203131Y-69850000D01*
X139207927Y-68210000D01*
X175790889Y-68210000D01*
X175819111Y-90730000D01*
G04 #@! TD*
M02*
