G04 #@! TF.GenerationSoftware,KiCad,Pcbnew,5.0.2-bee76a0~70~ubuntu18.04.1*
G04 #@! TF.CreationDate,2019-03-13T17:32:59-07:00*
G04 #@! TF.ProjectId,shellbell,7368656c-6c62-4656-9c6c-2e6b69636164,rev?*
G04 #@! TF.SameCoordinates,Original*
G04 #@! TF.FileFunction,Copper,L1,Top*
G04 #@! TF.FilePolarity,Positive*
%FSLAX46Y46*%
G04 Gerber Fmt 4.6, Leading zero omitted, Abs format (unit mm)*
G04 Created by KiCad (PCBNEW 5.0.2-bee76a0~70~ubuntu18.04.1) date Wed 13 Mar 2019 05:32:59 PM PDT*
%MOMM*%
%LPD*%
G01*
G04 APERTURE LIST*
G04 #@! TA.AperFunction,ComponentPad*
%ADD10O,2.200000X2.200000*%
G04 #@! TD*
G04 #@! TA.AperFunction,ComponentPad*
%ADD11R,2.200000X2.200000*%
G04 #@! TD*
G04 #@! TA.AperFunction,SMDPad,CuDef*
%ADD12R,2.000000X1.500000*%
G04 #@! TD*
G04 #@! TA.AperFunction,SMDPad,CuDef*
%ADD13R,2.000000X3.800000*%
G04 #@! TD*
G04 #@! TA.AperFunction,ComponentPad*
%ADD14O,3.500000X2.000000*%
G04 #@! TD*
G04 #@! TA.AperFunction,ComponentPad*
%ADD15O,2.000000X3.300000*%
G04 #@! TD*
G04 #@! TA.AperFunction,ComponentPad*
%ADD16R,2.000000X4.000000*%
G04 #@! TD*
G04 #@! TA.AperFunction,ComponentPad*
%ADD17C,1.600000*%
G04 #@! TD*
G04 #@! TA.AperFunction,ComponentPad*
%ADD18R,1.600000X1.600000*%
G04 #@! TD*
G04 #@! TA.AperFunction,ComponentPad*
%ADD19O,1.700000X1.700000*%
G04 #@! TD*
G04 #@! TA.AperFunction,ComponentPad*
%ADD20R,1.700000X1.700000*%
G04 #@! TD*
G04 #@! TA.AperFunction,ComponentPad*
%ADD21O,1.905000X2.000000*%
G04 #@! TD*
G04 #@! TA.AperFunction,ComponentPad*
%ADD22R,1.905000X2.000000*%
G04 #@! TD*
G04 #@! TA.AperFunction,ViaPad*
%ADD23C,0.800000*%
G04 #@! TD*
G04 #@! TA.AperFunction,Conductor*
%ADD24C,0.500000*%
G04 #@! TD*
G04 #@! TA.AperFunction,Conductor*
%ADD25C,0.254000*%
G04 #@! TD*
G04 APERTURE END LIST*
D10*
G04 #@! TO.P,D1,2*
G04 #@! TO.N,Net-(D1-Pad2)*
X139700000Y-74930000D03*
D11*
G04 #@! TO.P,D1,1*
G04 #@! TO.N,+12V*
X147320000Y-74930000D03*
G04 #@! TD*
D12*
G04 #@! TO.P,U1,1*
G04 #@! TO.N,GND*
X159410000Y-71360000D03*
G04 #@! TO.P,U1,3*
G04 #@! TO.N,+12V*
X159410000Y-75960000D03*
G04 #@! TO.P,U1,2*
G04 #@! TO.N,+3V3*
X159410000Y-73660000D03*
D13*
X165710000Y-73660000D03*
G04 #@! TD*
D14*
G04 #@! TO.P,J1,MP*
G04 #@! TO.N,N/C*
X144130000Y-89590000D03*
X144130000Y-80590000D03*
D15*
G04 #@! TO.P,J1,2*
G04 #@! TO.N,GND*
X145130000Y-85090000D03*
D16*
G04 #@! TO.P,J1,1*
G04 #@! TO.N,+12V*
X151130000Y-85090000D03*
G04 #@! TD*
D17*
G04 #@! TO.P,C2,2*
G04 #@! TO.N,GND*
X153670000Y-71660000D03*
D18*
G04 #@! TO.P,C2,1*
G04 #@! TO.N,+3V3*
X153670000Y-73660000D03*
G04 #@! TD*
D17*
G04 #@! TO.P,C1,2*
G04 #@! TO.N,GND*
X159980000Y-85090000D03*
D18*
G04 #@! TO.P,C1,1*
G04 #@! TO.N,+12V*
X157480000Y-85090000D03*
G04 #@! TD*
D19*
G04 #@! TO.P,L1,2*
G04 #@! TO.N,Net-(D1-Pad2)*
X142240000Y-69850000D03*
D20*
G04 #@! TO.P,L1,1*
G04 #@! TO.N,+12V*
X144780000Y-69850000D03*
G04 #@! TD*
D19*
G04 #@! TO.P,J2,8*
G04 #@! TO.N,+3V3*
X173990000Y-71120000D03*
G04 #@! TO.P,J2,7*
G04 #@! TO.N,Net-(J2-Pad7)*
X171450000Y-71120000D03*
G04 #@! TO.P,J2,6*
G04 #@! TO.N,Net-(J2-Pad6)*
X173990000Y-73660000D03*
G04 #@! TO.P,J2,5*
G04 #@! TO.N,Net-(J2-Pad5)*
X171450000Y-73660000D03*
G04 #@! TO.P,J2,4*
G04 #@! TO.N,+3V3*
X173990000Y-76200000D03*
G04 #@! TO.P,J2,3*
G04 #@! TO.N,Net-(J2-Pad3)*
X171450000Y-76200000D03*
G04 #@! TO.P,J2,2*
G04 #@! TO.N,Net-(J2-Pad2)*
X173990000Y-78740000D03*
D20*
G04 #@! TO.P,J2,1*
G04 #@! TO.N,GND*
X171450000Y-78740000D03*
G04 #@! TD*
D21*
G04 #@! TO.P,Q1,3*
G04 #@! TO.N,GND*
X167640000Y-87630000D03*
G04 #@! TO.P,Q1,2*
G04 #@! TO.N,Net-(D1-Pad2)*
X170180000Y-87630000D03*
D22*
G04 #@! TO.P,Q1,1*
G04 #@! TO.N,Net-(J2-Pad3)*
X172720000Y-87630000D03*
G04 #@! TD*
D23*
G04 #@! TO.N,GND*
X167640000Y-87630000D03*
X160020000Y-85090000D03*
X160020000Y-85090000D03*
X160020000Y-85090000D03*
X160020000Y-85090000D03*
X160020000Y-85090000D03*
X160020000Y-85090000D03*
X160020000Y-85090000D03*
X167640000Y-87630000D03*
X167640000Y-87630000D03*
X167640000Y-87630000D03*
X167640000Y-87630000D03*
X167640000Y-87630000D03*
X167640000Y-87630000D03*
G04 #@! TD*
D24*
G04 #@! TO.N,Net-(J2-Pad3)*
X172720000Y-87582500D02*
X172720000Y-87630000D01*
X170149999Y-85012499D02*
X172720000Y-87582500D01*
X170149999Y-77500001D02*
X170149999Y-85012499D01*
X171450000Y-76200000D02*
X170149999Y-77500001D01*
G04 #@! TO.N,+3V3*
X153670000Y-73660000D02*
X159410000Y-73660000D01*
X159410000Y-73660000D02*
X165710000Y-73660000D01*
G04 #@! TO.N,Net-(D1-Pad2)*
X139700000Y-72390000D02*
X142240000Y-69850000D01*
X139700000Y-74930000D02*
X139700000Y-72390000D01*
G04 #@! TO.N,GND*
X159110000Y-71660000D02*
X159410000Y-71360000D01*
X153670000Y-71660000D02*
X159110000Y-71660000D01*
G04 #@! TD*
D25*
G04 #@! TO.N,+12V*
G36*
X160079243Y-69962560D02*
X158410000Y-69962560D01*
X158162235Y-70011843D01*
X157952191Y-70152191D01*
X157811843Y-70362235D01*
X157762560Y-70610000D01*
X157762560Y-70775000D01*
X154814396Y-70775000D01*
X154482862Y-70443466D01*
X153955439Y-70225000D01*
X153384561Y-70225000D01*
X152857138Y-70443466D01*
X152453466Y-70847138D01*
X152235000Y-71374561D01*
X152235000Y-71945439D01*
X152421591Y-72395910D01*
X152412191Y-72402191D01*
X152271843Y-72612235D01*
X152222560Y-72860000D01*
X152222560Y-74460000D01*
X152271843Y-74707765D01*
X152412191Y-74917809D01*
X152622235Y-75058157D01*
X152870000Y-75107440D01*
X154470000Y-75107440D01*
X154717765Y-75058157D01*
X154927809Y-74917809D01*
X155068157Y-74707765D01*
X155100533Y-74545000D01*
X157789413Y-74545000D01*
X157811843Y-74657765D01*
X157912927Y-74809047D01*
X157871673Y-74850301D01*
X157775000Y-75083690D01*
X157775000Y-75674250D01*
X157933750Y-75833000D01*
X159283000Y-75833000D01*
X159283000Y-75813000D01*
X159537000Y-75813000D01*
X159537000Y-75833000D01*
X159557000Y-75833000D01*
X159557000Y-76087000D01*
X159537000Y-76087000D01*
X159537000Y-77186250D01*
X159695750Y-77345000D01*
X159933148Y-77345000D01*
X159894037Y-79321357D01*
X158660197Y-80555197D01*
X158632667Y-80596399D01*
X158623000Y-80645000D01*
X158623000Y-83744756D01*
X158406309Y-83655000D01*
X157765750Y-83655000D01*
X157607000Y-83813750D01*
X157607000Y-84963000D01*
X157627000Y-84963000D01*
X157627000Y-85217000D01*
X157607000Y-85217000D01*
X157607000Y-85237000D01*
X157353000Y-85237000D01*
X157353000Y-85217000D01*
X156203750Y-85217000D01*
X156045000Y-85375750D01*
X156045000Y-86016310D01*
X156134756Y-86233000D01*
X152765000Y-86233000D01*
X152765000Y-85375750D01*
X152606250Y-85217000D01*
X151257000Y-85217000D01*
X151257000Y-85237000D01*
X151003000Y-85237000D01*
X151003000Y-85217000D01*
X149653750Y-85217000D01*
X149495000Y-85375750D01*
X149495000Y-86233000D01*
X147447000Y-86233000D01*
X147447000Y-82963691D01*
X149495000Y-82963691D01*
X149495000Y-84804250D01*
X149653750Y-84963000D01*
X151003000Y-84963000D01*
X151003000Y-82613750D01*
X151257000Y-82613750D01*
X151257000Y-84963000D01*
X152606250Y-84963000D01*
X152765000Y-84804250D01*
X152765000Y-84163690D01*
X156045000Y-84163690D01*
X156045000Y-84804250D01*
X156203750Y-84963000D01*
X157353000Y-84963000D01*
X157353000Y-83813750D01*
X157194250Y-83655000D01*
X156553691Y-83655000D01*
X156320302Y-83751673D01*
X156141673Y-83930301D01*
X156045000Y-84163690D01*
X152765000Y-84163690D01*
X152765000Y-82963691D01*
X152668327Y-82730302D01*
X152489699Y-82551673D01*
X152256310Y-82455000D01*
X151415750Y-82455000D01*
X151257000Y-82613750D01*
X151003000Y-82613750D01*
X150844250Y-82455000D01*
X150003690Y-82455000D01*
X149770301Y-82551673D01*
X149591673Y-82730302D01*
X149495000Y-82963691D01*
X147447000Y-82963691D01*
X147447000Y-80010000D01*
X147437333Y-79961399D01*
X147421600Y-79933800D01*
X143883063Y-75215750D01*
X145585000Y-75215750D01*
X145585000Y-76156310D01*
X145681673Y-76389699D01*
X145860302Y-76568327D01*
X146093691Y-76665000D01*
X147034250Y-76665000D01*
X147193000Y-76506250D01*
X147193000Y-75057000D01*
X147447000Y-75057000D01*
X147447000Y-76506250D01*
X147605750Y-76665000D01*
X148546309Y-76665000D01*
X148779698Y-76568327D01*
X148958327Y-76389699D01*
X149017952Y-76245750D01*
X157775000Y-76245750D01*
X157775000Y-76836310D01*
X157871673Y-77069699D01*
X158050302Y-77248327D01*
X158283691Y-77345000D01*
X159124250Y-77345000D01*
X159283000Y-77186250D01*
X159283000Y-76087000D01*
X157933750Y-76087000D01*
X157775000Y-76245750D01*
X149017952Y-76245750D01*
X149055000Y-76156310D01*
X149055000Y-75215750D01*
X148896250Y-75057000D01*
X147447000Y-75057000D01*
X147193000Y-75057000D01*
X145743750Y-75057000D01*
X145585000Y-75215750D01*
X143883063Y-75215750D01*
X143638346Y-74889462D01*
X143675850Y-73703690D01*
X145585000Y-73703690D01*
X145585000Y-74644250D01*
X145743750Y-74803000D01*
X147193000Y-74803000D01*
X147193000Y-73353750D01*
X147447000Y-73353750D01*
X147447000Y-74803000D01*
X148896250Y-74803000D01*
X149055000Y-74644250D01*
X149055000Y-73703690D01*
X148958327Y-73470301D01*
X148779698Y-73291673D01*
X148546309Y-73195000D01*
X147605750Y-73195000D01*
X147447000Y-73353750D01*
X147193000Y-73353750D01*
X147034250Y-73195000D01*
X146093691Y-73195000D01*
X145860302Y-73291673D01*
X145681673Y-73470301D01*
X145585000Y-73703690D01*
X143675850Y-73703690D01*
X143751453Y-71313363D01*
X143803690Y-71335000D01*
X144494250Y-71335000D01*
X144653000Y-71176250D01*
X144653000Y-69977000D01*
X144907000Y-69977000D01*
X144907000Y-71176250D01*
X145065750Y-71335000D01*
X145756310Y-71335000D01*
X145989699Y-71238327D01*
X146168327Y-71059698D01*
X146265000Y-70826309D01*
X146265000Y-70135750D01*
X146106250Y-69977000D01*
X144907000Y-69977000D01*
X144653000Y-69977000D01*
X144633000Y-69977000D01*
X144633000Y-69723000D01*
X144653000Y-69723000D01*
X144653000Y-68523750D01*
X144907000Y-68523750D01*
X144907000Y-69723000D01*
X146106250Y-69723000D01*
X146265000Y-69564250D01*
X146265000Y-68873691D01*
X146168327Y-68640302D01*
X145989699Y-68461673D01*
X145756310Y-68365000D01*
X145065750Y-68365000D01*
X144907000Y-68523750D01*
X144653000Y-68523750D01*
X144494250Y-68365000D01*
X143844705Y-68365000D01*
X143849608Y-68210000D01*
X160113925Y-68210000D01*
X160079243Y-69962560D01*
X160079243Y-69962560D01*
G37*
X160079243Y-69962560D02*
X158410000Y-69962560D01*
X158162235Y-70011843D01*
X157952191Y-70152191D01*
X157811843Y-70362235D01*
X157762560Y-70610000D01*
X157762560Y-70775000D01*
X154814396Y-70775000D01*
X154482862Y-70443466D01*
X153955439Y-70225000D01*
X153384561Y-70225000D01*
X152857138Y-70443466D01*
X152453466Y-70847138D01*
X152235000Y-71374561D01*
X152235000Y-71945439D01*
X152421591Y-72395910D01*
X152412191Y-72402191D01*
X152271843Y-72612235D01*
X152222560Y-72860000D01*
X152222560Y-74460000D01*
X152271843Y-74707765D01*
X152412191Y-74917809D01*
X152622235Y-75058157D01*
X152870000Y-75107440D01*
X154470000Y-75107440D01*
X154717765Y-75058157D01*
X154927809Y-74917809D01*
X155068157Y-74707765D01*
X155100533Y-74545000D01*
X157789413Y-74545000D01*
X157811843Y-74657765D01*
X157912927Y-74809047D01*
X157871673Y-74850301D01*
X157775000Y-75083690D01*
X157775000Y-75674250D01*
X157933750Y-75833000D01*
X159283000Y-75833000D01*
X159283000Y-75813000D01*
X159537000Y-75813000D01*
X159537000Y-75833000D01*
X159557000Y-75833000D01*
X159557000Y-76087000D01*
X159537000Y-76087000D01*
X159537000Y-77186250D01*
X159695750Y-77345000D01*
X159933148Y-77345000D01*
X159894037Y-79321357D01*
X158660197Y-80555197D01*
X158632667Y-80596399D01*
X158623000Y-80645000D01*
X158623000Y-83744756D01*
X158406309Y-83655000D01*
X157765750Y-83655000D01*
X157607000Y-83813750D01*
X157607000Y-84963000D01*
X157627000Y-84963000D01*
X157627000Y-85217000D01*
X157607000Y-85217000D01*
X157607000Y-85237000D01*
X157353000Y-85237000D01*
X157353000Y-85217000D01*
X156203750Y-85217000D01*
X156045000Y-85375750D01*
X156045000Y-86016310D01*
X156134756Y-86233000D01*
X152765000Y-86233000D01*
X152765000Y-85375750D01*
X152606250Y-85217000D01*
X151257000Y-85217000D01*
X151257000Y-85237000D01*
X151003000Y-85237000D01*
X151003000Y-85217000D01*
X149653750Y-85217000D01*
X149495000Y-85375750D01*
X149495000Y-86233000D01*
X147447000Y-86233000D01*
X147447000Y-82963691D01*
X149495000Y-82963691D01*
X149495000Y-84804250D01*
X149653750Y-84963000D01*
X151003000Y-84963000D01*
X151003000Y-82613750D01*
X151257000Y-82613750D01*
X151257000Y-84963000D01*
X152606250Y-84963000D01*
X152765000Y-84804250D01*
X152765000Y-84163690D01*
X156045000Y-84163690D01*
X156045000Y-84804250D01*
X156203750Y-84963000D01*
X157353000Y-84963000D01*
X157353000Y-83813750D01*
X157194250Y-83655000D01*
X156553691Y-83655000D01*
X156320302Y-83751673D01*
X156141673Y-83930301D01*
X156045000Y-84163690D01*
X152765000Y-84163690D01*
X152765000Y-82963691D01*
X152668327Y-82730302D01*
X152489699Y-82551673D01*
X152256310Y-82455000D01*
X151415750Y-82455000D01*
X151257000Y-82613750D01*
X151003000Y-82613750D01*
X150844250Y-82455000D01*
X150003690Y-82455000D01*
X149770301Y-82551673D01*
X149591673Y-82730302D01*
X149495000Y-82963691D01*
X147447000Y-82963691D01*
X147447000Y-80010000D01*
X147437333Y-79961399D01*
X147421600Y-79933800D01*
X143883063Y-75215750D01*
X145585000Y-75215750D01*
X145585000Y-76156310D01*
X145681673Y-76389699D01*
X145860302Y-76568327D01*
X146093691Y-76665000D01*
X147034250Y-76665000D01*
X147193000Y-76506250D01*
X147193000Y-75057000D01*
X147447000Y-75057000D01*
X147447000Y-76506250D01*
X147605750Y-76665000D01*
X148546309Y-76665000D01*
X148779698Y-76568327D01*
X148958327Y-76389699D01*
X149017952Y-76245750D01*
X157775000Y-76245750D01*
X157775000Y-76836310D01*
X157871673Y-77069699D01*
X158050302Y-77248327D01*
X158283691Y-77345000D01*
X159124250Y-77345000D01*
X159283000Y-77186250D01*
X159283000Y-76087000D01*
X157933750Y-76087000D01*
X157775000Y-76245750D01*
X149017952Y-76245750D01*
X149055000Y-76156310D01*
X149055000Y-75215750D01*
X148896250Y-75057000D01*
X147447000Y-75057000D01*
X147193000Y-75057000D01*
X145743750Y-75057000D01*
X145585000Y-75215750D01*
X143883063Y-75215750D01*
X143638346Y-74889462D01*
X143675850Y-73703690D01*
X145585000Y-73703690D01*
X145585000Y-74644250D01*
X145743750Y-74803000D01*
X147193000Y-74803000D01*
X147193000Y-73353750D01*
X147447000Y-73353750D01*
X147447000Y-74803000D01*
X148896250Y-74803000D01*
X149055000Y-74644250D01*
X149055000Y-73703690D01*
X148958327Y-73470301D01*
X148779698Y-73291673D01*
X148546309Y-73195000D01*
X147605750Y-73195000D01*
X147447000Y-73353750D01*
X147193000Y-73353750D01*
X147034250Y-73195000D01*
X146093691Y-73195000D01*
X145860302Y-73291673D01*
X145681673Y-73470301D01*
X145585000Y-73703690D01*
X143675850Y-73703690D01*
X143751453Y-71313363D01*
X143803690Y-71335000D01*
X144494250Y-71335000D01*
X144653000Y-71176250D01*
X144653000Y-69977000D01*
X144907000Y-69977000D01*
X144907000Y-71176250D01*
X145065750Y-71335000D01*
X145756310Y-71335000D01*
X145989699Y-71238327D01*
X146168327Y-71059698D01*
X146265000Y-70826309D01*
X146265000Y-70135750D01*
X146106250Y-69977000D01*
X144907000Y-69977000D01*
X144653000Y-69977000D01*
X144633000Y-69977000D01*
X144633000Y-69723000D01*
X144653000Y-69723000D01*
X144653000Y-68523750D01*
X144907000Y-68523750D01*
X144907000Y-69723000D01*
X146106250Y-69723000D01*
X146265000Y-69564250D01*
X146265000Y-68873691D01*
X146168327Y-68640302D01*
X145989699Y-68461673D01*
X145756310Y-68365000D01*
X145065750Y-68365000D01*
X144907000Y-68523750D01*
X144653000Y-68523750D01*
X144494250Y-68365000D01*
X143844705Y-68365000D01*
X143849608Y-68210000D01*
X160113925Y-68210000D01*
X160079243Y-69962560D01*
G04 #@! TO.N,+3V3*
G36*
X175811884Y-84963000D02*
X171352078Y-84963000D01*
X171034999Y-84645921D01*
X171034999Y-80237440D01*
X172300000Y-80237440D01*
X172547765Y-80188157D01*
X172757809Y-80047809D01*
X172898157Y-79837765D01*
X172907184Y-79792381D01*
X172919375Y-79810625D01*
X173410582Y-80138839D01*
X173843744Y-80225000D01*
X174136256Y-80225000D01*
X174569418Y-80138839D01*
X175060625Y-79810625D01*
X175388839Y-79319418D01*
X175504092Y-78740000D01*
X175388839Y-78160582D01*
X175060625Y-77669375D01*
X174741522Y-77456157D01*
X174871358Y-77395183D01*
X175261645Y-76966924D01*
X175431476Y-76556890D01*
X175310155Y-76327000D01*
X174117000Y-76327000D01*
X174117000Y-76347000D01*
X173863000Y-76347000D01*
X173863000Y-76327000D01*
X173843000Y-76327000D01*
X173843000Y-76073000D01*
X173863000Y-76073000D01*
X173863000Y-76053000D01*
X174117000Y-76053000D01*
X174117000Y-76073000D01*
X175310155Y-76073000D01*
X175431476Y-75843110D01*
X175261645Y-75433076D01*
X174871358Y-75004817D01*
X174741522Y-74943843D01*
X175060625Y-74730625D01*
X175388839Y-74239418D01*
X175504092Y-73660000D01*
X175388839Y-73080582D01*
X175060625Y-72589375D01*
X174741522Y-72376157D01*
X174871358Y-72315183D01*
X175261645Y-71886924D01*
X175431476Y-71476890D01*
X175310155Y-71247000D01*
X174117000Y-71247000D01*
X174117000Y-71267000D01*
X173863000Y-71267000D01*
X173863000Y-71247000D01*
X173843000Y-71247000D01*
X173843000Y-70993000D01*
X173863000Y-70993000D01*
X173863000Y-69799181D01*
X174117000Y-69799181D01*
X174117000Y-70993000D01*
X175310155Y-70993000D01*
X175431476Y-70763110D01*
X175261645Y-70353076D01*
X174871358Y-69924817D01*
X174346892Y-69678514D01*
X174117000Y-69799181D01*
X173863000Y-69799181D01*
X173633108Y-69678514D01*
X173108642Y-69924817D01*
X172721353Y-70349786D01*
X172520625Y-70049375D01*
X172029418Y-69721161D01*
X171596256Y-69635000D01*
X171303744Y-69635000D01*
X170870582Y-69721161D01*
X170379375Y-70049375D01*
X170051161Y-70540582D01*
X169935908Y-71120000D01*
X170051161Y-71699418D01*
X170379375Y-72190625D01*
X170677761Y-72390000D01*
X170379375Y-72589375D01*
X170051161Y-73080582D01*
X169935908Y-73660000D01*
X170051161Y-74239418D01*
X170379375Y-74730625D01*
X170677761Y-74930000D01*
X170379375Y-75129375D01*
X170051161Y-75620582D01*
X169935908Y-76200000D01*
X169979462Y-76418960D01*
X169585846Y-76812576D01*
X169511950Y-76861952D01*
X169316347Y-77154692D01*
X169264999Y-77412837D01*
X169264999Y-77412840D01*
X169247662Y-77500001D01*
X169264999Y-77587162D01*
X169265000Y-84925334D01*
X169257508Y-84963000D01*
X161417651Y-84963000D01*
X161474021Y-73945750D01*
X164075000Y-73945750D01*
X164075000Y-75686310D01*
X164171673Y-75919699D01*
X164350302Y-76098327D01*
X164583691Y-76195000D01*
X165424250Y-76195000D01*
X165583000Y-76036250D01*
X165583000Y-73787000D01*
X165837000Y-73787000D01*
X165837000Y-76036250D01*
X165995750Y-76195000D01*
X166836309Y-76195000D01*
X167069698Y-76098327D01*
X167248327Y-75919699D01*
X167345000Y-75686310D01*
X167345000Y-73945750D01*
X167186250Y-73787000D01*
X165837000Y-73787000D01*
X165583000Y-73787000D01*
X164233750Y-73787000D01*
X164075000Y-73945750D01*
X161474021Y-73945750D01*
X161485851Y-71633690D01*
X164075000Y-71633690D01*
X164075000Y-73374250D01*
X164233750Y-73533000D01*
X165583000Y-73533000D01*
X165583000Y-71283750D01*
X165837000Y-71283750D01*
X165837000Y-73533000D01*
X167186250Y-73533000D01*
X167345000Y-73374250D01*
X167345000Y-71633690D01*
X167248327Y-71400301D01*
X167069698Y-71221673D01*
X166836309Y-71125000D01*
X165995750Y-71125000D01*
X165837000Y-71283750D01*
X165583000Y-71283750D01*
X165424250Y-71125000D01*
X164583691Y-71125000D01*
X164350302Y-71221673D01*
X164171673Y-71400301D01*
X164075000Y-71633690D01*
X161485851Y-71633690D01*
X161503369Y-68210000D01*
X175790889Y-68210000D01*
X175811884Y-84963000D01*
X175811884Y-84963000D01*
G37*
X175811884Y-84963000D02*
X171352078Y-84963000D01*
X171034999Y-84645921D01*
X171034999Y-80237440D01*
X172300000Y-80237440D01*
X172547765Y-80188157D01*
X172757809Y-80047809D01*
X172898157Y-79837765D01*
X172907184Y-79792381D01*
X172919375Y-79810625D01*
X173410582Y-80138839D01*
X173843744Y-80225000D01*
X174136256Y-80225000D01*
X174569418Y-80138839D01*
X175060625Y-79810625D01*
X175388839Y-79319418D01*
X175504092Y-78740000D01*
X175388839Y-78160582D01*
X175060625Y-77669375D01*
X174741522Y-77456157D01*
X174871358Y-77395183D01*
X175261645Y-76966924D01*
X175431476Y-76556890D01*
X175310155Y-76327000D01*
X174117000Y-76327000D01*
X174117000Y-76347000D01*
X173863000Y-76347000D01*
X173863000Y-76327000D01*
X173843000Y-76327000D01*
X173843000Y-76073000D01*
X173863000Y-76073000D01*
X173863000Y-76053000D01*
X174117000Y-76053000D01*
X174117000Y-76073000D01*
X175310155Y-76073000D01*
X175431476Y-75843110D01*
X175261645Y-75433076D01*
X174871358Y-75004817D01*
X174741522Y-74943843D01*
X175060625Y-74730625D01*
X175388839Y-74239418D01*
X175504092Y-73660000D01*
X175388839Y-73080582D01*
X175060625Y-72589375D01*
X174741522Y-72376157D01*
X174871358Y-72315183D01*
X175261645Y-71886924D01*
X175431476Y-71476890D01*
X175310155Y-71247000D01*
X174117000Y-71247000D01*
X174117000Y-71267000D01*
X173863000Y-71267000D01*
X173863000Y-71247000D01*
X173843000Y-71247000D01*
X173843000Y-70993000D01*
X173863000Y-70993000D01*
X173863000Y-69799181D01*
X174117000Y-69799181D01*
X174117000Y-70993000D01*
X175310155Y-70993000D01*
X175431476Y-70763110D01*
X175261645Y-70353076D01*
X174871358Y-69924817D01*
X174346892Y-69678514D01*
X174117000Y-69799181D01*
X173863000Y-69799181D01*
X173633108Y-69678514D01*
X173108642Y-69924817D01*
X172721353Y-70349786D01*
X172520625Y-70049375D01*
X172029418Y-69721161D01*
X171596256Y-69635000D01*
X171303744Y-69635000D01*
X170870582Y-69721161D01*
X170379375Y-70049375D01*
X170051161Y-70540582D01*
X169935908Y-71120000D01*
X170051161Y-71699418D01*
X170379375Y-72190625D01*
X170677761Y-72390000D01*
X170379375Y-72589375D01*
X170051161Y-73080582D01*
X169935908Y-73660000D01*
X170051161Y-74239418D01*
X170379375Y-74730625D01*
X170677761Y-74930000D01*
X170379375Y-75129375D01*
X170051161Y-75620582D01*
X169935908Y-76200000D01*
X169979462Y-76418960D01*
X169585846Y-76812576D01*
X169511950Y-76861952D01*
X169316347Y-77154692D01*
X169264999Y-77412837D01*
X169264999Y-77412840D01*
X169247662Y-77500001D01*
X169264999Y-77587162D01*
X169265000Y-84925334D01*
X169257508Y-84963000D01*
X161417651Y-84963000D01*
X161474021Y-73945750D01*
X164075000Y-73945750D01*
X164075000Y-75686310D01*
X164171673Y-75919699D01*
X164350302Y-76098327D01*
X164583691Y-76195000D01*
X165424250Y-76195000D01*
X165583000Y-76036250D01*
X165583000Y-73787000D01*
X165837000Y-73787000D01*
X165837000Y-76036250D01*
X165995750Y-76195000D01*
X166836309Y-76195000D01*
X167069698Y-76098327D01*
X167248327Y-75919699D01*
X167345000Y-75686310D01*
X167345000Y-73945750D01*
X167186250Y-73787000D01*
X165837000Y-73787000D01*
X165583000Y-73787000D01*
X164233750Y-73787000D01*
X164075000Y-73945750D01*
X161474021Y-73945750D01*
X161485851Y-71633690D01*
X164075000Y-71633690D01*
X164075000Y-73374250D01*
X164233750Y-73533000D01*
X165583000Y-73533000D01*
X165583000Y-71283750D01*
X165837000Y-71283750D01*
X165837000Y-73533000D01*
X167186250Y-73533000D01*
X167345000Y-73374250D01*
X167345000Y-71633690D01*
X167248327Y-71400301D01*
X167069698Y-71221673D01*
X166836309Y-71125000D01*
X165995750Y-71125000D01*
X165837000Y-71283750D01*
X165583000Y-71283750D01*
X165424250Y-71125000D01*
X164583691Y-71125000D01*
X164350302Y-71221673D01*
X164171673Y-71400301D01*
X164075000Y-71633690D01*
X161485851Y-71633690D01*
X161503369Y-68210000D01*
X175790889Y-68210000D01*
X175811884Y-84963000D01*
G04 #@! TO.N,Net-(D1-Pad2)*
G36*
X142173424Y-79452848D02*
X141839864Y-79952055D01*
X141712969Y-80590000D01*
X141839864Y-81227945D01*
X142153784Y-81697759D01*
X142136660Y-83655000D01*
X141844561Y-83655000D01*
X141317138Y-83873466D01*
X140913466Y-84277138D01*
X140695000Y-84804561D01*
X140695000Y-85375439D01*
X140913466Y-85902862D01*
X141317138Y-86306534D01*
X141844561Y-86525000D01*
X142225394Y-86525000D01*
X143420197Y-87719803D01*
X143461399Y-87747333D01*
X143510000Y-87757000D01*
X166052500Y-87757000D01*
X166052500Y-87833849D01*
X166144609Y-88296910D01*
X166495477Y-88822023D01*
X167020589Y-89172891D01*
X167640000Y-89296100D01*
X168259410Y-89172891D01*
X168784523Y-88822023D01*
X168919159Y-88620526D01*
X169313076Y-89005973D01*
X169807020Y-89220563D01*
X170053000Y-89100594D01*
X170053000Y-87757000D01*
X170307000Y-87757000D01*
X170307000Y-89100594D01*
X170552980Y-89220563D01*
X171046924Y-89005973D01*
X171172745Y-88882857D01*
X171309691Y-89087809D01*
X171519735Y-89228157D01*
X171767500Y-89277440D01*
X173672500Y-89277440D01*
X173920265Y-89228157D01*
X174130309Y-89087809D01*
X174270657Y-88877765D01*
X174319940Y-88630000D01*
X174319940Y-87757000D01*
X175815385Y-87757000D01*
X175819111Y-90730000D01*
X146084674Y-90730000D01*
X146420136Y-90227945D01*
X146547031Y-89590000D01*
X146420136Y-88952055D01*
X146058769Y-88411231D01*
X145517945Y-88049864D01*
X145041031Y-87955000D01*
X143218969Y-87955000D01*
X142742055Y-88049864D01*
X142201231Y-88411231D01*
X141839864Y-88952055D01*
X141712969Y-89590000D01*
X141839864Y-90227945D01*
X142175326Y-90730000D01*
X139142079Y-90730000D01*
X139183498Y-76564456D01*
X139303877Y-76619183D01*
X139573000Y-76501604D01*
X139573000Y-75057000D01*
X139827000Y-75057000D01*
X139827000Y-76501604D01*
X140096123Y-76619183D01*
X140712392Y-76339012D01*
X141174534Y-75844332D01*
X141389175Y-75326122D01*
X141271125Y-75057000D01*
X139827000Y-75057000D01*
X139573000Y-75057000D01*
X139553000Y-75057000D01*
X139553000Y-74803000D01*
X139573000Y-74803000D01*
X139573000Y-73358396D01*
X139827000Y-73358396D01*
X139827000Y-74803000D01*
X141271125Y-74803000D01*
X141389175Y-74533878D01*
X141174534Y-74015668D01*
X140712392Y-73520988D01*
X140096123Y-73240817D01*
X139827000Y-73358396D01*
X139573000Y-73358396D01*
X139303877Y-73240817D01*
X139193069Y-73291193D01*
X139202087Y-70206892D01*
X140798514Y-70206892D01*
X141044817Y-70731358D01*
X141473076Y-71121645D01*
X141883110Y-71291476D01*
X142113000Y-71170155D01*
X142113000Y-69977000D01*
X140919181Y-69977000D01*
X140798514Y-70206892D01*
X139202087Y-70206892D01*
X139204174Y-69493108D01*
X140798514Y-69493108D01*
X140919181Y-69723000D01*
X142113000Y-69723000D01*
X142113000Y-68529845D01*
X141883110Y-68408524D01*
X141473076Y-68578355D01*
X141044817Y-68968642D01*
X140798514Y-69493108D01*
X139204174Y-69493108D01*
X139207927Y-68210000D01*
X142271784Y-68210000D01*
X142173424Y-79452848D01*
X142173424Y-79452848D01*
G37*
X142173424Y-79452848D02*
X141839864Y-79952055D01*
X141712969Y-80590000D01*
X141839864Y-81227945D01*
X142153784Y-81697759D01*
X142136660Y-83655000D01*
X141844561Y-83655000D01*
X141317138Y-83873466D01*
X140913466Y-84277138D01*
X140695000Y-84804561D01*
X140695000Y-85375439D01*
X140913466Y-85902862D01*
X141317138Y-86306534D01*
X141844561Y-86525000D01*
X142225394Y-86525000D01*
X143420197Y-87719803D01*
X143461399Y-87747333D01*
X143510000Y-87757000D01*
X166052500Y-87757000D01*
X166052500Y-87833849D01*
X166144609Y-88296910D01*
X166495477Y-88822023D01*
X167020589Y-89172891D01*
X167640000Y-89296100D01*
X168259410Y-89172891D01*
X168784523Y-88822023D01*
X168919159Y-88620526D01*
X169313076Y-89005973D01*
X169807020Y-89220563D01*
X170053000Y-89100594D01*
X170053000Y-87757000D01*
X170307000Y-87757000D01*
X170307000Y-89100594D01*
X170552980Y-89220563D01*
X171046924Y-89005973D01*
X171172745Y-88882857D01*
X171309691Y-89087809D01*
X171519735Y-89228157D01*
X171767500Y-89277440D01*
X173672500Y-89277440D01*
X173920265Y-89228157D01*
X174130309Y-89087809D01*
X174270657Y-88877765D01*
X174319940Y-88630000D01*
X174319940Y-87757000D01*
X175815385Y-87757000D01*
X175819111Y-90730000D01*
X146084674Y-90730000D01*
X146420136Y-90227945D01*
X146547031Y-89590000D01*
X146420136Y-88952055D01*
X146058769Y-88411231D01*
X145517945Y-88049864D01*
X145041031Y-87955000D01*
X143218969Y-87955000D01*
X142742055Y-88049864D01*
X142201231Y-88411231D01*
X141839864Y-88952055D01*
X141712969Y-89590000D01*
X141839864Y-90227945D01*
X142175326Y-90730000D01*
X139142079Y-90730000D01*
X139183498Y-76564456D01*
X139303877Y-76619183D01*
X139573000Y-76501604D01*
X139573000Y-75057000D01*
X139827000Y-75057000D01*
X139827000Y-76501604D01*
X140096123Y-76619183D01*
X140712392Y-76339012D01*
X141174534Y-75844332D01*
X141389175Y-75326122D01*
X141271125Y-75057000D01*
X139827000Y-75057000D01*
X139573000Y-75057000D01*
X139553000Y-75057000D01*
X139553000Y-74803000D01*
X139573000Y-74803000D01*
X139573000Y-73358396D01*
X139827000Y-73358396D01*
X139827000Y-74803000D01*
X141271125Y-74803000D01*
X141389175Y-74533878D01*
X141174534Y-74015668D01*
X140712392Y-73520988D01*
X140096123Y-73240817D01*
X139827000Y-73358396D01*
X139573000Y-73358396D01*
X139303877Y-73240817D01*
X139193069Y-73291193D01*
X139202087Y-70206892D01*
X140798514Y-70206892D01*
X141044817Y-70731358D01*
X141473076Y-71121645D01*
X141883110Y-71291476D01*
X142113000Y-71170155D01*
X142113000Y-69977000D01*
X140919181Y-69977000D01*
X140798514Y-70206892D01*
X139202087Y-70206892D01*
X139204174Y-69493108D01*
X140798514Y-69493108D01*
X140919181Y-69723000D01*
X142113000Y-69723000D01*
X142113000Y-68529845D01*
X141883110Y-68408524D01*
X141473076Y-68578355D01*
X141044817Y-68968642D01*
X140798514Y-69493108D01*
X139204174Y-69493108D01*
X139207927Y-68210000D01*
X142271784Y-68210000D01*
X142173424Y-79452848D01*
G04 #@! TD*
M02*
