G04 #@! TF.GenerationSoftware,KiCad,Pcbnew,5.0.2-bee76a0~70~ubuntu18.04.1*
G04 #@! TF.CreationDate,2019-05-15T10:04:00-07:00*
G04 #@! TF.ProjectId,shellbell,7368656c-6c62-4656-9c6c-2e6b69636164,rev?*
G04 #@! TF.SameCoordinates,Original*
G04 #@! TF.FileFunction,Legend,Top*
G04 #@! TF.FilePolarity,Positive*
%FSLAX46Y46*%
G04 Gerber Fmt 4.6, Leading zero omitted, Abs format (unit mm)*
G04 Created by KiCad (PCBNEW 5.0.2-bee76a0~70~ubuntu18.04.1) date Wed 15 May 2019 10:04:00 AM PDT*
%MOMM*%
%LPD*%
G01*
G04 APERTURE LIST*
%ADD10C,0.300000*%
%ADD11C,0.120000*%
%ADD12C,0.100000*%
%ADD13C,0.150000*%
G04 APERTURE END LIST*
D10*
X135528571Y-111078571D02*
X136600000Y-111078571D01*
X135957142Y-110435714D02*
X135528571Y-112364285D01*
X136457142Y-111721428D02*
X135385714Y-111721428D01*
X136028571Y-112364285D02*
X136457142Y-110435714D01*
X137100000Y-112078571D02*
X137100000Y-110578571D01*
X137100000Y-111150000D02*
X137242857Y-111078571D01*
X137528571Y-111078571D01*
X137671428Y-111150000D01*
X137742857Y-111221428D01*
X137814285Y-111364285D01*
X137814285Y-111792857D01*
X137742857Y-111935714D01*
X137671428Y-112007142D01*
X137528571Y-112078571D01*
X137242857Y-112078571D01*
X137100000Y-112007142D01*
X139028571Y-112007142D02*
X138885714Y-112078571D01*
X138600000Y-112078571D01*
X138457142Y-112007142D01*
X138385714Y-111864285D01*
X138385714Y-111292857D01*
X138457142Y-111150000D01*
X138600000Y-111078571D01*
X138885714Y-111078571D01*
X139028571Y-111150000D01*
X139100000Y-111292857D01*
X139100000Y-111435714D01*
X138385714Y-111578571D01*
X139957142Y-112078571D02*
X139814285Y-112007142D01*
X139742857Y-111864285D01*
X139742857Y-110578571D01*
X140742857Y-112078571D02*
X140600000Y-112007142D01*
X140528571Y-111864285D01*
X140528571Y-110578571D01*
D11*
G04 #@! TO.C,R4*
X160102064Y-95590000D02*
X158897936Y-95590000D01*
X160102064Y-97410000D02*
X158897936Y-97410000D01*
G04 #@! TO.C,C1*
X158270000Y-115250000D02*
G75*
G03X158270000Y-115250000I-3270000J0D01*
G01*
X158230000Y-115250000D02*
X151770000Y-115250000D01*
X158230000Y-115290000D02*
X151770000Y-115290000D01*
X158230000Y-115330000D02*
X151770000Y-115330000D01*
X158228000Y-115370000D02*
X151772000Y-115370000D01*
X158227000Y-115410000D02*
X151773000Y-115410000D01*
X158224000Y-115450000D02*
X151776000Y-115450000D01*
X158222000Y-115490000D02*
X156040000Y-115490000D01*
X153960000Y-115490000D02*
X151778000Y-115490000D01*
X158218000Y-115530000D02*
X156040000Y-115530000D01*
X153960000Y-115530000D02*
X151782000Y-115530000D01*
X158215000Y-115570000D02*
X156040000Y-115570000D01*
X153960000Y-115570000D02*
X151785000Y-115570000D01*
X158211000Y-115610000D02*
X156040000Y-115610000D01*
X153960000Y-115610000D02*
X151789000Y-115610000D01*
X158206000Y-115650000D02*
X156040000Y-115650000D01*
X153960000Y-115650000D02*
X151794000Y-115650000D01*
X158201000Y-115690000D02*
X156040000Y-115690000D01*
X153960000Y-115690000D02*
X151799000Y-115690000D01*
X158195000Y-115730000D02*
X156040000Y-115730000D01*
X153960000Y-115730000D02*
X151805000Y-115730000D01*
X158189000Y-115770000D02*
X156040000Y-115770000D01*
X153960000Y-115770000D02*
X151811000Y-115770000D01*
X158182000Y-115810000D02*
X156040000Y-115810000D01*
X153960000Y-115810000D02*
X151818000Y-115810000D01*
X158175000Y-115850000D02*
X156040000Y-115850000D01*
X153960000Y-115850000D02*
X151825000Y-115850000D01*
X158167000Y-115890000D02*
X156040000Y-115890000D01*
X153960000Y-115890000D02*
X151833000Y-115890000D01*
X158159000Y-115930000D02*
X156040000Y-115930000D01*
X153960000Y-115930000D02*
X151841000Y-115930000D01*
X158150000Y-115971000D02*
X156040000Y-115971000D01*
X153960000Y-115971000D02*
X151850000Y-115971000D01*
X158141000Y-116011000D02*
X156040000Y-116011000D01*
X153960000Y-116011000D02*
X151859000Y-116011000D01*
X158131000Y-116051000D02*
X156040000Y-116051000D01*
X153960000Y-116051000D02*
X151869000Y-116051000D01*
X158121000Y-116091000D02*
X156040000Y-116091000D01*
X153960000Y-116091000D02*
X151879000Y-116091000D01*
X158110000Y-116131000D02*
X156040000Y-116131000D01*
X153960000Y-116131000D02*
X151890000Y-116131000D01*
X158098000Y-116171000D02*
X156040000Y-116171000D01*
X153960000Y-116171000D02*
X151902000Y-116171000D01*
X158086000Y-116211000D02*
X156040000Y-116211000D01*
X153960000Y-116211000D02*
X151914000Y-116211000D01*
X158074000Y-116251000D02*
X156040000Y-116251000D01*
X153960000Y-116251000D02*
X151926000Y-116251000D01*
X158061000Y-116291000D02*
X156040000Y-116291000D01*
X153960000Y-116291000D02*
X151939000Y-116291000D01*
X158047000Y-116331000D02*
X156040000Y-116331000D01*
X153960000Y-116331000D02*
X151953000Y-116331000D01*
X158033000Y-116371000D02*
X156040000Y-116371000D01*
X153960000Y-116371000D02*
X151967000Y-116371000D01*
X158018000Y-116411000D02*
X156040000Y-116411000D01*
X153960000Y-116411000D02*
X151982000Y-116411000D01*
X158002000Y-116451000D02*
X156040000Y-116451000D01*
X153960000Y-116451000D02*
X151998000Y-116451000D01*
X157986000Y-116491000D02*
X156040000Y-116491000D01*
X153960000Y-116491000D02*
X152014000Y-116491000D01*
X157970000Y-116531000D02*
X156040000Y-116531000D01*
X153960000Y-116531000D02*
X152030000Y-116531000D01*
X157952000Y-116571000D02*
X156040000Y-116571000D01*
X153960000Y-116571000D02*
X152048000Y-116571000D01*
X157934000Y-116611000D02*
X156040000Y-116611000D01*
X153960000Y-116611000D02*
X152066000Y-116611000D01*
X157916000Y-116651000D02*
X156040000Y-116651000D01*
X153960000Y-116651000D02*
X152084000Y-116651000D01*
X157896000Y-116691000D02*
X156040000Y-116691000D01*
X153960000Y-116691000D02*
X152104000Y-116691000D01*
X157876000Y-116731000D02*
X156040000Y-116731000D01*
X153960000Y-116731000D02*
X152124000Y-116731000D01*
X157856000Y-116771000D02*
X156040000Y-116771000D01*
X153960000Y-116771000D02*
X152144000Y-116771000D01*
X157834000Y-116811000D02*
X156040000Y-116811000D01*
X153960000Y-116811000D02*
X152166000Y-116811000D01*
X157812000Y-116851000D02*
X156040000Y-116851000D01*
X153960000Y-116851000D02*
X152188000Y-116851000D01*
X157790000Y-116891000D02*
X156040000Y-116891000D01*
X153960000Y-116891000D02*
X152210000Y-116891000D01*
X157766000Y-116931000D02*
X156040000Y-116931000D01*
X153960000Y-116931000D02*
X152234000Y-116931000D01*
X157742000Y-116971000D02*
X156040000Y-116971000D01*
X153960000Y-116971000D02*
X152258000Y-116971000D01*
X157716000Y-117011000D02*
X156040000Y-117011000D01*
X153960000Y-117011000D02*
X152284000Y-117011000D01*
X157690000Y-117051000D02*
X156040000Y-117051000D01*
X153960000Y-117051000D02*
X152310000Y-117051000D01*
X157664000Y-117091000D02*
X156040000Y-117091000D01*
X153960000Y-117091000D02*
X152336000Y-117091000D01*
X157636000Y-117131000D02*
X156040000Y-117131000D01*
X153960000Y-117131000D02*
X152364000Y-117131000D01*
X157607000Y-117171000D02*
X156040000Y-117171000D01*
X153960000Y-117171000D02*
X152393000Y-117171000D01*
X157578000Y-117211000D02*
X156040000Y-117211000D01*
X153960000Y-117211000D02*
X152422000Y-117211000D01*
X157548000Y-117251000D02*
X156040000Y-117251000D01*
X153960000Y-117251000D02*
X152452000Y-117251000D01*
X157516000Y-117291000D02*
X156040000Y-117291000D01*
X153960000Y-117291000D02*
X152484000Y-117291000D01*
X157484000Y-117331000D02*
X156040000Y-117331000D01*
X153960000Y-117331000D02*
X152516000Y-117331000D01*
X157450000Y-117371000D02*
X156040000Y-117371000D01*
X153960000Y-117371000D02*
X152550000Y-117371000D01*
X157416000Y-117411000D02*
X156040000Y-117411000D01*
X153960000Y-117411000D02*
X152584000Y-117411000D01*
X157380000Y-117451000D02*
X156040000Y-117451000D01*
X153960000Y-117451000D02*
X152620000Y-117451000D01*
X157343000Y-117491000D02*
X156040000Y-117491000D01*
X153960000Y-117491000D02*
X152657000Y-117491000D01*
X157305000Y-117531000D02*
X156040000Y-117531000D01*
X153960000Y-117531000D02*
X152695000Y-117531000D01*
X157265000Y-117571000D02*
X152735000Y-117571000D01*
X157224000Y-117611000D02*
X152776000Y-117611000D01*
X157182000Y-117651000D02*
X152818000Y-117651000D01*
X157137000Y-117691000D02*
X152863000Y-117691000D01*
X157092000Y-117731000D02*
X152908000Y-117731000D01*
X157044000Y-117771000D02*
X152956000Y-117771000D01*
X156995000Y-117811000D02*
X153005000Y-117811000D01*
X156944000Y-117851000D02*
X153056000Y-117851000D01*
X156890000Y-117891000D02*
X153110000Y-117891000D01*
X156834000Y-117931000D02*
X153166000Y-117931000D01*
X156776000Y-117971000D02*
X153224000Y-117971000D01*
X156714000Y-118011000D02*
X153286000Y-118011000D01*
X156650000Y-118051000D02*
X153350000Y-118051000D01*
X156581000Y-118091000D02*
X153419000Y-118091000D01*
X156509000Y-118131000D02*
X153491000Y-118131000D01*
X156432000Y-118171000D02*
X153568000Y-118171000D01*
X156350000Y-118211000D02*
X153650000Y-118211000D01*
X156262000Y-118251000D02*
X153738000Y-118251000D01*
X156165000Y-118291000D02*
X153835000Y-118291000D01*
X156059000Y-118331000D02*
X153941000Y-118331000D01*
X155940000Y-118371000D02*
X154060000Y-118371000D01*
X155802000Y-118411000D02*
X154198000Y-118411000D01*
X155633000Y-118451000D02*
X154367000Y-118451000D01*
X155402000Y-118491000D02*
X154598000Y-118491000D01*
X156839000Y-111749759D02*
X156839000Y-112379759D01*
X157154000Y-112064759D02*
X156524000Y-112064759D01*
G04 #@! TO.C,Q1*
X142530000Y-109680000D02*
X141430000Y-109680000D01*
X142530000Y-109950000D02*
X142530000Y-109680000D01*
X144030000Y-109950000D02*
X142530000Y-109950000D01*
X142530000Y-103320000D02*
X139700000Y-103320000D01*
X142530000Y-103050000D02*
X142530000Y-103320000D01*
X144030000Y-103050000D02*
X142530000Y-103050000D01*
G04 #@! TO.C,C3*
X157554775Y-110725000D02*
X157554775Y-110225000D01*
X157804775Y-110475000D02*
X157304775Y-110475000D01*
X152399000Y-109284000D02*
X152399000Y-108716000D01*
X152439000Y-109518000D02*
X152439000Y-108482000D01*
X152479000Y-109677000D02*
X152479000Y-108323000D01*
X152519000Y-109805000D02*
X152519000Y-108195000D01*
X152559000Y-109915000D02*
X152559000Y-108085000D01*
X152599000Y-110011000D02*
X152599000Y-107989000D01*
X152639000Y-110098000D02*
X152639000Y-107902000D01*
X152679000Y-110178000D02*
X152679000Y-107822000D01*
X152719000Y-110251000D02*
X152719000Y-107749000D01*
X152759000Y-110319000D02*
X152759000Y-107681000D01*
X152799000Y-110383000D02*
X152799000Y-107617000D01*
X152839000Y-110443000D02*
X152839000Y-107557000D01*
X152879000Y-110500000D02*
X152879000Y-107500000D01*
X152919000Y-110554000D02*
X152919000Y-107446000D01*
X152959000Y-110605000D02*
X152959000Y-107395000D01*
X152999000Y-107960000D02*
X152999000Y-107347000D01*
X152999000Y-110653000D02*
X152999000Y-110040000D01*
X153039000Y-107960000D02*
X153039000Y-107301000D01*
X153039000Y-110699000D02*
X153039000Y-110040000D01*
X153079000Y-107960000D02*
X153079000Y-107257000D01*
X153079000Y-110743000D02*
X153079000Y-110040000D01*
X153119000Y-107960000D02*
X153119000Y-107215000D01*
X153119000Y-110785000D02*
X153119000Y-110040000D01*
X153159000Y-107960000D02*
X153159000Y-107174000D01*
X153159000Y-110826000D02*
X153159000Y-110040000D01*
X153199000Y-107960000D02*
X153199000Y-107136000D01*
X153199000Y-110864000D02*
X153199000Y-110040000D01*
X153239000Y-107960000D02*
X153239000Y-107099000D01*
X153239000Y-110901000D02*
X153239000Y-110040000D01*
X153279000Y-107960000D02*
X153279000Y-107063000D01*
X153279000Y-110937000D02*
X153279000Y-110040000D01*
X153319000Y-107960000D02*
X153319000Y-107029000D01*
X153319000Y-110971000D02*
X153319000Y-110040000D01*
X153359000Y-107960000D02*
X153359000Y-106996000D01*
X153359000Y-111004000D02*
X153359000Y-110040000D01*
X153399000Y-107960000D02*
X153399000Y-106965000D01*
X153399000Y-111035000D02*
X153399000Y-110040000D01*
X153439000Y-107960000D02*
X153439000Y-106935000D01*
X153439000Y-111065000D02*
X153439000Y-110040000D01*
X153479000Y-107960000D02*
X153479000Y-106905000D01*
X153479000Y-111095000D02*
X153479000Y-110040000D01*
X153519000Y-107960000D02*
X153519000Y-106878000D01*
X153519000Y-111122000D02*
X153519000Y-110040000D01*
X153559000Y-107960000D02*
X153559000Y-106851000D01*
X153559000Y-111149000D02*
X153559000Y-110040000D01*
X153599000Y-107960000D02*
X153599000Y-106825000D01*
X153599000Y-111175000D02*
X153599000Y-110040000D01*
X153639000Y-107960000D02*
X153639000Y-106800000D01*
X153639000Y-111200000D02*
X153639000Y-110040000D01*
X153679000Y-107960000D02*
X153679000Y-106776000D01*
X153679000Y-111224000D02*
X153679000Y-110040000D01*
X153719000Y-107960000D02*
X153719000Y-106753000D01*
X153719000Y-111247000D02*
X153719000Y-110040000D01*
X153759000Y-107960000D02*
X153759000Y-106732000D01*
X153759000Y-111268000D02*
X153759000Y-110040000D01*
X153799000Y-107960000D02*
X153799000Y-106710000D01*
X153799000Y-111290000D02*
X153799000Y-110040000D01*
X153839000Y-107960000D02*
X153839000Y-106690000D01*
X153839000Y-111310000D02*
X153839000Y-110040000D01*
X153879000Y-107960000D02*
X153879000Y-106671000D01*
X153879000Y-111329000D02*
X153879000Y-110040000D01*
X153919000Y-107960000D02*
X153919000Y-106652000D01*
X153919000Y-111348000D02*
X153919000Y-110040000D01*
X153959000Y-107960000D02*
X153959000Y-106635000D01*
X153959000Y-111365000D02*
X153959000Y-110040000D01*
X153999000Y-107960000D02*
X153999000Y-106618000D01*
X153999000Y-111382000D02*
X153999000Y-110040000D01*
X154039000Y-107960000D02*
X154039000Y-106602000D01*
X154039000Y-111398000D02*
X154039000Y-110040000D01*
X154079000Y-107960000D02*
X154079000Y-106586000D01*
X154079000Y-111414000D02*
X154079000Y-110040000D01*
X154119000Y-107960000D02*
X154119000Y-106572000D01*
X154119000Y-111428000D02*
X154119000Y-110040000D01*
X154159000Y-107960000D02*
X154159000Y-106558000D01*
X154159000Y-111442000D02*
X154159000Y-110040000D01*
X154199000Y-107960000D02*
X154199000Y-106545000D01*
X154199000Y-111455000D02*
X154199000Y-110040000D01*
X154239000Y-107960000D02*
X154239000Y-106532000D01*
X154239000Y-111468000D02*
X154239000Y-110040000D01*
X154279000Y-107960000D02*
X154279000Y-106520000D01*
X154279000Y-111480000D02*
X154279000Y-110040000D01*
X154320000Y-107960000D02*
X154320000Y-106509000D01*
X154320000Y-111491000D02*
X154320000Y-110040000D01*
X154360000Y-107960000D02*
X154360000Y-106499000D01*
X154360000Y-111501000D02*
X154360000Y-110040000D01*
X154400000Y-107960000D02*
X154400000Y-106489000D01*
X154400000Y-111511000D02*
X154400000Y-110040000D01*
X154440000Y-107960000D02*
X154440000Y-106480000D01*
X154440000Y-111520000D02*
X154440000Y-110040000D01*
X154480000Y-107960000D02*
X154480000Y-106472000D01*
X154480000Y-111528000D02*
X154480000Y-110040000D01*
X154520000Y-107960000D02*
X154520000Y-106464000D01*
X154520000Y-111536000D02*
X154520000Y-110040000D01*
X154560000Y-107960000D02*
X154560000Y-106457000D01*
X154560000Y-111543000D02*
X154560000Y-110040000D01*
X154600000Y-107960000D02*
X154600000Y-106450000D01*
X154600000Y-111550000D02*
X154600000Y-110040000D01*
X154640000Y-107960000D02*
X154640000Y-106444000D01*
X154640000Y-111556000D02*
X154640000Y-110040000D01*
X154680000Y-107960000D02*
X154680000Y-106439000D01*
X154680000Y-111561000D02*
X154680000Y-110040000D01*
X154720000Y-107960000D02*
X154720000Y-106435000D01*
X154720000Y-111565000D02*
X154720000Y-110040000D01*
X154760000Y-107960000D02*
X154760000Y-106431000D01*
X154760000Y-111569000D02*
X154760000Y-110040000D01*
X154800000Y-107960000D02*
X154800000Y-106427000D01*
X154800000Y-111573000D02*
X154800000Y-110040000D01*
X154840000Y-107960000D02*
X154840000Y-106424000D01*
X154840000Y-111576000D02*
X154840000Y-110040000D01*
X154880000Y-107960000D02*
X154880000Y-106422000D01*
X154880000Y-111578000D02*
X154880000Y-110040000D01*
X154920000Y-107960000D02*
X154920000Y-106421000D01*
X154920000Y-111579000D02*
X154920000Y-110040000D01*
X154960000Y-111580000D02*
X154960000Y-110040000D01*
X154960000Y-107960000D02*
X154960000Y-106420000D01*
X155000000Y-111580000D02*
X155000000Y-110040000D01*
X155000000Y-107960000D02*
X155000000Y-106420000D01*
X157620000Y-109000000D02*
G75*
G03X157620000Y-109000000I-2620000J0D01*
G01*
G04 #@! TO.C,J3*
X172410000Y-104410000D02*
X170460000Y-104410000D01*
X168240000Y-104410000D02*
X165010000Y-104410000D01*
X163090000Y-103690000D02*
X163090000Y-102610000D01*
X163090000Y-98390000D02*
X163090000Y-97310000D01*
X168240000Y-96590000D02*
X165010000Y-96590000D01*
X172410000Y-96590000D02*
X170460000Y-96590000D01*
X163090000Y-102610000D02*
X162660000Y-102610000D01*
X172410000Y-96590000D02*
X172410000Y-104410000D01*
G04 #@! TO.C,U1*
X130230000Y-111609000D02*
X131740000Y-111609000D01*
X130230000Y-115310000D02*
X131740000Y-115310000D01*
X131740000Y-118580000D02*
X131740000Y-108340000D01*
X130230000Y-108340000D02*
X134871000Y-108340000D01*
X130230000Y-118580000D02*
X134871000Y-118580000D01*
X134871000Y-118580000D02*
X134871000Y-108340000D01*
X130230000Y-118580000D02*
X130230000Y-108340000D01*
G04 #@! TO.C,J2*
X132500000Y-105330000D02*
X131170000Y-105330000D01*
X131170000Y-105330000D02*
X131170000Y-104000000D01*
X133770000Y-105330000D02*
X133770000Y-102730000D01*
X133770000Y-102730000D02*
X131170000Y-102730000D01*
X131170000Y-102730000D02*
X131170000Y-95050000D01*
X136370000Y-95050000D02*
X131170000Y-95050000D01*
X136370000Y-105330000D02*
X136370000Y-95050000D01*
X136370000Y-105330000D02*
X133770000Y-105330000D01*
G04 #@! TO.C,C2*
X139725000Y-112945225D02*
X139225000Y-112945225D01*
X139475000Y-112695225D02*
X139475000Y-113195225D01*
X138284000Y-118101000D02*
X137716000Y-118101000D01*
X138518000Y-118061000D02*
X137482000Y-118061000D01*
X138677000Y-118021000D02*
X137323000Y-118021000D01*
X138805000Y-117981000D02*
X137195000Y-117981000D01*
X138915000Y-117941000D02*
X137085000Y-117941000D01*
X139011000Y-117901000D02*
X136989000Y-117901000D01*
X139098000Y-117861000D02*
X136902000Y-117861000D01*
X139178000Y-117821000D02*
X136822000Y-117821000D01*
X139251000Y-117781000D02*
X136749000Y-117781000D01*
X139319000Y-117741000D02*
X136681000Y-117741000D01*
X139383000Y-117701000D02*
X136617000Y-117701000D01*
X139443000Y-117661000D02*
X136557000Y-117661000D01*
X139500000Y-117621000D02*
X136500000Y-117621000D01*
X139554000Y-117581000D02*
X136446000Y-117581000D01*
X139605000Y-117541000D02*
X136395000Y-117541000D01*
X136960000Y-117501000D02*
X136347000Y-117501000D01*
X139653000Y-117501000D02*
X139040000Y-117501000D01*
X136960000Y-117461000D02*
X136301000Y-117461000D01*
X139699000Y-117461000D02*
X139040000Y-117461000D01*
X136960000Y-117421000D02*
X136257000Y-117421000D01*
X139743000Y-117421000D02*
X139040000Y-117421000D01*
X136960000Y-117381000D02*
X136215000Y-117381000D01*
X139785000Y-117381000D02*
X139040000Y-117381000D01*
X136960000Y-117341000D02*
X136174000Y-117341000D01*
X139826000Y-117341000D02*
X139040000Y-117341000D01*
X136960000Y-117301000D02*
X136136000Y-117301000D01*
X139864000Y-117301000D02*
X139040000Y-117301000D01*
X136960000Y-117261000D02*
X136099000Y-117261000D01*
X139901000Y-117261000D02*
X139040000Y-117261000D01*
X136960000Y-117221000D02*
X136063000Y-117221000D01*
X139937000Y-117221000D02*
X139040000Y-117221000D01*
X136960000Y-117181000D02*
X136029000Y-117181000D01*
X139971000Y-117181000D02*
X139040000Y-117181000D01*
X136960000Y-117141000D02*
X135996000Y-117141000D01*
X140004000Y-117141000D02*
X139040000Y-117141000D01*
X136960000Y-117101000D02*
X135965000Y-117101000D01*
X140035000Y-117101000D02*
X139040000Y-117101000D01*
X136960000Y-117061000D02*
X135935000Y-117061000D01*
X140065000Y-117061000D02*
X139040000Y-117061000D01*
X136960000Y-117021000D02*
X135905000Y-117021000D01*
X140095000Y-117021000D02*
X139040000Y-117021000D01*
X136960000Y-116981000D02*
X135878000Y-116981000D01*
X140122000Y-116981000D02*
X139040000Y-116981000D01*
X136960000Y-116941000D02*
X135851000Y-116941000D01*
X140149000Y-116941000D02*
X139040000Y-116941000D01*
X136960000Y-116901000D02*
X135825000Y-116901000D01*
X140175000Y-116901000D02*
X139040000Y-116901000D01*
X136960000Y-116861000D02*
X135800000Y-116861000D01*
X140200000Y-116861000D02*
X139040000Y-116861000D01*
X136960000Y-116821000D02*
X135776000Y-116821000D01*
X140224000Y-116821000D02*
X139040000Y-116821000D01*
X136960000Y-116781000D02*
X135753000Y-116781000D01*
X140247000Y-116781000D02*
X139040000Y-116781000D01*
X136960000Y-116741000D02*
X135732000Y-116741000D01*
X140268000Y-116741000D02*
X139040000Y-116741000D01*
X136960000Y-116701000D02*
X135710000Y-116701000D01*
X140290000Y-116701000D02*
X139040000Y-116701000D01*
X136960000Y-116661000D02*
X135690000Y-116661000D01*
X140310000Y-116661000D02*
X139040000Y-116661000D01*
X136960000Y-116621000D02*
X135671000Y-116621000D01*
X140329000Y-116621000D02*
X139040000Y-116621000D01*
X136960000Y-116581000D02*
X135652000Y-116581000D01*
X140348000Y-116581000D02*
X139040000Y-116581000D01*
X136960000Y-116541000D02*
X135635000Y-116541000D01*
X140365000Y-116541000D02*
X139040000Y-116541000D01*
X136960000Y-116501000D02*
X135618000Y-116501000D01*
X140382000Y-116501000D02*
X139040000Y-116501000D01*
X136960000Y-116461000D02*
X135602000Y-116461000D01*
X140398000Y-116461000D02*
X139040000Y-116461000D01*
X136960000Y-116421000D02*
X135586000Y-116421000D01*
X140414000Y-116421000D02*
X139040000Y-116421000D01*
X136960000Y-116381000D02*
X135572000Y-116381000D01*
X140428000Y-116381000D02*
X139040000Y-116381000D01*
X136960000Y-116341000D02*
X135558000Y-116341000D01*
X140442000Y-116341000D02*
X139040000Y-116341000D01*
X136960000Y-116301000D02*
X135545000Y-116301000D01*
X140455000Y-116301000D02*
X139040000Y-116301000D01*
X136960000Y-116261000D02*
X135532000Y-116261000D01*
X140468000Y-116261000D02*
X139040000Y-116261000D01*
X136960000Y-116221000D02*
X135520000Y-116221000D01*
X140480000Y-116221000D02*
X139040000Y-116221000D01*
X136960000Y-116180000D02*
X135509000Y-116180000D01*
X140491000Y-116180000D02*
X139040000Y-116180000D01*
X136960000Y-116140000D02*
X135499000Y-116140000D01*
X140501000Y-116140000D02*
X139040000Y-116140000D01*
X136960000Y-116100000D02*
X135489000Y-116100000D01*
X140511000Y-116100000D02*
X139040000Y-116100000D01*
X136960000Y-116060000D02*
X135480000Y-116060000D01*
X140520000Y-116060000D02*
X139040000Y-116060000D01*
X136960000Y-116020000D02*
X135472000Y-116020000D01*
X140528000Y-116020000D02*
X139040000Y-116020000D01*
X136960000Y-115980000D02*
X135464000Y-115980000D01*
X140536000Y-115980000D02*
X139040000Y-115980000D01*
X136960000Y-115940000D02*
X135457000Y-115940000D01*
X140543000Y-115940000D02*
X139040000Y-115940000D01*
X136960000Y-115900000D02*
X135450000Y-115900000D01*
X140550000Y-115900000D02*
X139040000Y-115900000D01*
X136960000Y-115860000D02*
X135444000Y-115860000D01*
X140556000Y-115860000D02*
X139040000Y-115860000D01*
X136960000Y-115820000D02*
X135439000Y-115820000D01*
X140561000Y-115820000D02*
X139040000Y-115820000D01*
X136960000Y-115780000D02*
X135435000Y-115780000D01*
X140565000Y-115780000D02*
X139040000Y-115780000D01*
X136960000Y-115740000D02*
X135431000Y-115740000D01*
X140569000Y-115740000D02*
X139040000Y-115740000D01*
X136960000Y-115700000D02*
X135427000Y-115700000D01*
X140573000Y-115700000D02*
X139040000Y-115700000D01*
X136960000Y-115660000D02*
X135424000Y-115660000D01*
X140576000Y-115660000D02*
X139040000Y-115660000D01*
X136960000Y-115620000D02*
X135422000Y-115620000D01*
X140578000Y-115620000D02*
X139040000Y-115620000D01*
X136960000Y-115580000D02*
X135421000Y-115580000D01*
X140579000Y-115580000D02*
X139040000Y-115580000D01*
X140580000Y-115540000D02*
X139040000Y-115540000D01*
X136960000Y-115540000D02*
X135420000Y-115540000D01*
X140580000Y-115500000D02*
X139040000Y-115500000D01*
X136960000Y-115500000D02*
X135420000Y-115500000D01*
X140620000Y-115500000D02*
G75*
G03X140620000Y-115500000I-2620000J0D01*
G01*
G04 #@! TO.C,D1*
X149130000Y-101970000D02*
X149130000Y-99030000D01*
X148890000Y-101970000D02*
X148890000Y-99030000D01*
X149010000Y-101970000D02*
X149010000Y-99030000D01*
X144470000Y-99030000D02*
X144470000Y-99160000D01*
X149910000Y-99030000D02*
X144470000Y-99030000D01*
X149910000Y-99160000D02*
X149910000Y-99030000D01*
X144470000Y-101970000D02*
X144470000Y-101840000D01*
X149910000Y-101970000D02*
X144470000Y-101970000D01*
X149910000Y-101840000D02*
X149910000Y-101970000D01*
G04 #@! TO.C,D2*
X156885000Y-94865000D02*
X153000000Y-94865000D01*
X156885000Y-97135000D02*
X156885000Y-94865000D01*
X153000000Y-97135000D02*
X156885000Y-97135000D01*
G04 #@! TO.C,D3*
X152315000Y-106135000D02*
X156200000Y-106135000D01*
X152315000Y-103865000D02*
X152315000Y-106135000D01*
X156200000Y-103865000D02*
X152315000Y-103865000D01*
G04 #@! TO.C,D4*
X144370000Y-110530000D02*
X144370000Y-113470000D01*
X144610000Y-110530000D02*
X144610000Y-113470000D01*
X144490000Y-110530000D02*
X144490000Y-113470000D01*
X149030000Y-113470000D02*
X149030000Y-113340000D01*
X143590000Y-113470000D02*
X149030000Y-113470000D01*
X143590000Y-113340000D02*
X143590000Y-113470000D01*
X149030000Y-110530000D02*
X149030000Y-110660000D01*
X143590000Y-110530000D02*
X149030000Y-110530000D01*
X143590000Y-110660000D02*
X143590000Y-110530000D01*
G04 #@! TO.C,D5*
X144370000Y-115030000D02*
X144370000Y-117970000D01*
X144610000Y-115030000D02*
X144610000Y-117970000D01*
X144490000Y-115030000D02*
X144490000Y-117970000D01*
X149030000Y-117970000D02*
X149030000Y-117840000D01*
X143590000Y-117970000D02*
X149030000Y-117970000D01*
X143590000Y-117840000D02*
X143590000Y-117970000D01*
X149030000Y-115030000D02*
X149030000Y-115160000D01*
X143590000Y-115030000D02*
X149030000Y-115030000D01*
X143590000Y-115160000D02*
X143590000Y-115030000D01*
G04 #@! TO.C,J1*
X158700000Y-113500000D02*
X158700000Y-111500000D01*
X172110000Y-117610000D02*
X169050000Y-117610000D01*
X172110000Y-107390000D02*
X172110000Y-117610000D01*
X169050000Y-107390000D02*
X172110000Y-107390000D01*
X158890000Y-107390000D02*
X164950000Y-107390000D01*
X158890000Y-110200000D02*
X158890000Y-107390000D01*
X158890000Y-117610000D02*
X158890000Y-114800000D01*
X164950000Y-117610000D02*
X158890000Y-117610000D01*
G04 #@! TO.C,L1*
X149330000Y-95170000D02*
X149330000Y-96500000D01*
X148000000Y-95170000D02*
X149330000Y-95170000D01*
X146730000Y-95170000D02*
X146730000Y-97830000D01*
X146730000Y-97830000D02*
X144130000Y-97830000D01*
X146730000Y-95170000D02*
X144130000Y-95170000D01*
X144130000Y-95170000D02*
X144130000Y-97830000D01*
G04 #@! TO.C,R1*
X138800429Y-102034603D02*
X140004557Y-102034603D01*
X138800429Y-100214603D02*
X140004557Y-100214603D01*
G04 #@! TO.C,R2*
X140004557Y-95214603D02*
X138800429Y-95214603D01*
X140004557Y-97034603D02*
X138800429Y-97034603D01*
G04 #@! TO.C,R3*
X140004557Y-97714603D02*
X138800429Y-97714603D01*
X140004557Y-99534603D02*
X138800429Y-99534603D01*
G04 #@! TO.C,R5*
X158897936Y-105410000D02*
X160102064Y-105410000D01*
X158897936Y-103590000D02*
X160102064Y-103590000D01*
D12*
G04 #@! TO.C,U2*
X159100000Y-97900000D02*
X158750000Y-97900000D01*
X159100000Y-98000000D02*
X159100000Y-97900000D01*
X155450000Y-98000000D02*
X155050000Y-98000000D01*
X155550000Y-97900000D02*
X155450000Y-98000000D01*
X155950000Y-97900000D02*
X155550000Y-97900000D01*
X154900000Y-103100000D02*
X155350000Y-103100000D01*
X154900000Y-103000000D02*
X154900000Y-103100000D01*
X159100000Y-103100000D02*
X158700000Y-103100000D01*
X159100000Y-103000000D02*
X159100000Y-103100000D01*
G04 #@! TO.C,R4*
D13*
X159378666Y-96856504D02*
X159112000Y-96475552D01*
X158921523Y-96856504D02*
X158921523Y-96056504D01*
X159226285Y-96056504D01*
X159302476Y-96094600D01*
X159340571Y-96132695D01*
X159378666Y-96208885D01*
X159378666Y-96323171D01*
X159340571Y-96399361D01*
X159302476Y-96437457D01*
X159226285Y-96475552D01*
X158921523Y-96475552D01*
X160064380Y-96323171D02*
X160064380Y-96856504D01*
X159873904Y-96018409D02*
X159683428Y-96589838D01*
X160178666Y-96589838D01*
G04 #@! TO.C,C1*
X159757142Y-115416666D02*
X159804761Y-115464285D01*
X159852380Y-115607142D01*
X159852380Y-115702380D01*
X159804761Y-115845238D01*
X159709523Y-115940476D01*
X159614285Y-115988095D01*
X159423809Y-116035714D01*
X159280952Y-116035714D01*
X159090476Y-115988095D01*
X158995238Y-115940476D01*
X158900000Y-115845238D01*
X158852380Y-115702380D01*
X158852380Y-115607142D01*
X158900000Y-115464285D01*
X158947619Y-115416666D01*
X159852380Y-114464285D02*
X159852380Y-115035714D01*
X159852380Y-114750000D02*
X158852380Y-114750000D01*
X158995238Y-114845238D01*
X159090476Y-114940476D01*
X159138095Y-115035714D01*
G04 #@! TO.C,Q1*
X142823809Y-106938095D02*
X142747619Y-106900000D01*
X142671428Y-106823809D01*
X142557142Y-106709523D01*
X142480952Y-106671428D01*
X142404761Y-106671428D01*
X142442857Y-106861904D02*
X142366666Y-106823809D01*
X142290476Y-106747619D01*
X142252380Y-106595238D01*
X142252380Y-106328571D01*
X142290476Y-106176190D01*
X142366666Y-106100000D01*
X142442857Y-106061904D01*
X142595238Y-106061904D01*
X142671428Y-106100000D01*
X142747619Y-106176190D01*
X142785714Y-106328571D01*
X142785714Y-106595238D01*
X142747619Y-106747619D01*
X142671428Y-106823809D01*
X142595238Y-106861904D01*
X142442857Y-106861904D01*
X143547619Y-106861904D02*
X143090476Y-106861904D01*
X143319047Y-106861904D02*
X143319047Y-106061904D01*
X143242857Y-106176190D01*
X143166666Y-106252380D01*
X143090476Y-106290476D01*
G04 #@! TO.C,C3*
X151428466Y-108692914D02*
X151390371Y-108731009D01*
X151276085Y-108769104D01*
X151199895Y-108769104D01*
X151085609Y-108731009D01*
X151009419Y-108654819D01*
X150971323Y-108578628D01*
X150933228Y-108426247D01*
X150933228Y-108311961D01*
X150971323Y-108159580D01*
X151009419Y-108083390D01*
X151085609Y-108007200D01*
X151199895Y-107969104D01*
X151276085Y-107969104D01*
X151390371Y-108007200D01*
X151428466Y-108045295D01*
X151695133Y-107969104D02*
X152190371Y-107969104D01*
X151923704Y-108273866D01*
X152037990Y-108273866D01*
X152114180Y-108311961D01*
X152152276Y-108350057D01*
X152190371Y-108426247D01*
X152190371Y-108616723D01*
X152152276Y-108692914D01*
X152114180Y-108731009D01*
X152037990Y-108769104D01*
X151809419Y-108769104D01*
X151733228Y-108731009D01*
X151695133Y-108692914D01*
G04 #@! TO.C,J3*
X167033333Y-100061904D02*
X167033333Y-100633333D01*
X166995238Y-100747619D01*
X166919047Y-100823809D01*
X166804761Y-100861904D01*
X166728571Y-100861904D01*
X167338095Y-100061904D02*
X167833333Y-100061904D01*
X167566666Y-100366666D01*
X167680952Y-100366666D01*
X167757142Y-100404761D01*
X167795238Y-100442857D01*
X167833333Y-100519047D01*
X167833333Y-100709523D01*
X167795238Y-100785714D01*
X167757142Y-100823809D01*
X167680952Y-100861904D01*
X167452380Y-100861904D01*
X167376190Y-100823809D01*
X167338095Y-100785714D01*
G04 #@! TO.C,U1*
X130561904Y-114069523D02*
X131209523Y-114069523D01*
X131285714Y-114031428D01*
X131323809Y-113993333D01*
X131361904Y-113917142D01*
X131361904Y-113764761D01*
X131323809Y-113688571D01*
X131285714Y-113650476D01*
X131209523Y-113612380D01*
X130561904Y-113612380D01*
X131361904Y-112812380D02*
X131361904Y-113269523D01*
X131361904Y-113040952D02*
X130561904Y-113040952D01*
X130676190Y-113117142D01*
X130752380Y-113193333D01*
X130790476Y-113269523D01*
G04 #@! TO.C,J2*
X131633333Y-105961904D02*
X131633333Y-106533333D01*
X131595238Y-106647619D01*
X131519047Y-106723809D01*
X131404761Y-106761904D01*
X131328571Y-106761904D01*
X131976190Y-106038095D02*
X132014285Y-106000000D01*
X132090476Y-105961904D01*
X132280952Y-105961904D01*
X132357142Y-106000000D01*
X132395238Y-106038095D01*
X132433333Y-106114285D01*
X132433333Y-106190476D01*
X132395238Y-106304761D01*
X131938095Y-106761904D01*
X132433333Y-106761904D01*
G04 #@! TO.C,C2*
X135866666Y-118585714D02*
X135828571Y-118623809D01*
X135714285Y-118661904D01*
X135638095Y-118661904D01*
X135523809Y-118623809D01*
X135447619Y-118547619D01*
X135409523Y-118471428D01*
X135371428Y-118319047D01*
X135371428Y-118204761D01*
X135409523Y-118052380D01*
X135447619Y-117976190D01*
X135523809Y-117900000D01*
X135638095Y-117861904D01*
X135714285Y-117861904D01*
X135828571Y-117900000D01*
X135866666Y-117938095D01*
X136171428Y-117938095D02*
X136209523Y-117900000D01*
X136285714Y-117861904D01*
X136476190Y-117861904D01*
X136552380Y-117900000D01*
X136590476Y-117938095D01*
X136628571Y-118014285D01*
X136628571Y-118090476D01*
X136590476Y-118204761D01*
X136133333Y-118661904D01*
X136628571Y-118661904D01*
G04 #@! TO.C,D1*
X147409523Y-101661904D02*
X147409523Y-100861904D01*
X147600000Y-100861904D01*
X147714285Y-100900000D01*
X147790476Y-100976190D01*
X147828571Y-101052380D01*
X147866666Y-101204761D01*
X147866666Y-101319047D01*
X147828571Y-101471428D01*
X147790476Y-101547619D01*
X147714285Y-101623809D01*
X147600000Y-101661904D01*
X147409523Y-101661904D01*
X148628571Y-101661904D02*
X148171428Y-101661904D01*
X148400000Y-101661904D02*
X148400000Y-100861904D01*
X148323809Y-100976190D01*
X148247619Y-101052380D01*
X148171428Y-101090476D01*
X150738095Y-103052380D02*
X150738095Y-102052380D01*
X151309523Y-103052380D02*
X150880952Y-102480952D01*
X151309523Y-102052380D02*
X150738095Y-102623809D01*
G04 #@! TO.C,D2*
X150945923Y-96373904D02*
X150945923Y-95573904D01*
X151136400Y-95573904D01*
X151250685Y-95612000D01*
X151326876Y-95688190D01*
X151364971Y-95764380D01*
X151403066Y-95916761D01*
X151403066Y-96031047D01*
X151364971Y-96183428D01*
X151326876Y-96259619D01*
X151250685Y-96335809D01*
X151136400Y-96373904D01*
X150945923Y-96373904D01*
X151707828Y-95650095D02*
X151745923Y-95612000D01*
X151822114Y-95573904D01*
X152012590Y-95573904D01*
X152088780Y-95612000D01*
X152126876Y-95650095D01*
X152164971Y-95726285D01*
X152164971Y-95802476D01*
X152126876Y-95916761D01*
X151669733Y-96373904D01*
X152164971Y-96373904D01*
G04 #@! TO.C,D3*
X150920523Y-105416304D02*
X150920523Y-104616304D01*
X151111000Y-104616304D01*
X151225285Y-104654400D01*
X151301476Y-104730590D01*
X151339571Y-104806780D01*
X151377666Y-104959161D01*
X151377666Y-105073447D01*
X151339571Y-105225828D01*
X151301476Y-105302019D01*
X151225285Y-105378209D01*
X151111000Y-105416304D01*
X150920523Y-105416304D01*
X151644333Y-104616304D02*
X152139571Y-104616304D01*
X151872904Y-104921066D01*
X151987190Y-104921066D01*
X152063380Y-104959161D01*
X152101476Y-104997257D01*
X152139571Y-105073447D01*
X152139571Y-105263923D01*
X152101476Y-105340114D01*
X152063380Y-105378209D01*
X151987190Y-105416304D01*
X151758619Y-105416304D01*
X151682428Y-105378209D01*
X151644333Y-105340114D01*
G04 #@! TO.C,D4*
X145909523Y-112361904D02*
X145909523Y-111561904D01*
X146100000Y-111561904D01*
X146214285Y-111600000D01*
X146290476Y-111676190D01*
X146328571Y-111752380D01*
X146366666Y-111904761D01*
X146366666Y-112019047D01*
X146328571Y-112171428D01*
X146290476Y-112247619D01*
X146214285Y-112323809D01*
X146100000Y-112361904D01*
X145909523Y-112361904D01*
X147052380Y-111828571D02*
X147052380Y-112361904D01*
X146861904Y-111523809D02*
X146671428Y-112095238D01*
X147166666Y-112095238D01*
X142238095Y-110352380D02*
X142238095Y-109352380D01*
X142809523Y-110352380D02*
X142380952Y-109780952D01*
X142809523Y-109352380D02*
X142238095Y-109923809D01*
G04 #@! TO.C,D5*
X145719523Y-116861904D02*
X145719523Y-116061904D01*
X145910000Y-116061904D01*
X146024285Y-116100000D01*
X146100476Y-116176190D01*
X146138571Y-116252380D01*
X146176666Y-116404761D01*
X146176666Y-116519047D01*
X146138571Y-116671428D01*
X146100476Y-116747619D01*
X146024285Y-116823809D01*
X145910000Y-116861904D01*
X145719523Y-116861904D01*
X146900476Y-116061904D02*
X146519523Y-116061904D01*
X146481428Y-116442857D01*
X146519523Y-116404761D01*
X146595714Y-116366666D01*
X146786190Y-116366666D01*
X146862380Y-116404761D01*
X146900476Y-116442857D01*
X146938571Y-116519047D01*
X146938571Y-116709523D01*
X146900476Y-116785714D01*
X146862380Y-116823809D01*
X146786190Y-116861904D01*
X146595714Y-116861904D01*
X146519523Y-116823809D01*
X146481428Y-116785714D01*
X142238095Y-114852380D02*
X142238095Y-113852380D01*
X142809523Y-114852380D02*
X142380952Y-114280952D01*
X142809523Y-113852380D02*
X142238095Y-114423809D01*
G04 #@! TO.C,J1*
X162561904Y-112766666D02*
X163133333Y-112766666D01*
X163247619Y-112804761D01*
X163323809Y-112880952D01*
X163361904Y-112995238D01*
X163361904Y-113071428D01*
X163361904Y-111966666D02*
X163361904Y-112423809D01*
X163361904Y-112195238D02*
X162561904Y-112195238D01*
X162676190Y-112271428D01*
X162752380Y-112347619D01*
X162790476Y-112423809D01*
G04 #@! TO.C,L1*
X142866666Y-96861904D02*
X142485714Y-96861904D01*
X142485714Y-96061904D01*
X143552380Y-96861904D02*
X143095238Y-96861904D01*
X143323809Y-96861904D02*
X143323809Y-96061904D01*
X143247619Y-96176190D01*
X143171428Y-96252380D01*
X143095238Y-96290476D01*
G04 #@! TO.C,R1*
X139269159Y-101461904D02*
X139002493Y-101080952D01*
X138812016Y-101461904D02*
X138812016Y-100661904D01*
X139116778Y-100661904D01*
X139192969Y-100700000D01*
X139231064Y-100738095D01*
X139269159Y-100814285D01*
X139269159Y-100928571D01*
X139231064Y-101004761D01*
X139192969Y-101042857D01*
X139116778Y-101080952D01*
X138812016Y-101080952D01*
X140031064Y-101461904D02*
X139573921Y-101461904D01*
X139802493Y-101461904D02*
X139802493Y-100661904D01*
X139726302Y-100776190D01*
X139650112Y-100852380D01*
X139573921Y-100890476D01*
G04 #@! TO.C,R2*
X139269159Y-96461904D02*
X139002493Y-96080952D01*
X138812016Y-96461904D02*
X138812016Y-95661904D01*
X139116778Y-95661904D01*
X139192969Y-95700000D01*
X139231064Y-95738095D01*
X139269159Y-95814285D01*
X139269159Y-95928571D01*
X139231064Y-96004761D01*
X139192969Y-96042857D01*
X139116778Y-96080952D01*
X138812016Y-96080952D01*
X139573921Y-95738095D02*
X139612016Y-95700000D01*
X139688207Y-95661904D01*
X139878683Y-95661904D01*
X139954873Y-95700000D01*
X139992969Y-95738095D01*
X140031064Y-95814285D01*
X140031064Y-95890476D01*
X139992969Y-96004761D01*
X139535826Y-96461904D01*
X140031064Y-96461904D01*
G04 #@! TO.C,R3*
X139269159Y-98961904D02*
X139002493Y-98580952D01*
X138812016Y-98961904D02*
X138812016Y-98161904D01*
X139116778Y-98161904D01*
X139192969Y-98200000D01*
X139231064Y-98238095D01*
X139269159Y-98314285D01*
X139269159Y-98428571D01*
X139231064Y-98504761D01*
X139192969Y-98542857D01*
X139116778Y-98580952D01*
X138812016Y-98580952D01*
X139535826Y-98161904D02*
X140031064Y-98161904D01*
X139764397Y-98466666D01*
X139878683Y-98466666D01*
X139954873Y-98504761D01*
X139992969Y-98542857D01*
X140031064Y-98619047D01*
X140031064Y-98809523D01*
X139992969Y-98885714D01*
X139954873Y-98923809D01*
X139878683Y-98961904D01*
X139650112Y-98961904D01*
X139573921Y-98923809D01*
X139535826Y-98885714D01*
G04 #@! TO.C,R5*
X159366666Y-106561904D02*
X159100000Y-106180952D01*
X158909523Y-106561904D02*
X158909523Y-105761904D01*
X159214285Y-105761904D01*
X159290476Y-105800000D01*
X159328571Y-105838095D01*
X159366666Y-105914285D01*
X159366666Y-106028571D01*
X159328571Y-106104761D01*
X159290476Y-106142857D01*
X159214285Y-106180952D01*
X158909523Y-106180952D01*
X160090476Y-105761904D02*
X159709523Y-105761904D01*
X159671428Y-106142857D01*
X159709523Y-106104761D01*
X159785714Y-106066666D01*
X159976190Y-106066666D01*
X160052380Y-106104761D01*
X160090476Y-106142857D01*
X160128571Y-106219047D01*
X160128571Y-106409523D01*
X160090476Y-106485714D01*
X160052380Y-106523809D01*
X159976190Y-106561904D01*
X159785714Y-106561904D01*
X159709523Y-106523809D01*
X159671428Y-106485714D01*
G04 #@! TO.C,U2*
X156490476Y-99761904D02*
X156490476Y-100409523D01*
X156528571Y-100485714D01*
X156566666Y-100523809D01*
X156642857Y-100561904D01*
X156795238Y-100561904D01*
X156871428Y-100523809D01*
X156909523Y-100485714D01*
X156947619Y-100409523D01*
X156947619Y-99761904D01*
X157290476Y-99838095D02*
X157328571Y-99800000D01*
X157404761Y-99761904D01*
X157595238Y-99761904D01*
X157671428Y-99800000D01*
X157709523Y-99838095D01*
X157747619Y-99914285D01*
X157747619Y-99990476D01*
X157709523Y-100104761D01*
X157252380Y-100561904D01*
X157747619Y-100561904D01*
G04 #@! TD*
M02*
