G04 #@! TF.GenerationSoftware,KiCad,Pcbnew,5.0.2-bee76a0~70~ubuntu18.04.1*
G04 #@! TF.CreationDate,2019-05-31T16:07:54-07:00*
G04 #@! TF.ProjectId,shellbell,7368656c-6c62-4656-9c6c-2e6b69636164,rev?*
G04 #@! TF.SameCoordinates,Original*
G04 #@! TF.FileFunction,Legend,Bot*
G04 #@! TF.FilePolarity,Positive*
%FSLAX46Y46*%
G04 Gerber Fmt 4.6, Leading zero omitted, Abs format (unit mm)*
G04 Created by KiCad (PCBNEW 5.0.2-bee76a0~70~ubuntu18.04.1) date Fri 31 May 2019 04:07:54 PM PDT*
%MOMM*%
%LPD*%
G01*
G04 APERTURE LIST*
%ADD10C,0.127000*%
%ADD11C,0.100000*%
%ADD12C,0.120000*%
%ADD13C,0.160000*%
G04 APERTURE END LIST*
D10*
G04 #@! TO.C,S3*
X156801400Y-93655600D02*
X156401400Y-93905600D01*
X157701400Y-93655600D02*
X158101400Y-93905600D01*
X158101400Y-94355600D02*
X158101400Y-93905600D01*
X156401400Y-94355600D02*
X156401400Y-93905600D01*
X157701400Y-93655600D02*
X156801400Y-93655600D01*
D11*
X155378400Y-96805600D02*
G75*
G03X155378400Y-96805600I-127000J0D01*
G01*
D10*
X158101400Y-94355600D02*
X158751400Y-94355600D01*
X156401400Y-94355600D02*
X158101400Y-94355600D01*
X155751400Y-94355600D02*
X156401400Y-94355600D01*
X158751400Y-96855600D02*
X155751400Y-96855600D01*
G04 #@! TO.C,S2*
X153595200Y-96855600D02*
X150595200Y-96855600D01*
X150595200Y-94355600D02*
X151245200Y-94355600D01*
X151245200Y-94355600D02*
X152945200Y-94355600D01*
X152945200Y-94355600D02*
X153595200Y-94355600D01*
D11*
X150222200Y-96805600D02*
G75*
G03X150222200Y-96805600I-127000J0D01*
G01*
D10*
X152545200Y-93655600D02*
X151645200Y-93655600D01*
X151245200Y-94355600D02*
X151245200Y-93905600D01*
X152945200Y-94355600D02*
X152945200Y-93905600D01*
X152545200Y-93655600D02*
X152945200Y-93905600D01*
X151645200Y-93655600D02*
X151245200Y-93905600D01*
D12*
G04 #@! TO.C,C4*
X164610000Y-102797936D02*
X164610000Y-104002064D01*
X162790000Y-102797936D02*
X162790000Y-104002064D01*
G04 #@! TO.C,D7*
X159350000Y-117000000D02*
X163250000Y-117000000D01*
X159350000Y-115000000D02*
X163250000Y-115000000D01*
X159350000Y-117000000D02*
X159350000Y-115000000D01*
G04 #@! TO.C,D6*
X164700000Y-100850000D02*
X164700000Y-96950000D01*
X162700000Y-100850000D02*
X162700000Y-96950000D01*
X164700000Y-100850000D02*
X162700000Y-100850000D01*
G04 #@! TO.C,S3*
D13*
X157962514Y-95944485D02*
X157833942Y-95987342D01*
X157619657Y-95987342D01*
X157533942Y-95944485D01*
X157491085Y-95901628D01*
X157448228Y-95815914D01*
X157448228Y-95730200D01*
X157491085Y-95644485D01*
X157533942Y-95601628D01*
X157619657Y-95558771D01*
X157791085Y-95515914D01*
X157876800Y-95473057D01*
X157919657Y-95430200D01*
X157962514Y-95344485D01*
X157962514Y-95258771D01*
X157919657Y-95173057D01*
X157876800Y-95130200D01*
X157791085Y-95087342D01*
X157576800Y-95087342D01*
X157448228Y-95130200D01*
X157148228Y-95087342D02*
X156591085Y-95087342D01*
X156891085Y-95430200D01*
X156762514Y-95430200D01*
X156676800Y-95473057D01*
X156633942Y-95515914D01*
X156591085Y-95601628D01*
X156591085Y-95815914D01*
X156633942Y-95901628D01*
X156676800Y-95944485D01*
X156762514Y-95987342D01*
X157019657Y-95987342D01*
X157105371Y-95944485D01*
X157148228Y-95901628D01*
X157795057Y-98349542D02*
X158095057Y-97920971D01*
X158309342Y-98349542D02*
X158309342Y-97449542D01*
X157966485Y-97449542D01*
X157880771Y-97492400D01*
X157837914Y-97535257D01*
X157795057Y-97620971D01*
X157795057Y-97749542D01*
X157837914Y-97835257D01*
X157880771Y-97878114D01*
X157966485Y-97920971D01*
X158309342Y-97920971D01*
X157452200Y-98306685D02*
X157323628Y-98349542D01*
X157109342Y-98349542D01*
X157023628Y-98306685D01*
X156980771Y-98263828D01*
X156937914Y-98178114D01*
X156937914Y-98092400D01*
X156980771Y-98006685D01*
X157023628Y-97963828D01*
X157109342Y-97920971D01*
X157280771Y-97878114D01*
X157366485Y-97835257D01*
X157409342Y-97792400D01*
X157452200Y-97706685D01*
X157452200Y-97620971D01*
X157409342Y-97535257D01*
X157366485Y-97492400D01*
X157280771Y-97449542D01*
X157066485Y-97449542D01*
X156937914Y-97492400D01*
X156680771Y-97449542D02*
X156166485Y-97449542D01*
X156423628Y-98349542D02*
X156423628Y-97449542D01*
G04 #@! TO.C,S2*
X152780914Y-95893685D02*
X152652342Y-95936542D01*
X152438057Y-95936542D01*
X152352342Y-95893685D01*
X152309485Y-95850828D01*
X152266628Y-95765114D01*
X152266628Y-95679400D01*
X152309485Y-95593685D01*
X152352342Y-95550828D01*
X152438057Y-95507971D01*
X152609485Y-95465114D01*
X152695200Y-95422257D01*
X152738057Y-95379400D01*
X152780914Y-95293685D01*
X152780914Y-95207971D01*
X152738057Y-95122257D01*
X152695200Y-95079400D01*
X152609485Y-95036542D01*
X152395200Y-95036542D01*
X152266628Y-95079400D01*
X151923771Y-95122257D02*
X151880914Y-95079400D01*
X151795200Y-95036542D01*
X151580914Y-95036542D01*
X151495200Y-95079400D01*
X151452342Y-95122257D01*
X151409485Y-95207971D01*
X151409485Y-95293685D01*
X151452342Y-95422257D01*
X151966628Y-95936542D01*
X151409485Y-95936542D01*
X153449171Y-97390800D02*
X153534885Y-97347942D01*
X153663457Y-97347942D01*
X153792028Y-97390800D01*
X153877742Y-97476514D01*
X153920600Y-97562228D01*
X153963457Y-97733657D01*
X153963457Y-97862228D01*
X153920600Y-98033657D01*
X153877742Y-98119371D01*
X153792028Y-98205085D01*
X153663457Y-98247942D01*
X153577742Y-98247942D01*
X153449171Y-98205085D01*
X153406314Y-98162228D01*
X153406314Y-97862228D01*
X153577742Y-97862228D01*
X153020600Y-98247942D02*
X153020600Y-97347942D01*
X152677742Y-97347942D01*
X152592028Y-97390800D01*
X152549171Y-97433657D01*
X152506314Y-97519371D01*
X152506314Y-97647942D01*
X152549171Y-97733657D01*
X152592028Y-97776514D01*
X152677742Y-97819371D01*
X153020600Y-97819371D01*
X152120600Y-98247942D02*
X152120600Y-97347942D01*
X151520600Y-97347942D02*
X151349171Y-97347942D01*
X151263457Y-97390800D01*
X151177742Y-97476514D01*
X151134885Y-97647942D01*
X151134885Y-97947942D01*
X151177742Y-98119371D01*
X151263457Y-98205085D01*
X151349171Y-98247942D01*
X151520600Y-98247942D01*
X151606314Y-98205085D01*
X151692028Y-98119371D01*
X151734885Y-97947942D01*
X151734885Y-97647942D01*
X151692028Y-97476514D01*
X151606314Y-97390800D01*
X151520600Y-97347942D01*
X150577742Y-97347942D02*
X150492028Y-97347942D01*
X150406314Y-97390800D01*
X150363457Y-97433657D01*
X150320600Y-97519371D01*
X150277742Y-97690800D01*
X150277742Y-97905085D01*
X150320600Y-98076514D01*
X150363457Y-98162228D01*
X150406314Y-98205085D01*
X150492028Y-98247942D01*
X150577742Y-98247942D01*
X150663457Y-98205085D01*
X150706314Y-98162228D01*
X150749171Y-98076514D01*
X150792028Y-97905085D01*
X150792028Y-97690800D01*
X150749171Y-97519371D01*
X150706314Y-97433657D01*
X150663457Y-97390800D01*
X150577742Y-97347942D01*
G04 #@! TO.C,C4*
X163850000Y-106821428D02*
X163892857Y-106864285D01*
X164021428Y-106907142D01*
X164107142Y-106907142D01*
X164235714Y-106864285D01*
X164321428Y-106778571D01*
X164364285Y-106692857D01*
X164407142Y-106521428D01*
X164407142Y-106392857D01*
X164364285Y-106221428D01*
X164321428Y-106135714D01*
X164235714Y-106050000D01*
X164107142Y-106007142D01*
X164021428Y-106007142D01*
X163892857Y-106050000D01*
X163850000Y-106092857D01*
X163078571Y-106307142D02*
X163078571Y-106907142D01*
X163292857Y-105964285D02*
X163507142Y-106607142D01*
X162950000Y-106607142D01*
G04 #@! TO.C,D7*
X162164285Y-118207142D02*
X162164285Y-117307142D01*
X161950000Y-117307142D01*
X161821428Y-117350000D01*
X161735714Y-117435714D01*
X161692857Y-117521428D01*
X161650000Y-117692857D01*
X161650000Y-117821428D01*
X161692857Y-117992857D01*
X161735714Y-118078571D01*
X161821428Y-118164285D01*
X161950000Y-118207142D01*
X162164285Y-118207142D01*
X161350000Y-117307142D02*
X160750000Y-117307142D01*
X161135714Y-118207142D01*
G04 #@! TO.C,D6*
X164364285Y-95936542D02*
X164364285Y-95036542D01*
X164150000Y-95036542D01*
X164021428Y-95079400D01*
X163935714Y-95165114D01*
X163892857Y-95250828D01*
X163850000Y-95422257D01*
X163850000Y-95550828D01*
X163892857Y-95722257D01*
X163935714Y-95807971D01*
X164021428Y-95893685D01*
X164150000Y-95936542D01*
X164364285Y-95936542D01*
X163078571Y-95036542D02*
X163250000Y-95036542D01*
X163335714Y-95079400D01*
X163378571Y-95122257D01*
X163464285Y-95250828D01*
X163507142Y-95422257D01*
X163507142Y-95765114D01*
X163464285Y-95850828D01*
X163421428Y-95893685D01*
X163335714Y-95936542D01*
X163164285Y-95936542D01*
X163078571Y-95893685D01*
X163035714Y-95850828D01*
X162992857Y-95765114D01*
X162992857Y-95550828D01*
X163035714Y-95465114D01*
X163078571Y-95422257D01*
X163164285Y-95379400D01*
X163335714Y-95379400D01*
X163421428Y-95422257D01*
X163464285Y-95465114D01*
X163507142Y-95550828D01*
G04 #@! TD*
M02*
