G04 #@! TF.GenerationSoftware,KiCad,Pcbnew,5.0.2-bee76a0~70~ubuntu18.04.1*
G04 #@! TF.CreationDate,2019-05-31T16:07:53-07:00*
G04 #@! TF.ProjectId,shellbell,7368656c-6c62-4656-9c6c-2e6b69636164,rev?*
G04 #@! TF.SameCoordinates,Original*
G04 #@! TF.FileFunction,Copper,L1,Top*
G04 #@! TF.FilePolarity,Positive*
%FSLAX46Y46*%
G04 Gerber Fmt 4.6, Leading zero omitted, Abs format (unit mm)*
G04 Created by KiCad (PCBNEW 5.0.2-bee76a0~70~ubuntu18.04.1) date Fri 31 May 2019 04:07:53 PM PDT*
%MOMM*%
%LPD*%
G01*
G04 APERTURE LIST*
G04 #@! TA.AperFunction,ComponentPad*
%ADD10C,4.400000*%
G04 #@! TD*
G04 #@! TA.AperFunction,ComponentPad*
%ADD11C,0.700000*%
G04 #@! TD*
G04 #@! TA.AperFunction,ComponentPad*
%ADD12O,1.700000X1.700000*%
G04 #@! TD*
G04 #@! TA.AperFunction,ComponentPad*
%ADD13R,1.700000X1.700000*%
G04 #@! TD*
G04 #@! TA.AperFunction,ComponentPad*
%ADD14R,2.000000X1.905000*%
G04 #@! TD*
G04 #@! TA.AperFunction,ComponentPad*
%ADD15O,2.000000X1.905000*%
G04 #@! TD*
G04 #@! TA.AperFunction,Conductor*
%ADD16C,0.100000*%
G04 #@! TD*
G04 #@! TA.AperFunction,SMDPad,CuDef*
%ADD17C,1.250000*%
G04 #@! TD*
G04 #@! TA.AperFunction,ComponentPad*
%ADD18R,1.600000X1.600000*%
G04 #@! TD*
G04 #@! TA.AperFunction,ComponentPad*
%ADD19C,1.600000*%
G04 #@! TD*
G04 #@! TA.AperFunction,SMDPad,CuDef*
%ADD20R,6.400000X5.800000*%
G04 #@! TD*
G04 #@! TA.AperFunction,SMDPad,CuDef*
%ADD21R,2.200000X1.200000*%
G04 #@! TD*
G04 #@! TA.AperFunction,SMDPad,CuDef*
%ADD22R,1.700000X2.000000*%
G04 #@! TD*
G04 #@! TA.AperFunction,SMDPad,CuDef*
%ADD23R,2.000000X0.500000*%
G04 #@! TD*
G04 #@! TA.AperFunction,ComponentPad*
%ADD24O,2.200000X2.200000*%
G04 #@! TD*
G04 #@! TA.AperFunction,ComponentPad*
%ADD25R,2.200000X2.200000*%
G04 #@! TD*
G04 #@! TA.AperFunction,ComponentPad*
%ADD26O,3.500000X2.000000*%
G04 #@! TD*
G04 #@! TA.AperFunction,ComponentPad*
%ADD27O,2.000000X3.300000*%
G04 #@! TD*
G04 #@! TA.AperFunction,ComponentPad*
%ADD28R,2.000000X4.000000*%
G04 #@! TD*
G04 #@! TA.AperFunction,SMDPad,CuDef*
%ADD29R,2.540000X0.457200*%
G04 #@! TD*
G04 #@! TA.AperFunction,ViaPad*
%ADD30C,0.800000*%
G04 #@! TD*
G04 #@! TA.AperFunction,Conductor*
%ADD31C,0.800000*%
G04 #@! TD*
G04 #@! TA.AperFunction,Conductor*
%ADD32C,0.250000*%
G04 #@! TD*
G04 #@! TA.AperFunction,Conductor*
%ADD33C,0.300000*%
G04 #@! TD*
G04 #@! TA.AperFunction,Conductor*
%ADD34C,0.150000*%
G04 #@! TD*
G04 APERTURE END LIST*
D10*
G04 #@! TO.P,H1,1*
G04 #@! TO.N,GND*
X137033000Y-107873800D03*
D11*
X138683000Y-107873800D03*
X138199726Y-109040526D03*
X137033000Y-109523800D03*
X135866274Y-109040526D03*
X135383000Y-107873800D03*
X135866274Y-106707074D03*
X137033000Y-106223800D03*
X138199726Y-106707074D03*
G04 #@! TD*
D12*
G04 #@! TO.P,L1,2*
G04 #@! TO.N,/LGND*
X145460000Y-96500000D03*
D13*
G04 #@! TO.P,L1,1*
G04 #@! TO.N,+12V*
X148000000Y-96500000D03*
G04 #@! TD*
D12*
G04 #@! TO.P,J2,8*
G04 #@! TO.N,+3V3*
X135040000Y-96380000D03*
G04 #@! TO.P,J2,7*
G04 #@! TO.N,/TXD*
X132500000Y-96380000D03*
G04 #@! TO.P,J2,6*
G04 #@! TO.N,/RST*
X135040000Y-98920000D03*
G04 #@! TO.P,J2,5*
G04 #@! TO.N,/GPIO0*
X132500000Y-98920000D03*
G04 #@! TO.P,J2,4*
G04 #@! TO.N,/CH_PD*
X135040000Y-101460000D03*
G04 #@! TO.P,J2,3*
G04 #@! TO.N,/CTL*
X132500000Y-101460000D03*
G04 #@! TO.P,J2,2*
G04 #@! TO.N,/RXD*
X135040000Y-104000000D03*
D13*
G04 #@! TO.P,J2,1*
G04 #@! TO.N,GND*
X132500000Y-104000000D03*
G04 #@! TD*
D14*
G04 #@! TO.P,U1,1*
G04 #@! TO.N,GND*
X133500000Y-116000000D03*
D15*
G04 #@! TO.P,U1,2*
G04 #@! TO.N,+3V3*
X133500000Y-113460000D03*
G04 #@! TO.P,U1,3*
G04 #@! TO.N,Net-(D4-Pad1)*
X133500000Y-110920000D03*
G04 #@! TD*
D16*
G04 #@! TO.N,Net-(D2-Pad1)*
G04 #@! TO.C,R4*
G36*
X158499504Y-95626204D02*
X158523773Y-95629804D01*
X158547571Y-95635765D01*
X158570671Y-95644030D01*
X158592849Y-95654520D01*
X158613893Y-95667133D01*
X158633598Y-95681747D01*
X158651777Y-95698223D01*
X158668253Y-95716402D01*
X158682867Y-95736107D01*
X158695480Y-95757151D01*
X158705970Y-95779329D01*
X158714235Y-95802429D01*
X158720196Y-95826227D01*
X158723796Y-95850496D01*
X158725000Y-95875000D01*
X158725000Y-97125000D01*
X158723796Y-97149504D01*
X158720196Y-97173773D01*
X158714235Y-97197571D01*
X158705970Y-97220671D01*
X158695480Y-97242849D01*
X158682867Y-97263893D01*
X158668253Y-97283598D01*
X158651777Y-97301777D01*
X158633598Y-97318253D01*
X158613893Y-97332867D01*
X158592849Y-97345480D01*
X158570671Y-97355970D01*
X158547571Y-97364235D01*
X158523773Y-97370196D01*
X158499504Y-97373796D01*
X158475000Y-97375000D01*
X157725000Y-97375000D01*
X157700496Y-97373796D01*
X157676227Y-97370196D01*
X157652429Y-97364235D01*
X157629329Y-97355970D01*
X157607151Y-97345480D01*
X157586107Y-97332867D01*
X157566402Y-97318253D01*
X157548223Y-97301777D01*
X157531747Y-97283598D01*
X157517133Y-97263893D01*
X157504520Y-97242849D01*
X157494030Y-97220671D01*
X157485765Y-97197571D01*
X157479804Y-97173773D01*
X157476204Y-97149504D01*
X157475000Y-97125000D01*
X157475000Y-95875000D01*
X157476204Y-95850496D01*
X157479804Y-95826227D01*
X157485765Y-95802429D01*
X157494030Y-95779329D01*
X157504520Y-95757151D01*
X157517133Y-95736107D01*
X157531747Y-95716402D01*
X157548223Y-95698223D01*
X157566402Y-95681747D01*
X157586107Y-95667133D01*
X157607151Y-95654520D01*
X157629329Y-95644030D01*
X157652429Y-95635765D01*
X157676227Y-95629804D01*
X157700496Y-95626204D01*
X157725000Y-95625000D01*
X158475000Y-95625000D01*
X158499504Y-95626204D01*
X158499504Y-95626204D01*
G37*
D17*
G04 #@! TD*
G04 #@! TO.P,R4,2*
G04 #@! TO.N,Net-(D2-Pad1)*
X158100000Y-96500000D03*
D16*
G04 #@! TO.N,/RX_LED#*
G04 #@! TO.C,R4*
G36*
X161299504Y-95626204D02*
X161323773Y-95629804D01*
X161347571Y-95635765D01*
X161370671Y-95644030D01*
X161392849Y-95654520D01*
X161413893Y-95667133D01*
X161433598Y-95681747D01*
X161451777Y-95698223D01*
X161468253Y-95716402D01*
X161482867Y-95736107D01*
X161495480Y-95757151D01*
X161505970Y-95779329D01*
X161514235Y-95802429D01*
X161520196Y-95826227D01*
X161523796Y-95850496D01*
X161525000Y-95875000D01*
X161525000Y-97125000D01*
X161523796Y-97149504D01*
X161520196Y-97173773D01*
X161514235Y-97197571D01*
X161505970Y-97220671D01*
X161495480Y-97242849D01*
X161482867Y-97263893D01*
X161468253Y-97283598D01*
X161451777Y-97301777D01*
X161433598Y-97318253D01*
X161413893Y-97332867D01*
X161392849Y-97345480D01*
X161370671Y-97355970D01*
X161347571Y-97364235D01*
X161323773Y-97370196D01*
X161299504Y-97373796D01*
X161275000Y-97375000D01*
X160525000Y-97375000D01*
X160500496Y-97373796D01*
X160476227Y-97370196D01*
X160452429Y-97364235D01*
X160429329Y-97355970D01*
X160407151Y-97345480D01*
X160386107Y-97332867D01*
X160366402Y-97318253D01*
X160348223Y-97301777D01*
X160331747Y-97283598D01*
X160317133Y-97263893D01*
X160304520Y-97242849D01*
X160294030Y-97220671D01*
X160285765Y-97197571D01*
X160279804Y-97173773D01*
X160276204Y-97149504D01*
X160275000Y-97125000D01*
X160275000Y-95875000D01*
X160276204Y-95850496D01*
X160279804Y-95826227D01*
X160285765Y-95802429D01*
X160294030Y-95779329D01*
X160304520Y-95757151D01*
X160317133Y-95736107D01*
X160331747Y-95716402D01*
X160348223Y-95698223D01*
X160366402Y-95681747D01*
X160386107Y-95667133D01*
X160407151Y-95654520D01*
X160429329Y-95644030D01*
X160452429Y-95635765D01*
X160476227Y-95629804D01*
X160500496Y-95626204D01*
X160525000Y-95625000D01*
X161275000Y-95625000D01*
X161299504Y-95626204D01*
X161299504Y-95626204D01*
G37*
D17*
G04 #@! TD*
G04 #@! TO.P,R4,1*
G04 #@! TO.N,/RX_LED#*
X160900000Y-96500000D03*
D18*
G04 #@! TO.P,C1,1*
G04 #@! TO.N,+12V*
X155000000Y-114000000D03*
D19*
G04 #@! TO.P,C1,2*
G04 #@! TO.N,GND*
X155000000Y-116500000D03*
G04 #@! TD*
D20*
G04 #@! TO.P,Q1,2*
G04 #@! TO.N,/LGND*
X147100000Y-106500000D03*
D21*
G04 #@! TO.P,Q1,3*
G04 #@! TO.N,GND*
X140800000Y-108780000D03*
G04 #@! TO.P,Q1,1*
G04 #@! TO.N,/CTL*
X140800000Y-104220000D03*
G04 #@! TD*
D19*
G04 #@! TO.P,C3,2*
G04 #@! TO.N,GND*
X154000000Y-109000000D03*
D18*
G04 #@! TO.P,C3,1*
G04 #@! TO.N,+5V*
X156000000Y-109000000D03*
G04 #@! TD*
D22*
G04 #@! TO.P,J3,6*
G04 #@! TO.N,GND*
X169350000Y-96050000D03*
X163900000Y-96050000D03*
X169350000Y-104950000D03*
X163900000Y-104950000D03*
D23*
G04 #@! TO.P,J3,5*
X163800000Y-98900000D03*
G04 #@! TO.P,J3,4*
G04 #@! TO.N,Net-(J3-Pad4)*
X163800000Y-99700000D03*
G04 #@! TO.P,J3,3*
G04 #@! TO.N,/USBDP*
X163800000Y-100500000D03*
G04 #@! TO.P,J3,2*
G04 #@! TO.N,/USBDM*
X163800000Y-101300000D03*
G04 #@! TO.P,J3,1*
G04 #@! TO.N,+5V*
X163800000Y-102100000D03*
G04 #@! TD*
D19*
G04 #@! TO.P,C2,2*
G04 #@! TO.N,GND*
X138000000Y-116500000D03*
D18*
G04 #@! TO.P,C2,1*
G04 #@! TO.N,+3V3*
X138000000Y-114500000D03*
G04 #@! TD*
D24*
G04 #@! TO.P,D1,2*
G04 #@! TO.N,/LGND*
X143380000Y-100500000D03*
D25*
G04 #@! TO.P,D1,1*
G04 #@! TO.N,+12V*
X151000000Y-100500000D03*
G04 #@! TD*
D16*
G04 #@! TO.N,+3V3*
G04 #@! TO.C,D2*
G36*
X153599504Y-95126204D02*
X153623773Y-95129804D01*
X153647571Y-95135765D01*
X153670671Y-95144030D01*
X153692849Y-95154520D01*
X153713893Y-95167133D01*
X153733598Y-95181747D01*
X153751777Y-95198223D01*
X153768253Y-95216402D01*
X153782867Y-95236107D01*
X153795480Y-95257151D01*
X153805970Y-95279329D01*
X153814235Y-95302429D01*
X153820196Y-95326227D01*
X153823796Y-95350496D01*
X153825000Y-95375000D01*
X153825000Y-96625000D01*
X153823796Y-96649504D01*
X153820196Y-96673773D01*
X153814235Y-96697571D01*
X153805970Y-96720671D01*
X153795480Y-96742849D01*
X153782867Y-96763893D01*
X153768253Y-96783598D01*
X153751777Y-96801777D01*
X153733598Y-96818253D01*
X153713893Y-96832867D01*
X153692849Y-96845480D01*
X153670671Y-96855970D01*
X153647571Y-96864235D01*
X153623773Y-96870196D01*
X153599504Y-96873796D01*
X153575000Y-96875000D01*
X152825000Y-96875000D01*
X152800496Y-96873796D01*
X152776227Y-96870196D01*
X152752429Y-96864235D01*
X152729329Y-96855970D01*
X152707151Y-96845480D01*
X152686107Y-96832867D01*
X152666402Y-96818253D01*
X152648223Y-96801777D01*
X152631747Y-96783598D01*
X152617133Y-96763893D01*
X152604520Y-96742849D01*
X152594030Y-96720671D01*
X152585765Y-96697571D01*
X152579804Y-96673773D01*
X152576204Y-96649504D01*
X152575000Y-96625000D01*
X152575000Y-95375000D01*
X152576204Y-95350496D01*
X152579804Y-95326227D01*
X152585765Y-95302429D01*
X152594030Y-95279329D01*
X152604520Y-95257151D01*
X152617133Y-95236107D01*
X152631747Y-95216402D01*
X152648223Y-95198223D01*
X152666402Y-95181747D01*
X152686107Y-95167133D01*
X152707151Y-95154520D01*
X152729329Y-95144030D01*
X152752429Y-95135765D01*
X152776227Y-95129804D01*
X152800496Y-95126204D01*
X152825000Y-95125000D01*
X153575000Y-95125000D01*
X153599504Y-95126204D01*
X153599504Y-95126204D01*
G37*
D17*
G04 #@! TD*
G04 #@! TO.P,D2,2*
G04 #@! TO.N,+3V3*
X153200000Y-96000000D03*
D16*
G04 #@! TO.N,Net-(D2-Pad1)*
G04 #@! TO.C,D2*
G36*
X156399504Y-95126204D02*
X156423773Y-95129804D01*
X156447571Y-95135765D01*
X156470671Y-95144030D01*
X156492849Y-95154520D01*
X156513893Y-95167133D01*
X156533598Y-95181747D01*
X156551777Y-95198223D01*
X156568253Y-95216402D01*
X156582867Y-95236107D01*
X156595480Y-95257151D01*
X156605970Y-95279329D01*
X156614235Y-95302429D01*
X156620196Y-95326227D01*
X156623796Y-95350496D01*
X156625000Y-95375000D01*
X156625000Y-96625000D01*
X156623796Y-96649504D01*
X156620196Y-96673773D01*
X156614235Y-96697571D01*
X156605970Y-96720671D01*
X156595480Y-96742849D01*
X156582867Y-96763893D01*
X156568253Y-96783598D01*
X156551777Y-96801777D01*
X156533598Y-96818253D01*
X156513893Y-96832867D01*
X156492849Y-96845480D01*
X156470671Y-96855970D01*
X156447571Y-96864235D01*
X156423773Y-96870196D01*
X156399504Y-96873796D01*
X156375000Y-96875000D01*
X155625000Y-96875000D01*
X155600496Y-96873796D01*
X155576227Y-96870196D01*
X155552429Y-96864235D01*
X155529329Y-96855970D01*
X155507151Y-96845480D01*
X155486107Y-96832867D01*
X155466402Y-96818253D01*
X155448223Y-96801777D01*
X155431747Y-96783598D01*
X155417133Y-96763893D01*
X155404520Y-96742849D01*
X155394030Y-96720671D01*
X155385765Y-96697571D01*
X155379804Y-96673773D01*
X155376204Y-96649504D01*
X155375000Y-96625000D01*
X155375000Y-95375000D01*
X155376204Y-95350496D01*
X155379804Y-95326227D01*
X155385765Y-95302429D01*
X155394030Y-95279329D01*
X155404520Y-95257151D01*
X155417133Y-95236107D01*
X155431747Y-95216402D01*
X155448223Y-95198223D01*
X155466402Y-95181747D01*
X155486107Y-95167133D01*
X155507151Y-95154520D01*
X155529329Y-95144030D01*
X155552429Y-95135765D01*
X155576227Y-95129804D01*
X155600496Y-95126204D01*
X155625000Y-95125000D01*
X156375000Y-95125000D01*
X156399504Y-95126204D01*
X156399504Y-95126204D01*
G37*
D17*
G04 #@! TD*
G04 #@! TO.P,D2,1*
G04 #@! TO.N,Net-(D2-Pad1)*
X156000000Y-96000000D03*
D16*
G04 #@! TO.N,Net-(D3-Pad2)*
G04 #@! TO.C,D3*
G36*
X156399504Y-104126204D02*
X156423773Y-104129804D01*
X156447571Y-104135765D01*
X156470671Y-104144030D01*
X156492849Y-104154520D01*
X156513893Y-104167133D01*
X156533598Y-104181747D01*
X156551777Y-104198223D01*
X156568253Y-104216402D01*
X156582867Y-104236107D01*
X156595480Y-104257151D01*
X156605970Y-104279329D01*
X156614235Y-104302429D01*
X156620196Y-104326227D01*
X156623796Y-104350496D01*
X156625000Y-104375000D01*
X156625000Y-105625000D01*
X156623796Y-105649504D01*
X156620196Y-105673773D01*
X156614235Y-105697571D01*
X156605970Y-105720671D01*
X156595480Y-105742849D01*
X156582867Y-105763893D01*
X156568253Y-105783598D01*
X156551777Y-105801777D01*
X156533598Y-105818253D01*
X156513893Y-105832867D01*
X156492849Y-105845480D01*
X156470671Y-105855970D01*
X156447571Y-105864235D01*
X156423773Y-105870196D01*
X156399504Y-105873796D01*
X156375000Y-105875000D01*
X155625000Y-105875000D01*
X155600496Y-105873796D01*
X155576227Y-105870196D01*
X155552429Y-105864235D01*
X155529329Y-105855970D01*
X155507151Y-105845480D01*
X155486107Y-105832867D01*
X155466402Y-105818253D01*
X155448223Y-105801777D01*
X155431747Y-105783598D01*
X155417133Y-105763893D01*
X155404520Y-105742849D01*
X155394030Y-105720671D01*
X155385765Y-105697571D01*
X155379804Y-105673773D01*
X155376204Y-105649504D01*
X155375000Y-105625000D01*
X155375000Y-104375000D01*
X155376204Y-104350496D01*
X155379804Y-104326227D01*
X155385765Y-104302429D01*
X155394030Y-104279329D01*
X155404520Y-104257151D01*
X155417133Y-104236107D01*
X155431747Y-104216402D01*
X155448223Y-104198223D01*
X155466402Y-104181747D01*
X155486107Y-104167133D01*
X155507151Y-104154520D01*
X155529329Y-104144030D01*
X155552429Y-104135765D01*
X155576227Y-104129804D01*
X155600496Y-104126204D01*
X155625000Y-104125000D01*
X156375000Y-104125000D01*
X156399504Y-104126204D01*
X156399504Y-104126204D01*
G37*
D17*
G04 #@! TD*
G04 #@! TO.P,D3,2*
G04 #@! TO.N,Net-(D3-Pad2)*
X156000000Y-105000000D03*
D16*
G04 #@! TO.N,/TX_LED#*
G04 #@! TO.C,D3*
G36*
X153599504Y-104126204D02*
X153623773Y-104129804D01*
X153647571Y-104135765D01*
X153670671Y-104144030D01*
X153692849Y-104154520D01*
X153713893Y-104167133D01*
X153733598Y-104181747D01*
X153751777Y-104198223D01*
X153768253Y-104216402D01*
X153782867Y-104236107D01*
X153795480Y-104257151D01*
X153805970Y-104279329D01*
X153814235Y-104302429D01*
X153820196Y-104326227D01*
X153823796Y-104350496D01*
X153825000Y-104375000D01*
X153825000Y-105625000D01*
X153823796Y-105649504D01*
X153820196Y-105673773D01*
X153814235Y-105697571D01*
X153805970Y-105720671D01*
X153795480Y-105742849D01*
X153782867Y-105763893D01*
X153768253Y-105783598D01*
X153751777Y-105801777D01*
X153733598Y-105818253D01*
X153713893Y-105832867D01*
X153692849Y-105845480D01*
X153670671Y-105855970D01*
X153647571Y-105864235D01*
X153623773Y-105870196D01*
X153599504Y-105873796D01*
X153575000Y-105875000D01*
X152825000Y-105875000D01*
X152800496Y-105873796D01*
X152776227Y-105870196D01*
X152752429Y-105864235D01*
X152729329Y-105855970D01*
X152707151Y-105845480D01*
X152686107Y-105832867D01*
X152666402Y-105818253D01*
X152648223Y-105801777D01*
X152631747Y-105783598D01*
X152617133Y-105763893D01*
X152604520Y-105742849D01*
X152594030Y-105720671D01*
X152585765Y-105697571D01*
X152579804Y-105673773D01*
X152576204Y-105649504D01*
X152575000Y-105625000D01*
X152575000Y-104375000D01*
X152576204Y-104350496D01*
X152579804Y-104326227D01*
X152585765Y-104302429D01*
X152594030Y-104279329D01*
X152604520Y-104257151D01*
X152617133Y-104236107D01*
X152631747Y-104216402D01*
X152648223Y-104198223D01*
X152666402Y-104181747D01*
X152686107Y-104167133D01*
X152707151Y-104154520D01*
X152729329Y-104144030D01*
X152752429Y-104135765D01*
X152776227Y-104129804D01*
X152800496Y-104126204D01*
X152825000Y-104125000D01*
X153575000Y-104125000D01*
X153599504Y-104126204D01*
X153599504Y-104126204D01*
G37*
D17*
G04 #@! TD*
G04 #@! TO.P,D3,1*
G04 #@! TO.N,/TX_LED#*
X153200000Y-105000000D03*
D24*
G04 #@! TO.P,D4,2*
G04 #@! TO.N,+5V*
X150120000Y-112000000D03*
D25*
G04 #@! TO.P,D4,1*
G04 #@! TO.N,Net-(D4-Pad1)*
X142500000Y-112000000D03*
G04 #@! TD*
D24*
G04 #@! TO.P,D5,2*
G04 #@! TO.N,+12V*
X150120000Y-116500000D03*
D25*
G04 #@! TO.P,D5,1*
G04 #@! TO.N,Net-(D4-Pad1)*
X142500000Y-116500000D03*
G04 #@! TD*
D26*
G04 #@! TO.P,J1,MP*
G04 #@! TO.N,GND*
X167000000Y-108000000D03*
X167000000Y-117000000D03*
D27*
G04 #@! TO.P,J1,2*
X166000000Y-112500000D03*
D28*
G04 #@! TO.P,J1,1*
G04 #@! TO.N,+12V*
X160000000Y-112500000D03*
G04 #@! TD*
D16*
G04 #@! TO.N,+3V3*
G04 #@! TO.C,R1*
G36*
X141201997Y-100250807D02*
X141226266Y-100254407D01*
X141250064Y-100260368D01*
X141273164Y-100268633D01*
X141295342Y-100279123D01*
X141316386Y-100291736D01*
X141336091Y-100306350D01*
X141354270Y-100322826D01*
X141370746Y-100341005D01*
X141385360Y-100360710D01*
X141397973Y-100381754D01*
X141408463Y-100403932D01*
X141416728Y-100427032D01*
X141422689Y-100450830D01*
X141426289Y-100475099D01*
X141427493Y-100499603D01*
X141427493Y-101749603D01*
X141426289Y-101774107D01*
X141422689Y-101798376D01*
X141416728Y-101822174D01*
X141408463Y-101845274D01*
X141397973Y-101867452D01*
X141385360Y-101888496D01*
X141370746Y-101908201D01*
X141354270Y-101926380D01*
X141336091Y-101942856D01*
X141316386Y-101957470D01*
X141295342Y-101970083D01*
X141273164Y-101980573D01*
X141250064Y-101988838D01*
X141226266Y-101994799D01*
X141201997Y-101998399D01*
X141177493Y-101999603D01*
X140427493Y-101999603D01*
X140402989Y-101998399D01*
X140378720Y-101994799D01*
X140354922Y-101988838D01*
X140331822Y-101980573D01*
X140309644Y-101970083D01*
X140288600Y-101957470D01*
X140268895Y-101942856D01*
X140250716Y-101926380D01*
X140234240Y-101908201D01*
X140219626Y-101888496D01*
X140207013Y-101867452D01*
X140196523Y-101845274D01*
X140188258Y-101822174D01*
X140182297Y-101798376D01*
X140178697Y-101774107D01*
X140177493Y-101749603D01*
X140177493Y-100499603D01*
X140178697Y-100475099D01*
X140182297Y-100450830D01*
X140188258Y-100427032D01*
X140196523Y-100403932D01*
X140207013Y-100381754D01*
X140219626Y-100360710D01*
X140234240Y-100341005D01*
X140250716Y-100322826D01*
X140268895Y-100306350D01*
X140288600Y-100291736D01*
X140309644Y-100279123D01*
X140331822Y-100268633D01*
X140354922Y-100260368D01*
X140378720Y-100254407D01*
X140402989Y-100250807D01*
X140427493Y-100249603D01*
X141177493Y-100249603D01*
X141201997Y-100250807D01*
X141201997Y-100250807D01*
G37*
D17*
G04 #@! TD*
G04 #@! TO.P,R1,2*
G04 #@! TO.N,+3V3*
X140802493Y-101124603D03*
D16*
G04 #@! TO.N,/GPIO0*
G04 #@! TO.C,R1*
G36*
X138401997Y-100250807D02*
X138426266Y-100254407D01*
X138450064Y-100260368D01*
X138473164Y-100268633D01*
X138495342Y-100279123D01*
X138516386Y-100291736D01*
X138536091Y-100306350D01*
X138554270Y-100322826D01*
X138570746Y-100341005D01*
X138585360Y-100360710D01*
X138597973Y-100381754D01*
X138608463Y-100403932D01*
X138616728Y-100427032D01*
X138622689Y-100450830D01*
X138626289Y-100475099D01*
X138627493Y-100499603D01*
X138627493Y-101749603D01*
X138626289Y-101774107D01*
X138622689Y-101798376D01*
X138616728Y-101822174D01*
X138608463Y-101845274D01*
X138597973Y-101867452D01*
X138585360Y-101888496D01*
X138570746Y-101908201D01*
X138554270Y-101926380D01*
X138536091Y-101942856D01*
X138516386Y-101957470D01*
X138495342Y-101970083D01*
X138473164Y-101980573D01*
X138450064Y-101988838D01*
X138426266Y-101994799D01*
X138401997Y-101998399D01*
X138377493Y-101999603D01*
X137627493Y-101999603D01*
X137602989Y-101998399D01*
X137578720Y-101994799D01*
X137554922Y-101988838D01*
X137531822Y-101980573D01*
X137509644Y-101970083D01*
X137488600Y-101957470D01*
X137468895Y-101942856D01*
X137450716Y-101926380D01*
X137434240Y-101908201D01*
X137419626Y-101888496D01*
X137407013Y-101867452D01*
X137396523Y-101845274D01*
X137388258Y-101822174D01*
X137382297Y-101798376D01*
X137378697Y-101774107D01*
X137377493Y-101749603D01*
X137377493Y-100499603D01*
X137378697Y-100475099D01*
X137382297Y-100450830D01*
X137388258Y-100427032D01*
X137396523Y-100403932D01*
X137407013Y-100381754D01*
X137419626Y-100360710D01*
X137434240Y-100341005D01*
X137450716Y-100322826D01*
X137468895Y-100306350D01*
X137488600Y-100291736D01*
X137509644Y-100279123D01*
X137531822Y-100268633D01*
X137554922Y-100260368D01*
X137578720Y-100254407D01*
X137602989Y-100250807D01*
X137627493Y-100249603D01*
X138377493Y-100249603D01*
X138401997Y-100250807D01*
X138401997Y-100250807D01*
G37*
D17*
G04 #@! TD*
G04 #@! TO.P,R1,1*
G04 #@! TO.N,/GPIO0*
X138002493Y-101124603D03*
D16*
G04 #@! TO.N,/CH_PD*
G04 #@! TO.C,R2*
G36*
X138401997Y-95250807D02*
X138426266Y-95254407D01*
X138450064Y-95260368D01*
X138473164Y-95268633D01*
X138495342Y-95279123D01*
X138516386Y-95291736D01*
X138536091Y-95306350D01*
X138554270Y-95322826D01*
X138570746Y-95341005D01*
X138585360Y-95360710D01*
X138597973Y-95381754D01*
X138608463Y-95403932D01*
X138616728Y-95427032D01*
X138622689Y-95450830D01*
X138626289Y-95475099D01*
X138627493Y-95499603D01*
X138627493Y-96749603D01*
X138626289Y-96774107D01*
X138622689Y-96798376D01*
X138616728Y-96822174D01*
X138608463Y-96845274D01*
X138597973Y-96867452D01*
X138585360Y-96888496D01*
X138570746Y-96908201D01*
X138554270Y-96926380D01*
X138536091Y-96942856D01*
X138516386Y-96957470D01*
X138495342Y-96970083D01*
X138473164Y-96980573D01*
X138450064Y-96988838D01*
X138426266Y-96994799D01*
X138401997Y-96998399D01*
X138377493Y-96999603D01*
X137627493Y-96999603D01*
X137602989Y-96998399D01*
X137578720Y-96994799D01*
X137554922Y-96988838D01*
X137531822Y-96980573D01*
X137509644Y-96970083D01*
X137488600Y-96957470D01*
X137468895Y-96942856D01*
X137450716Y-96926380D01*
X137434240Y-96908201D01*
X137419626Y-96888496D01*
X137407013Y-96867452D01*
X137396523Y-96845274D01*
X137388258Y-96822174D01*
X137382297Y-96798376D01*
X137378697Y-96774107D01*
X137377493Y-96749603D01*
X137377493Y-95499603D01*
X137378697Y-95475099D01*
X137382297Y-95450830D01*
X137388258Y-95427032D01*
X137396523Y-95403932D01*
X137407013Y-95381754D01*
X137419626Y-95360710D01*
X137434240Y-95341005D01*
X137450716Y-95322826D01*
X137468895Y-95306350D01*
X137488600Y-95291736D01*
X137509644Y-95279123D01*
X137531822Y-95268633D01*
X137554922Y-95260368D01*
X137578720Y-95254407D01*
X137602989Y-95250807D01*
X137627493Y-95249603D01*
X138377493Y-95249603D01*
X138401997Y-95250807D01*
X138401997Y-95250807D01*
G37*
D17*
G04 #@! TD*
G04 #@! TO.P,R2,2*
G04 #@! TO.N,/CH_PD*
X138002493Y-96124603D03*
D16*
G04 #@! TO.N,+3V3*
G04 #@! TO.C,R2*
G36*
X141201997Y-95250807D02*
X141226266Y-95254407D01*
X141250064Y-95260368D01*
X141273164Y-95268633D01*
X141295342Y-95279123D01*
X141316386Y-95291736D01*
X141336091Y-95306350D01*
X141354270Y-95322826D01*
X141370746Y-95341005D01*
X141385360Y-95360710D01*
X141397973Y-95381754D01*
X141408463Y-95403932D01*
X141416728Y-95427032D01*
X141422689Y-95450830D01*
X141426289Y-95475099D01*
X141427493Y-95499603D01*
X141427493Y-96749603D01*
X141426289Y-96774107D01*
X141422689Y-96798376D01*
X141416728Y-96822174D01*
X141408463Y-96845274D01*
X141397973Y-96867452D01*
X141385360Y-96888496D01*
X141370746Y-96908201D01*
X141354270Y-96926380D01*
X141336091Y-96942856D01*
X141316386Y-96957470D01*
X141295342Y-96970083D01*
X141273164Y-96980573D01*
X141250064Y-96988838D01*
X141226266Y-96994799D01*
X141201997Y-96998399D01*
X141177493Y-96999603D01*
X140427493Y-96999603D01*
X140402989Y-96998399D01*
X140378720Y-96994799D01*
X140354922Y-96988838D01*
X140331822Y-96980573D01*
X140309644Y-96970083D01*
X140288600Y-96957470D01*
X140268895Y-96942856D01*
X140250716Y-96926380D01*
X140234240Y-96908201D01*
X140219626Y-96888496D01*
X140207013Y-96867452D01*
X140196523Y-96845274D01*
X140188258Y-96822174D01*
X140182297Y-96798376D01*
X140178697Y-96774107D01*
X140177493Y-96749603D01*
X140177493Y-95499603D01*
X140178697Y-95475099D01*
X140182297Y-95450830D01*
X140188258Y-95427032D01*
X140196523Y-95403932D01*
X140207013Y-95381754D01*
X140219626Y-95360710D01*
X140234240Y-95341005D01*
X140250716Y-95322826D01*
X140268895Y-95306350D01*
X140288600Y-95291736D01*
X140309644Y-95279123D01*
X140331822Y-95268633D01*
X140354922Y-95260368D01*
X140378720Y-95254407D01*
X140402989Y-95250807D01*
X140427493Y-95249603D01*
X141177493Y-95249603D01*
X141201997Y-95250807D01*
X141201997Y-95250807D01*
G37*
D17*
G04 #@! TD*
G04 #@! TO.P,R2,1*
G04 #@! TO.N,+3V3*
X140802493Y-96124603D03*
D16*
G04 #@! TO.N,/RST*
G04 #@! TO.C,R3*
G36*
X138401997Y-97750807D02*
X138426266Y-97754407D01*
X138450064Y-97760368D01*
X138473164Y-97768633D01*
X138495342Y-97779123D01*
X138516386Y-97791736D01*
X138536091Y-97806350D01*
X138554270Y-97822826D01*
X138570746Y-97841005D01*
X138585360Y-97860710D01*
X138597973Y-97881754D01*
X138608463Y-97903932D01*
X138616728Y-97927032D01*
X138622689Y-97950830D01*
X138626289Y-97975099D01*
X138627493Y-97999603D01*
X138627493Y-99249603D01*
X138626289Y-99274107D01*
X138622689Y-99298376D01*
X138616728Y-99322174D01*
X138608463Y-99345274D01*
X138597973Y-99367452D01*
X138585360Y-99388496D01*
X138570746Y-99408201D01*
X138554270Y-99426380D01*
X138536091Y-99442856D01*
X138516386Y-99457470D01*
X138495342Y-99470083D01*
X138473164Y-99480573D01*
X138450064Y-99488838D01*
X138426266Y-99494799D01*
X138401997Y-99498399D01*
X138377493Y-99499603D01*
X137627493Y-99499603D01*
X137602989Y-99498399D01*
X137578720Y-99494799D01*
X137554922Y-99488838D01*
X137531822Y-99480573D01*
X137509644Y-99470083D01*
X137488600Y-99457470D01*
X137468895Y-99442856D01*
X137450716Y-99426380D01*
X137434240Y-99408201D01*
X137419626Y-99388496D01*
X137407013Y-99367452D01*
X137396523Y-99345274D01*
X137388258Y-99322174D01*
X137382297Y-99298376D01*
X137378697Y-99274107D01*
X137377493Y-99249603D01*
X137377493Y-97999603D01*
X137378697Y-97975099D01*
X137382297Y-97950830D01*
X137388258Y-97927032D01*
X137396523Y-97903932D01*
X137407013Y-97881754D01*
X137419626Y-97860710D01*
X137434240Y-97841005D01*
X137450716Y-97822826D01*
X137468895Y-97806350D01*
X137488600Y-97791736D01*
X137509644Y-97779123D01*
X137531822Y-97768633D01*
X137554922Y-97760368D01*
X137578720Y-97754407D01*
X137602989Y-97750807D01*
X137627493Y-97749603D01*
X138377493Y-97749603D01*
X138401997Y-97750807D01*
X138401997Y-97750807D01*
G37*
D17*
G04 #@! TD*
G04 #@! TO.P,R3,2*
G04 #@! TO.N,/RST*
X138002493Y-98624603D03*
D16*
G04 #@! TO.N,+3V3*
G04 #@! TO.C,R3*
G36*
X141201997Y-97750807D02*
X141226266Y-97754407D01*
X141250064Y-97760368D01*
X141273164Y-97768633D01*
X141295342Y-97779123D01*
X141316386Y-97791736D01*
X141336091Y-97806350D01*
X141354270Y-97822826D01*
X141370746Y-97841005D01*
X141385360Y-97860710D01*
X141397973Y-97881754D01*
X141408463Y-97903932D01*
X141416728Y-97927032D01*
X141422689Y-97950830D01*
X141426289Y-97975099D01*
X141427493Y-97999603D01*
X141427493Y-99249603D01*
X141426289Y-99274107D01*
X141422689Y-99298376D01*
X141416728Y-99322174D01*
X141408463Y-99345274D01*
X141397973Y-99367452D01*
X141385360Y-99388496D01*
X141370746Y-99408201D01*
X141354270Y-99426380D01*
X141336091Y-99442856D01*
X141316386Y-99457470D01*
X141295342Y-99470083D01*
X141273164Y-99480573D01*
X141250064Y-99488838D01*
X141226266Y-99494799D01*
X141201997Y-99498399D01*
X141177493Y-99499603D01*
X140427493Y-99499603D01*
X140402989Y-99498399D01*
X140378720Y-99494799D01*
X140354922Y-99488838D01*
X140331822Y-99480573D01*
X140309644Y-99470083D01*
X140288600Y-99457470D01*
X140268895Y-99442856D01*
X140250716Y-99426380D01*
X140234240Y-99408201D01*
X140219626Y-99388496D01*
X140207013Y-99367452D01*
X140196523Y-99345274D01*
X140188258Y-99322174D01*
X140182297Y-99298376D01*
X140178697Y-99274107D01*
X140177493Y-99249603D01*
X140177493Y-97999603D01*
X140178697Y-97975099D01*
X140182297Y-97950830D01*
X140188258Y-97927032D01*
X140196523Y-97903932D01*
X140207013Y-97881754D01*
X140219626Y-97860710D01*
X140234240Y-97841005D01*
X140250716Y-97822826D01*
X140268895Y-97806350D01*
X140288600Y-97791736D01*
X140309644Y-97779123D01*
X140331822Y-97768633D01*
X140354922Y-97760368D01*
X140378720Y-97754407D01*
X140402989Y-97750807D01*
X140427493Y-97749603D01*
X141177493Y-97749603D01*
X141201997Y-97750807D01*
X141201997Y-97750807D01*
G37*
D17*
G04 #@! TD*
G04 #@! TO.P,R3,1*
G04 #@! TO.N,+3V3*
X140802493Y-98624603D03*
D16*
G04 #@! TO.N,+3V3*
G04 #@! TO.C,R5*
G36*
X161299504Y-103626204D02*
X161323773Y-103629804D01*
X161347571Y-103635765D01*
X161370671Y-103644030D01*
X161392849Y-103654520D01*
X161413893Y-103667133D01*
X161433598Y-103681747D01*
X161451777Y-103698223D01*
X161468253Y-103716402D01*
X161482867Y-103736107D01*
X161495480Y-103757151D01*
X161505970Y-103779329D01*
X161514235Y-103802429D01*
X161520196Y-103826227D01*
X161523796Y-103850496D01*
X161525000Y-103875000D01*
X161525000Y-105125000D01*
X161523796Y-105149504D01*
X161520196Y-105173773D01*
X161514235Y-105197571D01*
X161505970Y-105220671D01*
X161495480Y-105242849D01*
X161482867Y-105263893D01*
X161468253Y-105283598D01*
X161451777Y-105301777D01*
X161433598Y-105318253D01*
X161413893Y-105332867D01*
X161392849Y-105345480D01*
X161370671Y-105355970D01*
X161347571Y-105364235D01*
X161323773Y-105370196D01*
X161299504Y-105373796D01*
X161275000Y-105375000D01*
X160525000Y-105375000D01*
X160500496Y-105373796D01*
X160476227Y-105370196D01*
X160452429Y-105364235D01*
X160429329Y-105355970D01*
X160407151Y-105345480D01*
X160386107Y-105332867D01*
X160366402Y-105318253D01*
X160348223Y-105301777D01*
X160331747Y-105283598D01*
X160317133Y-105263893D01*
X160304520Y-105242849D01*
X160294030Y-105220671D01*
X160285765Y-105197571D01*
X160279804Y-105173773D01*
X160276204Y-105149504D01*
X160275000Y-105125000D01*
X160275000Y-103875000D01*
X160276204Y-103850496D01*
X160279804Y-103826227D01*
X160285765Y-103802429D01*
X160294030Y-103779329D01*
X160304520Y-103757151D01*
X160317133Y-103736107D01*
X160331747Y-103716402D01*
X160348223Y-103698223D01*
X160366402Y-103681747D01*
X160386107Y-103667133D01*
X160407151Y-103654520D01*
X160429329Y-103644030D01*
X160452429Y-103635765D01*
X160476227Y-103629804D01*
X160500496Y-103626204D01*
X160525000Y-103625000D01*
X161275000Y-103625000D01*
X161299504Y-103626204D01*
X161299504Y-103626204D01*
G37*
D17*
G04 #@! TD*
G04 #@! TO.P,R5,2*
G04 #@! TO.N,+3V3*
X160900000Y-104500000D03*
D16*
G04 #@! TO.N,Net-(D3-Pad2)*
G04 #@! TO.C,R5*
G36*
X158499504Y-103626204D02*
X158523773Y-103629804D01*
X158547571Y-103635765D01*
X158570671Y-103644030D01*
X158592849Y-103654520D01*
X158613893Y-103667133D01*
X158633598Y-103681747D01*
X158651777Y-103698223D01*
X158668253Y-103716402D01*
X158682867Y-103736107D01*
X158695480Y-103757151D01*
X158705970Y-103779329D01*
X158714235Y-103802429D01*
X158720196Y-103826227D01*
X158723796Y-103850496D01*
X158725000Y-103875000D01*
X158725000Y-105125000D01*
X158723796Y-105149504D01*
X158720196Y-105173773D01*
X158714235Y-105197571D01*
X158705970Y-105220671D01*
X158695480Y-105242849D01*
X158682867Y-105263893D01*
X158668253Y-105283598D01*
X158651777Y-105301777D01*
X158633598Y-105318253D01*
X158613893Y-105332867D01*
X158592849Y-105345480D01*
X158570671Y-105355970D01*
X158547571Y-105364235D01*
X158523773Y-105370196D01*
X158499504Y-105373796D01*
X158475000Y-105375000D01*
X157725000Y-105375000D01*
X157700496Y-105373796D01*
X157676227Y-105370196D01*
X157652429Y-105364235D01*
X157629329Y-105355970D01*
X157607151Y-105345480D01*
X157586107Y-105332867D01*
X157566402Y-105318253D01*
X157548223Y-105301777D01*
X157531747Y-105283598D01*
X157517133Y-105263893D01*
X157504520Y-105242849D01*
X157494030Y-105220671D01*
X157485765Y-105197571D01*
X157479804Y-105173773D01*
X157476204Y-105149504D01*
X157475000Y-105125000D01*
X157475000Y-103875000D01*
X157476204Y-103850496D01*
X157479804Y-103826227D01*
X157485765Y-103802429D01*
X157494030Y-103779329D01*
X157504520Y-103757151D01*
X157517133Y-103736107D01*
X157531747Y-103716402D01*
X157548223Y-103698223D01*
X157566402Y-103681747D01*
X157586107Y-103667133D01*
X157607151Y-103654520D01*
X157629329Y-103644030D01*
X157652429Y-103635765D01*
X157676227Y-103629804D01*
X157700496Y-103626204D01*
X157725000Y-103625000D01*
X158475000Y-103625000D01*
X158499504Y-103626204D01*
X158499504Y-103626204D01*
G37*
D17*
G04 #@! TD*
G04 #@! TO.P,R5,1*
G04 #@! TO.N,Net-(D3-Pad2)*
X158100000Y-104500000D03*
D29*
G04 #@! TO.P,U2,9*
G04 #@! TO.N,/USBDM*
X159463800Y-102722500D03*
G04 #@! TO.P,U2,10*
G04 #@! TO.N,/VCCIO*
X159463800Y-102087500D03*
G04 #@! TO.P,U2,11*
G04 #@! TO.N,+3V3*
X159463800Y-101452500D03*
G04 #@! TO.P,U2,12*
G04 #@! TO.N,+5V*
X159463800Y-100817500D03*
G04 #@! TO.P,U2,13*
G04 #@! TO.N,GND*
X159463800Y-100182500D03*
G04 #@! TO.P,U2,14*
G04 #@! TO.N,/RX_LED#*
X159463800Y-99547500D03*
G04 #@! TO.P,U2,15*
G04 #@! TO.N,Net-(U2-Pad15)*
X159463800Y-98912500D03*
G04 #@! TO.P,U2,16*
G04 #@! TO.N,Net-(U2-Pad16)*
X159463800Y-98277500D03*
G04 #@! TO.P,U2,8*
G04 #@! TO.N,/USBDP*
X154536200Y-102722500D03*
G04 #@! TO.P,U2,7*
G04 #@! TO.N,/TX_LED#*
X154536200Y-102087500D03*
G04 #@! TO.P,U2,6*
G04 #@! TO.N,Net-(U2-Pad6)*
X154536200Y-101452500D03*
G04 #@! TO.P,U2,5*
G04 #@! TO.N,GND*
X154536200Y-100817500D03*
G04 #@! TO.P,U2,1*
G04 #@! TO.N,/TXD*
X154536200Y-98277500D03*
G04 #@! TO.P,U2,3*
G04 #@! TO.N,/VCCIO*
X154536200Y-99547500D03*
G04 #@! TO.P,U2,4*
G04 #@! TO.N,/RXD*
X154536200Y-100182500D03*
G04 #@! TO.P,U2,2*
G04 #@! TO.N,Net-(U2-Pad2)*
X154536200Y-98912500D03*
G04 #@! TD*
D30*
G04 #@! TO.N,GND*
X169000000Y-99000000D03*
X170000000Y-99000000D03*
X170000000Y-100000000D03*
X170000000Y-101000000D03*
X169000000Y-101000000D03*
X169000000Y-100000000D03*
X169000000Y-102000000D03*
X170000000Y-102000000D03*
X156362400Y-100812600D03*
G04 #@! TO.N,+3V3*
X154584400Y-103733600D03*
X157454600Y-99695000D03*
G04 #@! TO.N,+5V*
X162200000Y-102000000D03*
G04 #@! TO.N,/RXD*
X145669000Y-102819200D03*
G04 #@! TO.N,/CH_PD*
X139420600Y-101460300D03*
G04 #@! TO.N,/CTL*
X140800000Y-103100000D03*
G04 #@! TD*
D31*
G04 #@! TO.N,+12V*
X152620000Y-114000000D02*
X150120000Y-116500000D01*
X155000000Y-114000000D02*
X152620000Y-114000000D01*
X151000000Y-100500000D02*
X151000000Y-109100000D01*
X151000000Y-109100000D02*
X152620000Y-110720000D01*
X152620000Y-110720000D02*
X152620000Y-114000000D01*
D32*
G04 #@! TO.N,GND*
X154536200Y-100817500D02*
X156357500Y-100817500D01*
X156357500Y-100817500D02*
X156362400Y-100812600D01*
X162854998Y-98900000D02*
X163800000Y-98900000D01*
X159463800Y-100182500D02*
X161572498Y-100182500D01*
X161572498Y-100182500D02*
X162854998Y-98900000D01*
X137812200Y-108780000D02*
X136931400Y-107899200D01*
X156392700Y-100817500D02*
X156413200Y-100838000D01*
X140800000Y-107930000D02*
X140743800Y-107873800D01*
X140144269Y-107873800D02*
X137033000Y-107873800D01*
X140743800Y-107873800D02*
X140144269Y-107873800D01*
X140800000Y-108780000D02*
X140800000Y-107930000D01*
G04 #@! TO.N,Net-(D2-Pad1)*
X156500000Y-96500000D02*
X156000000Y-96000000D01*
X158100000Y-96500000D02*
X156500000Y-96500000D01*
G04 #@! TO.N,Net-(D3-Pad2)*
X157500000Y-105000000D02*
X158000000Y-104500000D01*
X155900000Y-105000000D02*
X157500000Y-105000000D01*
G04 #@! TO.N,+5V*
X162300000Y-102100000D02*
X162200000Y-102000000D01*
X163800000Y-102100000D02*
X162300000Y-102100000D01*
X161017500Y-100817500D02*
X162200000Y-102000000D01*
X159463800Y-100817500D02*
X161017500Y-100817500D01*
G04 #@! TO.N,/TXD*
X133905407Y-94974593D02*
X133349999Y-95530001D01*
X154536200Y-98277500D02*
X153016200Y-98277500D01*
X153016200Y-98277500D02*
X149713293Y-94974593D01*
X133349999Y-95530001D02*
X132500000Y-96380000D01*
X149713293Y-94974593D02*
X133905407Y-94974593D01*
G04 #@! TO.N,/RXD*
X149513201Y-98974999D02*
X146068999Y-102419201D01*
X146068999Y-102419201D02*
X145669000Y-102819200D01*
X152440001Y-98974999D02*
X149513201Y-98974999D01*
X152525001Y-99059999D02*
X152440001Y-98974999D01*
X152525001Y-99691301D02*
X152525001Y-99059999D01*
X153016200Y-100182500D02*
X152525001Y-99691301D01*
X154536200Y-100182500D02*
X153016200Y-100182500D01*
X145916599Y-102546201D02*
X145516600Y-102946200D01*
G04 #@! TO.N,/RST*
X137707096Y-98920000D02*
X138002493Y-98624603D01*
X135040000Y-98920000D02*
X137707096Y-98920000D01*
G04 #@! TO.N,/CH_PD*
X139420600Y-97542710D02*
X138002493Y-96124603D01*
X139420600Y-101460300D02*
X139420600Y-97542710D01*
G04 #@! TO.N,/GPIO0*
X133780000Y-100200000D02*
X137077890Y-100200000D01*
X137306783Y-100428893D02*
X138002493Y-101124603D01*
X137077890Y-100200000D02*
X137306783Y-100428893D01*
X132500000Y-98920000D02*
X133780000Y-100200000D01*
G04 #@! TO.N,/CTL*
X140800000Y-103100000D02*
X140800000Y-104220000D01*
X140800000Y-103100000D02*
X140800000Y-103000000D01*
D31*
G04 #@! TO.N,/LGND*
X143380000Y-98580000D02*
X145460000Y-96500000D01*
X143380000Y-100500000D02*
X143380000Y-98580000D01*
X143380000Y-102780000D02*
X147100000Y-106500000D01*
X143380000Y-100500000D02*
X143380000Y-102780000D01*
D32*
G04 #@! TO.N,/RX_LED#*
X161595710Y-98774192D02*
X161595710Y-97195710D01*
X161595710Y-97195710D02*
X160900000Y-96500000D01*
X160822402Y-99547500D02*
X161595710Y-98774192D01*
X159463800Y-99547500D02*
X160822402Y-99547500D01*
G04 #@! TO.N,/TX_LED#*
X152504290Y-104304290D02*
X153200000Y-105000000D01*
X152500000Y-104300000D02*
X152504290Y-104304290D01*
X152500000Y-102603700D02*
X152500000Y-104300000D01*
X153016200Y-102087500D02*
X152500000Y-102603700D01*
X154536200Y-102087500D02*
X153016200Y-102087500D01*
G04 #@! TO.N,/USBDP*
X165050000Y-100500000D02*
X163800000Y-100500000D01*
X165200000Y-100500000D02*
X165050000Y-100500000D01*
X165475011Y-100775011D02*
X165200000Y-100500000D01*
X165475011Y-102735690D02*
X165475011Y-100775011D01*
X164984600Y-103226101D02*
X165475011Y-102735690D01*
X156559801Y-103226101D02*
X164984600Y-103226101D01*
X156056200Y-102722500D02*
X156559801Y-103226101D01*
X154536200Y-102722500D02*
X156056200Y-102722500D01*
G04 #@! TO.N,/USBDM*
X165050000Y-101300000D02*
X163800000Y-101300000D01*
X165075001Y-101325001D02*
X165050000Y-101300000D01*
X165075001Y-102570001D02*
X165075001Y-101325001D01*
X164922502Y-102722500D02*
X165075001Y-102570001D01*
X159463800Y-102722500D02*
X164922502Y-102722500D01*
G04 #@! TO.N,/VCCIO*
X157075001Y-100566301D02*
X156056200Y-99547500D01*
X157075001Y-101275001D02*
X157075001Y-100566301D01*
X156056200Y-99547500D02*
X154536200Y-99547500D01*
X157887500Y-102087500D02*
X157075001Y-101275001D01*
X159463800Y-102087500D02*
X157887500Y-102087500D01*
G04 #@! TD*
D33*
G04 #@! TO.N,GND*
G36*
X171500001Y-118500000D02*
X163649886Y-118500000D01*
X163649883Y-117325059D01*
X164836905Y-117325059D01*
X164872106Y-117462503D01*
X165153984Y-117954594D01*
X165602721Y-118301357D01*
X166150000Y-118450000D01*
X166900000Y-118450000D01*
X166900000Y-117100000D01*
X167100000Y-117100000D01*
X167100000Y-118450000D01*
X167850000Y-118450000D01*
X168397279Y-118301357D01*
X168846016Y-117954594D01*
X169127894Y-117462503D01*
X169163095Y-117325059D01*
X169083756Y-117100000D01*
X167100000Y-117100000D01*
X166900000Y-117100000D01*
X164916244Y-117100000D01*
X164836905Y-117325059D01*
X163649883Y-117325059D01*
X163649881Y-116674941D01*
X164836905Y-116674941D01*
X164916244Y-116900000D01*
X166900000Y-116900000D01*
X166900000Y-115550000D01*
X167100000Y-115550000D01*
X167100000Y-116900000D01*
X169083756Y-116900000D01*
X169163095Y-116674941D01*
X169127894Y-116537497D01*
X168846016Y-116045406D01*
X168397279Y-115698643D01*
X167850000Y-115550000D01*
X167100000Y-115550000D01*
X166900000Y-115550000D01*
X166150000Y-115550000D01*
X165602721Y-115698643D01*
X165153984Y-116045406D01*
X164872106Y-116537497D01*
X164836905Y-116674941D01*
X163649881Y-116674941D01*
X163649867Y-112600000D01*
X164550000Y-112600000D01*
X164550000Y-113250000D01*
X164698643Y-113797279D01*
X165045406Y-114246016D01*
X165537497Y-114527894D01*
X165674941Y-114563095D01*
X165900000Y-114483756D01*
X165900000Y-112600000D01*
X166100000Y-112600000D01*
X166100000Y-114483756D01*
X166325059Y-114563095D01*
X166462503Y-114527894D01*
X166954594Y-114246016D01*
X167301357Y-113797279D01*
X167450000Y-113250000D01*
X167450000Y-112600000D01*
X166100000Y-112600000D01*
X165900000Y-112600000D01*
X164550000Y-112600000D01*
X163649867Y-112600000D01*
X163649864Y-111750000D01*
X164550000Y-111750000D01*
X164550000Y-112400000D01*
X165900000Y-112400000D01*
X165900000Y-110516244D01*
X166100000Y-110516244D01*
X166100000Y-112400000D01*
X167450000Y-112400000D01*
X167450000Y-112251360D01*
X167750000Y-112251360D01*
X167750000Y-112748640D01*
X167940301Y-113208068D01*
X168291932Y-113559699D01*
X168751360Y-113750000D01*
X169248640Y-113750000D01*
X169708068Y-113559699D01*
X170059699Y-113208068D01*
X170250000Y-112748640D01*
X170250000Y-112251360D01*
X170059699Y-111791932D01*
X169708068Y-111440301D01*
X169248640Y-111250000D01*
X168751360Y-111250000D01*
X168291932Y-111440301D01*
X167940301Y-111791932D01*
X167750000Y-112251360D01*
X167450000Y-112251360D01*
X167450000Y-111750000D01*
X167301357Y-111202721D01*
X166954594Y-110753984D01*
X166462503Y-110472106D01*
X166325059Y-110436905D01*
X166100000Y-110516244D01*
X165900000Y-110516244D01*
X165674941Y-110436905D01*
X165537497Y-110472106D01*
X165045406Y-110753984D01*
X164698643Y-111202721D01*
X164550000Y-111750000D01*
X163649864Y-111750000D01*
X163649852Y-108325059D01*
X164836905Y-108325059D01*
X164872106Y-108462503D01*
X165153984Y-108954594D01*
X165602721Y-109301357D01*
X166150000Y-109450000D01*
X166900000Y-109450000D01*
X166900000Y-108100000D01*
X167100000Y-108100000D01*
X167100000Y-109450000D01*
X167850000Y-109450000D01*
X168397279Y-109301357D01*
X168846016Y-108954594D01*
X169127894Y-108462503D01*
X169163095Y-108325059D01*
X169083756Y-108100000D01*
X167100000Y-108100000D01*
X166900000Y-108100000D01*
X164916244Y-108100000D01*
X164836905Y-108325059D01*
X163649852Y-108325059D01*
X163649850Y-107674941D01*
X164836905Y-107674941D01*
X164916244Y-107900000D01*
X166900000Y-107900000D01*
X166900000Y-106550000D01*
X167100000Y-106550000D01*
X167100000Y-107900000D01*
X169083756Y-107900000D01*
X169163095Y-107674941D01*
X169127894Y-107537497D01*
X168846016Y-107045406D01*
X168397279Y-106698643D01*
X167850000Y-106550000D01*
X167100000Y-106550000D01*
X166900000Y-106550000D01*
X166150000Y-106550000D01*
X165602721Y-106698643D01*
X165153984Y-107045406D01*
X164872106Y-107537497D01*
X164836905Y-107674941D01*
X163649850Y-107674941D01*
X163649845Y-106400000D01*
X163687500Y-106400000D01*
X163800000Y-106287500D01*
X163800000Y-105050000D01*
X164000000Y-105050000D01*
X164000000Y-106287500D01*
X164112500Y-106400000D01*
X164839510Y-106400000D01*
X165004904Y-106331492D01*
X165131491Y-106204905D01*
X165200000Y-106039511D01*
X165200000Y-105162500D01*
X168050000Y-105162500D01*
X168050000Y-106039511D01*
X168118509Y-106204905D01*
X168245096Y-106331492D01*
X168410490Y-106400000D01*
X169137500Y-106400000D01*
X169250000Y-106287500D01*
X169250000Y-105050000D01*
X169450000Y-105050000D01*
X169450000Y-106287500D01*
X169562500Y-106400000D01*
X170289510Y-106400000D01*
X170454904Y-106331492D01*
X170581491Y-106204905D01*
X170650000Y-106039511D01*
X170650000Y-105162500D01*
X170537500Y-105050000D01*
X169450000Y-105050000D01*
X169250000Y-105050000D01*
X168162500Y-105050000D01*
X168050000Y-105162500D01*
X165200000Y-105162500D01*
X165087500Y-105050000D01*
X164000000Y-105050000D01*
X163800000Y-105050000D01*
X163780000Y-105050000D01*
X163780000Y-104850000D01*
X163800000Y-104850000D01*
X163800000Y-104830000D01*
X164000000Y-104830000D01*
X164000000Y-104850000D01*
X165087500Y-104850000D01*
X165200000Y-104737500D01*
X165200000Y-103860489D01*
X168050000Y-103860489D01*
X168050000Y-104737500D01*
X168162500Y-104850000D01*
X169250000Y-104850000D01*
X169250000Y-103612500D01*
X169450000Y-103612500D01*
X169450000Y-104850000D01*
X170537500Y-104850000D01*
X170650000Y-104737500D01*
X170650000Y-103860489D01*
X170581491Y-103695095D01*
X170454904Y-103568508D01*
X170289510Y-103500000D01*
X169562500Y-103500000D01*
X169450000Y-103612500D01*
X169250000Y-103612500D01*
X169137500Y-103500000D01*
X168410490Y-103500000D01*
X168245096Y-103568508D01*
X168118509Y-103695095D01*
X168050000Y-103860489D01*
X165200000Y-103860489D01*
X165165187Y-103776444D01*
X165208954Y-103767738D01*
X165399151Y-103640652D01*
X165431229Y-103592644D01*
X165740185Y-103283688D01*
X165961868Y-103505371D01*
X166311033Y-103650000D01*
X166688967Y-103650000D01*
X167038132Y-103505371D01*
X167305371Y-103238132D01*
X167450000Y-102888967D01*
X167450000Y-102511033D01*
X167305371Y-102161868D01*
X167038132Y-101894629D01*
X166688967Y-101750000D01*
X166311033Y-101750000D01*
X166050011Y-101858119D01*
X166050011Y-100831634D01*
X166061274Y-100775010D01*
X166050011Y-100718386D01*
X166050011Y-100718383D01*
X166016648Y-100550657D01*
X165889562Y-100360460D01*
X165841554Y-100328382D01*
X165646629Y-100133457D01*
X165614551Y-100085449D01*
X165424354Y-99958363D01*
X165258816Y-99925435D01*
X165258816Y-99450000D01*
X165227670Y-99293419D01*
X165250000Y-99239511D01*
X165250000Y-99112500D01*
X165137500Y-99000000D01*
X164844321Y-99000000D01*
X164800000Y-98991184D01*
X163680000Y-98991184D01*
X163680000Y-98800000D01*
X163700000Y-98800000D01*
X163700000Y-98312500D01*
X163900000Y-98312500D01*
X163900000Y-98800000D01*
X165137500Y-98800000D01*
X165250000Y-98687500D01*
X165250000Y-98560489D01*
X165181491Y-98395095D01*
X165054904Y-98268508D01*
X164889510Y-98200000D01*
X164012500Y-98200000D01*
X163900000Y-98312500D01*
X163700000Y-98312500D01*
X163649818Y-98262318D01*
X163649818Y-98111033D01*
X165550000Y-98111033D01*
X165550000Y-98488967D01*
X165694629Y-98838132D01*
X165961868Y-99105371D01*
X166311033Y-99250000D01*
X166688967Y-99250000D01*
X167038132Y-99105371D01*
X167305371Y-98838132D01*
X167450000Y-98488967D01*
X167450000Y-98111033D01*
X167305371Y-97761868D01*
X167038132Y-97494629D01*
X166688967Y-97350000D01*
X166311033Y-97350000D01*
X165961868Y-97494629D01*
X165694629Y-97761868D01*
X165550000Y-98111033D01*
X163649818Y-98111033D01*
X163649815Y-97500000D01*
X163687500Y-97500000D01*
X163800000Y-97387500D01*
X163800000Y-96150000D01*
X164000000Y-96150000D01*
X164000000Y-97387500D01*
X164112500Y-97500000D01*
X164839510Y-97500000D01*
X165004904Y-97431492D01*
X165131491Y-97304905D01*
X165200000Y-97139511D01*
X165200000Y-96262500D01*
X168050000Y-96262500D01*
X168050000Y-97139511D01*
X168118509Y-97304905D01*
X168245096Y-97431492D01*
X168410490Y-97500000D01*
X169137500Y-97500000D01*
X169250000Y-97387500D01*
X169250000Y-96150000D01*
X169450000Y-96150000D01*
X169450000Y-97387500D01*
X169562500Y-97500000D01*
X170289510Y-97500000D01*
X170454904Y-97431492D01*
X170581491Y-97304905D01*
X170650000Y-97139511D01*
X170650000Y-96262500D01*
X170537500Y-96150000D01*
X169450000Y-96150000D01*
X169250000Y-96150000D01*
X168162500Y-96150000D01*
X168050000Y-96262500D01*
X165200000Y-96262500D01*
X165087500Y-96150000D01*
X164000000Y-96150000D01*
X163800000Y-96150000D01*
X163780000Y-96150000D01*
X163780000Y-95950000D01*
X163800000Y-95950000D01*
X163800000Y-94712500D01*
X164000000Y-94712500D01*
X164000000Y-95950000D01*
X165087500Y-95950000D01*
X165200000Y-95837500D01*
X165200000Y-94960489D01*
X168050000Y-94960489D01*
X168050000Y-95837500D01*
X168162500Y-95950000D01*
X169250000Y-95950000D01*
X169250000Y-94712500D01*
X169450000Y-94712500D01*
X169450000Y-95950000D01*
X170537500Y-95950000D01*
X170650000Y-95837500D01*
X170650000Y-94960489D01*
X170581491Y-94795095D01*
X170454904Y-94668508D01*
X170289510Y-94600000D01*
X169562500Y-94600000D01*
X169450000Y-94712500D01*
X169250000Y-94712500D01*
X169137500Y-94600000D01*
X168410490Y-94600000D01*
X168245096Y-94668508D01*
X168118509Y-94795095D01*
X168050000Y-94960489D01*
X165200000Y-94960489D01*
X165131491Y-94795095D01*
X165004904Y-94668508D01*
X164839510Y-94600000D01*
X164112500Y-94600000D01*
X164000000Y-94712500D01*
X163800000Y-94712500D01*
X163687500Y-94600000D01*
X163649805Y-94600000D01*
X163649805Y-94500000D01*
X171500000Y-94500000D01*
X171500001Y-118500000D01*
X171500001Y-118500000D01*
G37*
X171500001Y-118500000D02*
X163649886Y-118500000D01*
X163649883Y-117325059D01*
X164836905Y-117325059D01*
X164872106Y-117462503D01*
X165153984Y-117954594D01*
X165602721Y-118301357D01*
X166150000Y-118450000D01*
X166900000Y-118450000D01*
X166900000Y-117100000D01*
X167100000Y-117100000D01*
X167100000Y-118450000D01*
X167850000Y-118450000D01*
X168397279Y-118301357D01*
X168846016Y-117954594D01*
X169127894Y-117462503D01*
X169163095Y-117325059D01*
X169083756Y-117100000D01*
X167100000Y-117100000D01*
X166900000Y-117100000D01*
X164916244Y-117100000D01*
X164836905Y-117325059D01*
X163649883Y-117325059D01*
X163649881Y-116674941D01*
X164836905Y-116674941D01*
X164916244Y-116900000D01*
X166900000Y-116900000D01*
X166900000Y-115550000D01*
X167100000Y-115550000D01*
X167100000Y-116900000D01*
X169083756Y-116900000D01*
X169163095Y-116674941D01*
X169127894Y-116537497D01*
X168846016Y-116045406D01*
X168397279Y-115698643D01*
X167850000Y-115550000D01*
X167100000Y-115550000D01*
X166900000Y-115550000D01*
X166150000Y-115550000D01*
X165602721Y-115698643D01*
X165153984Y-116045406D01*
X164872106Y-116537497D01*
X164836905Y-116674941D01*
X163649881Y-116674941D01*
X163649867Y-112600000D01*
X164550000Y-112600000D01*
X164550000Y-113250000D01*
X164698643Y-113797279D01*
X165045406Y-114246016D01*
X165537497Y-114527894D01*
X165674941Y-114563095D01*
X165900000Y-114483756D01*
X165900000Y-112600000D01*
X166100000Y-112600000D01*
X166100000Y-114483756D01*
X166325059Y-114563095D01*
X166462503Y-114527894D01*
X166954594Y-114246016D01*
X167301357Y-113797279D01*
X167450000Y-113250000D01*
X167450000Y-112600000D01*
X166100000Y-112600000D01*
X165900000Y-112600000D01*
X164550000Y-112600000D01*
X163649867Y-112600000D01*
X163649864Y-111750000D01*
X164550000Y-111750000D01*
X164550000Y-112400000D01*
X165900000Y-112400000D01*
X165900000Y-110516244D01*
X166100000Y-110516244D01*
X166100000Y-112400000D01*
X167450000Y-112400000D01*
X167450000Y-112251360D01*
X167750000Y-112251360D01*
X167750000Y-112748640D01*
X167940301Y-113208068D01*
X168291932Y-113559699D01*
X168751360Y-113750000D01*
X169248640Y-113750000D01*
X169708068Y-113559699D01*
X170059699Y-113208068D01*
X170250000Y-112748640D01*
X170250000Y-112251360D01*
X170059699Y-111791932D01*
X169708068Y-111440301D01*
X169248640Y-111250000D01*
X168751360Y-111250000D01*
X168291932Y-111440301D01*
X167940301Y-111791932D01*
X167750000Y-112251360D01*
X167450000Y-112251360D01*
X167450000Y-111750000D01*
X167301357Y-111202721D01*
X166954594Y-110753984D01*
X166462503Y-110472106D01*
X166325059Y-110436905D01*
X166100000Y-110516244D01*
X165900000Y-110516244D01*
X165674941Y-110436905D01*
X165537497Y-110472106D01*
X165045406Y-110753984D01*
X164698643Y-111202721D01*
X164550000Y-111750000D01*
X163649864Y-111750000D01*
X163649852Y-108325059D01*
X164836905Y-108325059D01*
X164872106Y-108462503D01*
X165153984Y-108954594D01*
X165602721Y-109301357D01*
X166150000Y-109450000D01*
X166900000Y-109450000D01*
X166900000Y-108100000D01*
X167100000Y-108100000D01*
X167100000Y-109450000D01*
X167850000Y-109450000D01*
X168397279Y-109301357D01*
X168846016Y-108954594D01*
X169127894Y-108462503D01*
X169163095Y-108325059D01*
X169083756Y-108100000D01*
X167100000Y-108100000D01*
X166900000Y-108100000D01*
X164916244Y-108100000D01*
X164836905Y-108325059D01*
X163649852Y-108325059D01*
X163649850Y-107674941D01*
X164836905Y-107674941D01*
X164916244Y-107900000D01*
X166900000Y-107900000D01*
X166900000Y-106550000D01*
X167100000Y-106550000D01*
X167100000Y-107900000D01*
X169083756Y-107900000D01*
X169163095Y-107674941D01*
X169127894Y-107537497D01*
X168846016Y-107045406D01*
X168397279Y-106698643D01*
X167850000Y-106550000D01*
X167100000Y-106550000D01*
X166900000Y-106550000D01*
X166150000Y-106550000D01*
X165602721Y-106698643D01*
X165153984Y-107045406D01*
X164872106Y-107537497D01*
X164836905Y-107674941D01*
X163649850Y-107674941D01*
X163649845Y-106400000D01*
X163687500Y-106400000D01*
X163800000Y-106287500D01*
X163800000Y-105050000D01*
X164000000Y-105050000D01*
X164000000Y-106287500D01*
X164112500Y-106400000D01*
X164839510Y-106400000D01*
X165004904Y-106331492D01*
X165131491Y-106204905D01*
X165200000Y-106039511D01*
X165200000Y-105162500D01*
X168050000Y-105162500D01*
X168050000Y-106039511D01*
X168118509Y-106204905D01*
X168245096Y-106331492D01*
X168410490Y-106400000D01*
X169137500Y-106400000D01*
X169250000Y-106287500D01*
X169250000Y-105050000D01*
X169450000Y-105050000D01*
X169450000Y-106287500D01*
X169562500Y-106400000D01*
X170289510Y-106400000D01*
X170454904Y-106331492D01*
X170581491Y-106204905D01*
X170650000Y-106039511D01*
X170650000Y-105162500D01*
X170537500Y-105050000D01*
X169450000Y-105050000D01*
X169250000Y-105050000D01*
X168162500Y-105050000D01*
X168050000Y-105162500D01*
X165200000Y-105162500D01*
X165087500Y-105050000D01*
X164000000Y-105050000D01*
X163800000Y-105050000D01*
X163780000Y-105050000D01*
X163780000Y-104850000D01*
X163800000Y-104850000D01*
X163800000Y-104830000D01*
X164000000Y-104830000D01*
X164000000Y-104850000D01*
X165087500Y-104850000D01*
X165200000Y-104737500D01*
X165200000Y-103860489D01*
X168050000Y-103860489D01*
X168050000Y-104737500D01*
X168162500Y-104850000D01*
X169250000Y-104850000D01*
X169250000Y-103612500D01*
X169450000Y-103612500D01*
X169450000Y-104850000D01*
X170537500Y-104850000D01*
X170650000Y-104737500D01*
X170650000Y-103860489D01*
X170581491Y-103695095D01*
X170454904Y-103568508D01*
X170289510Y-103500000D01*
X169562500Y-103500000D01*
X169450000Y-103612500D01*
X169250000Y-103612500D01*
X169137500Y-103500000D01*
X168410490Y-103500000D01*
X168245096Y-103568508D01*
X168118509Y-103695095D01*
X168050000Y-103860489D01*
X165200000Y-103860489D01*
X165165187Y-103776444D01*
X165208954Y-103767738D01*
X165399151Y-103640652D01*
X165431229Y-103592644D01*
X165740185Y-103283688D01*
X165961868Y-103505371D01*
X166311033Y-103650000D01*
X166688967Y-103650000D01*
X167038132Y-103505371D01*
X167305371Y-103238132D01*
X167450000Y-102888967D01*
X167450000Y-102511033D01*
X167305371Y-102161868D01*
X167038132Y-101894629D01*
X166688967Y-101750000D01*
X166311033Y-101750000D01*
X166050011Y-101858119D01*
X166050011Y-100831634D01*
X166061274Y-100775010D01*
X166050011Y-100718386D01*
X166050011Y-100718383D01*
X166016648Y-100550657D01*
X165889562Y-100360460D01*
X165841554Y-100328382D01*
X165646629Y-100133457D01*
X165614551Y-100085449D01*
X165424354Y-99958363D01*
X165258816Y-99925435D01*
X165258816Y-99450000D01*
X165227670Y-99293419D01*
X165250000Y-99239511D01*
X165250000Y-99112500D01*
X165137500Y-99000000D01*
X164844321Y-99000000D01*
X164800000Y-98991184D01*
X163680000Y-98991184D01*
X163680000Y-98800000D01*
X163700000Y-98800000D01*
X163700000Y-98312500D01*
X163900000Y-98312500D01*
X163900000Y-98800000D01*
X165137500Y-98800000D01*
X165250000Y-98687500D01*
X165250000Y-98560489D01*
X165181491Y-98395095D01*
X165054904Y-98268508D01*
X164889510Y-98200000D01*
X164012500Y-98200000D01*
X163900000Y-98312500D01*
X163700000Y-98312500D01*
X163649818Y-98262318D01*
X163649818Y-98111033D01*
X165550000Y-98111033D01*
X165550000Y-98488967D01*
X165694629Y-98838132D01*
X165961868Y-99105371D01*
X166311033Y-99250000D01*
X166688967Y-99250000D01*
X167038132Y-99105371D01*
X167305371Y-98838132D01*
X167450000Y-98488967D01*
X167450000Y-98111033D01*
X167305371Y-97761868D01*
X167038132Y-97494629D01*
X166688967Y-97350000D01*
X166311033Y-97350000D01*
X165961868Y-97494629D01*
X165694629Y-97761868D01*
X165550000Y-98111033D01*
X163649818Y-98111033D01*
X163649815Y-97500000D01*
X163687500Y-97500000D01*
X163800000Y-97387500D01*
X163800000Y-96150000D01*
X164000000Y-96150000D01*
X164000000Y-97387500D01*
X164112500Y-97500000D01*
X164839510Y-97500000D01*
X165004904Y-97431492D01*
X165131491Y-97304905D01*
X165200000Y-97139511D01*
X165200000Y-96262500D01*
X168050000Y-96262500D01*
X168050000Y-97139511D01*
X168118509Y-97304905D01*
X168245096Y-97431492D01*
X168410490Y-97500000D01*
X169137500Y-97500000D01*
X169250000Y-97387500D01*
X169250000Y-96150000D01*
X169450000Y-96150000D01*
X169450000Y-97387500D01*
X169562500Y-97500000D01*
X170289510Y-97500000D01*
X170454904Y-97431492D01*
X170581491Y-97304905D01*
X170650000Y-97139511D01*
X170650000Y-96262500D01*
X170537500Y-96150000D01*
X169450000Y-96150000D01*
X169250000Y-96150000D01*
X168162500Y-96150000D01*
X168050000Y-96262500D01*
X165200000Y-96262500D01*
X165087500Y-96150000D01*
X164000000Y-96150000D01*
X163800000Y-96150000D01*
X163780000Y-96150000D01*
X163780000Y-95950000D01*
X163800000Y-95950000D01*
X163800000Y-94712500D01*
X164000000Y-94712500D01*
X164000000Y-95950000D01*
X165087500Y-95950000D01*
X165200000Y-95837500D01*
X165200000Y-94960489D01*
X168050000Y-94960489D01*
X168050000Y-95837500D01*
X168162500Y-95950000D01*
X169250000Y-95950000D01*
X169250000Y-94712500D01*
X169450000Y-94712500D01*
X169450000Y-95950000D01*
X170537500Y-95950000D01*
X170650000Y-95837500D01*
X170650000Y-94960489D01*
X170581491Y-94795095D01*
X170454904Y-94668508D01*
X170289510Y-94600000D01*
X169562500Y-94600000D01*
X169450000Y-94712500D01*
X169250000Y-94712500D01*
X169137500Y-94600000D01*
X168410490Y-94600000D01*
X168245096Y-94668508D01*
X168118509Y-94795095D01*
X168050000Y-94960489D01*
X165200000Y-94960489D01*
X165131491Y-94795095D01*
X165004904Y-94668508D01*
X164839510Y-94600000D01*
X164112500Y-94600000D01*
X164000000Y-94712500D01*
X163800000Y-94712500D01*
X163687500Y-94600000D01*
X163649805Y-94600000D01*
X163649805Y-94500000D01*
X171500000Y-94500000D01*
X171500001Y-118500000D01*
D34*
G04 #@! TO.N,+3V3*
G36*
X159417298Y-97819492D02*
X158193800Y-97819492D01*
X158106009Y-97836955D01*
X158031584Y-97886684D01*
X157981855Y-97961109D01*
X157964392Y-98048900D01*
X157964392Y-98506100D01*
X157981855Y-98593891D01*
X157982596Y-98595000D01*
X157981855Y-98596109D01*
X157964392Y-98683900D01*
X157964392Y-99141100D01*
X157981855Y-99228891D01*
X157982596Y-99230000D01*
X157981855Y-99231109D01*
X157964392Y-99318900D01*
X157964392Y-99776100D01*
X157981855Y-99863891D01*
X157982596Y-99865000D01*
X157981855Y-99866109D01*
X157964392Y-99953900D01*
X157964392Y-100411100D01*
X157981855Y-100498891D01*
X157982596Y-100500000D01*
X157981855Y-100501109D01*
X157964392Y-100588900D01*
X157964392Y-101046100D01*
X157981855Y-101133891D01*
X157985367Y-101139147D01*
X157968800Y-101179144D01*
X157968800Y-101281950D01*
X158025050Y-101338200D01*
X159288800Y-101338200D01*
X159288800Y-101275508D01*
X159421983Y-101275508D01*
X159422463Y-101629492D01*
X159288800Y-101629492D01*
X159288800Y-101566800D01*
X158025050Y-101566800D01*
X157968800Y-101623050D01*
X157968800Y-101673826D01*
X157425001Y-101130028D01*
X157425001Y-100600763D01*
X157431856Y-100566300D01*
X157425001Y-100531838D01*
X157425001Y-100531833D01*
X157404693Y-100429738D01*
X157327336Y-100313966D01*
X157298115Y-100294441D01*
X156328062Y-99324389D01*
X156308535Y-99295165D01*
X156192763Y-99217808D01*
X156090668Y-99197500D01*
X156090664Y-99197500D01*
X156056200Y-99190645D01*
X156024498Y-99196951D01*
X156035608Y-99141100D01*
X156035608Y-98683900D01*
X156018145Y-98596109D01*
X156017404Y-98595000D01*
X156018145Y-98593891D01*
X156035608Y-98506100D01*
X156035608Y-98048900D01*
X156018145Y-97961109D01*
X155968416Y-97886684D01*
X155893991Y-97836955D01*
X155806200Y-97819492D01*
X153266200Y-97819492D01*
X153178409Y-97836955D01*
X153113800Y-97880125D01*
X151464924Y-96231250D01*
X152350000Y-96231250D01*
X152350000Y-96919756D01*
X152384254Y-97002452D01*
X152447548Y-97065746D01*
X152530245Y-97100000D01*
X152968750Y-97100000D01*
X153025000Y-97043750D01*
X153025000Y-96175000D01*
X153375000Y-96175000D01*
X153375000Y-97043750D01*
X153431250Y-97100000D01*
X153869755Y-97100000D01*
X153952452Y-97065746D01*
X154015746Y-97002452D01*
X154050000Y-96919756D01*
X154050000Y-96231250D01*
X153993750Y-96175000D01*
X153375000Y-96175000D01*
X153025000Y-96175000D01*
X152406250Y-96175000D01*
X152350000Y-96231250D01*
X151464924Y-96231250D01*
X150313918Y-95080244D01*
X152350000Y-95080244D01*
X152350000Y-95768750D01*
X152406250Y-95825000D01*
X153025000Y-95825000D01*
X153025000Y-94956250D01*
X153375000Y-94956250D01*
X153375000Y-95825000D01*
X153993750Y-95825000D01*
X154050000Y-95768750D01*
X154050000Y-95375000D01*
X155145592Y-95375000D01*
X155145592Y-96625000D01*
X155182085Y-96808461D01*
X155286007Y-96963993D01*
X155441539Y-97067915D01*
X155625000Y-97104408D01*
X156375000Y-97104408D01*
X156558461Y-97067915D01*
X156713993Y-96963993D01*
X156790160Y-96850000D01*
X157245592Y-96850000D01*
X157245592Y-97125000D01*
X157282085Y-97308461D01*
X157386007Y-97463993D01*
X157541539Y-97567915D01*
X157725000Y-97604408D01*
X158475000Y-97604408D01*
X158658461Y-97567915D01*
X158813993Y-97463993D01*
X158917915Y-97308461D01*
X158954408Y-97125000D01*
X158954408Y-95875000D01*
X158917915Y-95691539D01*
X158813993Y-95536007D01*
X158658461Y-95432085D01*
X158475000Y-95395592D01*
X157725000Y-95395592D01*
X157541539Y-95432085D01*
X157386007Y-95536007D01*
X157282085Y-95691539D01*
X157245592Y-95875000D01*
X157245592Y-96150000D01*
X156854408Y-96150000D01*
X156854408Y-95375000D01*
X156817915Y-95191539D01*
X156713993Y-95036007D01*
X156558461Y-94932085D01*
X156375000Y-94895592D01*
X155625000Y-94895592D01*
X155441539Y-94932085D01*
X155286007Y-95036007D01*
X155182085Y-95191539D01*
X155145592Y-95375000D01*
X154050000Y-95375000D01*
X154050000Y-95080244D01*
X154015746Y-94997548D01*
X153952452Y-94934254D01*
X153869755Y-94900000D01*
X153431250Y-94900000D01*
X153375000Y-94956250D01*
X153025000Y-94956250D01*
X152968750Y-94900000D01*
X152530245Y-94900000D01*
X152447548Y-94934254D01*
X152384254Y-94997548D01*
X152350000Y-95080244D01*
X150313918Y-95080244D01*
X149985155Y-94751482D01*
X149965628Y-94722258D01*
X149849856Y-94644901D01*
X149747761Y-94624593D01*
X149747757Y-94624593D01*
X149713293Y-94617738D01*
X149678829Y-94624593D01*
X133939871Y-94624593D01*
X133905407Y-94617738D01*
X133870943Y-94624593D01*
X133870939Y-94624593D01*
X133768844Y-94644901D01*
X133682292Y-94702733D01*
X133682291Y-94702734D01*
X133653072Y-94722258D01*
X133633549Y-94751476D01*
X133126887Y-95258140D01*
X133126884Y-95258142D01*
X132978316Y-95406710D01*
X132919444Y-95367373D01*
X132605875Y-95305000D01*
X132394125Y-95305000D01*
X132080556Y-95367373D01*
X131724969Y-95604969D01*
X131487373Y-95960556D01*
X131403940Y-96380000D01*
X131487373Y-96799444D01*
X131724969Y-97155031D01*
X132080556Y-97392627D01*
X132394125Y-97455000D01*
X132605875Y-97455000D01*
X132919444Y-97392627D01*
X133275031Y-97155031D01*
X133512627Y-96799444D01*
X133528674Y-96718769D01*
X134019775Y-96718769D01*
X134079031Y-96861873D01*
X134336585Y-97192940D01*
X134701228Y-97400244D01*
X134865000Y-97384429D01*
X134865000Y-96555000D01*
X135215000Y-96555000D01*
X135215000Y-97384429D01*
X135378772Y-97400244D01*
X135743415Y-97192940D01*
X136000969Y-96861873D01*
X136060225Y-96718769D01*
X136043607Y-96555000D01*
X135215000Y-96555000D01*
X134865000Y-96555000D01*
X134036393Y-96555000D01*
X134019775Y-96718769D01*
X133528674Y-96718769D01*
X133596060Y-96380000D01*
X133512627Y-95960556D01*
X133473290Y-95901684D01*
X133621858Y-95753116D01*
X133621860Y-95753113D01*
X134050382Y-95324593D01*
X134864998Y-95324593D01*
X134864998Y-95375571D01*
X134701228Y-95359756D01*
X134336585Y-95567060D01*
X134079031Y-95898127D01*
X134019775Y-96041231D01*
X134036393Y-96205000D01*
X134865000Y-96205000D01*
X134865000Y-96185000D01*
X135215000Y-96185000D01*
X135215000Y-96205000D01*
X136043607Y-96205000D01*
X136060225Y-96041231D01*
X136000969Y-95898127D01*
X135743415Y-95567060D01*
X135378772Y-95359756D01*
X135215002Y-95375571D01*
X135215002Y-95324593D01*
X137182897Y-95324593D01*
X137148085Y-95499603D01*
X137148085Y-96749603D01*
X137184578Y-96933064D01*
X137288500Y-97088596D01*
X137444032Y-97192518D01*
X137627493Y-97229011D01*
X138377493Y-97229011D01*
X138560954Y-97192518D01*
X138569634Y-97186718D01*
X139070601Y-97687685D01*
X139070600Y-100928780D01*
X139066566Y-100930451D01*
X138890751Y-101106266D01*
X138856901Y-101187987D01*
X138856901Y-100499603D01*
X138820408Y-100316142D01*
X138716486Y-100160610D01*
X138560954Y-100056688D01*
X138377493Y-100020195D01*
X137627493Y-100020195D01*
X137444032Y-100056688D01*
X137435352Y-100062488D01*
X137349751Y-99976888D01*
X137330225Y-99947665D01*
X137214453Y-99870308D01*
X137112358Y-99850000D01*
X137112354Y-99850000D01*
X137077890Y-99843145D01*
X137043426Y-99850000D01*
X135583104Y-99850000D01*
X135815031Y-99695031D01*
X136052627Y-99339444D01*
X136066440Y-99270000D01*
X137152142Y-99270000D01*
X137184578Y-99433064D01*
X137288500Y-99588596D01*
X137444032Y-99692518D01*
X137627493Y-99729011D01*
X138377493Y-99729011D01*
X138560954Y-99692518D01*
X138716486Y-99588596D01*
X138820408Y-99433064D01*
X138856901Y-99249603D01*
X138856901Y-97999603D01*
X138820408Y-97816142D01*
X138716486Y-97660610D01*
X138560954Y-97556688D01*
X138377493Y-97520195D01*
X137627493Y-97520195D01*
X137444032Y-97556688D01*
X137288500Y-97660610D01*
X137184578Y-97816142D01*
X137148085Y-97999603D01*
X137148085Y-98570000D01*
X136066440Y-98570000D01*
X136052627Y-98500556D01*
X135815031Y-98144969D01*
X135459444Y-97907373D01*
X135145875Y-97845000D01*
X134934125Y-97845000D01*
X134620556Y-97907373D01*
X134264969Y-98144969D01*
X134027373Y-98500556D01*
X133943940Y-98920000D01*
X134027373Y-99339444D01*
X134264969Y-99695031D01*
X134496896Y-99850000D01*
X133924975Y-99850000D01*
X133473290Y-99398316D01*
X133512627Y-99339444D01*
X133596060Y-98920000D01*
X133512627Y-98500556D01*
X133275031Y-98144969D01*
X132919444Y-97907373D01*
X132605875Y-97845000D01*
X132394125Y-97845000D01*
X132080556Y-97907373D01*
X131724969Y-98144969D01*
X131487373Y-98500556D01*
X131403940Y-98920000D01*
X131487373Y-99339444D01*
X131724969Y-99695031D01*
X132080556Y-99932627D01*
X132394125Y-99995000D01*
X132605875Y-99995000D01*
X132919444Y-99932627D01*
X132978316Y-99893290D01*
X133508142Y-100423117D01*
X133527665Y-100452335D01*
X133556883Y-100471858D01*
X133556884Y-100471859D01*
X133597340Y-100498891D01*
X133643437Y-100529692D01*
X133745532Y-100550000D01*
X133745536Y-100550000D01*
X133779999Y-100556855D01*
X133814462Y-100550000D01*
X134466964Y-100550000D01*
X134264969Y-100684969D01*
X134027373Y-101040556D01*
X133943940Y-101460000D01*
X134027373Y-101879444D01*
X134264969Y-102235031D01*
X134620556Y-102472627D01*
X134934125Y-102535000D01*
X135145875Y-102535000D01*
X135459444Y-102472627D01*
X135815031Y-102235031D01*
X136052627Y-101879444D01*
X136136060Y-101460000D01*
X136052627Y-101040556D01*
X135815031Y-100684969D01*
X135613036Y-100550000D01*
X136932916Y-100550000D01*
X137083668Y-100700753D01*
X137083674Y-100700757D01*
X137148085Y-100765168D01*
X137148085Y-101749603D01*
X137184578Y-101933064D01*
X137288500Y-102088596D01*
X137444032Y-102192518D01*
X137627493Y-102229011D01*
X138377493Y-102229011D01*
X138560954Y-102192518D01*
X138716486Y-102088596D01*
X138820408Y-101933064D01*
X138856901Y-101749603D01*
X138856901Y-101732613D01*
X138890751Y-101814334D01*
X139066566Y-101990149D01*
X139296280Y-102085300D01*
X139544920Y-102085300D01*
X139774634Y-101990149D01*
X139950449Y-101814334D01*
X139952493Y-101809399D01*
X139952493Y-102044359D01*
X139986747Y-102127055D01*
X140050041Y-102190349D01*
X140132738Y-102224603D01*
X140571243Y-102224603D01*
X140627493Y-102168353D01*
X140627493Y-101299603D01*
X140977493Y-101299603D01*
X140977493Y-102168353D01*
X141033743Y-102224603D01*
X141472248Y-102224603D01*
X141554945Y-102190349D01*
X141618239Y-102127055D01*
X141652493Y-102044359D01*
X141652493Y-101355853D01*
X141596243Y-101299603D01*
X140977493Y-101299603D01*
X140627493Y-101299603D01*
X140607493Y-101299603D01*
X140607493Y-100949603D01*
X140627493Y-100949603D01*
X140627493Y-100080853D01*
X140977493Y-100080853D01*
X140977493Y-100949603D01*
X141596243Y-100949603D01*
X141652493Y-100893353D01*
X141652493Y-100204847D01*
X141618239Y-100122151D01*
X141554945Y-100058857D01*
X141472248Y-100024603D01*
X141033743Y-100024603D01*
X140977493Y-100080853D01*
X140627493Y-100080853D01*
X140571243Y-100024603D01*
X140132738Y-100024603D01*
X140050041Y-100058857D01*
X139986747Y-100122151D01*
X139952493Y-100204847D01*
X139952493Y-100893353D01*
X140008741Y-100949601D01*
X139952493Y-100949601D01*
X139952493Y-101111201D01*
X139950449Y-101106266D01*
X139774634Y-100930451D01*
X139770600Y-100928780D01*
X139770600Y-98855853D01*
X139952493Y-98855853D01*
X139952493Y-99544359D01*
X139986747Y-99627055D01*
X140050041Y-99690349D01*
X140132738Y-99724603D01*
X140571243Y-99724603D01*
X140627493Y-99668353D01*
X140627493Y-98799603D01*
X140977493Y-98799603D01*
X140977493Y-99668353D01*
X141033743Y-99724603D01*
X141472248Y-99724603D01*
X141554945Y-99690349D01*
X141618239Y-99627055D01*
X141652493Y-99544359D01*
X141652493Y-98855853D01*
X141596243Y-98799603D01*
X140977493Y-98799603D01*
X140627493Y-98799603D01*
X140008743Y-98799603D01*
X139952493Y-98855853D01*
X139770600Y-98855853D01*
X139770600Y-97704847D01*
X139952493Y-97704847D01*
X139952493Y-98393353D01*
X140008743Y-98449603D01*
X140627493Y-98449603D01*
X140627493Y-97580853D01*
X140977493Y-97580853D01*
X140977493Y-98449603D01*
X141596243Y-98449603D01*
X141652493Y-98393353D01*
X141652493Y-97704847D01*
X141618239Y-97622151D01*
X141554945Y-97558857D01*
X141472248Y-97524603D01*
X141033743Y-97524603D01*
X140977493Y-97580853D01*
X140627493Y-97580853D01*
X140571243Y-97524603D01*
X140132738Y-97524603D01*
X140050041Y-97558857D01*
X139986747Y-97622151D01*
X139952493Y-97704847D01*
X139770600Y-97704847D01*
X139770600Y-97577172D01*
X139777455Y-97542709D01*
X139770600Y-97508247D01*
X139770600Y-97508242D01*
X139750292Y-97406147D01*
X139672935Y-97290375D01*
X139643714Y-97270850D01*
X138856901Y-96484038D01*
X138856901Y-96355853D01*
X139952493Y-96355853D01*
X139952493Y-97044359D01*
X139986747Y-97127055D01*
X140050041Y-97190349D01*
X140132738Y-97224603D01*
X140571243Y-97224603D01*
X140627493Y-97168353D01*
X140627493Y-96299603D01*
X140977493Y-96299603D01*
X140977493Y-97168353D01*
X141033743Y-97224603D01*
X141472248Y-97224603D01*
X141554945Y-97190349D01*
X141618239Y-97127055D01*
X141652493Y-97044359D01*
X141652493Y-96355853D01*
X141596243Y-96299603D01*
X140977493Y-96299603D01*
X140627493Y-96299603D01*
X140008743Y-96299603D01*
X139952493Y-96355853D01*
X138856901Y-96355853D01*
X138856901Y-95499603D01*
X138822089Y-95324593D01*
X139952493Y-95324593D01*
X139952493Y-95893353D01*
X140008743Y-95949603D01*
X140627493Y-95949603D01*
X140627493Y-95929603D01*
X140977493Y-95929603D01*
X140977493Y-95949603D01*
X141596243Y-95949603D01*
X141652493Y-95893353D01*
X141652493Y-95324593D01*
X146962025Y-95324593D01*
X146879641Y-95379641D01*
X146796758Y-95503683D01*
X146767654Y-95650000D01*
X146767654Y-97350000D01*
X146796758Y-97496317D01*
X146879641Y-97620359D01*
X147003683Y-97703242D01*
X147150000Y-97732346D01*
X148850000Y-97732346D01*
X148996317Y-97703242D01*
X149120359Y-97620359D01*
X149203242Y-97496317D01*
X149232346Y-97350000D01*
X149232346Y-95650000D01*
X149203242Y-95503683D01*
X149120359Y-95379641D01*
X149037975Y-95324593D01*
X149568320Y-95324593D01*
X152744342Y-98500617D01*
X152763865Y-98529835D01*
X152793083Y-98549358D01*
X152793085Y-98549360D01*
X152859731Y-98593891D01*
X152879637Y-98607192D01*
X152981732Y-98627500D01*
X152981736Y-98627500D01*
X153016200Y-98634355D01*
X153047902Y-98628049D01*
X153036792Y-98683900D01*
X153036792Y-99141100D01*
X153054255Y-99228891D01*
X153054996Y-99230000D01*
X153054255Y-99231109D01*
X153036792Y-99318900D01*
X153036792Y-99708118D01*
X152875001Y-99546328D01*
X152875001Y-99094461D01*
X152881856Y-99059998D01*
X152875001Y-99025536D01*
X152875001Y-99025531D01*
X152854693Y-98923436D01*
X152777336Y-98807664D01*
X152748112Y-98788137D01*
X152711863Y-98751888D01*
X152692336Y-98722664D01*
X152576564Y-98645307D01*
X152474469Y-98624999D01*
X152474465Y-98624999D01*
X152440001Y-98618144D01*
X152405537Y-98624999D01*
X149547663Y-98624999D01*
X149513200Y-98618144D01*
X149478738Y-98624999D01*
X149478733Y-98624999D01*
X149376638Y-98645307D01*
X149260866Y-98722664D01*
X149241341Y-98751885D01*
X145845887Y-102147340D01*
X145845884Y-102147342D01*
X145797355Y-102195871D01*
X145793320Y-102194200D01*
X145544680Y-102194200D01*
X145314966Y-102289351D01*
X145139151Y-102465166D01*
X145044000Y-102694880D01*
X145044000Y-102943520D01*
X145139151Y-103173234D01*
X145314966Y-103349049D01*
X145366975Y-103370592D01*
X144854475Y-103370592D01*
X144005000Y-102521118D01*
X144005000Y-101675952D01*
X144335272Y-101455272D01*
X144628122Y-101016989D01*
X144730958Y-100500000D01*
X144628122Y-99983011D01*
X144335272Y-99544728D01*
X144005000Y-99324048D01*
X144005000Y-98838882D01*
X145283025Y-97560857D01*
X145354125Y-97575000D01*
X145565875Y-97575000D01*
X145879444Y-97512627D01*
X146235031Y-97275031D01*
X146472627Y-96919444D01*
X146556060Y-96500000D01*
X146472627Y-96080556D01*
X146235031Y-95724969D01*
X145879444Y-95487373D01*
X145565875Y-95425000D01*
X145354125Y-95425000D01*
X145040556Y-95487373D01*
X144684969Y-95724969D01*
X144447373Y-96080556D01*
X144363940Y-96500000D01*
X144399143Y-96676975D01*
X142981588Y-98094530D01*
X142929401Y-98129400D01*
X142836960Y-98267748D01*
X142791263Y-98336138D01*
X142742756Y-98580000D01*
X142755001Y-98641560D01*
X142755001Y-99324048D01*
X142424728Y-99544728D01*
X142131878Y-99983011D01*
X142029042Y-100500000D01*
X142131878Y-101016989D01*
X142424728Y-101455272D01*
X142755001Y-101675952D01*
X142755001Y-102718440D01*
X142742756Y-102780000D01*
X142791263Y-103023862D01*
X142791264Y-103023863D01*
X142929401Y-103230600D01*
X142981588Y-103265470D01*
X143670592Y-103954474D01*
X143670592Y-109400000D01*
X143688055Y-109487791D01*
X143737784Y-109562216D01*
X143812209Y-109611945D01*
X143900000Y-109629408D01*
X150300000Y-109629408D01*
X150387791Y-109611945D01*
X150403136Y-109601692D01*
X150441257Y-109658744D01*
X150505966Y-109701981D01*
X151845000Y-111041016D01*
X151845001Y-113678983D01*
X150460209Y-115063776D01*
X150265270Y-115025000D01*
X149974730Y-115025000D01*
X149544484Y-115110581D01*
X149056585Y-115436585D01*
X148730581Y-115924484D01*
X148616104Y-116500000D01*
X148730581Y-117075516D01*
X149056585Y-117563415D01*
X149544484Y-117889419D01*
X149974730Y-117975000D01*
X150265270Y-117975000D01*
X150695516Y-117889419D01*
X151183415Y-117563415D01*
X151509419Y-117075516D01*
X151623896Y-116500000D01*
X151583341Y-116296115D01*
X153975000Y-116296115D01*
X153975000Y-116703885D01*
X154131047Y-117080616D01*
X154419384Y-117368953D01*
X154796115Y-117525000D01*
X155203885Y-117525000D01*
X155580616Y-117368953D01*
X155868953Y-117080616D01*
X156025000Y-116703885D01*
X156025000Y-116296115D01*
X155868953Y-115919384D01*
X155580616Y-115631047D01*
X155203885Y-115475000D01*
X154796115Y-115475000D01*
X154419384Y-115631047D01*
X154131047Y-115919384D01*
X153975000Y-116296115D01*
X151583341Y-116296115D01*
X151556224Y-116159791D01*
X152941016Y-114775000D01*
X153817654Y-114775000D01*
X153817654Y-114800000D01*
X153846758Y-114946317D01*
X153929641Y-115070359D01*
X154053683Y-115153242D01*
X154200000Y-115182346D01*
X155800000Y-115182346D01*
X155946317Y-115153242D01*
X156070359Y-115070359D01*
X156153242Y-114946317D01*
X156182346Y-114800000D01*
X156182346Y-113200000D01*
X156153242Y-113053683D01*
X156070359Y-112929641D01*
X155946317Y-112846758D01*
X155800000Y-112817654D01*
X154200000Y-112817654D01*
X154053683Y-112846758D01*
X153929641Y-112929641D01*
X153846758Y-113053683D01*
X153817654Y-113200000D01*
X153817654Y-113225000D01*
X153395000Y-113225000D01*
X153395000Y-110796330D01*
X153410183Y-110720000D01*
X153350034Y-110417610D01*
X153221981Y-110225965D01*
X153178744Y-110161256D01*
X153114035Y-110118019D01*
X151792131Y-108796115D01*
X152975000Y-108796115D01*
X152975000Y-109203885D01*
X153131047Y-109580616D01*
X153419384Y-109868953D01*
X153796115Y-110025000D01*
X154203885Y-110025000D01*
X154580616Y-109868953D01*
X154868953Y-109580616D01*
X154970592Y-109335238D01*
X154970592Y-109800000D01*
X154988055Y-109887791D01*
X155037784Y-109962216D01*
X155112209Y-110011945D01*
X155200000Y-110029408D01*
X156800000Y-110029408D01*
X156887791Y-110011945D01*
X156962216Y-109962216D01*
X157011945Y-109887791D01*
X157029408Y-109800000D01*
X157029408Y-108200000D01*
X157011945Y-108112209D01*
X156962216Y-108037784D01*
X156887791Y-107988055D01*
X156800000Y-107970592D01*
X155200000Y-107970592D01*
X155112209Y-107988055D01*
X155037784Y-108037784D01*
X154988055Y-108112209D01*
X154970592Y-108200000D01*
X154970592Y-108664762D01*
X154868953Y-108419384D01*
X154580616Y-108131047D01*
X154203885Y-107975000D01*
X153796115Y-107975000D01*
X153419384Y-108131047D01*
X153131047Y-108419384D01*
X152975000Y-108796115D01*
X151792131Y-108796115D01*
X151775000Y-108778985D01*
X151775000Y-101982346D01*
X152100000Y-101982346D01*
X152246317Y-101953242D01*
X152370359Y-101870359D01*
X152453242Y-101746317D01*
X152482346Y-101600000D01*
X152482346Y-100143620D01*
X152744342Y-100405616D01*
X152763865Y-100434835D01*
X152793083Y-100454358D01*
X152793084Y-100454359D01*
X152802492Y-100460645D01*
X152879637Y-100512192D01*
X152981732Y-100532500D01*
X152981736Y-100532500D01*
X153016199Y-100539355D01*
X153047902Y-100533049D01*
X153036792Y-100588900D01*
X153036792Y-101046100D01*
X153054255Y-101133891D01*
X153054996Y-101135000D01*
X153054255Y-101136109D01*
X153036792Y-101223900D01*
X153036792Y-101681100D01*
X153047902Y-101736951D01*
X153016199Y-101730645D01*
X152981735Y-101737500D01*
X152981732Y-101737500D01*
X152879637Y-101757808D01*
X152763865Y-101835165D01*
X152744341Y-101864385D01*
X152276887Y-102331840D01*
X152247665Y-102351366D01*
X152170308Y-102467138D01*
X152150000Y-102569233D01*
X152150000Y-102569236D01*
X152143145Y-102603700D01*
X152150000Y-102638164D01*
X152150001Y-104265532D01*
X152143145Y-104300000D01*
X152170308Y-104436562D01*
X152170309Y-104436563D01*
X152247666Y-104552335D01*
X152276887Y-104571860D01*
X152345592Y-104640565D01*
X152345592Y-105625000D01*
X152382085Y-105808461D01*
X152486007Y-105963993D01*
X152641539Y-106067915D01*
X152825000Y-106104408D01*
X153575000Y-106104408D01*
X153758461Y-106067915D01*
X153913993Y-105963993D01*
X154017915Y-105808461D01*
X154054408Y-105625000D01*
X154054408Y-104375000D01*
X154017915Y-104191539D01*
X153913993Y-104036007D01*
X153758461Y-103932085D01*
X153575000Y-103895592D01*
X152850000Y-103895592D01*
X152850000Y-102748673D01*
X153036792Y-102561882D01*
X153036792Y-102951100D01*
X153054255Y-103038891D01*
X153103984Y-103113316D01*
X153178409Y-103163045D01*
X153266200Y-103180508D01*
X155806200Y-103180508D01*
X155893991Y-103163045D01*
X155958601Y-103119874D01*
X156287943Y-103449217D01*
X156307466Y-103478436D01*
X156423238Y-103555793D01*
X156525333Y-103576101D01*
X156525337Y-103576101D01*
X156559800Y-103582956D01*
X156594263Y-103576101D01*
X157359217Y-103576101D01*
X157282085Y-103691539D01*
X157245592Y-103875000D01*
X157245592Y-104650000D01*
X156854408Y-104650000D01*
X156854408Y-104375000D01*
X156817915Y-104191539D01*
X156713993Y-104036007D01*
X156558461Y-103932085D01*
X156375000Y-103895592D01*
X155625000Y-103895592D01*
X155441539Y-103932085D01*
X155286007Y-104036007D01*
X155182085Y-104191539D01*
X155145592Y-104375000D01*
X155145592Y-105625000D01*
X155182085Y-105808461D01*
X155286007Y-105963993D01*
X155441539Y-106067915D01*
X155625000Y-106104408D01*
X156375000Y-106104408D01*
X156558461Y-106067915D01*
X156713993Y-105963993D01*
X156817915Y-105808461D01*
X156854408Y-105625000D01*
X156854408Y-105350000D01*
X157309840Y-105350000D01*
X157386007Y-105463993D01*
X157541539Y-105567915D01*
X157725000Y-105604408D01*
X158475000Y-105604408D01*
X158658461Y-105567915D01*
X158813993Y-105463993D01*
X158917915Y-105308461D01*
X158954408Y-105125000D01*
X158954408Y-104731250D01*
X160050000Y-104731250D01*
X160050000Y-105419756D01*
X160084254Y-105502452D01*
X160147548Y-105565746D01*
X160230245Y-105600000D01*
X160668750Y-105600000D01*
X160725000Y-105543750D01*
X160725000Y-104675000D01*
X160106250Y-104675000D01*
X160050000Y-104731250D01*
X158954408Y-104731250D01*
X158954408Y-103875000D01*
X158917915Y-103691539D01*
X158840783Y-103576101D01*
X160051716Y-103576101D01*
X160050000Y-103580244D01*
X160050000Y-104268750D01*
X160106250Y-104325000D01*
X160725000Y-104325000D01*
X160725000Y-104305000D01*
X161024525Y-104305000D01*
X161025000Y-104307388D01*
X161025000Y-108792612D01*
X160953231Y-109153420D01*
X160753035Y-109453035D01*
X160453420Y-109653231D01*
X160092612Y-109725000D01*
X159199106Y-109725000D01*
X159184482Y-109726439D01*
X158802005Y-109802474D01*
X158774982Y-109813661D01*
X158450668Y-110030203D01*
X158429978Y-110050874D01*
X158213146Y-110374994D01*
X158201936Y-110402008D01*
X158125559Y-110784416D01*
X158124106Y-110799038D01*
X158117101Y-118627448D01*
X158097617Y-118725000D01*
X130275000Y-118725000D01*
X130275000Y-115047500D01*
X132270592Y-115047500D01*
X132270592Y-116952500D01*
X132288055Y-117040291D01*
X132337784Y-117114716D01*
X132412209Y-117164445D01*
X132500000Y-117181908D01*
X134500000Y-117181908D01*
X134587791Y-117164445D01*
X134662216Y-117114716D01*
X134711945Y-117040291D01*
X134729408Y-116952500D01*
X134729408Y-115047500D01*
X134711945Y-114959709D01*
X134662216Y-114885284D01*
X134587791Y-114835555D01*
X134500000Y-114818092D01*
X132500000Y-114818092D01*
X132412209Y-114835555D01*
X132337784Y-114885284D01*
X132288055Y-114959709D01*
X132270592Y-115047500D01*
X130275000Y-115047500D01*
X130275000Y-114731250D01*
X136975000Y-114731250D01*
X136975000Y-115344755D01*
X137009254Y-115427452D01*
X137072548Y-115490746D01*
X137155244Y-115525000D01*
X137675404Y-115525000D01*
X137419384Y-115631047D01*
X137131047Y-115919384D01*
X136975000Y-116296115D01*
X136975000Y-116703885D01*
X137131047Y-117080616D01*
X137419384Y-117368953D01*
X137796115Y-117525000D01*
X138203885Y-117525000D01*
X138580616Y-117368953D01*
X138868953Y-117080616D01*
X139025000Y-116703885D01*
X139025000Y-116296115D01*
X138868953Y-115919384D01*
X138580616Y-115631047D01*
X138324596Y-115525000D01*
X138844756Y-115525000D01*
X138927452Y-115490746D01*
X138990746Y-115427452D01*
X139002116Y-115400000D01*
X141170592Y-115400000D01*
X141170592Y-117600000D01*
X141188055Y-117687791D01*
X141237784Y-117762216D01*
X141312209Y-117811945D01*
X141400000Y-117829408D01*
X143600000Y-117829408D01*
X143687791Y-117811945D01*
X143762216Y-117762216D01*
X143811945Y-117687791D01*
X143829408Y-117600000D01*
X143829408Y-115400000D01*
X143811945Y-115312209D01*
X143762216Y-115237784D01*
X143687791Y-115188055D01*
X143600000Y-115170592D01*
X141400000Y-115170592D01*
X141312209Y-115188055D01*
X141237784Y-115237784D01*
X141188055Y-115312209D01*
X141170592Y-115400000D01*
X139002116Y-115400000D01*
X139025000Y-115344755D01*
X139025000Y-114731250D01*
X138968750Y-114675000D01*
X138175000Y-114675000D01*
X138175000Y-114695000D01*
X137825000Y-114695000D01*
X137825000Y-114675000D01*
X137031250Y-114675000D01*
X136975000Y-114731250D01*
X130275000Y-114731250D01*
X130275000Y-113815001D01*
X132329789Y-113815001D01*
X132432626Y-114043382D01*
X132733510Y-114389264D01*
X133143854Y-114593674D01*
X133325000Y-114571749D01*
X133325000Y-113635000D01*
X133675000Y-113635000D01*
X133675000Y-114571749D01*
X133856146Y-114593674D01*
X134266490Y-114389264D01*
X134567374Y-114043382D01*
X134670211Y-113815001D01*
X134656719Y-113655245D01*
X136975000Y-113655245D01*
X136975000Y-114268750D01*
X137031250Y-114325000D01*
X137825000Y-114325000D01*
X137825000Y-113531250D01*
X138175000Y-113531250D01*
X138175000Y-114325000D01*
X138968750Y-114325000D01*
X139025000Y-114268750D01*
X139025000Y-113655245D01*
X138990746Y-113572548D01*
X138927452Y-113509254D01*
X138844756Y-113475000D01*
X138231250Y-113475000D01*
X138175000Y-113531250D01*
X137825000Y-113531250D01*
X137768750Y-113475000D01*
X137155244Y-113475000D01*
X137072548Y-113509254D01*
X137009254Y-113572548D01*
X136975000Y-113655245D01*
X134656719Y-113655245D01*
X134655009Y-113635000D01*
X133675000Y-113635000D01*
X133325000Y-113635000D01*
X132344991Y-113635000D01*
X132329789Y-113815001D01*
X130275000Y-113815001D01*
X130275000Y-113104999D01*
X132329789Y-113104999D01*
X132344991Y-113285000D01*
X133325000Y-113285000D01*
X133325000Y-112348251D01*
X133675000Y-112348251D01*
X133675000Y-113285000D01*
X134655009Y-113285000D01*
X134670211Y-113104999D01*
X134567374Y-112876618D01*
X134266490Y-112530736D01*
X133856146Y-112326326D01*
X133675000Y-112348251D01*
X133325000Y-112348251D01*
X133143854Y-112326326D01*
X132733510Y-112530736D01*
X132432626Y-112876618D01*
X132329789Y-113104999D01*
X130275000Y-113104999D01*
X130275000Y-110920000D01*
X132251932Y-110920000D01*
X132343320Y-111379437D01*
X132603570Y-111768930D01*
X132993063Y-112029180D01*
X133336530Y-112097500D01*
X133663470Y-112097500D01*
X134006937Y-112029180D01*
X134396430Y-111768930D01*
X134656680Y-111379437D01*
X134748068Y-110920000D01*
X134744090Y-110900000D01*
X141170592Y-110900000D01*
X141170592Y-113100000D01*
X141188055Y-113187791D01*
X141237784Y-113262216D01*
X141312209Y-113311945D01*
X141400000Y-113329408D01*
X143600000Y-113329408D01*
X143687791Y-113311945D01*
X143762216Y-113262216D01*
X143811945Y-113187791D01*
X143829408Y-113100000D01*
X143829408Y-112000000D01*
X148769042Y-112000000D01*
X148871878Y-112516989D01*
X149164728Y-112955272D01*
X149603011Y-113248122D01*
X149989501Y-113325000D01*
X150250499Y-113325000D01*
X150636989Y-113248122D01*
X151075272Y-112955272D01*
X151368122Y-112516989D01*
X151470958Y-112000000D01*
X151368122Y-111483011D01*
X151075272Y-111044728D01*
X150636989Y-110751878D01*
X150250499Y-110675000D01*
X149989501Y-110675000D01*
X149603011Y-110751878D01*
X149164728Y-111044728D01*
X148871878Y-111483011D01*
X148769042Y-112000000D01*
X143829408Y-112000000D01*
X143829408Y-110900000D01*
X143811945Y-110812209D01*
X143762216Y-110737784D01*
X143687791Y-110688055D01*
X143600000Y-110670592D01*
X141400000Y-110670592D01*
X141312209Y-110688055D01*
X141237784Y-110737784D01*
X141188055Y-110812209D01*
X141170592Y-110900000D01*
X134744090Y-110900000D01*
X134656680Y-110460563D01*
X134396430Y-110071070D01*
X134006937Y-109810820D01*
X133663470Y-109742500D01*
X133336530Y-109742500D01*
X132993063Y-109810820D01*
X132603570Y-110071070D01*
X132343320Y-110460563D01*
X132251932Y-110920000D01*
X130275000Y-110920000D01*
X130275000Y-107391437D01*
X134608000Y-107391437D01*
X134608000Y-108356163D01*
X134977184Y-109247452D01*
X135659348Y-109929616D01*
X136550637Y-110298800D01*
X137515363Y-110298800D01*
X138406652Y-109929616D01*
X139088816Y-109247452D01*
X139458000Y-108356163D01*
X139458000Y-108223800D01*
X139470592Y-108223800D01*
X139470592Y-109380000D01*
X139488055Y-109467791D01*
X139537784Y-109542216D01*
X139612209Y-109591945D01*
X139700000Y-109609408D01*
X141900000Y-109609408D01*
X141987791Y-109591945D01*
X142062216Y-109542216D01*
X142111945Y-109467791D01*
X142129408Y-109380000D01*
X142129408Y-108180000D01*
X142111945Y-108092209D01*
X142062216Y-108017784D01*
X141987791Y-107968055D01*
X141900000Y-107950592D01*
X141152759Y-107950592D01*
X141156855Y-107930000D01*
X141150000Y-107895536D01*
X141150000Y-107895532D01*
X141129692Y-107793437D01*
X141052335Y-107677665D01*
X141023113Y-107658139D01*
X141015661Y-107650688D01*
X140996135Y-107621465D01*
X140880363Y-107544108D01*
X140778268Y-107523800D01*
X140778264Y-107523800D01*
X140743800Y-107516945D01*
X140709336Y-107523800D01*
X139458000Y-107523800D01*
X139458000Y-107391437D01*
X139088816Y-106500148D01*
X138406652Y-105817984D01*
X137515363Y-105448800D01*
X136550637Y-105448800D01*
X135659348Y-105817984D01*
X134977184Y-106500148D01*
X134608000Y-107391437D01*
X130275000Y-107391437D01*
X130275000Y-103150000D01*
X131420592Y-103150000D01*
X131420592Y-104850000D01*
X131438055Y-104937791D01*
X131487784Y-105012216D01*
X131562209Y-105061945D01*
X131650000Y-105079408D01*
X133350000Y-105079408D01*
X133437791Y-105061945D01*
X133512216Y-105012216D01*
X133561945Y-104937791D01*
X133579408Y-104850000D01*
X133579408Y-104000000D01*
X133943940Y-104000000D01*
X134027373Y-104419444D01*
X134264969Y-104775031D01*
X134620556Y-105012627D01*
X134934125Y-105075000D01*
X135145875Y-105075000D01*
X135459444Y-105012627D01*
X135815031Y-104775031D01*
X136052627Y-104419444D01*
X136136060Y-104000000D01*
X136060473Y-103620000D01*
X139470592Y-103620000D01*
X139470592Y-104820000D01*
X139488055Y-104907791D01*
X139537784Y-104982216D01*
X139612209Y-105031945D01*
X139700000Y-105049408D01*
X141900000Y-105049408D01*
X141987791Y-105031945D01*
X142062216Y-104982216D01*
X142111945Y-104907791D01*
X142129408Y-104820000D01*
X142129408Y-103620000D01*
X142111945Y-103532209D01*
X142062216Y-103457784D01*
X141987791Y-103408055D01*
X141900000Y-103390592D01*
X141356128Y-103390592D01*
X141425000Y-103224320D01*
X141425000Y-102975680D01*
X141329849Y-102745966D01*
X141154034Y-102570151D01*
X140924320Y-102475000D01*
X140675680Y-102475000D01*
X140445966Y-102570151D01*
X140270151Y-102745966D01*
X140175000Y-102975680D01*
X140175000Y-103224320D01*
X140243872Y-103390592D01*
X139700000Y-103390592D01*
X139612209Y-103408055D01*
X139537784Y-103457784D01*
X139488055Y-103532209D01*
X139470592Y-103620000D01*
X136060473Y-103620000D01*
X136052627Y-103580556D01*
X135815031Y-103224969D01*
X135459444Y-102987373D01*
X135145875Y-102925000D01*
X134934125Y-102925000D01*
X134620556Y-102987373D01*
X134264969Y-103224969D01*
X134027373Y-103580556D01*
X133943940Y-104000000D01*
X133579408Y-104000000D01*
X133579408Y-103150000D01*
X133561945Y-103062209D01*
X133512216Y-102987784D01*
X133437791Y-102938055D01*
X133350000Y-102920592D01*
X131650000Y-102920592D01*
X131562209Y-102938055D01*
X131487784Y-102987784D01*
X131438055Y-103062209D01*
X131420592Y-103150000D01*
X130275000Y-103150000D01*
X130275000Y-101460000D01*
X131403940Y-101460000D01*
X131487373Y-101879444D01*
X131724969Y-102235031D01*
X132080556Y-102472627D01*
X132394125Y-102535000D01*
X132605875Y-102535000D01*
X132919444Y-102472627D01*
X133275031Y-102235031D01*
X133512627Y-101879444D01*
X133596060Y-101460000D01*
X133512627Y-101040556D01*
X133275031Y-100684969D01*
X132919444Y-100447373D01*
X132605875Y-100385000D01*
X132394125Y-100385000D01*
X132080556Y-100447373D01*
X131724969Y-100684969D01*
X131487373Y-101040556D01*
X131403940Y-101460000D01*
X130275000Y-101460000D01*
X130275000Y-94275000D01*
X159412492Y-94275000D01*
X159417298Y-97819492D01*
X159417298Y-97819492D01*
G37*
X159417298Y-97819492D02*
X158193800Y-97819492D01*
X158106009Y-97836955D01*
X158031584Y-97886684D01*
X157981855Y-97961109D01*
X157964392Y-98048900D01*
X157964392Y-98506100D01*
X157981855Y-98593891D01*
X157982596Y-98595000D01*
X157981855Y-98596109D01*
X157964392Y-98683900D01*
X157964392Y-99141100D01*
X157981855Y-99228891D01*
X157982596Y-99230000D01*
X157981855Y-99231109D01*
X157964392Y-99318900D01*
X157964392Y-99776100D01*
X157981855Y-99863891D01*
X157982596Y-99865000D01*
X157981855Y-99866109D01*
X157964392Y-99953900D01*
X157964392Y-100411100D01*
X157981855Y-100498891D01*
X157982596Y-100500000D01*
X157981855Y-100501109D01*
X157964392Y-100588900D01*
X157964392Y-101046100D01*
X157981855Y-101133891D01*
X157985367Y-101139147D01*
X157968800Y-101179144D01*
X157968800Y-101281950D01*
X158025050Y-101338200D01*
X159288800Y-101338200D01*
X159288800Y-101275508D01*
X159421983Y-101275508D01*
X159422463Y-101629492D01*
X159288800Y-101629492D01*
X159288800Y-101566800D01*
X158025050Y-101566800D01*
X157968800Y-101623050D01*
X157968800Y-101673826D01*
X157425001Y-101130028D01*
X157425001Y-100600763D01*
X157431856Y-100566300D01*
X157425001Y-100531838D01*
X157425001Y-100531833D01*
X157404693Y-100429738D01*
X157327336Y-100313966D01*
X157298115Y-100294441D01*
X156328062Y-99324389D01*
X156308535Y-99295165D01*
X156192763Y-99217808D01*
X156090668Y-99197500D01*
X156090664Y-99197500D01*
X156056200Y-99190645D01*
X156024498Y-99196951D01*
X156035608Y-99141100D01*
X156035608Y-98683900D01*
X156018145Y-98596109D01*
X156017404Y-98595000D01*
X156018145Y-98593891D01*
X156035608Y-98506100D01*
X156035608Y-98048900D01*
X156018145Y-97961109D01*
X155968416Y-97886684D01*
X155893991Y-97836955D01*
X155806200Y-97819492D01*
X153266200Y-97819492D01*
X153178409Y-97836955D01*
X153113800Y-97880125D01*
X151464924Y-96231250D01*
X152350000Y-96231250D01*
X152350000Y-96919756D01*
X152384254Y-97002452D01*
X152447548Y-97065746D01*
X152530245Y-97100000D01*
X152968750Y-97100000D01*
X153025000Y-97043750D01*
X153025000Y-96175000D01*
X153375000Y-96175000D01*
X153375000Y-97043750D01*
X153431250Y-97100000D01*
X153869755Y-97100000D01*
X153952452Y-97065746D01*
X154015746Y-97002452D01*
X154050000Y-96919756D01*
X154050000Y-96231250D01*
X153993750Y-96175000D01*
X153375000Y-96175000D01*
X153025000Y-96175000D01*
X152406250Y-96175000D01*
X152350000Y-96231250D01*
X151464924Y-96231250D01*
X150313918Y-95080244D01*
X152350000Y-95080244D01*
X152350000Y-95768750D01*
X152406250Y-95825000D01*
X153025000Y-95825000D01*
X153025000Y-94956250D01*
X153375000Y-94956250D01*
X153375000Y-95825000D01*
X153993750Y-95825000D01*
X154050000Y-95768750D01*
X154050000Y-95375000D01*
X155145592Y-95375000D01*
X155145592Y-96625000D01*
X155182085Y-96808461D01*
X155286007Y-96963993D01*
X155441539Y-97067915D01*
X155625000Y-97104408D01*
X156375000Y-97104408D01*
X156558461Y-97067915D01*
X156713993Y-96963993D01*
X156790160Y-96850000D01*
X157245592Y-96850000D01*
X157245592Y-97125000D01*
X157282085Y-97308461D01*
X157386007Y-97463993D01*
X157541539Y-97567915D01*
X157725000Y-97604408D01*
X158475000Y-97604408D01*
X158658461Y-97567915D01*
X158813993Y-97463993D01*
X158917915Y-97308461D01*
X158954408Y-97125000D01*
X158954408Y-95875000D01*
X158917915Y-95691539D01*
X158813993Y-95536007D01*
X158658461Y-95432085D01*
X158475000Y-95395592D01*
X157725000Y-95395592D01*
X157541539Y-95432085D01*
X157386007Y-95536007D01*
X157282085Y-95691539D01*
X157245592Y-95875000D01*
X157245592Y-96150000D01*
X156854408Y-96150000D01*
X156854408Y-95375000D01*
X156817915Y-95191539D01*
X156713993Y-95036007D01*
X156558461Y-94932085D01*
X156375000Y-94895592D01*
X155625000Y-94895592D01*
X155441539Y-94932085D01*
X155286007Y-95036007D01*
X155182085Y-95191539D01*
X155145592Y-95375000D01*
X154050000Y-95375000D01*
X154050000Y-95080244D01*
X154015746Y-94997548D01*
X153952452Y-94934254D01*
X153869755Y-94900000D01*
X153431250Y-94900000D01*
X153375000Y-94956250D01*
X153025000Y-94956250D01*
X152968750Y-94900000D01*
X152530245Y-94900000D01*
X152447548Y-94934254D01*
X152384254Y-94997548D01*
X152350000Y-95080244D01*
X150313918Y-95080244D01*
X149985155Y-94751482D01*
X149965628Y-94722258D01*
X149849856Y-94644901D01*
X149747761Y-94624593D01*
X149747757Y-94624593D01*
X149713293Y-94617738D01*
X149678829Y-94624593D01*
X133939871Y-94624593D01*
X133905407Y-94617738D01*
X133870943Y-94624593D01*
X133870939Y-94624593D01*
X133768844Y-94644901D01*
X133682292Y-94702733D01*
X133682291Y-94702734D01*
X133653072Y-94722258D01*
X133633549Y-94751476D01*
X133126887Y-95258140D01*
X133126884Y-95258142D01*
X132978316Y-95406710D01*
X132919444Y-95367373D01*
X132605875Y-95305000D01*
X132394125Y-95305000D01*
X132080556Y-95367373D01*
X131724969Y-95604969D01*
X131487373Y-95960556D01*
X131403940Y-96380000D01*
X131487373Y-96799444D01*
X131724969Y-97155031D01*
X132080556Y-97392627D01*
X132394125Y-97455000D01*
X132605875Y-97455000D01*
X132919444Y-97392627D01*
X133275031Y-97155031D01*
X133512627Y-96799444D01*
X133528674Y-96718769D01*
X134019775Y-96718769D01*
X134079031Y-96861873D01*
X134336585Y-97192940D01*
X134701228Y-97400244D01*
X134865000Y-97384429D01*
X134865000Y-96555000D01*
X135215000Y-96555000D01*
X135215000Y-97384429D01*
X135378772Y-97400244D01*
X135743415Y-97192940D01*
X136000969Y-96861873D01*
X136060225Y-96718769D01*
X136043607Y-96555000D01*
X135215000Y-96555000D01*
X134865000Y-96555000D01*
X134036393Y-96555000D01*
X134019775Y-96718769D01*
X133528674Y-96718769D01*
X133596060Y-96380000D01*
X133512627Y-95960556D01*
X133473290Y-95901684D01*
X133621858Y-95753116D01*
X133621860Y-95753113D01*
X134050382Y-95324593D01*
X134864998Y-95324593D01*
X134864998Y-95375571D01*
X134701228Y-95359756D01*
X134336585Y-95567060D01*
X134079031Y-95898127D01*
X134019775Y-96041231D01*
X134036393Y-96205000D01*
X134865000Y-96205000D01*
X134865000Y-96185000D01*
X135215000Y-96185000D01*
X135215000Y-96205000D01*
X136043607Y-96205000D01*
X136060225Y-96041231D01*
X136000969Y-95898127D01*
X135743415Y-95567060D01*
X135378772Y-95359756D01*
X135215002Y-95375571D01*
X135215002Y-95324593D01*
X137182897Y-95324593D01*
X137148085Y-95499603D01*
X137148085Y-96749603D01*
X137184578Y-96933064D01*
X137288500Y-97088596D01*
X137444032Y-97192518D01*
X137627493Y-97229011D01*
X138377493Y-97229011D01*
X138560954Y-97192518D01*
X138569634Y-97186718D01*
X139070601Y-97687685D01*
X139070600Y-100928780D01*
X139066566Y-100930451D01*
X138890751Y-101106266D01*
X138856901Y-101187987D01*
X138856901Y-100499603D01*
X138820408Y-100316142D01*
X138716486Y-100160610D01*
X138560954Y-100056688D01*
X138377493Y-100020195D01*
X137627493Y-100020195D01*
X137444032Y-100056688D01*
X137435352Y-100062488D01*
X137349751Y-99976888D01*
X137330225Y-99947665D01*
X137214453Y-99870308D01*
X137112358Y-99850000D01*
X137112354Y-99850000D01*
X137077890Y-99843145D01*
X137043426Y-99850000D01*
X135583104Y-99850000D01*
X135815031Y-99695031D01*
X136052627Y-99339444D01*
X136066440Y-99270000D01*
X137152142Y-99270000D01*
X137184578Y-99433064D01*
X137288500Y-99588596D01*
X137444032Y-99692518D01*
X137627493Y-99729011D01*
X138377493Y-99729011D01*
X138560954Y-99692518D01*
X138716486Y-99588596D01*
X138820408Y-99433064D01*
X138856901Y-99249603D01*
X138856901Y-97999603D01*
X138820408Y-97816142D01*
X138716486Y-97660610D01*
X138560954Y-97556688D01*
X138377493Y-97520195D01*
X137627493Y-97520195D01*
X137444032Y-97556688D01*
X137288500Y-97660610D01*
X137184578Y-97816142D01*
X137148085Y-97999603D01*
X137148085Y-98570000D01*
X136066440Y-98570000D01*
X136052627Y-98500556D01*
X135815031Y-98144969D01*
X135459444Y-97907373D01*
X135145875Y-97845000D01*
X134934125Y-97845000D01*
X134620556Y-97907373D01*
X134264969Y-98144969D01*
X134027373Y-98500556D01*
X133943940Y-98920000D01*
X134027373Y-99339444D01*
X134264969Y-99695031D01*
X134496896Y-99850000D01*
X133924975Y-99850000D01*
X133473290Y-99398316D01*
X133512627Y-99339444D01*
X133596060Y-98920000D01*
X133512627Y-98500556D01*
X133275031Y-98144969D01*
X132919444Y-97907373D01*
X132605875Y-97845000D01*
X132394125Y-97845000D01*
X132080556Y-97907373D01*
X131724969Y-98144969D01*
X131487373Y-98500556D01*
X131403940Y-98920000D01*
X131487373Y-99339444D01*
X131724969Y-99695031D01*
X132080556Y-99932627D01*
X132394125Y-99995000D01*
X132605875Y-99995000D01*
X132919444Y-99932627D01*
X132978316Y-99893290D01*
X133508142Y-100423117D01*
X133527665Y-100452335D01*
X133556883Y-100471858D01*
X133556884Y-100471859D01*
X133597340Y-100498891D01*
X133643437Y-100529692D01*
X133745532Y-100550000D01*
X133745536Y-100550000D01*
X133779999Y-100556855D01*
X133814462Y-100550000D01*
X134466964Y-100550000D01*
X134264969Y-100684969D01*
X134027373Y-101040556D01*
X133943940Y-101460000D01*
X134027373Y-101879444D01*
X134264969Y-102235031D01*
X134620556Y-102472627D01*
X134934125Y-102535000D01*
X135145875Y-102535000D01*
X135459444Y-102472627D01*
X135815031Y-102235031D01*
X136052627Y-101879444D01*
X136136060Y-101460000D01*
X136052627Y-101040556D01*
X135815031Y-100684969D01*
X135613036Y-100550000D01*
X136932916Y-100550000D01*
X137083668Y-100700753D01*
X137083674Y-100700757D01*
X137148085Y-100765168D01*
X137148085Y-101749603D01*
X137184578Y-101933064D01*
X137288500Y-102088596D01*
X137444032Y-102192518D01*
X137627493Y-102229011D01*
X138377493Y-102229011D01*
X138560954Y-102192518D01*
X138716486Y-102088596D01*
X138820408Y-101933064D01*
X138856901Y-101749603D01*
X138856901Y-101732613D01*
X138890751Y-101814334D01*
X139066566Y-101990149D01*
X139296280Y-102085300D01*
X139544920Y-102085300D01*
X139774634Y-101990149D01*
X139950449Y-101814334D01*
X139952493Y-101809399D01*
X139952493Y-102044359D01*
X139986747Y-102127055D01*
X140050041Y-102190349D01*
X140132738Y-102224603D01*
X140571243Y-102224603D01*
X140627493Y-102168353D01*
X140627493Y-101299603D01*
X140977493Y-101299603D01*
X140977493Y-102168353D01*
X141033743Y-102224603D01*
X141472248Y-102224603D01*
X141554945Y-102190349D01*
X141618239Y-102127055D01*
X141652493Y-102044359D01*
X141652493Y-101355853D01*
X141596243Y-101299603D01*
X140977493Y-101299603D01*
X140627493Y-101299603D01*
X140607493Y-101299603D01*
X140607493Y-100949603D01*
X140627493Y-100949603D01*
X140627493Y-100080853D01*
X140977493Y-100080853D01*
X140977493Y-100949603D01*
X141596243Y-100949603D01*
X141652493Y-100893353D01*
X141652493Y-100204847D01*
X141618239Y-100122151D01*
X141554945Y-100058857D01*
X141472248Y-100024603D01*
X141033743Y-100024603D01*
X140977493Y-100080853D01*
X140627493Y-100080853D01*
X140571243Y-100024603D01*
X140132738Y-100024603D01*
X140050041Y-100058857D01*
X139986747Y-100122151D01*
X139952493Y-100204847D01*
X139952493Y-100893353D01*
X140008741Y-100949601D01*
X139952493Y-100949601D01*
X139952493Y-101111201D01*
X139950449Y-101106266D01*
X139774634Y-100930451D01*
X139770600Y-100928780D01*
X139770600Y-98855853D01*
X139952493Y-98855853D01*
X139952493Y-99544359D01*
X139986747Y-99627055D01*
X140050041Y-99690349D01*
X140132738Y-99724603D01*
X140571243Y-99724603D01*
X140627493Y-99668353D01*
X140627493Y-98799603D01*
X140977493Y-98799603D01*
X140977493Y-99668353D01*
X141033743Y-99724603D01*
X141472248Y-99724603D01*
X141554945Y-99690349D01*
X141618239Y-99627055D01*
X141652493Y-99544359D01*
X141652493Y-98855853D01*
X141596243Y-98799603D01*
X140977493Y-98799603D01*
X140627493Y-98799603D01*
X140008743Y-98799603D01*
X139952493Y-98855853D01*
X139770600Y-98855853D01*
X139770600Y-97704847D01*
X139952493Y-97704847D01*
X139952493Y-98393353D01*
X140008743Y-98449603D01*
X140627493Y-98449603D01*
X140627493Y-97580853D01*
X140977493Y-97580853D01*
X140977493Y-98449603D01*
X141596243Y-98449603D01*
X141652493Y-98393353D01*
X141652493Y-97704847D01*
X141618239Y-97622151D01*
X141554945Y-97558857D01*
X141472248Y-97524603D01*
X141033743Y-97524603D01*
X140977493Y-97580853D01*
X140627493Y-97580853D01*
X140571243Y-97524603D01*
X140132738Y-97524603D01*
X140050041Y-97558857D01*
X139986747Y-97622151D01*
X139952493Y-97704847D01*
X139770600Y-97704847D01*
X139770600Y-97577172D01*
X139777455Y-97542709D01*
X139770600Y-97508247D01*
X139770600Y-97508242D01*
X139750292Y-97406147D01*
X139672935Y-97290375D01*
X139643714Y-97270850D01*
X138856901Y-96484038D01*
X138856901Y-96355853D01*
X139952493Y-96355853D01*
X139952493Y-97044359D01*
X139986747Y-97127055D01*
X140050041Y-97190349D01*
X140132738Y-97224603D01*
X140571243Y-97224603D01*
X140627493Y-97168353D01*
X140627493Y-96299603D01*
X140977493Y-96299603D01*
X140977493Y-97168353D01*
X141033743Y-97224603D01*
X141472248Y-97224603D01*
X141554945Y-97190349D01*
X141618239Y-97127055D01*
X141652493Y-97044359D01*
X141652493Y-96355853D01*
X141596243Y-96299603D01*
X140977493Y-96299603D01*
X140627493Y-96299603D01*
X140008743Y-96299603D01*
X139952493Y-96355853D01*
X138856901Y-96355853D01*
X138856901Y-95499603D01*
X138822089Y-95324593D01*
X139952493Y-95324593D01*
X139952493Y-95893353D01*
X140008743Y-95949603D01*
X140627493Y-95949603D01*
X140627493Y-95929603D01*
X140977493Y-95929603D01*
X140977493Y-95949603D01*
X141596243Y-95949603D01*
X141652493Y-95893353D01*
X141652493Y-95324593D01*
X146962025Y-95324593D01*
X146879641Y-95379641D01*
X146796758Y-95503683D01*
X146767654Y-95650000D01*
X146767654Y-97350000D01*
X146796758Y-97496317D01*
X146879641Y-97620359D01*
X147003683Y-97703242D01*
X147150000Y-97732346D01*
X148850000Y-97732346D01*
X148996317Y-97703242D01*
X149120359Y-97620359D01*
X149203242Y-97496317D01*
X149232346Y-97350000D01*
X149232346Y-95650000D01*
X149203242Y-95503683D01*
X149120359Y-95379641D01*
X149037975Y-95324593D01*
X149568320Y-95324593D01*
X152744342Y-98500617D01*
X152763865Y-98529835D01*
X152793083Y-98549358D01*
X152793085Y-98549360D01*
X152859731Y-98593891D01*
X152879637Y-98607192D01*
X152981732Y-98627500D01*
X152981736Y-98627500D01*
X153016200Y-98634355D01*
X153047902Y-98628049D01*
X153036792Y-98683900D01*
X153036792Y-99141100D01*
X153054255Y-99228891D01*
X153054996Y-99230000D01*
X153054255Y-99231109D01*
X153036792Y-99318900D01*
X153036792Y-99708118D01*
X152875001Y-99546328D01*
X152875001Y-99094461D01*
X152881856Y-99059998D01*
X152875001Y-99025536D01*
X152875001Y-99025531D01*
X152854693Y-98923436D01*
X152777336Y-98807664D01*
X152748112Y-98788137D01*
X152711863Y-98751888D01*
X152692336Y-98722664D01*
X152576564Y-98645307D01*
X152474469Y-98624999D01*
X152474465Y-98624999D01*
X152440001Y-98618144D01*
X152405537Y-98624999D01*
X149547663Y-98624999D01*
X149513200Y-98618144D01*
X149478738Y-98624999D01*
X149478733Y-98624999D01*
X149376638Y-98645307D01*
X149260866Y-98722664D01*
X149241341Y-98751885D01*
X145845887Y-102147340D01*
X145845884Y-102147342D01*
X145797355Y-102195871D01*
X145793320Y-102194200D01*
X145544680Y-102194200D01*
X145314966Y-102289351D01*
X145139151Y-102465166D01*
X145044000Y-102694880D01*
X145044000Y-102943520D01*
X145139151Y-103173234D01*
X145314966Y-103349049D01*
X145366975Y-103370592D01*
X144854475Y-103370592D01*
X144005000Y-102521118D01*
X144005000Y-101675952D01*
X144335272Y-101455272D01*
X144628122Y-101016989D01*
X144730958Y-100500000D01*
X144628122Y-99983011D01*
X144335272Y-99544728D01*
X144005000Y-99324048D01*
X144005000Y-98838882D01*
X145283025Y-97560857D01*
X145354125Y-97575000D01*
X145565875Y-97575000D01*
X145879444Y-97512627D01*
X146235031Y-97275031D01*
X146472627Y-96919444D01*
X146556060Y-96500000D01*
X146472627Y-96080556D01*
X146235031Y-95724969D01*
X145879444Y-95487373D01*
X145565875Y-95425000D01*
X145354125Y-95425000D01*
X145040556Y-95487373D01*
X144684969Y-95724969D01*
X144447373Y-96080556D01*
X144363940Y-96500000D01*
X144399143Y-96676975D01*
X142981588Y-98094530D01*
X142929401Y-98129400D01*
X142836960Y-98267748D01*
X142791263Y-98336138D01*
X142742756Y-98580000D01*
X142755001Y-98641560D01*
X142755001Y-99324048D01*
X142424728Y-99544728D01*
X142131878Y-99983011D01*
X142029042Y-100500000D01*
X142131878Y-101016989D01*
X142424728Y-101455272D01*
X142755001Y-101675952D01*
X142755001Y-102718440D01*
X142742756Y-102780000D01*
X142791263Y-103023862D01*
X142791264Y-103023863D01*
X142929401Y-103230600D01*
X142981588Y-103265470D01*
X143670592Y-103954474D01*
X143670592Y-109400000D01*
X143688055Y-109487791D01*
X143737784Y-109562216D01*
X143812209Y-109611945D01*
X143900000Y-109629408D01*
X150300000Y-109629408D01*
X150387791Y-109611945D01*
X150403136Y-109601692D01*
X150441257Y-109658744D01*
X150505966Y-109701981D01*
X151845000Y-111041016D01*
X151845001Y-113678983D01*
X150460209Y-115063776D01*
X150265270Y-115025000D01*
X149974730Y-115025000D01*
X149544484Y-115110581D01*
X149056585Y-115436585D01*
X148730581Y-115924484D01*
X148616104Y-116500000D01*
X148730581Y-117075516D01*
X149056585Y-117563415D01*
X149544484Y-117889419D01*
X149974730Y-117975000D01*
X150265270Y-117975000D01*
X150695516Y-117889419D01*
X151183415Y-117563415D01*
X151509419Y-117075516D01*
X151623896Y-116500000D01*
X151583341Y-116296115D01*
X153975000Y-116296115D01*
X153975000Y-116703885D01*
X154131047Y-117080616D01*
X154419384Y-117368953D01*
X154796115Y-117525000D01*
X155203885Y-117525000D01*
X155580616Y-117368953D01*
X155868953Y-117080616D01*
X156025000Y-116703885D01*
X156025000Y-116296115D01*
X155868953Y-115919384D01*
X155580616Y-115631047D01*
X155203885Y-115475000D01*
X154796115Y-115475000D01*
X154419384Y-115631047D01*
X154131047Y-115919384D01*
X153975000Y-116296115D01*
X151583341Y-116296115D01*
X151556224Y-116159791D01*
X152941016Y-114775000D01*
X153817654Y-114775000D01*
X153817654Y-114800000D01*
X153846758Y-114946317D01*
X153929641Y-115070359D01*
X154053683Y-115153242D01*
X154200000Y-115182346D01*
X155800000Y-115182346D01*
X155946317Y-115153242D01*
X156070359Y-115070359D01*
X156153242Y-114946317D01*
X156182346Y-114800000D01*
X156182346Y-113200000D01*
X156153242Y-113053683D01*
X156070359Y-112929641D01*
X155946317Y-112846758D01*
X155800000Y-112817654D01*
X154200000Y-112817654D01*
X154053683Y-112846758D01*
X153929641Y-112929641D01*
X153846758Y-113053683D01*
X153817654Y-113200000D01*
X153817654Y-113225000D01*
X153395000Y-113225000D01*
X153395000Y-110796330D01*
X153410183Y-110720000D01*
X153350034Y-110417610D01*
X153221981Y-110225965D01*
X153178744Y-110161256D01*
X153114035Y-110118019D01*
X151792131Y-108796115D01*
X152975000Y-108796115D01*
X152975000Y-109203885D01*
X153131047Y-109580616D01*
X153419384Y-109868953D01*
X153796115Y-110025000D01*
X154203885Y-110025000D01*
X154580616Y-109868953D01*
X154868953Y-109580616D01*
X154970592Y-109335238D01*
X154970592Y-109800000D01*
X154988055Y-109887791D01*
X155037784Y-109962216D01*
X155112209Y-110011945D01*
X155200000Y-110029408D01*
X156800000Y-110029408D01*
X156887791Y-110011945D01*
X156962216Y-109962216D01*
X157011945Y-109887791D01*
X157029408Y-109800000D01*
X157029408Y-108200000D01*
X157011945Y-108112209D01*
X156962216Y-108037784D01*
X156887791Y-107988055D01*
X156800000Y-107970592D01*
X155200000Y-107970592D01*
X155112209Y-107988055D01*
X155037784Y-108037784D01*
X154988055Y-108112209D01*
X154970592Y-108200000D01*
X154970592Y-108664762D01*
X154868953Y-108419384D01*
X154580616Y-108131047D01*
X154203885Y-107975000D01*
X153796115Y-107975000D01*
X153419384Y-108131047D01*
X153131047Y-108419384D01*
X152975000Y-108796115D01*
X151792131Y-108796115D01*
X151775000Y-108778985D01*
X151775000Y-101982346D01*
X152100000Y-101982346D01*
X152246317Y-101953242D01*
X152370359Y-101870359D01*
X152453242Y-101746317D01*
X152482346Y-101600000D01*
X152482346Y-100143620D01*
X152744342Y-100405616D01*
X152763865Y-100434835D01*
X152793083Y-100454358D01*
X152793084Y-100454359D01*
X152802492Y-100460645D01*
X152879637Y-100512192D01*
X152981732Y-100532500D01*
X152981736Y-100532500D01*
X153016199Y-100539355D01*
X153047902Y-100533049D01*
X153036792Y-100588900D01*
X153036792Y-101046100D01*
X153054255Y-101133891D01*
X153054996Y-101135000D01*
X153054255Y-101136109D01*
X153036792Y-101223900D01*
X153036792Y-101681100D01*
X153047902Y-101736951D01*
X153016199Y-101730645D01*
X152981735Y-101737500D01*
X152981732Y-101737500D01*
X152879637Y-101757808D01*
X152763865Y-101835165D01*
X152744341Y-101864385D01*
X152276887Y-102331840D01*
X152247665Y-102351366D01*
X152170308Y-102467138D01*
X152150000Y-102569233D01*
X152150000Y-102569236D01*
X152143145Y-102603700D01*
X152150000Y-102638164D01*
X152150001Y-104265532D01*
X152143145Y-104300000D01*
X152170308Y-104436562D01*
X152170309Y-104436563D01*
X152247666Y-104552335D01*
X152276887Y-104571860D01*
X152345592Y-104640565D01*
X152345592Y-105625000D01*
X152382085Y-105808461D01*
X152486007Y-105963993D01*
X152641539Y-106067915D01*
X152825000Y-106104408D01*
X153575000Y-106104408D01*
X153758461Y-106067915D01*
X153913993Y-105963993D01*
X154017915Y-105808461D01*
X154054408Y-105625000D01*
X154054408Y-104375000D01*
X154017915Y-104191539D01*
X153913993Y-104036007D01*
X153758461Y-103932085D01*
X153575000Y-103895592D01*
X152850000Y-103895592D01*
X152850000Y-102748673D01*
X153036792Y-102561882D01*
X153036792Y-102951100D01*
X153054255Y-103038891D01*
X153103984Y-103113316D01*
X153178409Y-103163045D01*
X153266200Y-103180508D01*
X155806200Y-103180508D01*
X155893991Y-103163045D01*
X155958601Y-103119874D01*
X156287943Y-103449217D01*
X156307466Y-103478436D01*
X156423238Y-103555793D01*
X156525333Y-103576101D01*
X156525337Y-103576101D01*
X156559800Y-103582956D01*
X156594263Y-103576101D01*
X157359217Y-103576101D01*
X157282085Y-103691539D01*
X157245592Y-103875000D01*
X157245592Y-104650000D01*
X156854408Y-104650000D01*
X156854408Y-104375000D01*
X156817915Y-104191539D01*
X156713993Y-104036007D01*
X156558461Y-103932085D01*
X156375000Y-103895592D01*
X155625000Y-103895592D01*
X155441539Y-103932085D01*
X155286007Y-104036007D01*
X155182085Y-104191539D01*
X155145592Y-104375000D01*
X155145592Y-105625000D01*
X155182085Y-105808461D01*
X155286007Y-105963993D01*
X155441539Y-106067915D01*
X155625000Y-106104408D01*
X156375000Y-106104408D01*
X156558461Y-106067915D01*
X156713993Y-105963993D01*
X156817915Y-105808461D01*
X156854408Y-105625000D01*
X156854408Y-105350000D01*
X157309840Y-105350000D01*
X157386007Y-105463993D01*
X157541539Y-105567915D01*
X157725000Y-105604408D01*
X158475000Y-105604408D01*
X158658461Y-105567915D01*
X158813993Y-105463993D01*
X158917915Y-105308461D01*
X158954408Y-105125000D01*
X158954408Y-104731250D01*
X160050000Y-104731250D01*
X160050000Y-105419756D01*
X160084254Y-105502452D01*
X160147548Y-105565746D01*
X160230245Y-105600000D01*
X160668750Y-105600000D01*
X160725000Y-105543750D01*
X160725000Y-104675000D01*
X160106250Y-104675000D01*
X160050000Y-104731250D01*
X158954408Y-104731250D01*
X158954408Y-103875000D01*
X158917915Y-103691539D01*
X158840783Y-103576101D01*
X160051716Y-103576101D01*
X160050000Y-103580244D01*
X160050000Y-104268750D01*
X160106250Y-104325000D01*
X160725000Y-104325000D01*
X160725000Y-104305000D01*
X161024525Y-104305000D01*
X161025000Y-104307388D01*
X161025000Y-108792612D01*
X160953231Y-109153420D01*
X160753035Y-109453035D01*
X160453420Y-109653231D01*
X160092612Y-109725000D01*
X159199106Y-109725000D01*
X159184482Y-109726439D01*
X158802005Y-109802474D01*
X158774982Y-109813661D01*
X158450668Y-110030203D01*
X158429978Y-110050874D01*
X158213146Y-110374994D01*
X158201936Y-110402008D01*
X158125559Y-110784416D01*
X158124106Y-110799038D01*
X158117101Y-118627448D01*
X158097617Y-118725000D01*
X130275000Y-118725000D01*
X130275000Y-115047500D01*
X132270592Y-115047500D01*
X132270592Y-116952500D01*
X132288055Y-117040291D01*
X132337784Y-117114716D01*
X132412209Y-117164445D01*
X132500000Y-117181908D01*
X134500000Y-117181908D01*
X134587791Y-117164445D01*
X134662216Y-117114716D01*
X134711945Y-117040291D01*
X134729408Y-116952500D01*
X134729408Y-115047500D01*
X134711945Y-114959709D01*
X134662216Y-114885284D01*
X134587791Y-114835555D01*
X134500000Y-114818092D01*
X132500000Y-114818092D01*
X132412209Y-114835555D01*
X132337784Y-114885284D01*
X132288055Y-114959709D01*
X132270592Y-115047500D01*
X130275000Y-115047500D01*
X130275000Y-114731250D01*
X136975000Y-114731250D01*
X136975000Y-115344755D01*
X137009254Y-115427452D01*
X137072548Y-115490746D01*
X137155244Y-115525000D01*
X137675404Y-115525000D01*
X137419384Y-115631047D01*
X137131047Y-115919384D01*
X136975000Y-116296115D01*
X136975000Y-116703885D01*
X137131047Y-117080616D01*
X137419384Y-117368953D01*
X137796115Y-117525000D01*
X138203885Y-117525000D01*
X138580616Y-117368953D01*
X138868953Y-117080616D01*
X139025000Y-116703885D01*
X139025000Y-116296115D01*
X138868953Y-115919384D01*
X138580616Y-115631047D01*
X138324596Y-115525000D01*
X138844756Y-115525000D01*
X138927452Y-115490746D01*
X138990746Y-115427452D01*
X139002116Y-115400000D01*
X141170592Y-115400000D01*
X141170592Y-117600000D01*
X141188055Y-117687791D01*
X141237784Y-117762216D01*
X141312209Y-117811945D01*
X141400000Y-117829408D01*
X143600000Y-117829408D01*
X143687791Y-117811945D01*
X143762216Y-117762216D01*
X143811945Y-117687791D01*
X143829408Y-117600000D01*
X143829408Y-115400000D01*
X143811945Y-115312209D01*
X143762216Y-115237784D01*
X143687791Y-115188055D01*
X143600000Y-115170592D01*
X141400000Y-115170592D01*
X141312209Y-115188055D01*
X141237784Y-115237784D01*
X141188055Y-115312209D01*
X141170592Y-115400000D01*
X139002116Y-115400000D01*
X139025000Y-115344755D01*
X139025000Y-114731250D01*
X138968750Y-114675000D01*
X138175000Y-114675000D01*
X138175000Y-114695000D01*
X137825000Y-114695000D01*
X137825000Y-114675000D01*
X137031250Y-114675000D01*
X136975000Y-114731250D01*
X130275000Y-114731250D01*
X130275000Y-113815001D01*
X132329789Y-113815001D01*
X132432626Y-114043382D01*
X132733510Y-114389264D01*
X133143854Y-114593674D01*
X133325000Y-114571749D01*
X133325000Y-113635000D01*
X133675000Y-113635000D01*
X133675000Y-114571749D01*
X133856146Y-114593674D01*
X134266490Y-114389264D01*
X134567374Y-114043382D01*
X134670211Y-113815001D01*
X134656719Y-113655245D01*
X136975000Y-113655245D01*
X136975000Y-114268750D01*
X137031250Y-114325000D01*
X137825000Y-114325000D01*
X137825000Y-113531250D01*
X138175000Y-113531250D01*
X138175000Y-114325000D01*
X138968750Y-114325000D01*
X139025000Y-114268750D01*
X139025000Y-113655245D01*
X138990746Y-113572548D01*
X138927452Y-113509254D01*
X138844756Y-113475000D01*
X138231250Y-113475000D01*
X138175000Y-113531250D01*
X137825000Y-113531250D01*
X137768750Y-113475000D01*
X137155244Y-113475000D01*
X137072548Y-113509254D01*
X137009254Y-113572548D01*
X136975000Y-113655245D01*
X134656719Y-113655245D01*
X134655009Y-113635000D01*
X133675000Y-113635000D01*
X133325000Y-113635000D01*
X132344991Y-113635000D01*
X132329789Y-113815001D01*
X130275000Y-113815001D01*
X130275000Y-113104999D01*
X132329789Y-113104999D01*
X132344991Y-113285000D01*
X133325000Y-113285000D01*
X133325000Y-112348251D01*
X133675000Y-112348251D01*
X133675000Y-113285000D01*
X134655009Y-113285000D01*
X134670211Y-113104999D01*
X134567374Y-112876618D01*
X134266490Y-112530736D01*
X133856146Y-112326326D01*
X133675000Y-112348251D01*
X133325000Y-112348251D01*
X133143854Y-112326326D01*
X132733510Y-112530736D01*
X132432626Y-112876618D01*
X132329789Y-113104999D01*
X130275000Y-113104999D01*
X130275000Y-110920000D01*
X132251932Y-110920000D01*
X132343320Y-111379437D01*
X132603570Y-111768930D01*
X132993063Y-112029180D01*
X133336530Y-112097500D01*
X133663470Y-112097500D01*
X134006937Y-112029180D01*
X134396430Y-111768930D01*
X134656680Y-111379437D01*
X134748068Y-110920000D01*
X134744090Y-110900000D01*
X141170592Y-110900000D01*
X141170592Y-113100000D01*
X141188055Y-113187791D01*
X141237784Y-113262216D01*
X141312209Y-113311945D01*
X141400000Y-113329408D01*
X143600000Y-113329408D01*
X143687791Y-113311945D01*
X143762216Y-113262216D01*
X143811945Y-113187791D01*
X143829408Y-113100000D01*
X143829408Y-112000000D01*
X148769042Y-112000000D01*
X148871878Y-112516989D01*
X149164728Y-112955272D01*
X149603011Y-113248122D01*
X149989501Y-113325000D01*
X150250499Y-113325000D01*
X150636989Y-113248122D01*
X151075272Y-112955272D01*
X151368122Y-112516989D01*
X151470958Y-112000000D01*
X151368122Y-111483011D01*
X151075272Y-111044728D01*
X150636989Y-110751878D01*
X150250499Y-110675000D01*
X149989501Y-110675000D01*
X149603011Y-110751878D01*
X149164728Y-111044728D01*
X148871878Y-111483011D01*
X148769042Y-112000000D01*
X143829408Y-112000000D01*
X143829408Y-110900000D01*
X143811945Y-110812209D01*
X143762216Y-110737784D01*
X143687791Y-110688055D01*
X143600000Y-110670592D01*
X141400000Y-110670592D01*
X141312209Y-110688055D01*
X141237784Y-110737784D01*
X141188055Y-110812209D01*
X141170592Y-110900000D01*
X134744090Y-110900000D01*
X134656680Y-110460563D01*
X134396430Y-110071070D01*
X134006937Y-109810820D01*
X133663470Y-109742500D01*
X133336530Y-109742500D01*
X132993063Y-109810820D01*
X132603570Y-110071070D01*
X132343320Y-110460563D01*
X132251932Y-110920000D01*
X130275000Y-110920000D01*
X130275000Y-107391437D01*
X134608000Y-107391437D01*
X134608000Y-108356163D01*
X134977184Y-109247452D01*
X135659348Y-109929616D01*
X136550637Y-110298800D01*
X137515363Y-110298800D01*
X138406652Y-109929616D01*
X139088816Y-109247452D01*
X139458000Y-108356163D01*
X139458000Y-108223800D01*
X139470592Y-108223800D01*
X139470592Y-109380000D01*
X139488055Y-109467791D01*
X139537784Y-109542216D01*
X139612209Y-109591945D01*
X139700000Y-109609408D01*
X141900000Y-109609408D01*
X141987791Y-109591945D01*
X142062216Y-109542216D01*
X142111945Y-109467791D01*
X142129408Y-109380000D01*
X142129408Y-108180000D01*
X142111945Y-108092209D01*
X142062216Y-108017784D01*
X141987791Y-107968055D01*
X141900000Y-107950592D01*
X141152759Y-107950592D01*
X141156855Y-107930000D01*
X141150000Y-107895536D01*
X141150000Y-107895532D01*
X141129692Y-107793437D01*
X141052335Y-107677665D01*
X141023113Y-107658139D01*
X141015661Y-107650688D01*
X140996135Y-107621465D01*
X140880363Y-107544108D01*
X140778268Y-107523800D01*
X140778264Y-107523800D01*
X140743800Y-107516945D01*
X140709336Y-107523800D01*
X139458000Y-107523800D01*
X139458000Y-107391437D01*
X139088816Y-106500148D01*
X138406652Y-105817984D01*
X137515363Y-105448800D01*
X136550637Y-105448800D01*
X135659348Y-105817984D01*
X134977184Y-106500148D01*
X134608000Y-107391437D01*
X130275000Y-107391437D01*
X130275000Y-103150000D01*
X131420592Y-103150000D01*
X131420592Y-104850000D01*
X131438055Y-104937791D01*
X131487784Y-105012216D01*
X131562209Y-105061945D01*
X131650000Y-105079408D01*
X133350000Y-105079408D01*
X133437791Y-105061945D01*
X133512216Y-105012216D01*
X133561945Y-104937791D01*
X133579408Y-104850000D01*
X133579408Y-104000000D01*
X133943940Y-104000000D01*
X134027373Y-104419444D01*
X134264969Y-104775031D01*
X134620556Y-105012627D01*
X134934125Y-105075000D01*
X135145875Y-105075000D01*
X135459444Y-105012627D01*
X135815031Y-104775031D01*
X136052627Y-104419444D01*
X136136060Y-104000000D01*
X136060473Y-103620000D01*
X139470592Y-103620000D01*
X139470592Y-104820000D01*
X139488055Y-104907791D01*
X139537784Y-104982216D01*
X139612209Y-105031945D01*
X139700000Y-105049408D01*
X141900000Y-105049408D01*
X141987791Y-105031945D01*
X142062216Y-104982216D01*
X142111945Y-104907791D01*
X142129408Y-104820000D01*
X142129408Y-103620000D01*
X142111945Y-103532209D01*
X142062216Y-103457784D01*
X141987791Y-103408055D01*
X141900000Y-103390592D01*
X141356128Y-103390592D01*
X141425000Y-103224320D01*
X141425000Y-102975680D01*
X141329849Y-102745966D01*
X141154034Y-102570151D01*
X140924320Y-102475000D01*
X140675680Y-102475000D01*
X140445966Y-102570151D01*
X140270151Y-102745966D01*
X140175000Y-102975680D01*
X140175000Y-103224320D01*
X140243872Y-103390592D01*
X139700000Y-103390592D01*
X139612209Y-103408055D01*
X139537784Y-103457784D01*
X139488055Y-103532209D01*
X139470592Y-103620000D01*
X136060473Y-103620000D01*
X136052627Y-103580556D01*
X135815031Y-103224969D01*
X135459444Y-102987373D01*
X135145875Y-102925000D01*
X134934125Y-102925000D01*
X134620556Y-102987373D01*
X134264969Y-103224969D01*
X134027373Y-103580556D01*
X133943940Y-104000000D01*
X133579408Y-104000000D01*
X133579408Y-103150000D01*
X133561945Y-103062209D01*
X133512216Y-102987784D01*
X133437791Y-102938055D01*
X133350000Y-102920592D01*
X131650000Y-102920592D01*
X131562209Y-102938055D01*
X131487784Y-102987784D01*
X131438055Y-103062209D01*
X131420592Y-103150000D01*
X130275000Y-103150000D01*
X130275000Y-101460000D01*
X131403940Y-101460000D01*
X131487373Y-101879444D01*
X131724969Y-102235031D01*
X132080556Y-102472627D01*
X132394125Y-102535000D01*
X132605875Y-102535000D01*
X132919444Y-102472627D01*
X133275031Y-102235031D01*
X133512627Y-101879444D01*
X133596060Y-101460000D01*
X133512627Y-101040556D01*
X133275031Y-100684969D01*
X132919444Y-100447373D01*
X132605875Y-100385000D01*
X132394125Y-100385000D01*
X132080556Y-100447373D01*
X131724969Y-100684969D01*
X131487373Y-101040556D01*
X131403940Y-101460000D01*
X130275000Y-101460000D01*
X130275000Y-94275000D01*
X159412492Y-94275000D01*
X159417298Y-97819492D01*
G04 #@! TD*
M02*
