M48
;DRILL file {KiCad 5.0.2-bee76a0~70~ubuntu18.04.1} date Wed 13 Mar 2019 05:33:08 PM PDT
;FORMAT={-:-/ absolute / inch / decimal}
FMAT,2
INCH,TZ
T1C0.0157
T2C0.0315
T3C0.0394
T4C0.0433
T5C0.0630
%
G90
G05
T1
X6.3Y-3.35
X6.3Y-3.35
X6.3Y-3.35
X6.3Y-3.35
X6.3Y-3.35
X6.3Y-3.35
X6.3Y-3.35
X6.6Y-3.45
X6.6Y-3.45
X6.6Y-3.45
X6.6Y-3.45
X6.6Y-3.45
X6.6Y-3.45
X6.6Y-3.45
T2
X6.2Y-3.35
X6.2984Y-3.35
X6.05Y-2.8213
X6.05Y-2.9
T3
X6.75Y-2.8
X6.75Y-2.9
X6.75Y-3.
X6.75Y-3.1
X6.85Y-2.8
X6.85Y-2.9
X6.85Y-3.
X6.85Y-3.1
X5.6Y-2.75
X5.7Y-2.75
T4
X5.5Y-2.95
X5.8Y-2.95
X6.6Y-3.45
X6.7Y-3.45
X6.8Y-3.45
T5
X5.5957Y-3.35
T3
X5.7039Y-3.1728G85X5.6449Y-3.1728
G05
X5.7039Y-3.5272G85X5.6449Y-3.5272
G05
X5.7138Y-3.3244G85X5.7138Y-3.3756
G05
X5.95Y-3.3106G85X5.95Y-3.3894
G05
T0
M30
