G04 #@! TF.GenerationSoftware,KiCad,Pcbnew,5.0.2-bee76a0~70~ubuntu18.04.1*
G04 #@! TF.CreationDate,2019-04-03T17:02:00-07:00*
G04 #@! TF.ProjectId,shellbell,7368656c-6c62-4656-9c6c-2e6b69636164,rev?*
G04 #@! TF.SameCoordinates,Original*
G04 #@! TF.FileFunction,Soldermask,Top*
G04 #@! TF.FilePolarity,Negative*
%FSLAX46Y46*%
G04 Gerber Fmt 4.6, Leading zero omitted, Abs format (unit mm)*
G04 Created by KiCad (PCBNEW 5.0.2-bee76a0~70~ubuntu18.04.1) date Wed 03 Apr 2019 05:02:00 PM PDT*
%MOMM*%
%LPD*%
G01*
G04 APERTURE LIST*
%ADD10C,0.600000*%
%ADD11C,0.100000*%
G04 APERTURE END LIST*
D10*
X139200000Y-107600000D02*
G75*
G03X139200000Y-107600000I-2000000J0D01*
G01*
D11*
G36*
X167946034Y-116014470D02*
X168040285Y-116043061D01*
X168134536Y-116071651D01*
X168226969Y-116121058D01*
X168308258Y-116164508D01*
X168460528Y-116289472D01*
X168585492Y-116441742D01*
X168585493Y-116441744D01*
X168678349Y-116615464D01*
X168678349Y-116615465D01*
X168735530Y-116803966D01*
X168754838Y-117000000D01*
X168735530Y-117196034D01*
X168713318Y-117269256D01*
X168678349Y-117384536D01*
X168596113Y-117538388D01*
X168585492Y-117558258D01*
X168460528Y-117710528D01*
X168308258Y-117835492D01*
X168308256Y-117835493D01*
X168134536Y-117928349D01*
X168040285Y-117956939D01*
X167946034Y-117985530D01*
X167799120Y-118000000D01*
X166200880Y-118000000D01*
X166053966Y-117985530D01*
X165959715Y-117956939D01*
X165865464Y-117928349D01*
X165691744Y-117835493D01*
X165691742Y-117835492D01*
X165539472Y-117710528D01*
X165414508Y-117558258D01*
X165403887Y-117538388D01*
X165321651Y-117384536D01*
X165286682Y-117269256D01*
X165264470Y-117196034D01*
X165245162Y-117000000D01*
X165264470Y-116803966D01*
X165321651Y-116615465D01*
X165321651Y-116615464D01*
X165414507Y-116441744D01*
X165414508Y-116441742D01*
X165539472Y-116289472D01*
X165691742Y-116164508D01*
X165773031Y-116121058D01*
X165865464Y-116071651D01*
X165959715Y-116043061D01*
X166053966Y-116014470D01*
X166200880Y-116000000D01*
X167799120Y-116000000D01*
X167946034Y-116014470D01*
X167946034Y-116014470D01*
G37*
G36*
X150335638Y-115415916D02*
X150486153Y-115461575D01*
X150542990Y-115478816D01*
X150665127Y-115544100D01*
X150734084Y-115580958D01*
X150901581Y-115718419D01*
X151039042Y-115885916D01*
X151075900Y-115954873D01*
X151141184Y-116077010D01*
X151158425Y-116133847D01*
X151204084Y-116284362D01*
X151225322Y-116500000D01*
X151204084Y-116715638D01*
X151177289Y-116803967D01*
X151141184Y-116922990D01*
X151125410Y-116952500D01*
X151039042Y-117114084D01*
X150901581Y-117281581D01*
X150734084Y-117419042D01*
X150665127Y-117455900D01*
X150542990Y-117521184D01*
X150486153Y-117538425D01*
X150335638Y-117584084D01*
X150174036Y-117600000D01*
X150065964Y-117600000D01*
X149904362Y-117584084D01*
X149753847Y-117538425D01*
X149697010Y-117521184D01*
X149574873Y-117455900D01*
X149505916Y-117419042D01*
X149338419Y-117281581D01*
X149200958Y-117114084D01*
X149114590Y-116952500D01*
X149098816Y-116922990D01*
X149062711Y-116803967D01*
X149035916Y-116715638D01*
X149014678Y-116500000D01*
X149035916Y-116284362D01*
X149081575Y-116133847D01*
X149098816Y-116077010D01*
X149164100Y-115954873D01*
X149200958Y-115885916D01*
X149338419Y-115718419D01*
X149505916Y-115580958D01*
X149574873Y-115544100D01*
X149697010Y-115478816D01*
X149753847Y-115461575D01*
X149904362Y-115415916D01*
X150065964Y-115400000D01*
X150174036Y-115400000D01*
X150335638Y-115415916D01*
X150335638Y-115415916D01*
G37*
G36*
X143600000Y-117600000D02*
X141400000Y-117600000D01*
X141400000Y-115400000D01*
X143600000Y-115400000D01*
X143600000Y-117600000D01*
X143600000Y-117600000D01*
G37*
G36*
X155233351Y-115730743D02*
X155378942Y-115791049D01*
X155509970Y-115878599D01*
X155621401Y-115990030D01*
X155708951Y-116121058D01*
X155769257Y-116266649D01*
X155800000Y-116421207D01*
X155800000Y-116578793D01*
X155769257Y-116733351D01*
X155708951Y-116878942D01*
X155621401Y-117009970D01*
X155509970Y-117121401D01*
X155378942Y-117208951D01*
X155233351Y-117269257D01*
X155078793Y-117300000D01*
X154921207Y-117300000D01*
X154766649Y-117269257D01*
X154621058Y-117208951D01*
X154490030Y-117121401D01*
X154378599Y-117009970D01*
X154291049Y-116878942D01*
X154230743Y-116733351D01*
X154200000Y-116578793D01*
X154200000Y-116421207D01*
X154230743Y-116266649D01*
X154291049Y-116121058D01*
X154378599Y-115990030D01*
X154490030Y-115878599D01*
X154621058Y-115791049D01*
X154766649Y-115730743D01*
X154921207Y-115700000D01*
X155078793Y-115700000D01*
X155233351Y-115730743D01*
X155233351Y-115730743D01*
G37*
G36*
X138233351Y-115730743D02*
X138378942Y-115791049D01*
X138509970Y-115878599D01*
X138621401Y-115990030D01*
X138708951Y-116121058D01*
X138769257Y-116266649D01*
X138800000Y-116421207D01*
X138800000Y-116578793D01*
X138769257Y-116733351D01*
X138708951Y-116878942D01*
X138621401Y-117009970D01*
X138509970Y-117121401D01*
X138378942Y-117208951D01*
X138233351Y-117269257D01*
X138078793Y-117300000D01*
X137921207Y-117300000D01*
X137766649Y-117269257D01*
X137621058Y-117208951D01*
X137490030Y-117121401D01*
X137378599Y-117009970D01*
X137291049Y-116878942D01*
X137230743Y-116733351D01*
X137200000Y-116578793D01*
X137200000Y-116421207D01*
X137230743Y-116266649D01*
X137291049Y-116121058D01*
X137378599Y-115990030D01*
X137490030Y-115878599D01*
X137621058Y-115791049D01*
X137766649Y-115730743D01*
X137921207Y-115700000D01*
X138078793Y-115700000D01*
X138233351Y-115730743D01*
X138233351Y-115730743D01*
G37*
G36*
X134500000Y-116952500D02*
X132500000Y-116952500D01*
X132500000Y-115047500D01*
X134500000Y-115047500D01*
X134500000Y-116952500D01*
X134500000Y-116952500D01*
G37*
G36*
X138800000Y-115300000D02*
X137200000Y-115300000D01*
X137200000Y-113700000D01*
X138800000Y-113700000D01*
X138800000Y-115300000D01*
X138800000Y-115300000D01*
G37*
G36*
X155800000Y-114800000D02*
X154200000Y-114800000D01*
X154200000Y-113200000D01*
X155800000Y-113200000D01*
X155800000Y-114800000D01*
X155800000Y-114800000D01*
G37*
G36*
X161000000Y-114500000D02*
X159000000Y-114500000D01*
X159000000Y-110500000D01*
X161000000Y-110500000D01*
X161000000Y-114500000D01*
X161000000Y-114500000D01*
G37*
G36*
X133734223Y-112521283D02*
X133823996Y-112548516D01*
X133913771Y-112575748D01*
X134019531Y-112632278D01*
X134079241Y-112664194D01*
X134224278Y-112783222D01*
X134343306Y-112928259D01*
X134375222Y-112987969D01*
X134431752Y-113093729D01*
X134433654Y-113100000D01*
X134486217Y-113273277D01*
X134504608Y-113460000D01*
X134486217Y-113646723D01*
X134467551Y-113708256D01*
X134431752Y-113826271D01*
X134375222Y-113932031D01*
X134343306Y-113991741D01*
X134224278Y-114136778D01*
X134079241Y-114255806D01*
X134019531Y-114287722D01*
X133913771Y-114344252D01*
X133823996Y-114371485D01*
X133734223Y-114398717D01*
X133594285Y-114412500D01*
X133405715Y-114412500D01*
X133265777Y-114398717D01*
X133176004Y-114371485D01*
X133086229Y-114344252D01*
X132980469Y-114287722D01*
X132920759Y-114255806D01*
X132775722Y-114136778D01*
X132656694Y-113991741D01*
X132624778Y-113932031D01*
X132568248Y-113826271D01*
X132532449Y-113708256D01*
X132513783Y-113646723D01*
X132495392Y-113460000D01*
X132513783Y-113273277D01*
X132566346Y-113100000D01*
X132568248Y-113093729D01*
X132624778Y-112987969D01*
X132656694Y-112928259D01*
X132775722Y-112783222D01*
X132920759Y-112664194D01*
X132980469Y-112632278D01*
X133086229Y-112575748D01*
X133176004Y-112548516D01*
X133265777Y-112521283D01*
X133405715Y-112507500D01*
X133594285Y-112507500D01*
X133734223Y-112521283D01*
X133734223Y-112521283D01*
G37*
G36*
X166196033Y-110864470D02*
X166290283Y-110893060D01*
X166384535Y-110921651D01*
X166491483Y-110978816D01*
X166558258Y-111014508D01*
X166710528Y-111139472D01*
X166835492Y-111291742D01*
X166835493Y-111291744D01*
X166928349Y-111465464D01*
X166956939Y-111559715D01*
X166985530Y-111653966D01*
X167000000Y-111800880D01*
X167000000Y-113199120D01*
X166985530Y-113346034D01*
X166956939Y-113440285D01*
X166928349Y-113534536D01*
X166868384Y-113646721D01*
X166835492Y-113708258D01*
X166710528Y-113860528D01*
X166558258Y-113985492D01*
X166558256Y-113985493D01*
X166384536Y-114078349D01*
X166290284Y-114106940D01*
X166196034Y-114135530D01*
X166000000Y-114154838D01*
X165803967Y-114135530D01*
X165709717Y-114106940D01*
X165615465Y-114078349D01*
X165441745Y-113985493D01*
X165441743Y-113985492D01*
X165289473Y-113860528D01*
X165164509Y-113708258D01*
X165131617Y-113646721D01*
X165071650Y-113534532D01*
X165014470Y-113346038D01*
X165000000Y-113199120D01*
X165000000Y-111800881D01*
X165014470Y-111653968D01*
X165014471Y-111653966D01*
X165071651Y-111465466D01*
X165071651Y-111465465D01*
X165164507Y-111291744D01*
X165164508Y-111291742D01*
X165289472Y-111139472D01*
X165441742Y-111014508D01*
X165508517Y-110978816D01*
X165615464Y-110921651D01*
X165709716Y-110893060D01*
X165803966Y-110864470D01*
X166000000Y-110845162D01*
X166196033Y-110864470D01*
X166196033Y-110864470D01*
G37*
G36*
X169233351Y-111730743D02*
X169378942Y-111791049D01*
X169509970Y-111878599D01*
X169621401Y-111990030D01*
X169708951Y-112121058D01*
X169769257Y-112266649D01*
X169800000Y-112421207D01*
X169800000Y-112578793D01*
X169769257Y-112733351D01*
X169708951Y-112878942D01*
X169621401Y-113009970D01*
X169509970Y-113121401D01*
X169378942Y-113208951D01*
X169233351Y-113269257D01*
X169078793Y-113300000D01*
X168921207Y-113300000D01*
X168766649Y-113269257D01*
X168621058Y-113208951D01*
X168490030Y-113121401D01*
X168378599Y-113009970D01*
X168291049Y-112878942D01*
X168230743Y-112733351D01*
X168200000Y-112578793D01*
X168200000Y-112421207D01*
X168230743Y-112266649D01*
X168291049Y-112121058D01*
X168378599Y-111990030D01*
X168490030Y-111878599D01*
X168621058Y-111791049D01*
X168766649Y-111730743D01*
X168921207Y-111700000D01*
X169078793Y-111700000D01*
X169233351Y-111730743D01*
X169233351Y-111730743D01*
G37*
G36*
X150335638Y-110915916D02*
X150486153Y-110961575D01*
X150542990Y-110978816D01*
X150665127Y-111044100D01*
X150734084Y-111080958D01*
X150901581Y-111218419D01*
X151039042Y-111385916D01*
X151074224Y-111451738D01*
X151141184Y-111577010D01*
X151147180Y-111596777D01*
X151204084Y-111784362D01*
X151225322Y-112000000D01*
X151204084Y-112215638D01*
X151158425Y-112366153D01*
X151141184Y-112422990D01*
X151096012Y-112507500D01*
X151039042Y-112614084D01*
X150901581Y-112781581D01*
X150734084Y-112919042D01*
X150716834Y-112928262D01*
X150542990Y-113021184D01*
X150486153Y-113038425D01*
X150335638Y-113084084D01*
X150174036Y-113100000D01*
X150065964Y-113100000D01*
X149904362Y-113084084D01*
X149753847Y-113038425D01*
X149697010Y-113021184D01*
X149523166Y-112928262D01*
X149505916Y-112919042D01*
X149338419Y-112781581D01*
X149200958Y-112614084D01*
X149143988Y-112507500D01*
X149098816Y-112422990D01*
X149081575Y-112366153D01*
X149035916Y-112215638D01*
X149014678Y-112000000D01*
X149035916Y-111784362D01*
X149092820Y-111596777D01*
X149098816Y-111577010D01*
X149165776Y-111451738D01*
X149200958Y-111385916D01*
X149338419Y-111218419D01*
X149505916Y-111080958D01*
X149574873Y-111044100D01*
X149697010Y-110978816D01*
X149753847Y-110961575D01*
X149904362Y-110915916D01*
X150065964Y-110900000D01*
X150174036Y-110900000D01*
X150335638Y-110915916D01*
X150335638Y-110915916D01*
G37*
G36*
X143600000Y-113100000D02*
X141400000Y-113100000D01*
X141400000Y-110900000D01*
X143600000Y-110900000D01*
X143600000Y-113100000D01*
X143600000Y-113100000D01*
G37*
G36*
X133734223Y-109981283D02*
X133823996Y-110008515D01*
X133913771Y-110035748D01*
X134019531Y-110092278D01*
X134079241Y-110124194D01*
X134224278Y-110243222D01*
X134343306Y-110388259D01*
X134375222Y-110447969D01*
X134431752Y-110553729D01*
X134458984Y-110643504D01*
X134486217Y-110733277D01*
X134504608Y-110920000D01*
X134486217Y-111106723D01*
X134476282Y-111139473D01*
X134431752Y-111286271D01*
X134378490Y-111385916D01*
X134343306Y-111451741D01*
X134224278Y-111596778D01*
X134079241Y-111715806D01*
X134019531Y-111747722D01*
X133913771Y-111804252D01*
X133823996Y-111831484D01*
X133734223Y-111858717D01*
X133594285Y-111872500D01*
X133405715Y-111872500D01*
X133265777Y-111858717D01*
X133176004Y-111831484D01*
X133086229Y-111804252D01*
X132980469Y-111747722D01*
X132920759Y-111715806D01*
X132775722Y-111596778D01*
X132656694Y-111451741D01*
X132621510Y-111385916D01*
X132568248Y-111286271D01*
X132523718Y-111139473D01*
X132513783Y-111106723D01*
X132495392Y-110920000D01*
X132513783Y-110733277D01*
X132541016Y-110643504D01*
X132568248Y-110553729D01*
X132624778Y-110447969D01*
X132656694Y-110388259D01*
X132775722Y-110243222D01*
X132920759Y-110124194D01*
X132980469Y-110092278D01*
X133086229Y-110035748D01*
X133176004Y-110008515D01*
X133265777Y-109981283D01*
X133405715Y-109967500D01*
X133594285Y-109967500D01*
X133734223Y-109981283D01*
X133734223Y-109981283D01*
G37*
G36*
X154233351Y-108230743D02*
X154378942Y-108291049D01*
X154509970Y-108378599D01*
X154621401Y-108490030D01*
X154708951Y-108621058D01*
X154769257Y-108766649D01*
X154800000Y-108921207D01*
X154800000Y-109078793D01*
X154769257Y-109233351D01*
X154708951Y-109378942D01*
X154621401Y-109509970D01*
X154509970Y-109621401D01*
X154378942Y-109708951D01*
X154233351Y-109769257D01*
X154078793Y-109800000D01*
X153921207Y-109800000D01*
X153766649Y-109769257D01*
X153621058Y-109708951D01*
X153490030Y-109621401D01*
X153378599Y-109509970D01*
X153291049Y-109378942D01*
X153230743Y-109233351D01*
X153200000Y-109078793D01*
X153200000Y-108921207D01*
X153230743Y-108766649D01*
X153291049Y-108621058D01*
X153378599Y-108490030D01*
X153490030Y-108378599D01*
X153621058Y-108291049D01*
X153766649Y-108230743D01*
X153921207Y-108200000D01*
X154078793Y-108200000D01*
X154233351Y-108230743D01*
X154233351Y-108230743D01*
G37*
G36*
X156800000Y-109800000D02*
X155200000Y-109800000D01*
X155200000Y-108200000D01*
X156800000Y-108200000D01*
X156800000Y-109800000D01*
X156800000Y-109800000D01*
G37*
G36*
X150300000Y-109400000D02*
X143900000Y-109400000D01*
X143900000Y-103600000D01*
X150300000Y-103600000D01*
X150300000Y-109400000D01*
X150300000Y-109400000D01*
G37*
G36*
X141900000Y-109380000D02*
X139700000Y-109380000D01*
X139700000Y-108180000D01*
X141900000Y-108180000D01*
X141900000Y-109380000D01*
X141900000Y-109380000D01*
G37*
G36*
X167946034Y-107014470D02*
X168040284Y-107043060D01*
X168134536Y-107071651D01*
X168288388Y-107153887D01*
X168308258Y-107164508D01*
X168460528Y-107289472D01*
X168585492Y-107441742D01*
X168585493Y-107441744D01*
X168678349Y-107615464D01*
X168735530Y-107803967D01*
X168754838Y-108000000D01*
X168735530Y-108196033D01*
X168678349Y-108384536D01*
X168621961Y-108490030D01*
X168585492Y-108558258D01*
X168460528Y-108710528D01*
X168308258Y-108835492D01*
X168308256Y-108835493D01*
X168134536Y-108928349D01*
X168040285Y-108956939D01*
X167946034Y-108985530D01*
X167799120Y-109000000D01*
X166200880Y-109000000D01*
X166053966Y-108985530D01*
X165959715Y-108956939D01*
X165865464Y-108928349D01*
X165691744Y-108835493D01*
X165691742Y-108835492D01*
X165539472Y-108710528D01*
X165414508Y-108558258D01*
X165378039Y-108490030D01*
X165321651Y-108384536D01*
X165264470Y-108196033D01*
X165245162Y-108000000D01*
X165264470Y-107803967D01*
X165321651Y-107615464D01*
X165414507Y-107441744D01*
X165414508Y-107441742D01*
X165539472Y-107289472D01*
X165691742Y-107164508D01*
X165711612Y-107153887D01*
X165865464Y-107071651D01*
X165959716Y-107043060D01*
X166053966Y-107014470D01*
X166200880Y-107000000D01*
X167799120Y-107000000D01*
X167946034Y-107014470D01*
X167946034Y-107014470D01*
G37*
G36*
X170200000Y-105950000D02*
X168500000Y-105950000D01*
X168500000Y-103950000D01*
X170200000Y-103950000D01*
X170200000Y-105950000D01*
X170200000Y-105950000D01*
G37*
G36*
X164750000Y-105950000D02*
X163050000Y-105950000D01*
X163050000Y-103950000D01*
X164750000Y-103950000D01*
X164750000Y-105950000D01*
X164750000Y-105950000D01*
G37*
G36*
X156459924Y-104129295D02*
X156498309Y-104140939D01*
X156533692Y-104159852D01*
X156564700Y-104185300D01*
X156590148Y-104216308D01*
X156609061Y-104251691D01*
X156620705Y-104290076D01*
X156625000Y-104333686D01*
X156625000Y-105666314D01*
X156620705Y-105709924D01*
X156609061Y-105748309D01*
X156590148Y-105783692D01*
X156564700Y-105814700D01*
X156533692Y-105840148D01*
X156498309Y-105859061D01*
X156459924Y-105870705D01*
X156416314Y-105875000D01*
X155583686Y-105875000D01*
X155540076Y-105870705D01*
X155501691Y-105859061D01*
X155466308Y-105840148D01*
X155435300Y-105814700D01*
X155409852Y-105783692D01*
X155390939Y-105748309D01*
X155379295Y-105709924D01*
X155375000Y-105666314D01*
X155375000Y-104333686D01*
X155379295Y-104290076D01*
X155390939Y-104251691D01*
X155409852Y-104216308D01*
X155435300Y-104185300D01*
X155466308Y-104159852D01*
X155501691Y-104140939D01*
X155540076Y-104129295D01*
X155583686Y-104125000D01*
X156416314Y-104125000D01*
X156459924Y-104129295D01*
X156459924Y-104129295D01*
G37*
G36*
X153659924Y-104129295D02*
X153698309Y-104140939D01*
X153733692Y-104159852D01*
X153764700Y-104185300D01*
X153790148Y-104216308D01*
X153809061Y-104251691D01*
X153820705Y-104290076D01*
X153825000Y-104333686D01*
X153825000Y-105666314D01*
X153820705Y-105709924D01*
X153809061Y-105748309D01*
X153790148Y-105783692D01*
X153764700Y-105814700D01*
X153733692Y-105840148D01*
X153698309Y-105859061D01*
X153659924Y-105870705D01*
X153616314Y-105875000D01*
X152783686Y-105875000D01*
X152740076Y-105870705D01*
X152701691Y-105859061D01*
X152666308Y-105840148D01*
X152635300Y-105814700D01*
X152609852Y-105783692D01*
X152590939Y-105748309D01*
X152579295Y-105709924D01*
X152575000Y-105666314D01*
X152575000Y-104333686D01*
X152579295Y-104290076D01*
X152590939Y-104251691D01*
X152609852Y-104216308D01*
X152635300Y-104185300D01*
X152666308Y-104159852D01*
X152701691Y-104140939D01*
X152740076Y-104129295D01*
X152783686Y-104125000D01*
X153616314Y-104125000D01*
X153659924Y-104129295D01*
X153659924Y-104129295D01*
G37*
G36*
X158559924Y-103629295D02*
X158598309Y-103640939D01*
X158633692Y-103659852D01*
X158664700Y-103685300D01*
X158690148Y-103716308D01*
X158709061Y-103751691D01*
X158720705Y-103790076D01*
X158725000Y-103833686D01*
X158725000Y-105166314D01*
X158720705Y-105209924D01*
X158709061Y-105248309D01*
X158690148Y-105283692D01*
X158664700Y-105314700D01*
X158633692Y-105340148D01*
X158598309Y-105359061D01*
X158559924Y-105370705D01*
X158516314Y-105375000D01*
X157683686Y-105375000D01*
X157640076Y-105370705D01*
X157601691Y-105359061D01*
X157566308Y-105340148D01*
X157535300Y-105314700D01*
X157509852Y-105283692D01*
X157490939Y-105248309D01*
X157479295Y-105209924D01*
X157475000Y-105166314D01*
X157475000Y-103833686D01*
X157479295Y-103790076D01*
X157490939Y-103751691D01*
X157509852Y-103716308D01*
X157535300Y-103685300D01*
X157566308Y-103659852D01*
X157601691Y-103640939D01*
X157640076Y-103629295D01*
X157683686Y-103625000D01*
X158516314Y-103625000D01*
X158559924Y-103629295D01*
X158559924Y-103629295D01*
G37*
G36*
X161359924Y-103629295D02*
X161398309Y-103640939D01*
X161433692Y-103659852D01*
X161464700Y-103685300D01*
X161490148Y-103716308D01*
X161509061Y-103751691D01*
X161520705Y-103790076D01*
X161525000Y-103833686D01*
X161525000Y-105166314D01*
X161520705Y-105209924D01*
X161509061Y-105248309D01*
X161490148Y-105283692D01*
X161464700Y-105314700D01*
X161433692Y-105340148D01*
X161398309Y-105359061D01*
X161359924Y-105370705D01*
X161316314Y-105375000D01*
X160483686Y-105375000D01*
X160440076Y-105370705D01*
X160401691Y-105359061D01*
X160366308Y-105340148D01*
X160335300Y-105314700D01*
X160309852Y-105283692D01*
X160290939Y-105248309D01*
X160279295Y-105209924D01*
X160275000Y-105166314D01*
X160275000Y-103833686D01*
X160279295Y-103790076D01*
X160290939Y-103751691D01*
X160309852Y-103716308D01*
X160335300Y-103685300D01*
X160366308Y-103659852D01*
X160401691Y-103640939D01*
X160440076Y-103629295D01*
X160483686Y-103625000D01*
X161316314Y-103625000D01*
X161359924Y-103629295D01*
X161359924Y-103629295D01*
G37*
G36*
X133350000Y-104850000D02*
X131650000Y-104850000D01*
X131650000Y-103150000D01*
X133350000Y-103150000D01*
X133350000Y-104850000D01*
X133350000Y-104850000D01*
G37*
G36*
X135206629Y-103162300D02*
X135366855Y-103210903D01*
X135514519Y-103289832D01*
X135643948Y-103396052D01*
X135750168Y-103525481D01*
X135829097Y-103673145D01*
X135877700Y-103833371D01*
X135894112Y-104000000D01*
X135877700Y-104166629D01*
X135829097Y-104326855D01*
X135750168Y-104474519D01*
X135643948Y-104603948D01*
X135514519Y-104710168D01*
X135366855Y-104789097D01*
X135206629Y-104837700D01*
X135081749Y-104850000D01*
X134998251Y-104850000D01*
X134873371Y-104837700D01*
X134713145Y-104789097D01*
X134565481Y-104710168D01*
X134436052Y-104603948D01*
X134329832Y-104474519D01*
X134250903Y-104326855D01*
X134202300Y-104166629D01*
X134185888Y-104000000D01*
X134202300Y-103833371D01*
X134250903Y-103673145D01*
X134329832Y-103525481D01*
X134436052Y-103396052D01*
X134565481Y-103289832D01*
X134713145Y-103210903D01*
X134873371Y-103162300D01*
X134998251Y-103150000D01*
X135081749Y-103150000D01*
X135206629Y-103162300D01*
X135206629Y-103162300D01*
G37*
G36*
X141900000Y-104820000D02*
X139700000Y-104820000D01*
X139700000Y-103620000D01*
X141900000Y-103620000D01*
X141900000Y-104820000D01*
X141900000Y-104820000D01*
G37*
G36*
X166645845Y-102219215D02*
X166736839Y-102256906D01*
X166818731Y-102311624D01*
X166888376Y-102381269D01*
X166943094Y-102463161D01*
X166980785Y-102554155D01*
X167000000Y-102650755D01*
X167000000Y-102749245D01*
X166980785Y-102845845D01*
X166943094Y-102936839D01*
X166888376Y-103018731D01*
X166818731Y-103088376D01*
X166736839Y-103143094D01*
X166645845Y-103180785D01*
X166549246Y-103200000D01*
X166450754Y-103200000D01*
X166354155Y-103180785D01*
X166263161Y-103143094D01*
X166181269Y-103088376D01*
X166111624Y-103018731D01*
X166056906Y-102936839D01*
X166019215Y-102845845D01*
X166000000Y-102749245D01*
X166000000Y-102650755D01*
X166019215Y-102554155D01*
X166056906Y-102463161D01*
X166111624Y-102381269D01*
X166181269Y-102311624D01*
X166263161Y-102256906D01*
X166354155Y-102219215D01*
X166450754Y-102200000D01*
X166549246Y-102200000D01*
X166645845Y-102219215D01*
X166645845Y-102219215D01*
G37*
G36*
X160733800Y-102951100D02*
X158193800Y-102951100D01*
X158193800Y-102493900D01*
X160733800Y-102493900D01*
X160733800Y-102951100D01*
X160733800Y-102951100D01*
G37*
G36*
X155806200Y-102951100D02*
X153266200Y-102951100D01*
X153266200Y-102493900D01*
X155806200Y-102493900D01*
X155806200Y-102951100D01*
X155806200Y-102951100D01*
G37*
G36*
X164800000Y-102350000D02*
X162800000Y-102350000D01*
X162800000Y-101850000D01*
X164800000Y-101850000D01*
X164800000Y-102350000D01*
X164800000Y-102350000D01*
G37*
G36*
X155806200Y-102316100D02*
X153266200Y-102316100D01*
X153266200Y-101858900D01*
X155806200Y-101858900D01*
X155806200Y-102316100D01*
X155806200Y-102316100D01*
G37*
G36*
X160733800Y-102316100D02*
X158193800Y-102316100D01*
X158193800Y-101858900D01*
X160733800Y-101858900D01*
X160733800Y-102316100D01*
X160733800Y-102316100D01*
G37*
G36*
X132666629Y-100622300D02*
X132826855Y-100670903D01*
X132974519Y-100749832D01*
X133103948Y-100856052D01*
X133210168Y-100985481D01*
X133289097Y-101133145D01*
X133337700Y-101293371D01*
X133354112Y-101460000D01*
X133337700Y-101626629D01*
X133289097Y-101786855D01*
X133210168Y-101934519D01*
X133103948Y-102063948D01*
X132974519Y-102170168D01*
X132826855Y-102249097D01*
X132666629Y-102297700D01*
X132541749Y-102310000D01*
X132458251Y-102310000D01*
X132333371Y-102297700D01*
X132173145Y-102249097D01*
X132025481Y-102170168D01*
X131896052Y-102063948D01*
X131789832Y-101934519D01*
X131710903Y-101786855D01*
X131662300Y-101626629D01*
X131645888Y-101460000D01*
X131662300Y-101293371D01*
X131710903Y-101133145D01*
X131789832Y-100985481D01*
X131896052Y-100856052D01*
X132025481Y-100749832D01*
X132173145Y-100670903D01*
X132333371Y-100622300D01*
X132458251Y-100610000D01*
X132541749Y-100610000D01*
X132666629Y-100622300D01*
X132666629Y-100622300D01*
G37*
G36*
X135206629Y-100622300D02*
X135366855Y-100670903D01*
X135514519Y-100749832D01*
X135643948Y-100856052D01*
X135750168Y-100985481D01*
X135829097Y-101133145D01*
X135877700Y-101293371D01*
X135894112Y-101460000D01*
X135877700Y-101626629D01*
X135829097Y-101786855D01*
X135750168Y-101934519D01*
X135643948Y-102063948D01*
X135514519Y-102170168D01*
X135366855Y-102249097D01*
X135206629Y-102297700D01*
X135081749Y-102310000D01*
X134998251Y-102310000D01*
X134873371Y-102297700D01*
X134713145Y-102249097D01*
X134565481Y-102170168D01*
X134436052Y-102063948D01*
X134329832Y-101934519D01*
X134250903Y-101786855D01*
X134202300Y-101626629D01*
X134185888Y-101460000D01*
X134202300Y-101293371D01*
X134250903Y-101133145D01*
X134329832Y-100985481D01*
X134436052Y-100856052D01*
X134565481Y-100749832D01*
X134713145Y-100670903D01*
X134873371Y-100622300D01*
X134998251Y-100610000D01*
X135081749Y-100610000D01*
X135206629Y-100622300D01*
X135206629Y-100622300D01*
G37*
G36*
X138462417Y-100253898D02*
X138500802Y-100265542D01*
X138536185Y-100284455D01*
X138567193Y-100309903D01*
X138592641Y-100340911D01*
X138611554Y-100376294D01*
X138623198Y-100414679D01*
X138627493Y-100458289D01*
X138627493Y-101790917D01*
X138623198Y-101834527D01*
X138611554Y-101872912D01*
X138592641Y-101908295D01*
X138567193Y-101939303D01*
X138536185Y-101964751D01*
X138500802Y-101983664D01*
X138462417Y-101995308D01*
X138418807Y-101999603D01*
X137586179Y-101999603D01*
X137542569Y-101995308D01*
X137504184Y-101983664D01*
X137468801Y-101964751D01*
X137437793Y-101939303D01*
X137412345Y-101908295D01*
X137393432Y-101872912D01*
X137381788Y-101834527D01*
X137377493Y-101790917D01*
X137377493Y-100458289D01*
X137381788Y-100414679D01*
X137393432Y-100376294D01*
X137412345Y-100340911D01*
X137437793Y-100309903D01*
X137468801Y-100284455D01*
X137504184Y-100265542D01*
X137542569Y-100253898D01*
X137586179Y-100249603D01*
X138418807Y-100249603D01*
X138462417Y-100253898D01*
X138462417Y-100253898D01*
G37*
G36*
X141262417Y-100253898D02*
X141300802Y-100265542D01*
X141336185Y-100284455D01*
X141367193Y-100309903D01*
X141392641Y-100340911D01*
X141411554Y-100376294D01*
X141423198Y-100414679D01*
X141427493Y-100458289D01*
X141427493Y-101790917D01*
X141423198Y-101834527D01*
X141411554Y-101872912D01*
X141392641Y-101908295D01*
X141367193Y-101939303D01*
X141336185Y-101964751D01*
X141300802Y-101983664D01*
X141262417Y-101995308D01*
X141218807Y-101999603D01*
X140386179Y-101999603D01*
X140342569Y-101995308D01*
X140304184Y-101983664D01*
X140268801Y-101964751D01*
X140237793Y-101939303D01*
X140212345Y-101908295D01*
X140193432Y-101872912D01*
X140181788Y-101834527D01*
X140177493Y-101790917D01*
X140177493Y-100458289D01*
X140181788Y-100414679D01*
X140193432Y-100376294D01*
X140212345Y-100340911D01*
X140237793Y-100309903D01*
X140268801Y-100284455D01*
X140304184Y-100265542D01*
X140342569Y-100253898D01*
X140386179Y-100249603D01*
X141218807Y-100249603D01*
X141262417Y-100253898D01*
X141262417Y-100253898D01*
G37*
G36*
X155806200Y-101681100D02*
X153266200Y-101681100D01*
X153266200Y-101223900D01*
X155806200Y-101223900D01*
X155806200Y-101681100D01*
X155806200Y-101681100D01*
G37*
G36*
X160733800Y-101681100D02*
X158193800Y-101681100D01*
X158193800Y-101223900D01*
X160733800Y-101223900D01*
X160733800Y-101681100D01*
X160733800Y-101681100D01*
G37*
G36*
X143595638Y-99415916D02*
X143746153Y-99461575D01*
X143802990Y-99478816D01*
X143887425Y-99523948D01*
X143994084Y-99580958D01*
X144161581Y-99718419D01*
X144299042Y-99885916D01*
X144333295Y-99950000D01*
X144401184Y-100077010D01*
X144418425Y-100133847D01*
X144464084Y-100284362D01*
X144485322Y-100500000D01*
X144464084Y-100715638D01*
X144421489Y-100856052D01*
X144401184Y-100922990D01*
X144335900Y-101045127D01*
X144299042Y-101114084D01*
X144161581Y-101281581D01*
X143994084Y-101419042D01*
X143925127Y-101455900D01*
X143802990Y-101521184D01*
X143746153Y-101538425D01*
X143595638Y-101584084D01*
X143434036Y-101600000D01*
X143325964Y-101600000D01*
X143164362Y-101584084D01*
X143013847Y-101538425D01*
X142957010Y-101521184D01*
X142834873Y-101455900D01*
X142765916Y-101419042D01*
X142598419Y-101281581D01*
X142460958Y-101114084D01*
X142424100Y-101045127D01*
X142358816Y-100922990D01*
X142338511Y-100856052D01*
X142295916Y-100715638D01*
X142274678Y-100500000D01*
X142295916Y-100284362D01*
X142341575Y-100133847D01*
X142358816Y-100077010D01*
X142426705Y-99950000D01*
X142460958Y-99885916D01*
X142598419Y-99718419D01*
X142765916Y-99580958D01*
X142872575Y-99523948D01*
X142957010Y-99478816D01*
X143013847Y-99461575D01*
X143164362Y-99415916D01*
X143325964Y-99400000D01*
X143434036Y-99400000D01*
X143595638Y-99415916D01*
X143595638Y-99415916D01*
G37*
G36*
X152100000Y-101600000D02*
X149900000Y-101600000D01*
X149900000Y-99400000D01*
X152100000Y-99400000D01*
X152100000Y-101600000D01*
X152100000Y-101600000D01*
G37*
G36*
X164800000Y-101550000D02*
X162800000Y-101550000D01*
X162800000Y-101050000D01*
X164800000Y-101050000D01*
X164800000Y-101550000D01*
X164800000Y-101550000D01*
G37*
G36*
X155806200Y-101046100D02*
X153266200Y-101046100D01*
X153266200Y-100588900D01*
X155806200Y-100588900D01*
X155806200Y-101046100D01*
X155806200Y-101046100D01*
G37*
G36*
X160733800Y-101046100D02*
X158193800Y-101046100D01*
X158193800Y-100588900D01*
X160733800Y-100588900D01*
X160733800Y-101046100D01*
X160733800Y-101046100D01*
G37*
G36*
X164800000Y-100750000D02*
X162800000Y-100750000D01*
X162800000Y-100250000D01*
X164800000Y-100250000D01*
X164800000Y-100750000D01*
X164800000Y-100750000D01*
G37*
G36*
X160733800Y-100411100D02*
X158193800Y-100411100D01*
X158193800Y-99953900D01*
X160733800Y-99953900D01*
X160733800Y-100411100D01*
X160733800Y-100411100D01*
G37*
G36*
X155806200Y-100411100D02*
X153266200Y-100411100D01*
X153266200Y-99953900D01*
X155806200Y-99953900D01*
X155806200Y-100411100D01*
X155806200Y-100411100D01*
G37*
G36*
X164800000Y-99950000D02*
X162800000Y-99950000D01*
X162800000Y-99450000D01*
X164800000Y-99450000D01*
X164800000Y-99950000D01*
X164800000Y-99950000D01*
G37*
G36*
X160733800Y-99776100D02*
X158193800Y-99776100D01*
X158193800Y-99318900D01*
X160733800Y-99318900D01*
X160733800Y-99776100D01*
X160733800Y-99776100D01*
G37*
G36*
X155806200Y-99776100D02*
X153266200Y-99776100D01*
X153266200Y-99318900D01*
X155806200Y-99318900D01*
X155806200Y-99776100D01*
X155806200Y-99776100D01*
G37*
G36*
X135206629Y-98082300D02*
X135366855Y-98130903D01*
X135514519Y-98209832D01*
X135643948Y-98316052D01*
X135750168Y-98445481D01*
X135829097Y-98593145D01*
X135877700Y-98753371D01*
X135894112Y-98920000D01*
X135877700Y-99086629D01*
X135829097Y-99246855D01*
X135750168Y-99394519D01*
X135643948Y-99523948D01*
X135514519Y-99630168D01*
X135366855Y-99709097D01*
X135206629Y-99757700D01*
X135081749Y-99770000D01*
X134998251Y-99770000D01*
X134873371Y-99757700D01*
X134713145Y-99709097D01*
X134565481Y-99630168D01*
X134436052Y-99523948D01*
X134329832Y-99394519D01*
X134250903Y-99246855D01*
X134202300Y-99086629D01*
X134185888Y-98920000D01*
X134202300Y-98753371D01*
X134250903Y-98593145D01*
X134329832Y-98445481D01*
X134436052Y-98316052D01*
X134565481Y-98209832D01*
X134713145Y-98130903D01*
X134873371Y-98082300D01*
X134998251Y-98070000D01*
X135081749Y-98070000D01*
X135206629Y-98082300D01*
X135206629Y-98082300D01*
G37*
G36*
X132666629Y-98082300D02*
X132826855Y-98130903D01*
X132974519Y-98209832D01*
X133103948Y-98316052D01*
X133210168Y-98445481D01*
X133289097Y-98593145D01*
X133337700Y-98753371D01*
X133354112Y-98920000D01*
X133337700Y-99086629D01*
X133289097Y-99246855D01*
X133210168Y-99394519D01*
X133103948Y-99523948D01*
X132974519Y-99630168D01*
X132826855Y-99709097D01*
X132666629Y-99757700D01*
X132541749Y-99770000D01*
X132458251Y-99770000D01*
X132333371Y-99757700D01*
X132173145Y-99709097D01*
X132025481Y-99630168D01*
X131896052Y-99523948D01*
X131789832Y-99394519D01*
X131710903Y-99246855D01*
X131662300Y-99086629D01*
X131645888Y-98920000D01*
X131662300Y-98753371D01*
X131710903Y-98593145D01*
X131789832Y-98445481D01*
X131896052Y-98316052D01*
X132025481Y-98209832D01*
X132173145Y-98130903D01*
X132333371Y-98082300D01*
X132458251Y-98070000D01*
X132541749Y-98070000D01*
X132666629Y-98082300D01*
X132666629Y-98082300D01*
G37*
G36*
X138462417Y-97753898D02*
X138500802Y-97765542D01*
X138536185Y-97784455D01*
X138567193Y-97809903D01*
X138592641Y-97840911D01*
X138611554Y-97876294D01*
X138623198Y-97914679D01*
X138627493Y-97958289D01*
X138627493Y-99290917D01*
X138623198Y-99334527D01*
X138611554Y-99372912D01*
X138592641Y-99408295D01*
X138567193Y-99439303D01*
X138536185Y-99464751D01*
X138500802Y-99483664D01*
X138462417Y-99495308D01*
X138418807Y-99499603D01*
X137586179Y-99499603D01*
X137542569Y-99495308D01*
X137504184Y-99483664D01*
X137468801Y-99464751D01*
X137437793Y-99439303D01*
X137412345Y-99408295D01*
X137393432Y-99372912D01*
X137381788Y-99334527D01*
X137377493Y-99290917D01*
X137377493Y-97958289D01*
X137381788Y-97914679D01*
X137393432Y-97876294D01*
X137412345Y-97840911D01*
X137437793Y-97809903D01*
X137468801Y-97784455D01*
X137504184Y-97765542D01*
X137542569Y-97753898D01*
X137586179Y-97749603D01*
X138418807Y-97749603D01*
X138462417Y-97753898D01*
X138462417Y-97753898D01*
G37*
G36*
X141262417Y-97753898D02*
X141300802Y-97765542D01*
X141336185Y-97784455D01*
X141367193Y-97809903D01*
X141392641Y-97840911D01*
X141411554Y-97876294D01*
X141423198Y-97914679D01*
X141427493Y-97958289D01*
X141427493Y-99290917D01*
X141423198Y-99334527D01*
X141411554Y-99372912D01*
X141392641Y-99408295D01*
X141367193Y-99439303D01*
X141336185Y-99464751D01*
X141300802Y-99483664D01*
X141262417Y-99495308D01*
X141218807Y-99499603D01*
X140386179Y-99499603D01*
X140342569Y-99495308D01*
X140304184Y-99483664D01*
X140268801Y-99464751D01*
X140237793Y-99439303D01*
X140212345Y-99408295D01*
X140193432Y-99372912D01*
X140181788Y-99334527D01*
X140177493Y-99290917D01*
X140177493Y-97958289D01*
X140181788Y-97914679D01*
X140193432Y-97876294D01*
X140212345Y-97840911D01*
X140237793Y-97809903D01*
X140268801Y-97784455D01*
X140304184Y-97765542D01*
X140342569Y-97753898D01*
X140386179Y-97749603D01*
X141218807Y-97749603D01*
X141262417Y-97753898D01*
X141262417Y-97753898D01*
G37*
G36*
X164800000Y-99150000D02*
X162800000Y-99150000D01*
X162800000Y-98650000D01*
X164800000Y-98650000D01*
X164800000Y-99150000D01*
X164800000Y-99150000D01*
G37*
G36*
X155806200Y-99141100D02*
X153266200Y-99141100D01*
X153266200Y-98683900D01*
X155806200Y-98683900D01*
X155806200Y-99141100D01*
X155806200Y-99141100D01*
G37*
G36*
X160733800Y-99141100D02*
X158193800Y-99141100D01*
X158193800Y-98683900D01*
X160733800Y-98683900D01*
X160733800Y-99141100D01*
X160733800Y-99141100D01*
G37*
G36*
X166599031Y-97809903D02*
X166645845Y-97819215D01*
X166736839Y-97856906D01*
X166818731Y-97911624D01*
X166888376Y-97981269D01*
X166943094Y-98063161D01*
X166980785Y-98154155D01*
X167000000Y-98250755D01*
X167000000Y-98349245D01*
X166980785Y-98445845D01*
X166943094Y-98536839D01*
X166888376Y-98618731D01*
X166818731Y-98688376D01*
X166736839Y-98743094D01*
X166645845Y-98780785D01*
X166549246Y-98800000D01*
X166450754Y-98800000D01*
X166354155Y-98780785D01*
X166263161Y-98743094D01*
X166181269Y-98688376D01*
X166111624Y-98618731D01*
X166056906Y-98536839D01*
X166019215Y-98445845D01*
X166000000Y-98349245D01*
X166000000Y-98250755D01*
X166019215Y-98154155D01*
X166056906Y-98063161D01*
X166111624Y-97981269D01*
X166181269Y-97911624D01*
X166263161Y-97856906D01*
X166354155Y-97819215D01*
X166400969Y-97809903D01*
X166450754Y-97800000D01*
X166549246Y-97800000D01*
X166599031Y-97809903D01*
X166599031Y-97809903D01*
G37*
G36*
X160733800Y-98506100D02*
X158193800Y-98506100D01*
X158193800Y-98048900D01*
X160733800Y-98048900D01*
X160733800Y-98506100D01*
X160733800Y-98506100D01*
G37*
G36*
X155806200Y-98506100D02*
X153266200Y-98506100D01*
X153266200Y-98048900D01*
X155806200Y-98048900D01*
X155806200Y-98506100D01*
X155806200Y-98506100D01*
G37*
G36*
X158559924Y-95629295D02*
X158598309Y-95640939D01*
X158633692Y-95659852D01*
X158664700Y-95685300D01*
X158690148Y-95716308D01*
X158709061Y-95751691D01*
X158720705Y-95790076D01*
X158725000Y-95833686D01*
X158725000Y-97166314D01*
X158720705Y-97209924D01*
X158709061Y-97248309D01*
X158690148Y-97283692D01*
X158664700Y-97314700D01*
X158633692Y-97340148D01*
X158598309Y-97359061D01*
X158559924Y-97370705D01*
X158516314Y-97375000D01*
X157683686Y-97375000D01*
X157640076Y-97370705D01*
X157601691Y-97359061D01*
X157566308Y-97340148D01*
X157535300Y-97314700D01*
X157509852Y-97283692D01*
X157490939Y-97248309D01*
X157479295Y-97209924D01*
X157475000Y-97166314D01*
X157475000Y-95833686D01*
X157479295Y-95790076D01*
X157490939Y-95751691D01*
X157509852Y-95716308D01*
X157535300Y-95685300D01*
X157566308Y-95659852D01*
X157601691Y-95640939D01*
X157640076Y-95629295D01*
X157683686Y-95625000D01*
X158516314Y-95625000D01*
X158559924Y-95629295D01*
X158559924Y-95629295D01*
G37*
G36*
X161359924Y-95629295D02*
X161398309Y-95640939D01*
X161433692Y-95659852D01*
X161464700Y-95685300D01*
X161490148Y-95716308D01*
X161509061Y-95751691D01*
X161520705Y-95790076D01*
X161525000Y-95833686D01*
X161525000Y-97166314D01*
X161520705Y-97209924D01*
X161509061Y-97248309D01*
X161490148Y-97283692D01*
X161464700Y-97314700D01*
X161433692Y-97340148D01*
X161398309Y-97359061D01*
X161359924Y-97370705D01*
X161316314Y-97375000D01*
X160483686Y-97375000D01*
X160440076Y-97370705D01*
X160401691Y-97359061D01*
X160366308Y-97340148D01*
X160335300Y-97314700D01*
X160309852Y-97283692D01*
X160290939Y-97248309D01*
X160279295Y-97209924D01*
X160275000Y-97166314D01*
X160275000Y-95833686D01*
X160279295Y-95790076D01*
X160290939Y-95751691D01*
X160309852Y-95716308D01*
X160335300Y-95685300D01*
X160366308Y-95659852D01*
X160401691Y-95640939D01*
X160440076Y-95629295D01*
X160483686Y-95625000D01*
X161316314Y-95625000D01*
X161359924Y-95629295D01*
X161359924Y-95629295D01*
G37*
G36*
X145626629Y-95662300D02*
X145786855Y-95710903D01*
X145934519Y-95789832D01*
X146063948Y-95896052D01*
X146170168Y-96025481D01*
X146249097Y-96173145D01*
X146297700Y-96333371D01*
X146314112Y-96500000D01*
X146297700Y-96666629D01*
X146249097Y-96826855D01*
X146170168Y-96974519D01*
X146063948Y-97103948D01*
X145934519Y-97210168D01*
X145786855Y-97289097D01*
X145626629Y-97337700D01*
X145501749Y-97350000D01*
X145418251Y-97350000D01*
X145293371Y-97337700D01*
X145133145Y-97289097D01*
X144985481Y-97210168D01*
X144856052Y-97103948D01*
X144749832Y-96974519D01*
X144670903Y-96826855D01*
X144622300Y-96666629D01*
X144605888Y-96500000D01*
X144622300Y-96333371D01*
X144670903Y-96173145D01*
X144749832Y-96025481D01*
X144856052Y-95896052D01*
X144985481Y-95789832D01*
X145133145Y-95710903D01*
X145293371Y-95662300D01*
X145418251Y-95650000D01*
X145501749Y-95650000D01*
X145626629Y-95662300D01*
X145626629Y-95662300D01*
G37*
G36*
X148850000Y-97350000D02*
X147150000Y-97350000D01*
X147150000Y-95650000D01*
X148850000Y-95650000D01*
X148850000Y-97350000D01*
X148850000Y-97350000D01*
G37*
G36*
X135206629Y-95542300D02*
X135366855Y-95590903D01*
X135514519Y-95669832D01*
X135643948Y-95776052D01*
X135750168Y-95905481D01*
X135829097Y-96053145D01*
X135877700Y-96213371D01*
X135894112Y-96380000D01*
X135877700Y-96546629D01*
X135829097Y-96706855D01*
X135750168Y-96854519D01*
X135643948Y-96983948D01*
X135514519Y-97090168D01*
X135366855Y-97169097D01*
X135206629Y-97217700D01*
X135081749Y-97230000D01*
X134998251Y-97230000D01*
X134873371Y-97217700D01*
X134713145Y-97169097D01*
X134565481Y-97090168D01*
X134436052Y-96983948D01*
X134329832Y-96854519D01*
X134250903Y-96706855D01*
X134202300Y-96546629D01*
X134185888Y-96380000D01*
X134202300Y-96213371D01*
X134250903Y-96053145D01*
X134329832Y-95905481D01*
X134436052Y-95776052D01*
X134565481Y-95669832D01*
X134713145Y-95590903D01*
X134873371Y-95542300D01*
X134998251Y-95530000D01*
X135081749Y-95530000D01*
X135206629Y-95542300D01*
X135206629Y-95542300D01*
G37*
G36*
X132666629Y-95542300D02*
X132826855Y-95590903D01*
X132974519Y-95669832D01*
X133103948Y-95776052D01*
X133210168Y-95905481D01*
X133289097Y-96053145D01*
X133337700Y-96213371D01*
X133354112Y-96380000D01*
X133337700Y-96546629D01*
X133289097Y-96706855D01*
X133210168Y-96854519D01*
X133103948Y-96983948D01*
X132974519Y-97090168D01*
X132826855Y-97169097D01*
X132666629Y-97217700D01*
X132541749Y-97230000D01*
X132458251Y-97230000D01*
X132333371Y-97217700D01*
X132173145Y-97169097D01*
X132025481Y-97090168D01*
X131896052Y-96983948D01*
X131789832Y-96854519D01*
X131710903Y-96706855D01*
X131662300Y-96546629D01*
X131645888Y-96380000D01*
X131662300Y-96213371D01*
X131710903Y-96053145D01*
X131789832Y-95905481D01*
X131896052Y-95776052D01*
X132025481Y-95669832D01*
X132173145Y-95590903D01*
X132333371Y-95542300D01*
X132458251Y-95530000D01*
X132541749Y-95530000D01*
X132666629Y-95542300D01*
X132666629Y-95542300D01*
G37*
G36*
X170200000Y-97050000D02*
X168500000Y-97050000D01*
X168500000Y-95050000D01*
X170200000Y-95050000D01*
X170200000Y-97050000D01*
X170200000Y-97050000D01*
G37*
G36*
X164750000Y-97050000D02*
X163050000Y-97050000D01*
X163050000Y-95050000D01*
X164750000Y-95050000D01*
X164750000Y-97050000D01*
X164750000Y-97050000D01*
G37*
G36*
X141262417Y-95253898D02*
X141300802Y-95265542D01*
X141336185Y-95284455D01*
X141367193Y-95309903D01*
X141392641Y-95340911D01*
X141411554Y-95376294D01*
X141423198Y-95414679D01*
X141427493Y-95458289D01*
X141427493Y-96790917D01*
X141423198Y-96834527D01*
X141411554Y-96872912D01*
X141392641Y-96908295D01*
X141367193Y-96939303D01*
X141336185Y-96964751D01*
X141300802Y-96983664D01*
X141262417Y-96995308D01*
X141218807Y-96999603D01*
X140386179Y-96999603D01*
X140342569Y-96995308D01*
X140304184Y-96983664D01*
X140268801Y-96964751D01*
X140237793Y-96939303D01*
X140212345Y-96908295D01*
X140193432Y-96872912D01*
X140181788Y-96834527D01*
X140177493Y-96790917D01*
X140177493Y-95458289D01*
X140181788Y-95414679D01*
X140193432Y-95376294D01*
X140212345Y-95340911D01*
X140237793Y-95309903D01*
X140268801Y-95284455D01*
X140304184Y-95265542D01*
X140342569Y-95253898D01*
X140386179Y-95249603D01*
X141218807Y-95249603D01*
X141262417Y-95253898D01*
X141262417Y-95253898D01*
G37*
G36*
X138462417Y-95253898D02*
X138500802Y-95265542D01*
X138536185Y-95284455D01*
X138567193Y-95309903D01*
X138592641Y-95340911D01*
X138611554Y-95376294D01*
X138623198Y-95414679D01*
X138627493Y-95458289D01*
X138627493Y-96790917D01*
X138623198Y-96834527D01*
X138611554Y-96872912D01*
X138592641Y-96908295D01*
X138567193Y-96939303D01*
X138536185Y-96964751D01*
X138500802Y-96983664D01*
X138462417Y-96995308D01*
X138418807Y-96999603D01*
X137586179Y-96999603D01*
X137542569Y-96995308D01*
X137504184Y-96983664D01*
X137468801Y-96964751D01*
X137437793Y-96939303D01*
X137412345Y-96908295D01*
X137393432Y-96872912D01*
X137381788Y-96834527D01*
X137377493Y-96790917D01*
X137377493Y-95458289D01*
X137381788Y-95414679D01*
X137393432Y-95376294D01*
X137412345Y-95340911D01*
X137437793Y-95309903D01*
X137468801Y-95284455D01*
X137504184Y-95265542D01*
X137542569Y-95253898D01*
X137586179Y-95249603D01*
X138418807Y-95249603D01*
X138462417Y-95253898D01*
X138462417Y-95253898D01*
G37*
G36*
X156459924Y-95129295D02*
X156498309Y-95140939D01*
X156533692Y-95159852D01*
X156564700Y-95185300D01*
X156590148Y-95216308D01*
X156609061Y-95251691D01*
X156620705Y-95290076D01*
X156625000Y-95333686D01*
X156625000Y-96666314D01*
X156620705Y-96709924D01*
X156609061Y-96748309D01*
X156590148Y-96783692D01*
X156564700Y-96814700D01*
X156533692Y-96840148D01*
X156498309Y-96859061D01*
X156459924Y-96870705D01*
X156416314Y-96875000D01*
X155583686Y-96875000D01*
X155540076Y-96870705D01*
X155501691Y-96859061D01*
X155466308Y-96840148D01*
X155435300Y-96814700D01*
X155409852Y-96783692D01*
X155390939Y-96748309D01*
X155379295Y-96709924D01*
X155375000Y-96666314D01*
X155375000Y-95333686D01*
X155379295Y-95290076D01*
X155390939Y-95251691D01*
X155409852Y-95216308D01*
X155435300Y-95185300D01*
X155466308Y-95159852D01*
X155501691Y-95140939D01*
X155540076Y-95129295D01*
X155583686Y-95125000D01*
X156416314Y-95125000D01*
X156459924Y-95129295D01*
X156459924Y-95129295D01*
G37*
G36*
X153659924Y-95129295D02*
X153698309Y-95140939D01*
X153733692Y-95159852D01*
X153764700Y-95185300D01*
X153790148Y-95216308D01*
X153809061Y-95251691D01*
X153820705Y-95290076D01*
X153825000Y-95333686D01*
X153825000Y-96666314D01*
X153820705Y-96709924D01*
X153809061Y-96748309D01*
X153790148Y-96783692D01*
X153764700Y-96814700D01*
X153733692Y-96840148D01*
X153698309Y-96859061D01*
X153659924Y-96870705D01*
X153616314Y-96875000D01*
X152783686Y-96875000D01*
X152740076Y-96870705D01*
X152701691Y-96859061D01*
X152666308Y-96840148D01*
X152635300Y-96814700D01*
X152609852Y-96783692D01*
X152590939Y-96748309D01*
X152579295Y-96709924D01*
X152575000Y-96666314D01*
X152575000Y-95333686D01*
X152579295Y-95290076D01*
X152590939Y-95251691D01*
X152609852Y-95216308D01*
X152635300Y-95185300D01*
X152666308Y-95159852D01*
X152701691Y-95140939D01*
X152740076Y-95129295D01*
X152783686Y-95125000D01*
X153616314Y-95125000D01*
X153659924Y-95129295D01*
X153659924Y-95129295D01*
G37*
M02*
